<?xml version="1.0" encoding="UTF-8" standalone="no"?>
<!DOCTYPE svg PUBLIC "-//W3C//DTD SVG 1.1//EN"
 "http://www.w3.org/Graphics/SVG/1.1/DTD/svg11.dtd">
<!-- Generated by graphviz version 2.43.0 (0)
 -->
<!-- Title: Base Pages: 1 -->
<svg width="3115pt" height="620pt"
 viewBox="0.00 0.00 3115.49 620.00" xmlns="http://www.w3.org/2000/svg" xmlns:xlink="http://www.w3.org/1999/xlink">
<g id="graph0" class="graph" transform="scale(1 1) rotate(0) translate(4 616)">
<title>Base</title>
<polygon fill="white" stroke="transparent" points="-4,4 -4,-616 3111.49,-616 3111.49,4 -4,4"/>
<!-- src/Nat32.mo -->
<g id="node1" class="node">
<title>src/Nat32.mo</title>
<ellipse fill="none" stroke="black" cx="1230.49" cy="-594" rx="71.49" ry="18"/>
<text text-anchor="middle" x="1230.49" y="-590.3" font-family="Times-Roman" font-size="14.00">src/Nat32.mo</text>
</g>
<!-- src/Nat.mo -->
<g id="node2" class="node">
<title>src/Nat.mo</title>
<ellipse fill="none" stroke="black" cx="913.49" cy="-522" rx="59.59" ry="18"/>
<text text-anchor="middle" x="913.49" y="-518.3" font-family="Times-Roman" font-size="14.00">src/Nat.mo</text>
</g>
<!-- src/Nat32.mo&#45;&gt;src/Nat.mo -->
<g id="edge1" class="edge">
<title>src/Nat32.mo&#45;&gt;src/Nat.mo</title>
<path fill="none" stroke="black" d="M1178.5,-581.52C1121.13,-568.85 1029.12,-548.53 970.01,-535.48"/>
<polygon fill="black" stroke="black" points="970.61,-532.03 960.09,-533.29 969.1,-538.86 970.61,-532.03"/>
</g>
<!-- src/Int.mo -->
<g id="node3" class="node">
<title>src/Int.mo</title>
<ellipse fill="none" stroke="black" cx="1514.49" cy="-450" rx="55.79" ry="18"/>
<text text-anchor="middle" x="1514.49" y="-446.3" font-family="Times-Roman" font-size="14.00">src/Int.mo</text>
</g>
<!-- src/Nat.mo&#45;&gt;src/Int.mo -->
<g id="edge2" class="edge">
<title>src/Nat.mo&#45;&gt;src/Int.mo</title>
<path fill="none" stroke="black" d="M968.15,-514.63C1080.09,-501.6 1334.74,-471.94 1452.57,-458.21"/>
<polygon fill="black" stroke="black" points="1453.32,-461.65 1462.85,-457.01 1452.51,-454.7 1453.32,-461.65"/>
</g>
<!-- src/Order.mo -->
<g id="node4" class="node">
<title>src/Order.mo</title>
<ellipse fill="none" stroke="black" cx="1517.49" cy="-18" rx="68.79" ry="18"/>
<text text-anchor="middle" x="1517.49" y="-14.3" font-family="Times-Roman" font-size="14.00">src/Order.mo</text>
</g>
<!-- src/Nat.mo&#45;&gt;src/Order.mo -->
<g id="edge3" class="edge">
<title>src/Nat.mo&#45;&gt;src/Order.mo</title>
<path fill="none" stroke="black" d="M930.67,-504.39C954.45,-479.54 994.49,-430.09 994.49,-379 994.49,-379 994.49,-379 994.49,-161 994.49,-115.85 1005.96,-97.1 1043.49,-72 1106.36,-29.96 1320.87,-20.93 1438.58,-19.21"/>
<polygon fill="black" stroke="black" points="1438.67,-22.71 1448.62,-19.07 1438.58,-15.71 1438.67,-22.71"/>
</g>
<!-- src/Prelude.mo -->
<g id="node5" class="node">
<title>src/Prelude.mo</title>
<ellipse fill="none" stroke="black" cx="2092.49" cy="-18" rx="77.19" ry="18"/>
<text text-anchor="middle" x="2092.49" y="-14.3" font-family="Times-Roman" font-size="14.00">src/Prelude.mo</text>
</g>
<!-- src/Int.mo&#45;&gt;src/Prelude.mo -->
<g id="edge4" class="edge">
<title>src/Int.mo&#45;&gt;src/Prelude.mo</title>
<path fill="none" stroke="black" d="M1465.46,-441.33C1362.56,-423.85 1133.49,-377.06 1133.49,-307 1133.49,-307 1133.49,-307 1133.49,-161 1133.49,-73.1 1772.04,-34.1 2007.03,-22.73"/>
<polygon fill="black" stroke="black" points="2007.42,-26.21 2017.24,-22.24 2007.09,-19.22 2007.42,-26.21"/>
</g>
<!-- src/Hash.mo -->
<g id="node6" class="node">
<title>src/Hash.mo</title>
<ellipse fill="none" stroke="black" cx="2426.49" cy="-378" rx="66.89" ry="18"/>
<text text-anchor="middle" x="2426.49" y="-374.3" font-family="Times-Roman" font-size="14.00">src/Hash.mo</text>
</g>
<!-- src/Int.mo&#45;&gt;src/Hash.mo -->
<g id="edge5" class="edge">
<title>src/Int.mo&#45;&gt;src/Hash.mo</title>
<path fill="none" stroke="black" d="M1568.14,-444.88C1723.67,-432.94 2175.03,-398.3 2353.06,-384.64"/>
<polygon fill="black" stroke="black" points="2353.41,-388.12 2363.11,-383.86 2352.87,-381.14 2353.41,-388.12"/>
</g>
<!-- src/Iter.mo -->
<g id="node7" class="node">
<title>src/Iter.mo</title>
<ellipse fill="none" stroke="black" cx="2341.49" cy="-306" rx="58.49" ry="18"/>
<text text-anchor="middle" x="2341.49" y="-302.3" font-family="Times-Roman" font-size="14.00">src/Iter.mo</text>
</g>
<!-- src/Hash.mo&#45;&gt;src/Iter.mo -->
<g id="edge6" class="edge">
<title>src/Hash.mo&#45;&gt;src/Iter.mo</title>
<path fill="none" stroke="black" d="M2406.78,-360.76C2395.51,-351.49 2381.22,-339.71 2368.88,-329.55"/>
<polygon fill="black" stroke="black" points="2371.05,-326.8 2361.1,-323.15 2366.6,-332.21 2371.05,-326.8"/>
</g>
<!-- src/Array.mo -->
<g id="node8" class="node">
<title>src/Array.mo</title>
<ellipse fill="none" stroke="black" cx="2212.49" cy="-162" rx="66.89" ry="18"/>
<text text-anchor="middle" x="2212.49" y="-158.3" font-family="Times-Roman" font-size="14.00">src/Array.mo</text>
</g>
<!-- src/Iter.mo&#45;&gt;src/Array.mo -->
<g id="edge7" class="edge">
<title>src/Iter.mo&#45;&gt;src/Array.mo</title>
<path fill="none" stroke="black" d="M2326.44,-288.43C2303.84,-263.56 2261,-216.4 2234.77,-187.53"/>
<polygon fill="black" stroke="black" points="2237.16,-184.95 2227.85,-179.9 2231.98,-189.66 2237.16,-184.95"/>
</g>
<!-- src/Buffer.mo -->
<g id="node9" class="node">
<title>src/Buffer.mo</title>
<ellipse fill="none" stroke="black" cx="2369.49" cy="-90" rx="70.69" ry="18"/>
<text text-anchor="middle" x="2369.49" y="-86.3" font-family="Times-Roman" font-size="14.00">src/Buffer.mo</text>
</g>
<!-- src/Iter.mo&#45;&gt;src/Buffer.mo -->
<g id="edge8" class="edge">
<title>src/Iter.mo&#45;&gt;src/Buffer.mo</title>
<path fill="none" stroke="black" d="M2343.74,-287.85C2348.58,-250.83 2360.05,-163.18 2365.91,-118.39"/>
<polygon fill="black" stroke="black" points="2369.41,-118.6 2367.24,-108.23 2362.47,-117.69 2369.41,-118.6"/>
</g>
<!-- src/List.mo -->
<g id="node10" class="node">
<title>src/List.mo</title>
<ellipse fill="none" stroke="black" cx="1901.49" cy="-234" rx="59.59" ry="18"/>
<text text-anchor="middle" x="1901.49" y="-230.3" font-family="Times-Roman" font-size="14.00">src/List.mo</text>
</g>
<!-- src/Iter.mo&#45;&gt;src/List.mo -->
<g id="edge9" class="edge">
<title>src/Iter.mo&#45;&gt;src/List.mo</title>
<path fill="none" stroke="black" d="M2290.59,-296.9C2209.32,-283.97 2050.51,-258.71 1963.01,-244.79"/>
<polygon fill="black" stroke="black" points="1963.38,-241.3 1952.96,-243.19 1962.28,-248.22 1963.38,-241.3"/>
</g>
<!-- src/Array.mo&#45;&gt;src/Buffer.mo -->
<g id="edge10" class="edge">
<title>src/Array.mo&#45;&gt;src/Buffer.mo</title>
<path fill="none" stroke="black" d="M2245.79,-146.15C2269.33,-135.66 2301.11,-121.49 2326.56,-110.14"/>
<polygon fill="black" stroke="black" points="2328.27,-113.21 2335.98,-105.94 2325.42,-106.82 2328.27,-113.21"/>
</g>
<!-- src/IterType.mo -->
<g id="node11" class="node">
<title>src/IterType.mo</title>
<ellipse fill="none" stroke="black" cx="2200.49" cy="-90" rx="79.89" ry="18"/>
<text text-anchor="middle" x="2200.49" y="-86.3" font-family="Times-Roman" font-size="14.00">src/IterType.mo</text>
</g>
<!-- src/Array.mo&#45;&gt;src/IterType.mo -->
<g id="edge11" class="edge">
<title>src/Array.mo&#45;&gt;src/IterType.mo</title>
<path fill="none" stroke="black" d="M2209.53,-143.7C2208.2,-135.98 2206.62,-126.71 2205.14,-118.11"/>
<polygon fill="black" stroke="black" points="2208.57,-117.37 2203.43,-108.1 2201.67,-118.55 2208.57,-117.37"/>
</g>
<!-- src/Option.mo -->
<g id="node12" class="node">
<title>src/Option.mo</title>
<ellipse fill="none" stroke="black" cx="2532.49" cy="-90" rx="74.19" ry="18"/>
<text text-anchor="middle" x="2532.49" y="-86.3" font-family="Times-Roman" font-size="14.00">src/Option.mo</text>
</g>
<!-- src/Array.mo&#45;&gt;src/Option.mo -->
<g id="edge12" class="edge">
<title>src/Array.mo&#45;&gt;src/Option.mo</title>
<path fill="none" stroke="black" d="M2262.85,-149.99C2318.78,-137.75 2409.17,-117.98 2469.69,-104.74"/>
<polygon fill="black" stroke="black" points="2470.49,-108.15 2479.51,-102.59 2468.99,-101.31 2470.49,-108.15"/>
</g>
<!-- src/Result.mo -->
<g id="node13" class="node">
<title>src/Result.mo</title>
<ellipse fill="none" stroke="black" cx="1926.49" cy="-90" rx="71.49" ry="18"/>
<text text-anchor="middle" x="1926.49" y="-86.3" font-family="Times-Roman" font-size="14.00">src/Result.mo</text>
</g>
<!-- src/Array.mo&#45;&gt;src/Result.mo -->
<g id="edge13" class="edge">
<title>src/Array.mo&#45;&gt;src/Result.mo</title>
<path fill="none" stroke="black" d="M2164.62,-149.28C2115.47,-137.25 2038.89,-118.51 1985.9,-105.54"/>
<polygon fill="black" stroke="black" points="1986.51,-102.09 1975.96,-103.11 1984.84,-108.88 1986.51,-102.09"/>
</g>
<!-- src/List.mo&#45;&gt;src/Order.mo -->
<g id="edge19" class="edge">
<title>src/List.mo&#45;&gt;src/Order.mo</title>
<path fill="none" stroke="black" d="M1874.19,-217.78C1806.51,-180.07 1631,-82.26 1554.29,-39.51"/>
<polygon fill="black" stroke="black" points="1555.88,-36.38 1545.44,-34.57 1552.47,-42.5 1555.88,-36.38"/>
</g>
<!-- src/List.mo&#45;&gt;src/Array.mo -->
<g id="edge17" class="edge">
<title>src/List.mo&#45;&gt;src/Array.mo</title>
<path fill="none" stroke="black" d="M1948.05,-222.52C2002.6,-210.24 2093.07,-189.88 2152.75,-176.45"/>
<polygon fill="black" stroke="black" points="2153.79,-179.8 2162.78,-174.19 2152.26,-172.97 2153.79,-179.8"/>
</g>
<!-- src/List.mo&#45;&gt;src/Option.mo -->
<g id="edge18" class="edge">
<title>src/List.mo&#45;&gt;src/Option.mo</title>
<path fill="none" stroke="black" d="M1958.94,-228.99C2035.15,-222.79 2173.47,-208.51 2288.49,-180 2308.03,-175.16 2419.05,-133.76 2484.41,-109.17"/>
<polygon fill="black" stroke="black" points="2485.97,-112.32 2494.09,-105.52 2483.5,-105.77 2485.97,-112.32"/>
</g>
<!-- src/List.mo&#45;&gt;src/Result.mo -->
<g id="edge20" class="edge">
<title>src/List.mo&#45;&gt;src/Result.mo</title>
<path fill="none" stroke="black" d="M1904.51,-215.87C1908.77,-191.67 1916.6,-147.21 1921.67,-118.39"/>
<polygon fill="black" stroke="black" points="1925.18,-118.64 1923.47,-108.19 1918.29,-117.43 1925.18,-118.64"/>
</g>
<!-- src/Option.mo&#45;&gt;src/Prelude.mo -->
<g id="edge14" class="edge">
<title>src/Option.mo&#45;&gt;src/Prelude.mo</title>
<path fill="none" stroke="black" d="M2478.55,-77.51C2468.89,-75.58 2458.91,-73.66 2449.49,-72 2352.7,-54.91 2240.48,-38.87 2168.08,-29"/>
<polygon fill="black" stroke="black" points="2168.52,-25.53 2158.14,-27.65 2167.58,-32.46 2168.52,-25.53"/>
</g>
<!-- src/Result.mo&#45;&gt;src/Order.mo -->
<g id="edge16" class="edge">
<title>src/Result.mo&#45;&gt;src/Order.mo</title>
<path fill="none" stroke="black" d="M1869.19,-79.19C1794.03,-66.33 1662.44,-43.81 1583.28,-30.26"/>
<polygon fill="black" stroke="black" points="1583.87,-26.81 1573.42,-28.57 1582.69,-33.71 1583.87,-26.81"/>
</g>
<!-- src/Result.mo&#45;&gt;src/Prelude.mo -->
<g id="edge15" class="edge">
<title>src/Result.mo&#45;&gt;src/Prelude.mo</title>
<path fill="none" stroke="black" d="M1961.7,-74.15C1986.73,-63.6 2020.55,-49.34 2047.54,-37.96"/>
<polygon fill="black" stroke="black" points="2048.91,-41.18 2056.77,-34.07 2046.19,-34.73 2048.91,-41.18"/>
</g>
<!-- src/Nat16.mo -->
<g id="node14" class="node">
<title>src/Nat16.mo</title>
<ellipse fill="none" stroke="black" cx="71.49" cy="-594" rx="71.49" ry="18"/>
<text text-anchor="middle" x="71.49" y="-590.3" font-family="Times-Roman" font-size="14.00">src/Nat16.mo</text>
</g>
<!-- src/Nat16.mo&#45;&gt;src/Nat.mo -->
<g id="edge21" class="edge">
<title>src/Nat16.mo&#45;&gt;src/Nat.mo</title>
<path fill="none" stroke="black" d="M122.29,-581.23C132.26,-579.23 142.67,-577.37 152.49,-576 405.63,-540.79 709.55,-528.55 843.85,-524.65"/>
<polygon fill="black" stroke="black" points="844.11,-528.15 854,-524.37 843.91,-521.15 844.11,-528.15"/>
</g>
<!-- src/Int8.mo -->
<g id="node15" class="node">
<title>src/Int8.mo</title>
<ellipse fill="none" stroke="black" cx="1185.49" cy="-522" rx="61.99" ry="18"/>
<text text-anchor="middle" x="1185.49" y="-518.3" font-family="Times-Roman" font-size="14.00">src/Int8.mo</text>
</g>
<!-- src/Int8.mo&#45;&gt;src/Int.mo -->
<g id="edge22" class="edge">
<title>src/Int8.mo&#45;&gt;src/Int.mo</title>
<path fill="none" stroke="black" d="M1231.28,-509.81C1239.65,-507.83 1248.33,-505.82 1256.49,-504 1325.54,-488.65 1405.34,-472.5 1457.7,-462.12"/>
<polygon fill="black" stroke="black" points="1458.66,-465.5 1467.79,-460.12 1457.3,-458.63 1458.66,-465.5"/>
</g>
<!-- src/Int64.mo -->
<g id="node16" class="node">
<title>src/Int64.mo</title>
<ellipse fill="none" stroke="black" cx="1497.49" cy="-522" rx="67.69" ry="18"/>
<text text-anchor="middle" x="1497.49" y="-518.3" font-family="Times-Roman" font-size="14.00">src/Int64.mo</text>
</g>
<!-- src/Int64.mo&#45;&gt;src/Int.mo -->
<g id="edge23" class="edge">
<title>src/Int64.mo&#45;&gt;src/Int.mo</title>
<path fill="none" stroke="black" d="M1501.7,-503.7C1503.59,-495.9 1505.87,-486.51 1507.98,-477.83"/>
<polygon fill="black" stroke="black" points="1511.38,-478.65 1510.34,-468.1 1504.58,-477 1511.38,-478.65"/>
</g>
<!-- src/Int16.mo -->
<g id="node17" class="node">
<title>src/Int16.mo</title>
<ellipse fill="none" stroke="black" cx="1650.49" cy="-522" rx="67.69" ry="18"/>
<text text-anchor="middle" x="1650.49" y="-518.3" font-family="Times-Roman" font-size="14.00">src/Int16.mo</text>
</g>
<!-- src/Int16.mo&#45;&gt;src/Int.mo -->
<g id="edge24" class="edge">
<title>src/Int16.mo&#45;&gt;src/Int.mo</title>
<path fill="none" stroke="black" d="M1620.65,-505.64C1600.4,-495.21 1573.47,-481.36 1551.8,-470.2"/>
<polygon fill="black" stroke="black" points="1553.37,-467.07 1542.87,-465.61 1550.16,-473.3 1553.37,-467.07"/>
</g>
<!-- src/TrieSet.mo -->
<g id="node18" class="node">
<title>src/TrieSet.mo</title>
<ellipse fill="none" stroke="black" cx="2112.49" cy="-522" rx="74.99" ry="18"/>
<text text-anchor="middle" x="2112.49" y="-518.3" font-family="Times-Roman" font-size="14.00">src/TrieSet.mo</text>
</g>
<!-- src/TrieSet.mo&#45;&gt;src/Hash.mo -->
<g id="edge26" class="edge">
<title>src/TrieSet.mo&#45;&gt;src/Hash.mo</title>
<path fill="none" stroke="black" d="M2184.73,-517.09C2261.63,-511.41 2376.46,-498.04 2407.49,-468 2423.85,-452.17 2427.81,-425.96 2428.15,-406.07"/>
<polygon fill="black" stroke="black" points="2431.65,-406.02 2428.04,-396.06 2424.65,-406.1 2431.65,-406.02"/>
</g>
<!-- src/TrieSet.mo&#45;&gt;src/List.mo -->
<g id="edge27" class="edge">
<title>src/TrieSet.mo&#45;&gt;src/List.mo</title>
<path fill="none" stroke="black" d="M2058.07,-509.62C2048.55,-507.69 2038.74,-505.75 2029.49,-504 1876.63,-474.99 1795.34,-516.16 1696.49,-396 1665.26,-358.03 1641.89,-326.49 1672.49,-288 1692.51,-262.82 1774.7,-248.56 1834.91,-241.31"/>
<polygon fill="black" stroke="black" points="1835.59,-244.75 1845.12,-240.12 1834.78,-237.8 1835.59,-244.75"/>
</g>
<!-- src/Trie.mo -->
<g id="node19" class="node">
<title>src/Trie.mo</title>
<ellipse fill="none" stroke="black" cx="1892.49" cy="-450" rx="59.59" ry="18"/>
<text text-anchor="middle" x="1892.49" y="-446.3" font-family="Times-Roman" font-size="14.00">src/Trie.mo</text>
</g>
<!-- src/TrieSet.mo&#45;&gt;src/Trie.mo -->
<g id="edge25" class="edge">
<title>src/TrieSet.mo&#45;&gt;src/Trie.mo</title>
<path fill="none" stroke="black" d="M2069.29,-507.25C2032.65,-495.59 1980.09,-478.87 1941.8,-466.69"/>
<polygon fill="black" stroke="black" points="1942.49,-463.24 1931.9,-463.54 1940.37,-469.91 1942.49,-463.24"/>
</g>
<!-- src/Trie.mo&#45;&gt;src/Prelude.mo -->
<g id="edge28" class="edge">
<title>src/Trie.mo&#45;&gt;src/Prelude.mo</title>
<path fill="none" stroke="black" d="M1833.42,-446.6C1746.28,-439.54 1593.49,-412.16 1593.49,-307 1593.49,-307 1593.49,-307 1593.49,-161 1593.49,-75.4 1868.55,-38.63 2010.24,-25.37"/>
<polygon fill="black" stroke="black" points="2010.56,-28.86 2020.2,-24.46 2009.92,-21.89 2010.56,-28.86"/>
</g>
<!-- src/Trie.mo&#45;&gt;src/Hash.mo -->
<g id="edge30" class="edge">
<title>src/Trie.mo&#45;&gt;src/Hash.mo</title>
<path fill="none" stroke="black" d="M1946.14,-441.97C2043.63,-429.19 2249.72,-402.17 2357.51,-388.04"/>
<polygon fill="black" stroke="black" points="2358.17,-391.49 2367.63,-386.72 2357.26,-384.55 2358.17,-391.49"/>
</g>
<!-- src/Trie.mo&#45;&gt;src/Array.mo -->
<g id="edge31" class="edge">
<title>src/Trie.mo&#45;&gt;src/Array.mo</title>
<path fill="none" stroke="black" d="M1949.92,-444.76C2019.02,-438.46 2129.38,-424.23 2158.49,-396 2215.32,-340.92 2217.46,-238.71 2214.85,-190.08"/>
<polygon fill="black" stroke="black" points="2218.33,-189.76 2214.2,-180 2211.35,-190.21 2218.33,-189.76"/>
</g>
<!-- src/Trie.mo&#45;&gt;src/List.mo -->
<g id="edge32" class="edge">
<title>src/Trie.mo&#45;&gt;src/List.mo</title>
<path fill="none" stroke="black" d="M1851.19,-436.83C1777.31,-412.98 1635.01,-356.43 1688.49,-288 1706.64,-264.79 1780.57,-250.28 1836.28,-242.43"/>
<polygon fill="black" stroke="black" points="1837.02,-245.86 1846.45,-241.04 1836.07,-238.93 1837.02,-245.86"/>
</g>
<!-- src/Trie.mo&#45;&gt;src/Option.mo -->
<g id="edge29" class="edge">
<title>src/Trie.mo&#45;&gt;src/Option.mo</title>
<path fill="none" stroke="black" d="M1948.43,-443.43C2021.65,-435.37 2145.27,-418.87 2184.49,-396 2238.47,-364.53 2229.38,-331.23 2274.49,-288 2348.92,-216.68 2448.71,-146.7 2499.62,-112.56"/>
<polygon fill="black" stroke="black" points="2501.57,-115.46 2507.95,-107 2497.69,-109.64 2501.57,-115.46"/>
</g>
<!-- src/AssocList.mo -->
<g id="node20" class="node">
<title>src/AssocList.mo</title>
<ellipse fill="none" stroke="black" cx="1866.49" cy="-378" rx="85.59" ry="18"/>
<text text-anchor="middle" x="1866.49" y="-374.3" font-family="Times-Roman" font-size="14.00">src/AssocList.mo</text>
</g>
<!-- src/Trie.mo&#45;&gt;src/AssocList.mo -->
<g id="edge33" class="edge">
<title>src/Trie.mo&#45;&gt;src/AssocList.mo</title>
<path fill="none" stroke="black" d="M1886.2,-432.05C1883.27,-424.18 1879.72,-414.62 1876.45,-405.79"/>
<polygon fill="black" stroke="black" points="1879.67,-404.43 1872.91,-396.28 1873.11,-406.87 1879.67,-404.43"/>
</g>
<!-- src/AssocList.mo&#45;&gt;src/List.mo -->
<g id="edge34" class="edge">
<title>src/AssocList.mo&#45;&gt;src/List.mo</title>
<path fill="none" stroke="black" d="M1870.39,-359.91C1874.5,-341.96 1881.26,-312.95 1887.49,-288 1889.6,-279.56 1891.99,-270.39 1894.19,-262.09"/>
<polygon fill="black" stroke="black" points="1897.64,-262.72 1896.84,-252.16 1890.88,-260.92 1897.64,-262.72"/>
</g>
<!-- src/Principal.mo -->
<g id="node21" class="node">
<title>src/Principal.mo</title>
<ellipse fill="none" stroke="black" cx="2575.49" cy="-450" rx="82.59" ry="18"/>
<text text-anchor="middle" x="2575.49" y="-446.3" font-family="Times-Roman" font-size="14.00">src/Principal.mo</text>
</g>
<!-- src/Principal.mo&#45;&gt;src/Hash.mo -->
<g id="edge36" class="edge">
<title>src/Principal.mo&#45;&gt;src/Hash.mo</title>
<path fill="none" stroke="black" d="M2542.43,-433.46C2520.25,-423.05 2490.89,-409.25 2467.27,-398.16"/>
<polygon fill="black" stroke="black" points="2468.73,-394.98 2458.19,-393.89 2465.76,-401.31 2468.73,-394.98"/>
</g>
<!-- src/Blob.mo -->
<g id="node22" class="node">
<title>src/Blob.mo</title>
<ellipse fill="none" stroke="black" cx="2575.49" cy="-378" rx="63.89" ry="18"/>
<text text-anchor="middle" x="2575.49" y="-374.3" font-family="Times-Roman" font-size="14.00">src/Blob.mo</text>
</g>
<!-- src/Principal.mo&#45;&gt;src/Blob.mo -->
<g id="edge35" class="edge">
<title>src/Principal.mo&#45;&gt;src/Blob.mo</title>
<path fill="none" stroke="black" d="M2575.49,-431.7C2575.49,-423.98 2575.49,-414.71 2575.49,-406.11"/>
<polygon fill="black" stroke="black" points="2578.99,-406.1 2575.49,-396.1 2571.99,-406.1 2578.99,-406.1"/>
</g>
<!-- src/Nat64.mo -->
<g id="node23" class="node">
<title>src/Nat64.mo</title>
<ellipse fill="none" stroke="black" cx="232.49" cy="-594" rx="71.49" ry="18"/>
<text text-anchor="middle" x="232.49" y="-590.3" font-family="Times-Roman" font-size="14.00">src/Nat64.mo</text>
</g>
<!-- src/Nat64.mo&#45;&gt;src/Nat.mo -->
<g id="edge37" class="edge">
<title>src/Nat64.mo&#45;&gt;src/Nat.mo</title>
<path fill="none" stroke="black" d="M283.11,-581.28C292.82,-579.3 302.94,-577.43 312.49,-576 504.11,-547.3 732.6,-532.4 844.63,-526.35"/>
<polygon fill="black" stroke="black" points="844.98,-529.83 854.78,-525.81 844.6,-522.84 844.98,-529.83"/>
</g>
<!-- src/Float.mo -->
<g id="node24" class="node">
<title>src/Float.mo</title>
<ellipse fill="none" stroke="black" cx="1801.49" cy="-522" rx="65.79" ry="18"/>
<text text-anchor="middle" x="1801.49" y="-518.3" font-family="Times-Roman" font-size="14.00">src/Float.mo</text>
</g>
<!-- src/Float.mo&#45;&gt;src/Int.mo -->
<g id="edge38" class="edge">
<title>src/Float.mo&#45;&gt;src/Int.mo</title>
<path fill="none" stroke="black" d="M1754.1,-509.44C1702.8,-496.93 1621.16,-477.02 1567.7,-463.98"/>
<polygon fill="black" stroke="black" points="1568.27,-460.51 1557.73,-461.54 1566.61,-467.31 1568.27,-460.51"/>
</g>
<!-- src/Word8.mo -->
<g id="node25" class="node">
<title>src/Word8.mo</title>
<ellipse fill="none" stroke="black" cx="394.49" cy="-594" rx="72.59" ry="18"/>
<text text-anchor="middle" x="394.49" y="-590.3" font-family="Times-Roman" font-size="14.00">src/Word8.mo</text>
</g>
<!-- src/Word8.mo&#45;&gt;src/Nat.mo -->
<g id="edge39" class="edge">
<title>src/Word8.mo&#45;&gt;src/Nat.mo</title>
<path fill="none" stroke="black" d="M446.66,-581.36C456.22,-579.42 466.14,-577.55 475.49,-576 606.57,-554.36 761.1,-537.71 847.12,-529.23"/>
<polygon fill="black" stroke="black" points="847.66,-532.69 857.27,-528.23 846.98,-525.72 847.66,-532.69"/>
</g>
<!-- src/Heap.mo -->
<g id="node26" class="node">
<title>src/Heap.mo</title>
<ellipse fill="none" stroke="black" cx="2081.49" cy="-378" rx="67.69" ry="18"/>
<text text-anchor="middle" x="2081.49" y="-374.3" font-family="Times-Roman" font-size="14.00">src/Heap.mo</text>
</g>
<!-- src/Heap.mo&#45;&gt;src/Order.mo -->
<g id="edge40" class="edge">
<title>src/Heap.mo&#45;&gt;src/Order.mo</title>
<path fill="none" stroke="black" d="M2023.53,-368.67C2003.84,-365.88 1981.72,-362.77 1961.49,-360 1859.94,-346.11 1517.49,-337.5 1517.49,-235 1517.49,-235 1517.49,-235 1517.49,-161 1517.49,-121 1517.49,-74.65 1517.49,-46.08"/>
<polygon fill="black" stroke="black" points="1520.99,-46.05 1517.49,-36.05 1513.99,-46.05 1520.99,-46.05"/>
</g>
<!-- src/Heap.mo&#45;&gt;src/Prelude.mo -->
<g id="edge41" class="edge">
<title>src/Heap.mo&#45;&gt;src/Prelude.mo</title>
<path fill="none" stroke="black" d="M2099.23,-360.15C2108.06,-350.51 2117.83,-337.65 2122.49,-324 2139.97,-272.85 2110.81,-110.75 2098.03,-46.05"/>
<polygon fill="black" stroke="black" points="2101.45,-45.31 2096.06,-36.19 2094.58,-46.68 2101.45,-45.31"/>
</g>
<!-- src/Heap.mo&#45;&gt;src/Iter.mo -->
<g id="edge43" class="edge">
<title>src/Heap.mo&#45;&gt;src/Iter.mo</title>
<path fill="none" stroke="black" d="M2127.38,-364.65C2172.7,-352.44 2241.93,-333.81 2289.32,-321.05"/>
<polygon fill="black" stroke="black" points="2290.34,-324.4 2299.08,-318.42 2288.52,-317.64 2290.34,-324.4"/>
</g>
<!-- src/Heap.mo&#45;&gt;src/List.mo -->
<g id="edge42" class="edge">
<title>src/Heap.mo&#45;&gt;src/List.mo</title>
<path fill="none" stroke="black" d="M2036.12,-364.65C2011.21,-356.2 1980.91,-343.04 1958.49,-324 1938.27,-306.83 1922.71,-280.67 1913,-261.15"/>
<polygon fill="black" stroke="black" points="1916.05,-259.41 1908.58,-251.9 1909.73,-262.43 1916.05,-259.41"/>
</g>
<!-- src/Stack.mo -->
<g id="node27" class="node">
<title>src/Stack.mo</title>
<ellipse fill="none" stroke="black" cx="1766.49" cy="-306" rx="68.79" ry="18"/>
<text text-anchor="middle" x="1766.49" y="-302.3" font-family="Times-Roman" font-size="14.00">src/Stack.mo</text>
</g>
<!-- src/Stack.mo&#45;&gt;src/List.mo -->
<g id="edge44" class="edge">
<title>src/Stack.mo&#45;&gt;src/List.mo</title>
<path fill="none" stroke="black" d="M1796.12,-289.64C1816,-279.33 1842.35,-265.66 1863.73,-254.58"/>
<polygon fill="black" stroke="black" points="1865.6,-257.56 1872.86,-249.85 1862.37,-251.34 1865.6,-257.56"/>
</g>
<!-- src/TrieMap.mo -->
<g id="node28" class="node">
<title>src/TrieMap.mo</title>
<ellipse fill="none" stroke="black" cx="2464.49" cy="-522" rx="79.09" ry="18"/>
<text text-anchor="middle" x="2464.49" y="-518.3" font-family="Times-Roman" font-size="14.00">src/TrieMap.mo</text>
</g>
<!-- src/TrieMap.mo&#45;&gt;src/Prelude.mo -->
<g id="edge46" class="edge">
<title>src/TrieMap.mo&#45;&gt;src/Prelude.mo</title>
<path fill="none" stroke="black" d="M2543.34,-520C2715.04,-515.69 3107.49,-493.32 3107.49,-379 3107.49,-379 3107.49,-379 3107.49,-161 3107.49,-67.54 2423.79,-31.84 2178.66,-22.04"/>
<polygon fill="black" stroke="black" points="2178.5,-18.53 2168.37,-21.64 2178.22,-25.53 2178.5,-18.53"/>
</g>
<!-- src/TrieMap.mo&#45;&gt;src/Hash.mo -->
<g id="edge48" class="edge">
<title>src/TrieMap.mo&#45;&gt;src/Hash.mo</title>
<path fill="none" stroke="black" d="M2459.91,-503.87C2453.41,-479.56 2441.43,-434.82 2433.72,-406.01"/>
<polygon fill="black" stroke="black" points="2437.06,-404.94 2431.09,-396.19 2430.3,-406.75 2437.06,-404.94"/>
</g>
<!-- src/TrieMap.mo&#45;&gt;src/Iter.mo -->
<g id="edge47" class="edge">
<title>src/TrieMap.mo&#45;&gt;src/Iter.mo</title>
<path fill="none" stroke="black" d="M2531.76,-512.34C2584.19,-504.05 2650.82,-489.58 2667.49,-468 2685.69,-444.44 2656.72,-367.54 2648.49,-360 2614.44,-328.79 2489.13,-315.63 2409.52,-310.33"/>
<polygon fill="black" stroke="black" points="2409.28,-306.81 2399.08,-309.66 2408.84,-313.79 2409.28,-306.81"/>
</g>
<!-- src/TrieMap.mo&#45;&gt;src/List.mo -->
<g id="edge49" class="edge">
<title>src/TrieMap.mo&#45;&gt;src/List.mo</title>
<path fill="none" stroke="black" d="M2394.23,-513.5C2300,-500.96 2130.03,-469.45 2004.49,-396 1999.33,-392.98 1927.6,-329.11 1924.49,-324 1913.07,-305.18 1907.28,-280.81 1904.37,-262.32"/>
<polygon fill="black" stroke="black" points="1907.81,-261.63 1902.97,-252.21 1900.87,-262.6 1907.81,-261.63"/>
</g>
<!-- src/TrieMap.mo&#45;&gt;src/Trie.mo -->
<g id="edge45" class="edge">
<title>src/TrieMap.mo&#45;&gt;src/Trie.mo</title>
<path fill="none" stroke="black" d="M2389.87,-515.86C2292.14,-508.49 2115.7,-492.99 1966.49,-468 1960.18,-466.94 1953.6,-465.67 1947.08,-464.31"/>
<polygon fill="black" stroke="black" points="1947.45,-460.81 1936.93,-462.12 1945.96,-467.65 1947.45,-460.81"/>
</g>
<!-- src/Text.mo -->
<g id="node29" class="node">
<title>src/Text.mo</title>
<ellipse fill="none" stroke="black" cx="2776.49" cy="-450" rx="61.99" ry="18"/>
<text text-anchor="middle" x="2776.49" y="-446.3" font-family="Times-Roman" font-size="14.00">src/Text.mo</text>
</g>
<!-- src/Text.mo&#45;&gt;src/Hash.mo -->
<g id="edge52" class="edge">
<title>src/Text.mo&#45;&gt;src/Hash.mo</title>
<path fill="none" stroke="black" d="M2725.91,-439.67C2670.85,-429.41 2580.28,-412.22 2502.49,-396 2497.12,-394.88 2491.53,-393.69 2485.94,-392.47"/>
<polygon fill="black" stroke="black" points="2486.43,-389 2475.92,-390.27 2484.93,-395.83 2486.43,-389"/>
</g>
<!-- src/Text.mo&#45;&gt;src/Iter.mo -->
<g id="edge51" class="edge">
<title>src/Text.mo&#45;&gt;src/Iter.mo</title>
<path fill="none" stroke="black" d="M2759.99,-432.52C2735.34,-408.06 2690.79,-364.53 2681.49,-360 2634.41,-337.04 2492.28,-320.66 2407.42,-312.63"/>
<polygon fill="black" stroke="black" points="2407.65,-309.13 2397.36,-311.69 2406.99,-316.1 2407.65,-309.13"/>
</g>
<!-- src/Char.mo -->
<g id="node30" class="node">
<title>src/Char.mo</title>
<ellipse fill="none" stroke="black" cx="3015.49" cy="-378" rx="64.19" ry="18"/>
<text text-anchor="middle" x="3015.49" y="-374.3" font-family="Times-Roman" font-size="14.00">src/Char.mo</text>
</g>
<!-- src/Text.mo&#45;&gt;src/Char.mo -->
<g id="edge50" class="edge">
<title>src/Text.mo&#45;&gt;src/Char.mo</title>
<path fill="none" stroke="black" d="M2818.4,-436.73C2858.64,-424.94 2919.56,-407.1 2963.01,-394.37"/>
<polygon fill="black" stroke="black" points="2964.22,-397.66 2972.83,-391.5 2962.25,-390.95 2964.22,-397.66"/>
</g>
<!-- src/Deque.mo -->
<g id="node31" class="node">
<title>src/Deque.mo</title>
<ellipse fill="none" stroke="black" cx="2040.49" cy="-306" rx="73.39" ry="18"/>
<text text-anchor="middle" x="2040.49" y="-302.3" font-family="Times-Roman" font-size="14.00">src/Deque.mo</text>
</g>
<!-- src/Deque.mo&#45;&gt;src/Prelude.mo -->
<g id="edge54" class="edge">
<title>src/Deque.mo&#45;&gt;src/Prelude.mo</title>
<path fill="none" stroke="black" d="M2042.7,-287.94C2047.83,-249.29 2061.41,-152.17 2078.49,-72 2080.31,-63.49 2082.61,-54.3 2084.82,-46"/>
<polygon fill="black" stroke="black" points="2088.27,-46.65 2087.53,-36.09 2081.52,-44.81 2088.27,-46.65"/>
</g>
<!-- src/Deque.mo&#45;&gt;src/List.mo -->
<g id="edge53" class="edge">
<title>src/Deque.mo&#45;&gt;src/List.mo</title>
<path fill="none" stroke="black" d="M2009.65,-289.46C1989.07,-279.1 1961.87,-265.4 1939.89,-254.34"/>
<polygon fill="black" stroke="black" points="1941.33,-251.14 1930.83,-249.77 1938.19,-257.4 1941.33,-251.14"/>
</g>
<!-- src/HashMap.mo -->
<g id="node32" class="node">
<title>src/HashMap.mo</title>
<ellipse fill="none" stroke="black" cx="2312.49" cy="-450" rx="85.59" ry="18"/>
<text text-anchor="middle" x="2312.49" y="-446.3" font-family="Times-Roman" font-size="14.00">src/HashMap.mo</text>
</g>
<!-- src/HashMap.mo&#45;&gt;src/Prelude.mo -->
<g id="edge55" class="edge">
<title>src/HashMap.mo&#45;&gt;src/Prelude.mo</title>
<path fill="none" stroke="black" d="M2387.81,-441.29C2417.6,-438.29 2452.15,-434.9 2483.49,-432 2530.24,-427.68 2869.29,-427.06 2904.49,-396 2934.82,-369.24 2923.49,-347.45 2923.49,-307 2923.49,-307 2923.49,-307 2923.49,-161 2923.49,-40.96 2785.8,-97.47 2668.49,-72 2497.74,-34.93 2293.01,-23.77 2179.37,-20.42"/>
<polygon fill="black" stroke="black" points="2179.43,-16.92 2169.33,-20.14 2179.23,-23.92 2179.43,-16.92"/>
</g>
<!-- src/HashMap.mo&#45;&gt;src/Hash.mo -->
<g id="edge57" class="edge">
<title>src/HashMap.mo&#45;&gt;src/Hash.mo</title>
<path fill="none" stroke="black" d="M2338.93,-432.76C2354.84,-423 2375.26,-410.46 2392.37,-399.95"/>
<polygon fill="black" stroke="black" points="2394.29,-402.88 2400.98,-394.67 2390.63,-396.92 2394.29,-402.88"/>
</g>
<!-- src/HashMap.mo&#45;&gt;src/Iter.mo -->
<g id="edge58" class="edge">
<title>src/HashMap.mo&#45;&gt;src/Iter.mo</title>
<path fill="none" stroke="black" d="M2315.99,-431.87C2320.96,-407.56 2330.09,-362.82 2335.98,-334.01"/>
<polygon fill="black" stroke="black" points="2339.41,-334.69 2337.98,-324.19 2332.55,-333.29 2339.41,-334.69"/>
</g>
<!-- src/HashMap.mo&#45;&gt;src/Array.mo -->
<g id="edge56" class="edge">
<title>src/HashMap.mo&#45;&gt;src/Array.mo</title>
<path fill="none" stroke="black" d="M2306.54,-431.97C2289.76,-383.98 2242.01,-247.41 2221.76,-189.49"/>
<polygon fill="black" stroke="black" points="2225.02,-188.23 2218.42,-179.94 2218.42,-190.54 2225.02,-188.23"/>
</g>
<!-- src/HashMap.mo&#45;&gt;src/AssocList.mo -->
<g id="edge59" class="edge">
<title>src/HashMap.mo&#45;&gt;src/AssocList.mo</title>
<path fill="none" stroke="black" d="M2245.72,-438.52C2164.69,-425.8 2028.36,-404.41 1943.13,-391.03"/>
<polygon fill="black" stroke="black" points="1943.41,-387.53 1932.99,-389.44 1942.33,-394.45 1943.41,-387.53"/>
</g>
<!-- src/RBTree.mo -->
<g id="node33" class="node">
<title>src/RBTree.mo</title>
<ellipse fill="none" stroke="black" cx="1395.49" cy="-594" rx="75.29" ry="18"/>
<text text-anchor="middle" x="1395.49" y="-590.3" font-family="Times-Roman" font-size="14.00">src/RBTree.mo</text>
</g>
<!-- src/RBTree.mo&#45;&gt;src/Nat.mo -->
<g id="edge63" class="edge">
<title>src/RBTree.mo&#45;&gt;src/Nat.mo</title>
<path fill="none" stroke="black" d="M1340.72,-581.5C1330.69,-579.55 1320.29,-577.63 1310.49,-576 1294.28,-573.3 1085.3,-545.66 977.25,-531.4"/>
<polygon fill="black" stroke="black" points="977.5,-527.9 967.12,-530.07 976.58,-534.84 977.5,-527.9"/>
</g>
<!-- src/RBTree.mo&#45;&gt;src/Order.mo -->
<g id="edge64" class="edge">
<title>src/RBTree.mo&#45;&gt;src/Order.mo</title>
<path fill="none" stroke="black" d="M1340.21,-581.71C1330.33,-579.76 1320.11,-577.78 1310.49,-576 1216.95,-558.67 1175.26,-597.53 1099.49,-540 1064.66,-513.55 1057.49,-494.74 1057.49,-451 1057.49,-451 1057.49,-451 1057.49,-161 1057.49,-81.15 1313.76,-41.39 1443.74,-26.36"/>
<polygon fill="black" stroke="black" points="1444.47,-29.8 1454.02,-25.19 1443.68,-22.84 1444.47,-29.8"/>
</g>
<!-- src/RBTree.mo&#45;&gt;src/Iter.mo -->
<g id="edge61" class="edge">
<title>src/RBTree.mo&#45;&gt;src/Iter.mo</title>
<path fill="none" stroke="black" d="M1471.13,-593.15C1660.33,-592.82 2142.84,-587.28 2196.49,-540 2233.18,-507.67 2190.75,-472.94 2217.49,-432 2232.87,-408.47 2248.89,-415.12 2269.49,-396 2290.37,-376.63 2310.44,-351.05 2324.06,-332.29"/>
<polygon fill="black" stroke="black" points="2327.06,-334.12 2330.02,-323.94 2321.36,-330.05 2327.06,-334.12"/>
</g>
<!-- src/RBTree.mo&#45;&gt;src/List.mo -->
<g id="edge62" class="edge">
<title>src/RBTree.mo&#45;&gt;src/List.mo</title>
<path fill="none" stroke="black" d="M1339.74,-581.72C1329.99,-579.78 1319.95,-577.81 1310.49,-576 1219.35,-558.52 1062.49,-580.86 1114.49,-504 1199.29,-378.67 1672.77,-278.25 1841.64,-245.96"/>
<polygon fill="black" stroke="black" points="1842.44,-249.37 1851.61,-244.07 1841.13,-242.49 1842.44,-249.37"/>
</g>
<!-- src/Debug.mo -->
<g id="node34" class="node">
<title>src/Debug.mo</title>
<ellipse fill="none" stroke="black" cx="1338.49" cy="-522" rx="73.39" ry="18"/>
<text text-anchor="middle" x="1338.49" y="-518.3" font-family="Times-Roman" font-size="14.00">src/Debug.mo</text>
</g>
<!-- src/RBTree.mo&#45;&gt;src/Debug.mo -->
<g id="edge60" class="edge">
<title>src/RBTree.mo&#45;&gt;src/Debug.mo</title>
<path fill="none" stroke="black" d="M1381.7,-576.05C1374.76,-567.54 1366.24,-557.07 1358.59,-547.68"/>
<polygon fill="black" stroke="black" points="1361.19,-545.33 1352.16,-539.79 1355.76,-549.75 1361.19,-545.33"/>
</g>
<!-- src/Word32.mo -->
<g id="node35" class="node">
<title>src/Word32.mo</title>
<ellipse fill="none" stroke="black" cx="563.49" cy="-594" rx="78.79" ry="18"/>
<text text-anchor="middle" x="563.49" y="-590.3" font-family="Times-Roman" font-size="14.00">src/Word32.mo</text>
</g>
<!-- src/Word32.mo&#45;&gt;src/Nat.mo -->
<g id="edge65" class="edge">
<title>src/Word32.mo&#45;&gt;src/Nat.mo</title>
<path fill="none" stroke="black" d="M620.51,-581.6C685.14,-568.67 789.95,-547.71 855.13,-534.67"/>
<polygon fill="black" stroke="black" points="856.12,-538.04 865.24,-532.65 854.75,-531.18 856.12,-538.04"/>
</g>
<!-- src/Random.mo -->
<g id="node36" class="node">
<title>src/Random.mo</title>
<ellipse fill="none" stroke="black" cx="2814.49" cy="-378" rx="81.49" ry="18"/>
<text text-anchor="middle" x="2814.49" y="-374.3" font-family="Times-Roman" font-size="14.00">src/Random.mo</text>
</g>
<!-- src/Random.mo&#45;&gt;src/Prelude.mo -->
<g id="edge68" class="edge">
<title>src/Random.mo&#45;&gt;src/Prelude.mo</title>
<path fill="none" stroke="black" d="M2792.97,-360.29C2764.39,-336.04 2717.49,-288.14 2717.49,-235 2717.49,-235 2717.49,-235 2717.49,-161 2717.49,-100.84 2670.69,-95.94 2615.49,-72 2539.27,-38.94 2306.93,-26.1 2179.09,-21.44"/>
<polygon fill="black" stroke="black" points="2179.05,-17.93 2168.93,-21.08 2178.8,-24.93 2179.05,-17.93"/>
</g>
<!-- src/Random.mo&#45;&gt;src/Iter.mo -->
<g id="edge66" class="edge">
<title>src/Random.mo&#45;&gt;src/Iter.mo</title>
<path fill="none" stroke="black" d="M2754.24,-365.87C2742.72,-363.84 2730.74,-361.79 2719.49,-360 2609.03,-342.38 2479.88,-324.95 2404.73,-315.12"/>
<polygon fill="black" stroke="black" points="2404.86,-311.61 2394.49,-313.79 2403.95,-318.55 2404.86,-311.61"/>
</g>
<!-- src/Random.mo&#45;&gt;src/Option.mo -->
<g id="edge67" class="edge">
<title>src/Random.mo&#45;&gt;src/Option.mo</title>
<path fill="none" stroke="black" d="M2772.13,-362.51C2750.14,-353.64 2723.73,-340.75 2703.49,-324 2629.91,-263.08 2571.2,-163.9 2545.94,-117.07"/>
<polygon fill="black" stroke="black" points="2548.98,-115.35 2541.2,-108.16 2542.8,-118.63 2548.98,-115.35"/>
</g>
<!-- src/Word16.mo -->
<g id="node37" class="node">
<title>src/Word16.mo</title>
<ellipse fill="none" stroke="black" cx="738.49" cy="-594" rx="78.79" ry="18"/>
<text text-anchor="middle" x="738.49" y="-590.3" font-family="Times-Roman" font-size="14.00">src/Word16.mo</text>
</g>
<!-- src/Word16.mo&#45;&gt;src/Nat.mo -->
<g id="edge69" class="edge">
<title>src/Word16.mo&#45;&gt;src/Nat.mo</title>
<path fill="none" stroke="black" d="M776.04,-577.98C803.47,-567.01 840.75,-552.1 869.56,-540.57"/>
<polygon fill="black" stroke="black" points="871,-543.77 878.98,-536.8 868.4,-537.27 871,-543.77"/>
</g>
<!-- src/Word64.mo -->
<g id="node38" class="node">
<title>src/Word64.mo</title>
<ellipse fill="none" stroke="black" cx="913.49" cy="-594" rx="78.79" ry="18"/>
<text text-anchor="middle" x="913.49" y="-590.3" font-family="Times-Roman" font-size="14.00">src/Word64.mo</text>
</g>
<!-- src/Word64.mo&#45;&gt;src/Nat.mo -->
<g id="edge70" class="edge">
<title>src/Word64.mo&#45;&gt;src/Nat.mo</title>
<path fill="none" stroke="black" d="M913.49,-575.7C913.49,-567.98 913.49,-558.71 913.49,-550.11"/>
<polygon fill="black" stroke="black" points="916.99,-550.1 913.49,-540.1 909.99,-550.1 916.99,-550.1"/>
</g>
<!-- src/Nat8.mo -->
<g id="node39" class="node">
<title>src/Nat8.mo</title>
<ellipse fill="none" stroke="black" cx="1075.49" cy="-594" rx="65.79" ry="18"/>
<text text-anchor="middle" x="1075.49" y="-590.3" font-family="Times-Roman" font-size="14.00">src/Nat8.mo</text>
</g>
<!-- src/Nat8.mo&#45;&gt;src/Nat.mo -->
<g id="edge71" class="edge">
<title>src/Nat8.mo&#45;&gt;src/Nat.mo</title>
<path fill="none" stroke="black" d="M1041.93,-578.5C1016.92,-567.69 982.59,-552.86 955.72,-541.25"/>
<polygon fill="black" stroke="black" points="956.75,-537.88 946.19,-537.13 953.98,-544.31 956.75,-537.88"/>
</g>
<!-- src/Int32.mo -->
<g id="node40" class="node">
<title>src/Int32.mo</title>
<ellipse fill="none" stroke="black" cx="1952.49" cy="-522" rx="67.69" ry="18"/>
<text text-anchor="middle" x="1952.49" y="-518.3" font-family="Times-Roman" font-size="14.00">src/Int32.mo</text>
</g>
<!-- src/Int32.mo&#45;&gt;src/Int.mo -->
<g id="edge72" class="edge">
<title>src/Int32.mo&#45;&gt;src/Int.mo</title>
<path fill="none" stroke="black" d="M1903.55,-509.43C1894.58,-507.49 1885.27,-505.59 1876.49,-504 1762.13,-483.3 1732.39,-485.46 1617.49,-468 1602.94,-465.79 1587.24,-463.27 1572.6,-460.86"/>
<polygon fill="black" stroke="black" points="1573.1,-457.39 1562.66,-459.21 1571.96,-464.3 1573.1,-457.39"/>
</g>
</g>
</svg>
