<?xml version="1.0" encoding="UTF-8" standalone="no"?>
<!DOCTYPE svg PUBLIC "-//W3C//DTD SVG 1.1//EN"
 "http://www.w3.org/Graphics/SVG/1.1/DTD/svg11.dtd">
<!-- Generated by graphviz version 2.43.0 (0)
 -->
<!-- Title: Base Pages: 1 -->
<svg width="3211pt" height="692pt"
 viewBox="0.00 0.00 3211.49 692.00" xmlns="http://www.w3.org/2000/svg" xmlns:xlink="http://www.w3.org/1999/xlink">
<g id="graph0" class="graph" transform="scale(1 1) rotate(0) translate(4 688)">
<title>Base</title>
<polygon fill="white" stroke="transparent" points="-4,4 -4,-688 3207.49,-688 3207.49,4 -4,4"/>
<!-- src/Int.mo -->
<g id="node1" class="node">
<title>src/Int.mo</title>
<ellipse fill="none" stroke="black" cx="1955.49" cy="-522" rx="55.79" ry="18"/>
<text text-anchor="middle" x="1955.49" y="-518.3" font-family="Times-Roman" font-size="14.00">src/Int.mo</text>
</g>
<!-- mo:⛔ -->
<g id="node2" class="node">
<title>mo:⛔</title>
<ellipse fill="none" stroke="black" cx="1909.49" cy="-18" rx="37.09" ry="18"/>
<text text-anchor="middle" x="1909.49" y="-14.3" font-family="Times-Roman" font-size="14.00">mo:⛔</text>
</g>
<!-- src/Int.mo&#45;&gt;mo:⛔ -->
<g id="edge1" class="edge">
<title>src/Int.mo&#45;&gt;mo:⛔</title>
<path fill="none" stroke="black" d="M1953.91,-503.97C1951.58,-477.33 1947.49,-424.19 1947.49,-379 1947.49,-379 1947.49,-379 1947.49,-161 1947.49,-119.41 1932.09,-73.22 1920.9,-45.14"/>
<polygon fill="black" stroke="black" points="1924.04,-43.58 1917,-35.66 1917.57,-46.24 1924.04,-43.58"/>
</g>
<!-- src/Prelude.mo -->
<g id="node3" class="node">
<title>src/Prelude.mo</title>
<ellipse fill="none" stroke="black" cx="1377.49" cy="-90" rx="77.19" ry="18"/>
<text text-anchor="middle" x="1377.49" y="-86.3" font-family="Times-Roman" font-size="14.00">src/Prelude.mo</text>
</g>
<!-- src/Int.mo&#45;&gt;src/Prelude.mo -->
<g id="edge2" class="edge">
<title>src/Int.mo&#45;&gt;src/Prelude.mo</title>
<path fill="none" stroke="black" d="M1947.88,-503.96C1917.45,-436.67 1802.93,-190.81 1733.49,-144 1690.48,-115 1553.53,-101.33 1462.57,-95.29"/>
<polygon fill="black" stroke="black" points="1462.75,-91.8 1452.54,-94.65 1462.29,-98.78 1462.75,-91.8"/>
</g>
<!-- src/Hash.mo -->
<g id="node4" class="node">
<title>src/Hash.mo</title>
<ellipse fill="none" stroke="black" cx="1482.49" cy="-450" rx="66.89" ry="18"/>
<text text-anchor="middle" x="1482.49" y="-446.3" font-family="Times-Roman" font-size="14.00">src/Hash.mo</text>
</g>
<!-- src/Int.mo&#45;&gt;src/Hash.mo -->
<g id="edge3" class="edge">
<title>src/Int.mo&#45;&gt;src/Hash.mo</title>
<path fill="none" stroke="black" d="M1903.25,-515.5C1827.11,-507.15 1681.37,-489.9 1558.49,-468 1552.78,-466.98 1546.85,-465.83 1540.93,-464.61"/>
<polygon fill="black" stroke="black" points="1541.53,-461.16 1531.02,-462.52 1540.08,-468.01 1541.53,-461.16"/>
</g>
<!-- src/Prelude.mo&#45;&gt;mo:⛔ -->
<g id="edge4" class="edge">
<title>src/Prelude.mo&#45;&gt;mo:⛔</title>
<path fill="none" stroke="black" d="M1442.99,-80.38C1552.48,-65.98 1769.93,-37.36 1864.18,-24.96"/>
<polygon fill="black" stroke="black" points="1864.79,-28.41 1874.24,-23.64 1863.87,-21.47 1864.79,-28.41"/>
</g>
<!-- src/Hash.mo&#45;&gt;mo:⛔ -->
<g id="edge5" class="edge">
<title>src/Hash.mo&#45;&gt;mo:⛔</title>
<path fill="none" stroke="black" d="M1518.83,-434.71C1564.65,-414.02 1637.49,-371.05 1637.49,-307 1637.49,-307 1637.49,-307 1637.49,-161 1637.49,-60.44 1785.4,-30.97 1863.07,-22.43"/>
<polygon fill="black" stroke="black" points="1863.5,-25.9 1873.09,-21.4 1862.79,-18.94 1863.5,-25.9"/>
</g>
<!-- src/Iter.mo -->
<g id="node5" class="node">
<title>src/Iter.mo</title>
<ellipse fill="none" stroke="black" cx="1286.49" cy="-378" rx="58.49" ry="18"/>
<text text-anchor="middle" x="1286.49" y="-374.3" font-family="Times-Roman" font-size="14.00">src/Iter.mo</text>
</g>
<!-- src/Hash.mo&#45;&gt;src/Iter.mo -->
<g id="edge6" class="edge">
<title>src/Hash.mo&#45;&gt;src/Iter.mo</title>
<path fill="none" stroke="black" d="M1443.77,-435.17C1411.89,-423.78 1366.59,-407.61 1332.8,-395.54"/>
<polygon fill="black" stroke="black" points="1333.74,-392.16 1323.15,-392.09 1331.39,-398.75 1333.74,-392.16"/>
</g>
<!-- src/Array.mo -->
<g id="node6" class="node">
<title>src/Array.mo</title>
<ellipse fill="none" stroke="black" cx="1165.49" cy="-234" rx="66.89" ry="18"/>
<text text-anchor="middle" x="1165.49" y="-230.3" font-family="Times-Roman" font-size="14.00">src/Array.mo</text>
</g>
<!-- src/Iter.mo&#45;&gt;src/Array.mo -->
<g id="edge7" class="edge">
<title>src/Iter.mo&#45;&gt;src/Array.mo</title>
<path fill="none" stroke="black" d="M1272.38,-360.43C1251.18,-335.56 1211,-288.4 1186.39,-259.53"/>
<polygon fill="black" stroke="black" points="1189.05,-257.24 1179.9,-251.9 1183.72,-261.78 1189.05,-257.24"/>
</g>
<!-- src/Buffer.mo -->
<g id="node7" class="node">
<title>src/Buffer.mo</title>
<ellipse fill="none" stroke="black" cx="1500.49" cy="-162" rx="70.69" ry="18"/>
<text text-anchor="middle" x="1500.49" y="-158.3" font-family="Times-Roman" font-size="14.00">src/Buffer.mo</text>
</g>
<!-- src/Iter.mo&#45;&gt;src/Buffer.mo -->
<g id="edge8" class="edge">
<title>src/Iter.mo&#45;&gt;src/Buffer.mo</title>
<path fill="none" stroke="black" d="M1302.93,-360.56C1340.49,-323 1432.75,-230.74 1476.6,-186.89"/>
<polygon fill="black" stroke="black" points="1479.11,-189.33 1483.71,-179.79 1474.16,-184.38 1479.11,-189.33"/>
</g>
<!-- src/List.mo -->
<g id="node8" class="node">
<title>src/List.mo</title>
<ellipse fill="none" stroke="black" cx="846.49" cy="-306" rx="59.59" ry="18"/>
<text text-anchor="middle" x="846.49" y="-302.3" font-family="Times-Roman" font-size="14.00">src/List.mo</text>
</g>
<!-- src/Iter.mo&#45;&gt;src/List.mo -->
<g id="edge9" class="edge">
<title>src/Iter.mo&#45;&gt;src/List.mo</title>
<path fill="none" stroke="black" d="M1235.59,-368.9C1154.32,-355.97 995.51,-330.71 908.01,-316.79"/>
<polygon fill="black" stroke="black" points="908.38,-313.3 897.96,-315.19 907.28,-320.22 908.38,-313.3"/>
</g>
<!-- src/Array.mo&#45;&gt;mo:⛔ -->
<g id="edge13" class="edge">
<title>src/Array.mo&#45;&gt;mo:⛔</title>
<path fill="none" stroke="black" d="M1124.93,-219.48C1106.71,-211.15 1086.98,-198.45 1076.49,-180 1068.59,-166.09 1067.15,-156.99 1076.49,-144 1135.36,-62.21 1192.82,-92.45 1291.49,-72 1501.24,-28.53 1758.16,-20.62 1862.3,-19.25"/>
<polygon fill="black" stroke="black" points="1862.53,-22.74 1872.49,-19.13 1862.44,-15.74 1862.53,-22.74"/>
</g>
<!-- src/Array.mo&#45;&gt;src/Buffer.mo -->
<g id="edge10" class="edge">
<title>src/Array.mo&#45;&gt;src/Buffer.mo</title>
<path fill="none" stroke="black" d="M1216.79,-222.41C1268.3,-211.76 1349.91,-194.83 1420.49,-180 1426.19,-178.8 1432.12,-177.55 1438.05,-176.3"/>
<polygon fill="black" stroke="black" points="1438.94,-179.69 1448,-174.19 1437.49,-172.84 1438.94,-179.69"/>
</g>
<!-- src/IterType.mo -->
<g id="node9" class="node">
<title>src/IterType.mo</title>
<ellipse fill="none" stroke="black" cx="1165.49" cy="-162" rx="79.89" ry="18"/>
<text text-anchor="middle" x="1165.49" y="-158.3" font-family="Times-Roman" font-size="14.00">src/IterType.mo</text>
</g>
<!-- src/Array.mo&#45;&gt;src/IterType.mo -->
<g id="edge11" class="edge">
<title>src/Array.mo&#45;&gt;src/IterType.mo</title>
<path fill="none" stroke="black" d="M1165.49,-215.7C1165.49,-207.98 1165.49,-198.71 1165.49,-190.11"/>
<polygon fill="black" stroke="black" points="1168.99,-190.1 1165.49,-180.1 1161.99,-190.1 1168.99,-190.1"/>
</g>
<!-- src/Option.mo -->
<g id="node10" class="node">
<title>src/Option.mo</title>
<ellipse fill="none" stroke="black" cx="1337.49" cy="-162" rx="74.19" ry="18"/>
<text text-anchor="middle" x="1337.49" y="-158.3" font-family="Times-Roman" font-size="14.00">src/Option.mo</text>
</g>
<!-- src/Array.mo&#45;&gt;src/Option.mo -->
<g id="edge12" class="edge">
<title>src/Array.mo&#45;&gt;src/Option.mo</title>
<path fill="none" stroke="black" d="M1200.72,-218.67C1227.03,-207.96 1263.22,-193.23 1291.77,-181.61"/>
<polygon fill="black" stroke="black" points="1293.19,-184.81 1301.13,-177.8 1290.55,-178.33 1293.19,-184.81"/>
</g>
<!-- src/Result.mo -->
<g id="node11" class="node">
<title>src/Result.mo</title>
<ellipse fill="none" stroke="black" cx="820.49" cy="-162" rx="71.49" ry="18"/>
<text text-anchor="middle" x="820.49" y="-158.3" font-family="Times-Roman" font-size="14.00">src/Result.mo</text>
</g>
<!-- src/Array.mo&#45;&gt;src/Result.mo -->
<g id="edge14" class="edge">
<title>src/Array.mo&#45;&gt;src/Result.mo</title>
<path fill="none" stroke="black" d="M1113.84,-222.52C1052.52,-210.08 950.23,-189.32 884.09,-175.9"/>
<polygon fill="black" stroke="black" points="884.7,-172.46 874.2,-173.9 883.31,-179.32 884.7,-172.46"/>
</g>
<!-- src/Buffer.mo&#45;&gt;mo:⛔ -->
<g id="edge15" class="edge">
<title>src/Buffer.mo&#45;&gt;mo:⛔</title>
<path fill="none" stroke="black" d="M1518.07,-144.31C1540.62,-123.89 1581.82,-89.86 1623.49,-72 1703.19,-37.85 1804.63,-25.67 1862.8,-21.35"/>
<polygon fill="black" stroke="black" points="1863.06,-24.84 1872.79,-20.65 1862.57,-17.86 1863.06,-24.84"/>
</g>
<!-- src/List.mo&#45;&gt;src/Array.mo -->
<g id="edge20" class="edge">
<title>src/List.mo&#45;&gt;src/Array.mo</title>
<path fill="none" stroke="black" d="M893.22,-294.75C949.45,-282.41 1043.96,-261.67 1105.52,-248.16"/>
<polygon fill="black" stroke="black" points="1106.47,-251.54 1115.48,-245.97 1104.97,-244.7 1106.47,-251.54"/>
</g>
<!-- src/List.mo&#45;&gt;src/Option.mo -->
<g id="edge21" class="edge">
<title>src/List.mo&#45;&gt;src/Option.mo</title>
<path fill="none" stroke="black" d="M880.2,-290.94C926.66,-271.96 1013.3,-237.98 1089.49,-216 1106.97,-210.96 1205.24,-190.34 1272.7,-176.35"/>
<polygon fill="black" stroke="black" points="1273.75,-179.71 1282.83,-174.26 1272.33,-172.86 1273.75,-179.71"/>
</g>
<!-- src/List.mo&#45;&gt;src/Result.mo -->
<g id="edge23" class="edge">
<title>src/List.mo&#45;&gt;src/Result.mo</title>
<path fill="none" stroke="black" d="M843.36,-287.87C838.93,-263.67 830.79,-219.21 825.51,-190.39"/>
<polygon fill="black" stroke="black" points="828.88,-189.4 823.64,-180.19 822,-190.66 828.88,-189.4"/>
</g>
<!-- src/Order.mo -->
<g id="node12" class="node">
<title>src/Order.mo</title>
<ellipse fill="none" stroke="black" cx="608.49" cy="-90" rx="68.79" ry="18"/>
<text text-anchor="middle" x="608.49" y="-86.3" font-family="Times-Roman" font-size="14.00">src/Order.mo</text>
</g>
<!-- src/List.mo&#45;&gt;src/Order.mo -->
<g id="edge22" class="edge">
<title>src/List.mo&#45;&gt;src/Order.mo</title>
<path fill="none" stroke="black" d="M828.21,-288.56C786.25,-250.83 682.9,-157.9 634.41,-114.3"/>
<polygon fill="black" stroke="black" points="636.61,-111.58 626.84,-107.49 631.93,-116.78 636.61,-111.58"/>
</g>
<!-- src/Option.mo&#45;&gt;src/Prelude.mo -->
<g id="edge16" class="edge">
<title>src/Option.mo&#45;&gt;src/Prelude.mo</title>
<path fill="none" stroke="black" d="M1347.18,-144.05C1351.78,-136.01 1357.38,-126.2 1362.51,-117.23"/>
<polygon fill="black" stroke="black" points="1365.7,-118.69 1367.62,-108.28 1359.62,-115.22 1365.7,-118.69"/>
</g>
<!-- src/Result.mo&#45;&gt;mo:⛔ -->
<g id="edge17" class="edge">
<title>src/Result.mo&#45;&gt;mo:⛔</title>
<path fill="none" stroke="black" d="M845.61,-144.97C880.1,-123.9 944.77,-87.73 1005.49,-72 1169.86,-29.42 1700.46,-20.96 1862.23,-19.36"/>
<polygon fill="black" stroke="black" points="1862.38,-22.86 1872.35,-19.26 1862.32,-15.86 1862.38,-22.86"/>
</g>
<!-- src/Result.mo&#45;&gt;src/Prelude.mo -->
<g id="edge18" class="edge">
<title>src/Result.mo&#45;&gt;src/Prelude.mo</title>
<path fill="none" stroke="black" d="M873.42,-149.69C884.01,-147.63 895.08,-145.62 905.49,-144 1041.88,-122.74 1201.73,-106.62 1296.03,-98.01"/>
<polygon fill="black" stroke="black" points="1296.43,-101.49 1306.07,-97.1 1295.8,-94.52 1296.43,-101.49"/>
</g>
<!-- src/Result.mo&#45;&gt;src/Order.mo -->
<g id="edge19" class="edge">
<title>src/Result.mo&#45;&gt;src/Order.mo</title>
<path fill="none" stroke="black" d="M778.86,-147.25C744.69,-135.97 696.16,-119.95 659.63,-107.89"/>
<polygon fill="black" stroke="black" points="660.26,-104.41 649.67,-104.6 658.07,-111.05 660.26,-104.41"/>
</g>
<!-- src/Nat.mo -->
<g id="node13" class="node">
<title>src/Nat.mo</title>
<ellipse fill="none" stroke="black" cx="310.49" cy="-594" rx="59.59" ry="18"/>
<text text-anchor="middle" x="310.49" y="-590.3" font-family="Times-Roman" font-size="14.00">src/Nat.mo</text>
</g>
<!-- src/Nat.mo&#45;&gt;src/Int.mo -->
<g id="edge24" class="edge">
<title>src/Nat.mo&#45;&gt;src/Int.mo</title>
<path fill="none" stroke="black" d="M369.53,-590.49C623.65,-579.67 1623.52,-537.13 1889.96,-525.79"/>
<polygon fill="black" stroke="black" points="1890.4,-529.27 1900.24,-525.35 1890.1,-522.28 1890.4,-529.27"/>
</g>
<!-- src/Nat.mo&#45;&gt;mo:⛔ -->
<g id="edge26" class="edge">
<title>src/Nat.mo&#45;&gt;mo:⛔</title>
<path fill="none" stroke="black" d="M310.49,-575.95C310.49,-549.29 310.49,-496.11 310.49,-451 310.49,-451 310.49,-451 310.49,-161 310.49,-102.49 353.35,-94.18 407.49,-72 544.66,-15.8 1621.85,-17.61 1862.1,-18.73"/>
<polygon fill="black" stroke="black" points="1862.23,-22.23 1872.25,-18.78 1862.27,-15.23 1862.23,-22.23"/>
</g>
<!-- src/Nat.mo&#45;&gt;src/Order.mo -->
<g id="edge25" class="edge">
<title>src/Nat.mo&#45;&gt;src/Order.mo</title>
<path fill="none" stroke="black" d="M318.18,-575.91C329.29,-549.62 348.49,-497.45 348.49,-451 348.49,-451 348.49,-451 348.49,-377 348.49,-247.65 495.9,-150.95 568.73,-111.06"/>
<polygon fill="black" stroke="black" points="570.5,-114.08 577.65,-106.25 567.18,-107.92 570.5,-114.08"/>
</g>
<!-- src/Nat8.mo -->
<g id="node14" class="node">
<title>src/Nat8.mo</title>
<ellipse fill="none" stroke="black" cx="1798.49" cy="-666" rx="65.79" ry="18"/>
<text text-anchor="middle" x="1798.49" y="-662.3" font-family="Times-Roman" font-size="14.00">src/Nat8.mo</text>
</g>
<!-- src/Nat8.mo&#45;&gt;mo:⛔ -->
<g id="edge28" class="edge">
<title>src/Nat8.mo&#45;&gt;mo:⛔</title>
<path fill="none" stroke="black" d="M1864.06,-664.39C2071.32,-662.06 2710.6,-651.76 2913.49,-612 3030.06,-589.16 3165.49,-641.78 3165.49,-523 3165.49,-523 3165.49,-523 3165.49,-161 3165.49,-118.81 3166.59,-96.84 3132.49,-72 3084.16,-36.8 2175.54,-22.53 1956.64,-19.59"/>
<polygon fill="black" stroke="black" points="1956.49,-16.09 1946.45,-19.46 1956.4,-23.09 1956.49,-16.09"/>
</g>
<!-- src/Nat8.mo&#45;&gt;src/Nat.mo -->
<g id="edge27" class="edge">
<title>src/Nat8.mo&#45;&gt;src/Nat.mo</title>
<path fill="none" stroke="black" d="M1734.08,-661.97C1490.89,-650.53 629.72,-610.02 379.28,-598.24"/>
<polygon fill="black" stroke="black" points="379.37,-594.74 369.22,-597.76 379.05,-601.73 379.37,-594.74"/>
</g>
<!-- src/Text.mo -->
<g id="node15" class="node">
<title>src/Text.mo</title>
<ellipse fill="none" stroke="black" cx="711.49" cy="-522" rx="61.99" ry="18"/>
<text text-anchor="middle" x="711.49" y="-518.3" font-family="Times-Roman" font-size="14.00">src/Text.mo</text>
</g>
<!-- src/Text.mo&#45;&gt;mo:⛔ -->
<g id="edge33" class="edge">
<title>src/Text.mo&#45;&gt;mo:⛔</title>
<path fill="none" stroke="black" d="M654.11,-515.18C589.57,-507.55 490.02,-492.24 461.49,-468 378.6,-397.55 386.49,-343.79 386.49,-235 386.49,-235 386.49,-235 386.49,-161 386.49,-97.42 438.87,-94.07 498.49,-72 628.54,-23.86 1631.02,-19.41 1862.09,-19.03"/>
<polygon fill="black" stroke="black" points="1862.2,-22.53 1872.19,-19.02 1862.19,-15.53 1862.2,-22.53"/>
</g>
<!-- src/Text.mo&#45;&gt;src/Hash.mo -->
<g id="edge31" class="edge">
<title>src/Text.mo&#45;&gt;src/Hash.mo</title>
<path fill="none" stroke="black" d="M769.44,-515.74C907.92,-503.17 1257.8,-471.4 1409.96,-457.59"/>
<polygon fill="black" stroke="black" points="1410.48,-461.05 1420.13,-456.66 1409.85,-454.08 1410.48,-461.05"/>
</g>
<!-- src/Text.mo&#45;&gt;src/Iter.mo -->
<g id="edge30" class="edge">
<title>src/Text.mo&#45;&gt;src/Iter.mo</title>
<path fill="none" stroke="black" d="M744.07,-506.48C789.45,-486.82 874.69,-451.88 950.49,-432 1043,-407.74 1152.92,-392.97 1221.21,-385.38"/>
<polygon fill="black" stroke="black" points="1221.83,-388.84 1231.39,-384.27 1221.07,-381.88 1221.83,-388.84"/>
</g>
<!-- src/Char.mo -->
<g id="node16" class="node">
<title>src/Char.mo</title>
<ellipse fill="none" stroke="black" cx="478.49" cy="-306" rx="64.19" ry="18"/>
<text text-anchor="middle" x="478.49" y="-302.3" font-family="Times-Roman" font-size="14.00">src/Char.mo</text>
</g>
<!-- src/Text.mo&#45;&gt;src/Char.mo -->
<g id="edge29" class="edge">
<title>src/Text.mo&#45;&gt;src/Char.mo</title>
<path fill="none" stroke="black" d="M653.59,-515.69C592.72,-508.77 502.85,-494.33 481.49,-468 450.85,-430.22 460.48,-369.42 469.79,-334.35"/>
<polygon fill="black" stroke="black" points="473.26,-334.92 472.62,-324.34 466.53,-333.01 473.26,-334.92"/>
</g>
<!-- src/Stack.mo -->
<g id="node17" class="node">
<title>src/Stack.mo</title>
<ellipse fill="none" stroke="black" cx="711.49" cy="-378" rx="68.79" ry="18"/>
<text text-anchor="middle" x="711.49" y="-374.3" font-family="Times-Roman" font-size="14.00">src/Stack.mo</text>
</g>
<!-- src/Text.mo&#45;&gt;src/Stack.mo -->
<g id="edge32" class="edge">
<title>src/Text.mo&#45;&gt;src/Stack.mo</title>
<path fill="none" stroke="black" d="M711.49,-503.87C711.49,-479.67 711.49,-435.21 711.49,-406.39"/>
<polygon fill="black" stroke="black" points="714.99,-406.19 711.49,-396.19 707.99,-406.19 714.99,-406.19"/>
</g>
<!-- src/Char.mo&#45;&gt;mo:⛔ -->
<g id="edge34" class="edge">
<title>src/Char.mo&#45;&gt;mo:⛔</title>
<path fill="none" stroke="black" d="M476.13,-287.74C471.17,-243.66 465.07,-126.53 530.49,-72 582.69,-28.5 1625.56,-20.47 1862.07,-19.21"/>
<polygon fill="black" stroke="black" points="1862.42,-22.71 1872.4,-19.16 1862.38,-15.71 1862.42,-22.71"/>
</g>
<!-- src/Stack.mo&#45;&gt;src/List.mo -->
<g id="edge35" class="edge">
<title>src/Stack.mo&#45;&gt;src/List.mo</title>
<path fill="none" stroke="black" d="M741.12,-361.64C761,-351.33 787.35,-337.66 808.73,-326.58"/>
<polygon fill="black" stroke="black" points="810.6,-329.56 817.86,-321.85 807.37,-323.34 810.6,-329.56"/>
</g>
<!-- src/Int16.mo -->
<g id="node18" class="node">
<title>src/Int16.mo</title>
<ellipse fill="none" stroke="black" cx="1876.49" cy="-594" rx="67.69" ry="18"/>
<text text-anchor="middle" x="1876.49" y="-590.3" font-family="Times-Roman" font-size="14.00">src/Int16.mo</text>
</g>
<!-- src/Int16.mo&#45;&gt;src/Int.mo -->
<g id="edge36" class="edge">
<title>src/Int16.mo&#45;&gt;src/Int.mo</title>
<path fill="none" stroke="black" d="M1895.22,-576.41C1905.42,-567.37 1918.22,-556.03 1929.39,-546.13"/>
<polygon fill="black" stroke="black" points="1932.02,-548.48 1937.18,-539.23 1927.37,-543.24 1932.02,-548.48"/>
</g>
<!-- src/Int16.mo&#45;&gt;mo:⛔ -->
<g id="edge37" class="edge">
<title>src/Int16.mo&#45;&gt;mo:⛔</title>
<path fill="none" stroke="black" d="M1878.97,-576.01C1886.65,-522.87 1909.49,-360.23 1909.49,-307 1909.49,-307 1909.49,-307 1909.49,-161 1909.49,-121 1909.49,-74.65 1909.49,-46.08"/>
<polygon fill="black" stroke="black" points="1912.99,-46.05 1909.49,-36.05 1905.99,-46.05 1912.99,-46.05"/>
</g>
<!-- src/Blob.mo -->
<g id="node19" class="node">
<title>src/Blob.mo</title>
<ellipse fill="none" stroke="black" cx="2248.49" cy="-234" rx="63.89" ry="18"/>
<text text-anchor="middle" x="2248.49" y="-230.3" font-family="Times-Roman" font-size="14.00">src/Blob.mo</text>
</g>
<!-- src/Blob.mo&#45;&gt;mo:⛔ -->
<g id="edge38" class="edge">
<title>src/Blob.mo&#45;&gt;mo:⛔</title>
<path fill="none" stroke="black" d="M2267.54,-216.72C2301.66,-185.65 2366.12,-116.98 2326.49,-72 2302.33,-44.57 2060.54,-27.61 1956.59,-21.53"/>
<polygon fill="black" stroke="black" points="1956.57,-18.03 1946.38,-20.95 1956.16,-25.02 1956.57,-18.03"/>
</g>
<!-- src/Nat16.mo -->
<g id="node20" class="node">
<title>src/Nat16.mo</title>
<ellipse fill="none" stroke="black" cx="2573.49" cy="-666" rx="71.49" ry="18"/>
<text text-anchor="middle" x="2573.49" y="-662.3" font-family="Times-Roman" font-size="14.00">src/Nat16.mo</text>
</g>
<!-- src/Nat16.mo&#45;&gt;mo:⛔ -->
<g id="edge40" class="edge">
<title>src/Nat16.mo&#45;&gt;mo:⛔</title>
<path fill="none" stroke="black" d="M2644.54,-663.86C2809.3,-659.3 3203.49,-636.52 3203.49,-523 3203.49,-523 3203.49,-523 3203.49,-161 3203.49,-117.07 3197.2,-96.13 3160.49,-72 3109.31,-38.35 2178.27,-22.87 1956.58,-19.65"/>
<polygon fill="black" stroke="black" points="1956.62,-16.15 1946.57,-19.5 1956.52,-23.15 1956.62,-16.15"/>
</g>
<!-- src/Nat16.mo&#45;&gt;src/Nat.mo -->
<g id="edge39" class="edge">
<title>src/Nat16.mo&#45;&gt;src/Nat.mo</title>
<path fill="none" stroke="black" d="M2502.97,-662.82C2165.12,-652.37 714.65,-607.5 379.7,-597.14"/>
<polygon fill="black" stroke="black" points="379.75,-593.64 369.65,-596.83 379.54,-600.64 379.75,-593.64"/>
</g>
<!-- src/ExperimentalCycles.mo -->
<g id="node21" class="node">
<title>src/ExperimentalCycles.mo</title>
<ellipse fill="none" stroke="black" cx="2184.49" cy="-90" rx="133.48" ry="18"/>
<text text-anchor="middle" x="2184.49" y="-86.3" font-family="Times-Roman" font-size="14.00">src/ExperimentalCycles.mo</text>
</g>
<!-- src/ExperimentalCycles.mo&#45;&gt;mo:⛔ -->
<g id="edge41" class="edge">
<title>src/ExperimentalCycles.mo&#45;&gt;mo:⛔</title>
<path fill="none" stroke="black" d="M2124.82,-73.81C2072.43,-60.47 1997.56,-41.42 1951.32,-29.65"/>
<polygon fill="black" stroke="black" points="1952.17,-26.25 1941.62,-27.18 1950.45,-33.04 1952.17,-26.25"/>
</g>
<!-- src/Float.mo -->
<g id="node22" class="node">
<title>src/Float.mo</title>
<ellipse fill="none" stroke="black" cx="2035.49" cy="-594" rx="65.79" ry="18"/>
<text text-anchor="middle" x="2035.49" y="-590.3" font-family="Times-Roman" font-size="14.00">src/Float.mo</text>
</g>
<!-- src/Float.mo&#45;&gt;src/Int.mo -->
<g id="edge43" class="edge">
<title>src/Float.mo&#45;&gt;src/Int.mo</title>
<path fill="none" stroke="black" d="M2016.53,-576.41C2006.1,-567.28 1992.99,-555.81 1981.6,-545.84"/>
<polygon fill="black" stroke="black" points="1983.87,-543.18 1974.04,-539.23 1979.26,-548.45 1983.87,-543.18"/>
</g>
<!-- src/Float.mo&#45;&gt;mo:⛔ -->
<g id="edge42" class="edge">
<title>src/Float.mo&#45;&gt;mo:⛔</title>
<path fill="none" stroke="black" d="M2033.15,-575.83C2030.57,-557.83 2026.03,-528.77 2020.49,-504 2007.9,-447.7 1985.49,-436.69 1985.49,-379 1985.49,-379 1985.49,-379 1985.49,-161 1985.49,-114.63 1953.6,-68.74 1931.13,-42.18"/>
<polygon fill="black" stroke="black" points="1933.72,-39.81 1924.51,-34.57 1928.44,-44.41 1933.72,-39.81"/>
</g>
<!-- src/Heap.mo -->
<g id="node23" class="node">
<title>src/Heap.mo</title>
<ellipse fill="none" stroke="black" cx="558.49" cy="-450" rx="67.69" ry="18"/>
<text text-anchor="middle" x="558.49" y="-446.3" font-family="Times-Roman" font-size="14.00">src/Heap.mo</text>
</g>
<!-- src/Heap.mo&#45;&gt;src/Prelude.mo -->
<g id="edge45" class="edge">
<title>src/Heap.mo&#45;&gt;src/Prelude.mo</title>
<path fill="none" stroke="black" d="M556.29,-431.85C554.76,-412.53 555.21,-381.08 570.49,-360 602.87,-315.34 964.77,-160.2 1017.49,-144 1109.34,-115.77 1219.12,-102.38 1293.11,-96.16"/>
<polygon fill="black" stroke="black" points="1293.63,-99.63 1303.31,-95.32 1293.06,-92.65 1293.63,-99.63"/>
</g>
<!-- src/Heap.mo&#45;&gt;src/Iter.mo -->
<g id="edge47" class="edge">
<title>src/Heap.mo&#45;&gt;src/Iter.mo</title>
<path fill="none" stroke="black" d="M620.88,-443C757.45,-429.87 1081.79,-398.68 1221.08,-385.29"/>
<polygon fill="black" stroke="black" points="1221.57,-388.76 1231.19,-384.32 1220.9,-381.79 1221.57,-388.76"/>
</g>
<!-- src/Heap.mo&#45;&gt;src/List.mo -->
<g id="edge46" class="edge">
<title>src/Heap.mo&#45;&gt;src/List.mo</title>
<path fill="none" stroke="black" d="M561.83,-431.73C566.69,-411.38 577.75,-378.06 600.49,-360 628,-338.16 718.01,-322.85 781.15,-314.48"/>
<polygon fill="black" stroke="black" points="781.96,-317.9 791.43,-313.14 781.06,-310.96 781.96,-317.9"/>
</g>
<!-- src/Heap.mo&#45;&gt;src/Order.mo -->
<g id="edge44" class="edge">
<title>src/Heap.mo&#45;&gt;src/Order.mo</title>
<path fill="none" stroke="black" d="M543.56,-432.26C529.06,-413.86 511.05,-383.75 524.49,-360 539.82,-332.94 567.8,-350.24 584.49,-324 625.41,-259.67 619.27,-164.61 613.05,-118.32"/>
<polygon fill="black" stroke="black" points="616.48,-117.56 611.58,-108.17 609.55,-118.57 616.48,-117.56"/>
</g>
<!-- src/Error.mo -->
<g id="node24" class="node">
<title>src/Error.mo</title>
<ellipse fill="none" stroke="black" cx="2438.49" cy="-90" rx="64.99" ry="18"/>
<text text-anchor="middle" x="2438.49" y="-86.3" font-family="Times-Roman" font-size="14.00">src/Error.mo</text>
</g>
<!-- src/Error.mo&#45;&gt;mo:⛔ -->
<g id="edge48" class="edge">
<title>src/Error.mo&#45;&gt;mo:⛔</title>
<path fill="none" stroke="black" d="M2390.17,-77.84C2380.07,-75.72 2369.46,-73.66 2359.49,-72 2212.89,-47.65 2037.59,-30.37 1955.8,-22.99"/>
<polygon fill="black" stroke="black" points="1956.09,-19.51 1945.82,-22.1 1955.47,-26.48 1956.09,-19.51"/>
</g>
<!-- src/Int8.mo -->
<g id="node25" class="node">
<title>src/Int8.mo</title>
<ellipse fill="none" stroke="black" cx="2244.49" cy="-594" rx="61.99" ry="18"/>
<text text-anchor="middle" x="2244.49" y="-590.3" font-family="Times-Roman" font-size="14.00">src/Int8.mo</text>
</g>
<!-- src/Int8.mo&#45;&gt;src/Int.mo -->
<g id="edge49" class="edge">
<title>src/Int8.mo&#45;&gt;src/Int.mo</title>
<path fill="none" stroke="black" d="M2198.7,-581.91C2147.01,-569.39 2063.03,-549.05 2008.53,-535.85"/>
<polygon fill="black" stroke="black" points="2009.26,-532.42 1998.71,-533.47 2007.61,-539.22 2009.26,-532.42"/>
</g>
<!-- src/Int8.mo&#45;&gt;mo:⛔ -->
<g id="edge50" class="edge">
<title>src/Int8.mo&#45;&gt;mo:⛔</title>
<path fill="none" stroke="black" d="M2288.08,-581.18C2368.37,-558.11 2531.49,-504.65 2531.49,-451 2531.49,-451 2531.49,-451 2531.49,-161 2531.49,-120.55 2542.79,-98.79 2512.49,-72 2471.11,-35.4 2090.89,-23.17 1956.38,-19.97"/>
<polygon fill="black" stroke="black" points="1956.45,-16.47 1946.38,-19.73 1956.29,-23.47 1956.45,-16.47"/>
</g>
<!-- src/Nat32.mo -->
<g id="node26" class="node">
<title>src/Nat32.mo</title>
<ellipse fill="none" stroke="black" cx="71.49" cy="-666" rx="71.49" ry="18"/>
<text text-anchor="middle" x="71.49" y="-662.3" font-family="Times-Roman" font-size="14.00">src/Nat32.mo</text>
</g>
<!-- src/Nat32.mo&#45;&gt;mo:⛔ -->
<g id="edge52" class="edge">
<title>src/Nat32.mo&#45;&gt;mo:⛔</title>
<path fill="none" stroke="black" d="M71.3,-647.95C71,-621.29 70.49,-568.12 70.49,-523 70.49,-523 70.49,-523 70.49,-161 70.49,-113.79 87.32,-95.11 128.49,-72 206.23,-28.37 1588.27,-20.34 1862.44,-19.17"/>
<polygon fill="black" stroke="black" points="1862.48,-22.67 1872.46,-19.13 1862.45,-15.67 1862.48,-22.67"/>
</g>
<!-- src/Nat32.mo&#45;&gt;src/Nat.mo -->
<g id="edge51" class="edge">
<title>src/Nat32.mo&#45;&gt;src/Nat.mo</title>
<path fill="none" stroke="black" d="M116.17,-651.92C156.9,-639.98 217.05,-622.37 259.62,-609.9"/>
<polygon fill="black" stroke="black" points="260.62,-613.25 269.23,-607.08 258.65,-606.54 260.62,-613.25"/>
</g>
<!-- src/Trie.mo -->
<g id="node27" class="node">
<title>src/Trie.mo</title>
<ellipse fill="none" stroke="black" cx="1147.49" cy="-522" rx="59.59" ry="18"/>
<text text-anchor="middle" x="1147.49" y="-518.3" font-family="Times-Roman" font-size="14.00">src/Trie.mo</text>
</g>
<!-- src/Trie.mo&#45;&gt;mo:⛔ -->
<g id="edge53" class="edge">
<title>src/Trie.mo&#45;&gt;mo:⛔</title>
<path fill="none" stroke="black" d="M1201.5,-514.2C1228.76,-510.88 1262.35,-506.98 1292.49,-504 1341.97,-499.1 1699.19,-498.45 1738.49,-468 1812.11,-410.97 1834.85,-155.78 1875.49,-72 1880.17,-62.36 1886.24,-52.34 1891.97,-43.64"/>
<polygon fill="black" stroke="black" points="1895.02,-45.37 1897.72,-35.12 1889.22,-41.44 1895.02,-45.37"/>
</g>
<!-- src/Trie.mo&#45;&gt;src/Prelude.mo -->
<g id="edge54" class="edge">
<title>src/Trie.mo&#45;&gt;src/Prelude.mo</title>
<path fill="none" stroke="black" d="M1093.89,-513.94C1041.74,-505.85 967.89,-490.7 950.49,-468 940.76,-455.3 940.54,-444.53 950.49,-432 994.48,-376.62 1061.5,-451.38 1105.49,-396 1175.62,-307.72 1004.02,-230.35 1076.49,-144 1103.47,-111.86 1211.99,-99.2 1291.01,-94.22"/>
<polygon fill="black" stroke="black" points="1291.69,-97.69 1301.46,-93.6 1291.27,-90.7 1291.69,-97.69"/>
</g>
<!-- src/Trie.mo&#45;&gt;src/Hash.mo -->
<g id="edge56" class="edge">
<title>src/Trie.mo&#45;&gt;src/Hash.mo</title>
<path fill="none" stroke="black" d="M1195.14,-511.05C1254.55,-498.63 1356.21,-477.39 1421.33,-463.78"/>
<polygon fill="black" stroke="black" points="1422.38,-467.14 1431.45,-461.67 1420.95,-460.29 1422.38,-467.14"/>
</g>
<!-- src/Trie.mo&#45;&gt;src/Array.mo -->
<g id="edge57" class="edge">
<title>src/Trie.mo&#45;&gt;src/Array.mo</title>
<path fill="none" stroke="black" d="M1148.57,-503.97C1151.57,-456.29 1160.07,-321.18 1163.75,-262.63"/>
<polygon fill="black" stroke="black" points="1167.27,-262.51 1164.4,-252.31 1160.28,-262.07 1167.27,-262.51"/>
</g>
<!-- src/Trie.mo&#45;&gt;src/List.mo -->
<g id="edge58" class="edge">
<title>src/Trie.mo&#45;&gt;src/List.mo</title>
<path fill="none" stroke="black" d="M1093.52,-514.22C1034.24,-505.81 943.94,-489.87 917.49,-468 895.79,-450.05 868.52,-374.45 854.96,-333.54"/>
<polygon fill="black" stroke="black" points="858.26,-332.36 851.82,-323.95 851.6,-334.54 858.26,-332.36"/>
</g>
<!-- src/Trie.mo&#45;&gt;src/Option.mo -->
<g id="edge55" class="edge">
<title>src/Trie.mo&#45;&gt;src/Option.mo</title>
<path fill="none" stroke="black" d="M1154.41,-503.76C1166.54,-473.95 1192.91,-411.06 1219.49,-360 1252.43,-296.76 1296.93,-225.73 1320.77,-188.66"/>
<polygon fill="black" stroke="black" points="1323.88,-190.3 1326.37,-180 1318,-186.5 1323.88,-190.3"/>
</g>
<!-- src/AssocList.mo -->
<g id="node28" class="node">
<title>src/AssocList.mo</title>
<ellipse fill="none" stroke="black" cx="1045.49" cy="-450" rx="85.59" ry="18"/>
<text text-anchor="middle" x="1045.49" y="-446.3" font-family="Times-Roman" font-size="14.00">src/AssocList.mo</text>
</g>
<!-- src/Trie.mo&#45;&gt;src/AssocList.mo -->
<g id="edge59" class="edge">
<title>src/Trie.mo&#45;&gt;src/AssocList.mo</title>
<path fill="none" stroke="black" d="M1124.6,-505.29C1110.85,-495.86 1093.14,-483.7 1077.97,-473.29"/>
<polygon fill="black" stroke="black" points="1079.6,-470.16 1069.37,-467.39 1075.64,-475.93 1079.6,-470.16"/>
</g>
<!-- src/AssocList.mo&#45;&gt;src/List.mo -->
<g id="edge60" class="edge">
<title>src/AssocList.mo&#45;&gt;src/List.mo</title>
<path fill="none" stroke="black" d="M1008.93,-433.45C988.32,-423.95 962.56,-410.79 941.49,-396 926.7,-385.62 893.32,-353.47 870.34,-330.81"/>
<polygon fill="black" stroke="black" points="872.56,-328.08 862.99,-323.53 867.64,-333.06 872.56,-328.08"/>
</g>
<!-- src/Random.mo -->
<g id="node29" class="node">
<title>src/Random.mo</title>
<ellipse fill="none" stroke="black" cx="1648.49" cy="-450" rx="81.49" ry="18"/>
<text text-anchor="middle" x="1648.49" y="-446.3" font-family="Times-Roman" font-size="14.00">src/Random.mo</text>
</g>
<!-- src/Random.mo&#45;&gt;mo:⛔ -->
<g id="edge64" class="edge">
<title>src/Random.mo&#45;&gt;mo:⛔</title>
<path fill="none" stroke="black" d="M1660.19,-431.73C1666.84,-421.56 1675.09,-408.31 1681.49,-396 1753.74,-257.15 1716.22,-189.61 1819.49,-72 1833.86,-55.64 1854.55,-42.97 1872.47,-34.12"/>
<polygon fill="black" stroke="black" points="1873.99,-37.28 1881.54,-29.85 1871,-30.94 1873.99,-37.28"/>
</g>
<!-- src/Random.mo&#45;&gt;src/Prelude.mo -->
<g id="edge63" class="edge">
<title>src/Random.mo&#45;&gt;src/Prelude.mo</title>
<path fill="none" stroke="black" d="M1653.96,-431.71C1661.85,-405.18 1675.49,-352.67 1675.49,-307 1675.49,-307 1675.49,-307 1675.49,-233 1675.49,-137.81 1550.04,-106.36 1461.93,-96.02"/>
<polygon fill="black" stroke="black" points="1462.25,-92.53 1451.92,-94.91 1461.48,-99.49 1462.25,-92.53"/>
</g>
<!-- src/Random.mo&#45;&gt;src/Iter.mo -->
<g id="edge61" class="edge">
<title>src/Random.mo&#45;&gt;src/Iter.mo</title>
<path fill="none" stroke="black" d="M1589.53,-437.6C1521.97,-424.53 1411.97,-403.26 1344.72,-390.26"/>
<polygon fill="black" stroke="black" points="1345.2,-386.79 1334.72,-388.32 1343.87,-393.66 1345.2,-386.79"/>
</g>
<!-- src/Random.mo&#45;&gt;src/Option.mo -->
<g id="edge62" class="edge">
<title>src/Random.mo&#45;&gt;src/Option.mo</title>
<path fill="none" stroke="black" d="M1630.43,-432.39C1577.82,-384.01 1424.6,-243.11 1363.29,-186.73"/>
<polygon fill="black" stroke="black" points="1365.34,-183.85 1355.61,-179.66 1360.6,-189 1365.34,-183.85"/>
</g>
<!-- src/Nat64.mo -->
<g id="node30" class="node">
<title>src/Nat64.mo</title>
<ellipse fill="none" stroke="black" cx="233.49" cy="-666" rx="71.49" ry="18"/>
<text text-anchor="middle" x="233.49" y="-662.3" font-family="Times-Roman" font-size="14.00">src/Nat64.mo</text>
</g>
<!-- src/Nat64.mo&#45;&gt;mo:⛔ -->
<g id="edge66" class="edge">
<title>src/Nat64.mo&#45;&gt;mo:⛔</title>
<path fill="none" stroke="black" d="M205.13,-649.39C168.25,-626.76 108.49,-581.13 108.49,-523 108.49,-523 108.49,-523 108.49,-161 108.49,-83.1 184.68,-93.7 259.49,-72 416.71,-26.39 1607.49,-19.98 1861.8,-19.12"/>
<polygon fill="black" stroke="black" points="1862.19,-22.62 1872.17,-19.09 1862.16,-15.62 1862.19,-22.62"/>
</g>
<!-- src/Nat64.mo&#45;&gt;src/Nat.mo -->
<g id="edge65" class="edge">
<title>src/Nat64.mo&#45;&gt;src/Nat.mo</title>
<path fill="none" stroke="black" d="M251.74,-648.41C261.69,-639.37 274.16,-628.03 285.05,-618.13"/>
<polygon fill="black" stroke="black" points="287.6,-620.55 292.64,-611.23 282.89,-615.37 287.6,-620.55"/>
</g>
<!-- src/Deque.mo -->
<g id="node31" class="node">
<title>src/Deque.mo</title>
<ellipse fill="none" stroke="black" cx="1023.49" cy="-378" rx="73.39" ry="18"/>
<text text-anchor="middle" x="1023.49" y="-374.3" font-family="Times-Roman" font-size="14.00">src/Deque.mo</text>
</g>
<!-- src/Deque.mo&#45;&gt;src/Prelude.mo -->
<g id="edge68" class="edge">
<title>src/Deque.mo&#45;&gt;src/Prelude.mo</title>
<path fill="none" stroke="black" d="M1018.73,-359.88C1007.97,-317.14 986.93,-204.78 1043.49,-144 1076.15,-108.91 1203.03,-97.02 1290.65,-93.01"/>
<polygon fill="black" stroke="black" points="1291.02,-96.5 1300.86,-92.57 1290.72,-89.51 1291.02,-96.5"/>
</g>
<!-- src/Deque.mo&#45;&gt;src/List.mo -->
<g id="edge67" class="edge">
<title>src/Deque.mo&#45;&gt;src/List.mo</title>
<path fill="none" stroke="black" d="M986.39,-362.33C958.52,-351.3 920.24,-336.17 890.77,-324.51"/>
<polygon fill="black" stroke="black" points="891.73,-321.13 881.14,-320.7 889.16,-327.64 891.73,-321.13"/>
</g>
<!-- src/Debug.mo -->
<g id="node32" class="node">
<title>src/Debug.mo</title>
<ellipse fill="none" stroke="black" cx="209.49" cy="-306" rx="73.39" ry="18"/>
<text text-anchor="middle" x="209.49" y="-302.3" font-family="Times-Roman" font-size="14.00">src/Debug.mo</text>
</g>
<!-- src/Debug.mo&#45;&gt;mo:⛔ -->
<g id="edge69" class="edge">
<title>src/Debug.mo&#45;&gt;mo:⛔</title>
<path fill="none" stroke="black" d="M209.89,-287.75C211.94,-243.15 224.26,-123.91 296.49,-72 361.68,-25.15 1603.08,-19.71 1862.3,-19.08"/>
<polygon fill="black" stroke="black" points="1862.51,-22.58 1872.51,-19.06 1862.5,-15.58 1862.51,-22.58"/>
</g>
<!-- src/Int64.mo -->
<g id="node33" class="node">
<title>src/Int64.mo</title>
<ellipse fill="none" stroke="black" cx="2450.49" cy="-594" rx="67.69" ry="18"/>
<text text-anchor="middle" x="2450.49" y="-590.3" font-family="Times-Roman" font-size="14.00">src/Int64.mo</text>
</g>
<!-- src/Int64.mo&#45;&gt;src/Int.mo -->
<g id="edge70" class="edge">
<title>src/Int64.mo&#45;&gt;src/Int.mo</title>
<path fill="none" stroke="black" d="M2390.65,-585.46C2313.7,-575.64 2175.98,-557.63 2058.49,-540 2043.93,-537.81 2028.24,-535.3 2013.6,-532.89"/>
<polygon fill="black" stroke="black" points="2014.09,-529.43 2003.66,-531.25 2012.95,-536.33 2014.09,-529.43"/>
</g>
<!-- src/Int64.mo&#45;&gt;mo:⛔ -->
<g id="edge71" class="edge">
<title>src/Int64.mo&#45;&gt;mo:⛔</title>
<path fill="none" stroke="black" d="M2477.2,-577.24C2512.28,-554.28 2569.49,-508.09 2569.49,-451 2569.49,-451 2569.49,-451 2569.49,-161 2569.49,-118.97 2570.83,-97.6 2537.49,-72 2491.72,-36.84 2094.77,-23.64 1956.64,-20.08"/>
<polygon fill="black" stroke="black" points="1956.46,-16.57 1946.38,-19.82 1956.29,-23.57 1956.46,-16.57"/>
</g>
<!-- src/HashMap.mo -->
<g id="node34" class="node">
<title>src/HashMap.mo</title>
<ellipse fill="none" stroke="black" cx="1387.49" cy="-522" rx="85.59" ry="18"/>
<text text-anchor="middle" x="1387.49" y="-518.3" font-family="Times-Roman" font-size="14.00">src/HashMap.mo</text>
</g>
<!-- src/HashMap.mo&#45;&gt;mo:⛔ -->
<g id="edge72" class="edge">
<title>src/HashMap.mo&#45;&gt;mo:⛔</title>
<path fill="none" stroke="black" d="M1465.64,-514.33C1570.84,-504.74 1747.64,-486.18 1771.49,-468 1861.12,-399.69 1871.49,-347.69 1871.49,-235 1871.49,-235 1871.49,-235 1871.49,-161 1871.49,-119.41 1886.9,-73.22 1898.09,-45.14"/>
<polygon fill="black" stroke="black" points="1901.42,-46.24 1901.99,-35.66 1894.95,-43.58 1901.42,-46.24"/>
</g>
<!-- src/HashMap.mo&#45;&gt;src/Prelude.mo -->
<g id="edge73" class="edge">
<title>src/HashMap.mo&#45;&gt;src/Prelude.mo</title>
<path fill="none" stroke="black" d="M1389.11,-504C1391.32,-485.63 1396.23,-455.79 1406.49,-432 1465.74,-294.69 1671.91,-262.35 1580.49,-144 1564.73,-123.6 1504.33,-109.55 1453.47,-101.07"/>
<polygon fill="black" stroke="black" points="1453.88,-97.59 1443.45,-99.45 1452.76,-104.5 1453.88,-97.59"/>
</g>
<!-- src/HashMap.mo&#45;&gt;src/Hash.mo -->
<g id="edge75" class="edge">
<title>src/HashMap.mo&#45;&gt;src/Hash.mo</title>
<path fill="none" stroke="black" d="M1410.01,-504.41C1422.64,-495.1 1438.57,-483.37 1452.27,-473.27"/>
<polygon fill="black" stroke="black" points="1454.49,-475.98 1460.47,-467.23 1450.34,-470.34 1454.49,-475.98"/>
</g>
<!-- src/HashMap.mo&#45;&gt;src/Iter.mo -->
<g id="edge76" class="edge">
<title>src/HashMap.mo&#45;&gt;src/Iter.mo</title>
<path fill="none" stroke="black" d="M1368.38,-503.96C1357.94,-494.07 1345.19,-481.03 1335.49,-468 1320.77,-448.21 1307.51,-423.48 1298.51,-405.11"/>
<polygon fill="black" stroke="black" points="1301.56,-403.39 1294.08,-395.89 1295.25,-406.42 1301.56,-403.39"/>
</g>
<!-- src/HashMap.mo&#45;&gt;src/Array.mo -->
<g id="edge74" class="edge">
<title>src/HashMap.mo&#45;&gt;src/Array.mo</title>
<path fill="none" stroke="black" d="M1382.63,-503.89C1379.77,-493.55 1376.2,-480.07 1373.49,-468 1362.81,-420.37 1380.39,-400.74 1353.49,-360 1319.29,-308.2 1255.45,-272.65 1211.74,-253.07"/>
<polygon fill="black" stroke="black" points="1213.02,-249.81 1202.46,-249.02 1210.22,-256.23 1213.02,-249.81"/>
</g>
<!-- src/HashMap.mo&#45;&gt;src/AssocList.mo -->
<g id="edge77" class="edge">
<title>src/HashMap.mo&#45;&gt;src/AssocList.mo</title>
<path fill="none" stroke="black" d="M1328.31,-508.89C1268.79,-496.7 1177.08,-477.93 1114.33,-465.09"/>
<polygon fill="black" stroke="black" points="1115.02,-461.66 1104.52,-463.08 1113.62,-468.52 1115.02,-461.66"/>
</g>
<!-- src/Principal.mo -->
<g id="node35" class="node">
<title>src/Principal.mo</title>
<ellipse fill="none" stroke="black" cx="2150.49" cy="-522" rx="82.59" ry="18"/>
<text text-anchor="middle" x="2150.49" y="-518.3" font-family="Times-Roman" font-size="14.00">src/Principal.mo</text>
</g>
<!-- src/Principal.mo&#45;&gt;mo:⛔ -->
<g id="edge78" class="edge">
<title>src/Principal.mo&#45;&gt;mo:⛔</title>
<path fill="none" stroke="black" d="M2121.04,-505.12C2083.52,-482.5 2023.49,-437.21 2023.49,-379 2023.49,-379 2023.49,-379 2023.49,-161 2023.49,-120.03 2024.32,-104.59 1999.49,-72 1986.39,-54.8 1965.98,-42.13 1947.9,-33.49"/>
<polygon fill="black" stroke="black" points="1949.26,-30.27 1938.71,-29.35 1946.38,-36.65 1949.26,-30.27"/>
</g>
<!-- src/Principal.mo&#45;&gt;src/Hash.mo -->
<g id="edge80" class="edge">
<title>src/Principal.mo&#45;&gt;src/Hash.mo</title>
<path fill="none" stroke="black" d="M2083.1,-511.51C2062.98,-508.86 2040.87,-506.12 2020.49,-504 1815.65,-482.64 1762.17,-498.56 1558.49,-468 1552.58,-467.11 1546.45,-466.03 1540.34,-464.83"/>
<polygon fill="black" stroke="black" points="1540.64,-461.32 1530.14,-462.75 1539.23,-468.18 1540.64,-461.32"/>
</g>
<!-- src/Principal.mo&#45;&gt;src/Blob.mo -->
<g id="edge79" class="edge">
<title>src/Principal.mo&#45;&gt;src/Blob.mo</title>
<path fill="none" stroke="black" d="M2156.33,-503.97C2172.77,-455.98 2219.57,-319.41 2239.42,-261.49"/>
<polygon fill="black" stroke="black" points="2242.76,-262.54 2242.69,-251.94 2236.13,-260.27 2242.76,-262.54"/>
</g>
<!-- src/Time.mo -->
<g id="node36" class="node">
<title>src/Time.mo</title>
<ellipse fill="none" stroke="black" cx="2663.49" cy="-90" rx="65.79" ry="18"/>
<text text-anchor="middle" x="2663.49" y="-86.3" font-family="Times-Roman" font-size="14.00">src/Time.mo</text>
</g>
<!-- src/Time.mo&#45;&gt;mo:⛔ -->
<g id="edge81" class="edge">
<title>src/Time.mo&#45;&gt;mo:⛔</title>
<path fill="none" stroke="black" d="M2615.45,-77.73C2604.96,-75.56 2593.89,-73.51 2583.49,-72 2349.71,-38.12 2066.94,-24.75 1956.7,-20.59"/>
<polygon fill="black" stroke="black" points="1956.7,-17.08 1946.58,-20.21 1956.44,-24.08 1956.7,-17.08"/>
</g>
<!-- src/CertifiedData.mo -->
<g id="node37" class="node">
<title>src/CertifiedData.mo</title>
<ellipse fill="none" stroke="black" cx="2850.49" cy="-90" rx="103.18" ry="18"/>
<text text-anchor="middle" x="2850.49" y="-86.3" font-family="Times-Roman" font-size="14.00">src/CertifiedData.mo</text>
</g>
<!-- src/CertifiedData.mo&#45;&gt;mo:⛔ -->
<g id="edge82" class="edge">
<title>src/CertifiedData.mo&#45;&gt;mo:⛔</title>
<path fill="none" stroke="black" d="M2778.32,-77.1C2765.09,-75.19 2751.4,-73.39 2738.49,-72 2441.78,-40.06 2083.08,-25.12 1956.48,-20.57"/>
<polygon fill="black" stroke="black" points="1956.48,-17.07 1946.36,-20.22 1956.23,-24.07 1956.48,-17.07"/>
</g>
<!-- src/RBTree.mo -->
<g id="node38" class="node">
<title>src/RBTree.mo</title>
<ellipse fill="none" stroke="black" cx="398.49" cy="-666" rx="75.29" ry="18"/>
<text text-anchor="middle" x="398.49" y="-662.3" font-family="Times-Roman" font-size="14.00">src/RBTree.mo</text>
</g>
<!-- src/RBTree.mo&#45;&gt;src/Iter.mo -->
<g id="edge84" class="edge">
<title>src/RBTree.mo&#45;&gt;src/Iter.mo</title>
<path fill="none" stroke="black" d="M474.05,-664.94C665.61,-664.12 1159.2,-657.56 1216.49,-612 1232.99,-598.88 1266.31,-464.61 1280.2,-406.05"/>
<polygon fill="black" stroke="black" points="1283.67,-406.58 1282.55,-396.05 1276.85,-404.98 1283.67,-406.58"/>
</g>
<!-- src/RBTree.mo&#45;&gt;src/List.mo -->
<g id="edge85" class="edge">
<title>src/RBTree.mo&#45;&gt;src/List.mo</title>
<path fill="none" stroke="black" d="M431.17,-649.74C485.55,-622.28 592.89,-558.82 635.49,-468 655.88,-424.54 603.93,-397.82 633.49,-360 651.64,-336.79 725.57,-322.28 781.28,-314.43"/>
<polygon fill="black" stroke="black" points="782.02,-317.86 791.45,-313.04 781.07,-310.93 782.02,-317.86"/>
</g>
<!-- src/RBTree.mo&#45;&gt;src/Order.mo -->
<g id="edge87" class="edge">
<title>src/RBTree.mo&#45;&gt;src/Order.mo</title>
<path fill="none" stroke="black" d="M402.07,-647.76C412.82,-598.95 448.33,-457.13 516.49,-360 529.31,-341.73 540.69,-343.52 551.49,-324 589.04,-256.18 602.12,-163.79 606.46,-118.42"/>
<polygon fill="black" stroke="black" points="609.97,-118.47 607.37,-108.2 603,-117.85 609.97,-118.47"/>
</g>
<!-- src/RBTree.mo&#45;&gt;src/Nat.mo -->
<g id="edge86" class="edge">
<title>src/RBTree.mo&#45;&gt;src/Nat.mo</title>
<path fill="none" stroke="black" d="M377.64,-648.41C365.96,-639.12 351.25,-627.42 338.58,-617.34"/>
<polygon fill="black" stroke="black" points="340.6,-614.47 330.59,-610.99 336.24,-619.95 340.6,-614.47"/>
</g>
<!-- src/RBTree.mo&#45;&gt;src/Debug.mo -->
<g id="edge83" class="edge">
<title>src/RBTree.mo&#45;&gt;src/Debug.mo</title>
<path fill="none" stroke="black" d="M346.11,-652.86C306.4,-642.68 256.23,-627.36 241.49,-612 212.96,-582.26 215.49,-564.21 215.49,-523 215.49,-523 215.49,-523 215.49,-449 215.49,-408.96 213.08,-362.63 211.32,-334.07"/>
<polygon fill="black" stroke="black" points="214.81,-333.8 210.68,-324.04 207.82,-334.24 214.81,-333.8"/>
</g>
<!-- src/Bool.mo -->
<g id="node39" class="node">
<title>src/Bool.mo</title>
<ellipse fill="none" stroke="black" cx="3035.49" cy="-90" rx="63.89" ry="18"/>
<text text-anchor="middle" x="3035.49" y="-86.3" font-family="Times-Roman" font-size="14.00">src/Bool.mo</text>
</g>
<!-- src/Bool.mo&#45;&gt;mo:⛔ -->
<g id="edge88" class="edge">
<title>src/Bool.mo&#45;&gt;mo:⛔</title>
<path fill="none" stroke="black" d="M2990.56,-77.21C2981.33,-75.16 2971.64,-73.29 2962.49,-72 2577.04,-17.86 2105.39,-17.09 1956.7,-18.39"/>
<polygon fill="black" stroke="black" points="1956.52,-14.89 1946.56,-18.48 1956.59,-21.89 1956.52,-14.89"/>
</g>
<!-- src/Int32.mo -->
<g id="node40" class="node">
<title>src/Int32.mo</title>
<ellipse fill="none" stroke="black" cx="2836.49" cy="-594" rx="67.69" ry="18"/>
<text text-anchor="middle" x="2836.49" y="-590.3" font-family="Times-Roman" font-size="14.00">src/Int32.mo</text>
</g>
<!-- src/Int32.mo&#45;&gt;src/Int.mo -->
<g id="edge89" class="edge">
<title>src/Int32.mo&#45;&gt;src/Int.mo</title>
<path fill="none" stroke="black" d="M2771.1,-589.35C2609.77,-580.23 2195.91,-555.98 2058.49,-540 2043.57,-538.26 2027.52,-535.87 2012.63,-533.43"/>
<polygon fill="black" stroke="black" points="2012.98,-529.94 2002.53,-531.74 2011.82,-536.84 2012.98,-529.94"/>
</g>
<!-- src/Int32.mo&#45;&gt;mo:⛔ -->
<g id="edge90" class="edge">
<title>src/Int32.mo&#45;&gt;mo:⛔</title>
<path fill="none" stroke="black" d="M2901.8,-589.28C2987.6,-580.46 3127.49,-550.78 3127.49,-451 3127.49,-451 3127.49,-451 3127.49,-161 3127.49,-120.55 3139.37,-98.13 3108.49,-72 3063.8,-34.17 2172.9,-21.91 1956.54,-19.48"/>
<polygon fill="black" stroke="black" points="1956.49,-15.98 1946.46,-19.37 1956.42,-22.98 1956.49,-15.98"/>
</g>
<!-- src/TrieSet.mo -->
<g id="node41" class="node">
<title>src/TrieSet.mo</title>
<ellipse fill="none" stroke="black" cx="1132.49" cy="-594" rx="74.99" ry="18"/>
<text text-anchor="middle" x="1132.49" y="-590.3" font-family="Times-Roman" font-size="14.00">src/TrieSet.mo</text>
</g>
<!-- src/TrieSet.mo&#45;&gt;src/Hash.mo -->
<g id="edge92" class="edge">
<title>src/TrieSet.mo&#45;&gt;src/Hash.mo</title>
<path fill="none" stroke="black" d="M1194.96,-584.06C1294.97,-569.68 1480.16,-542.72 1482.49,-540 1496.93,-523.22 1495.21,-497.35 1490.89,-477.82"/>
<polygon fill="black" stroke="black" points="1494.25,-476.82 1488.39,-467.99 1487.47,-478.54 1494.25,-476.82"/>
</g>
<!-- src/TrieSet.mo&#45;&gt;src/List.mo -->
<g id="edge93" class="edge">
<title>src/TrieSet.mo&#45;&gt;src/List.mo</title>
<path fill="none" stroke="black" d="M1059.69,-589.72C983.07,-584.61 869.72,-571.76 841.49,-540 790.29,-482.38 818.07,-381.47 835.63,-333.62"/>
<polygon fill="black" stroke="black" points="839.01,-334.58 839.29,-323.99 832.47,-332.09 839.01,-334.58"/>
</g>
<!-- src/TrieSet.mo&#45;&gt;src/Trie.mo -->
<g id="edge91" class="edge">
<title>src/TrieSet.mo&#45;&gt;src/Trie.mo</title>
<path fill="none" stroke="black" d="M1136.2,-575.7C1137.85,-567.98 1139.84,-558.71 1141.68,-550.11"/>
<polygon fill="black" stroke="black" points="1145.16,-550.62 1143.83,-540.1 1138.31,-549.15 1145.16,-550.62"/>
</g>
<!-- src/TrieMap.mo -->
<g id="node42" class="node">
<title>src/TrieMap.mo</title>
<ellipse fill="none" stroke="black" cx="1342.49" cy="-594" rx="79.09" ry="18"/>
<text text-anchor="middle" x="1342.49" y="-590.3" font-family="Times-Roman" font-size="14.00">src/TrieMap.mo</text>
</g>
<!-- src/TrieMap.mo&#45;&gt;src/Prelude.mo -->
<g id="edge95" class="edge">
<title>src/TrieMap.mo&#45;&gt;src/Prelude.mo</title>
<path fill="none" stroke="black" d="M1407.59,-583.69C1516.48,-566.63 1727.97,-526.63 1771.49,-468 1862.48,-345.42 1777.16,-238.77 1657.49,-144 1627.37,-120.14 1530.68,-105.72 1459.32,-98.07"/>
<polygon fill="black" stroke="black" points="1459.3,-94.55 1448.99,-96.99 1458.57,-101.51 1459.3,-94.55"/>
</g>
<!-- src/TrieMap.mo&#45;&gt;src/Hash.mo -->
<g id="edge97" class="edge">
<title>src/TrieMap.mo&#45;&gt;src/Hash.mo</title>
<path fill="none" stroke="black" d="M1419.45,-589.46C1454.65,-583.51 1493.36,-569.93 1515.49,-540 1529.68,-520.81 1517.26,-494.85 1503.79,-475.92"/>
<polygon fill="black" stroke="black" points="1506.44,-473.63 1497.62,-467.77 1500.86,-477.85 1506.44,-473.63"/>
</g>
<!-- src/TrieMap.mo&#45;&gt;src/Iter.mo -->
<g id="edge96" class="edge">
<title>src/TrieMap.mo&#45;&gt;src/Iter.mo</title>
<path fill="none" stroke="black" d="M1320.9,-576.57C1310.28,-567.15 1298.51,-554.35 1292.49,-540 1274.14,-496.19 1277.49,-439.67 1281.83,-406.57"/>
<polygon fill="black" stroke="black" points="1285.35,-406.69 1283.31,-396.29 1278.42,-405.69 1285.35,-406.69"/>
</g>
<!-- src/TrieMap.mo&#45;&gt;src/List.mo -->
<g id="edge98" class="edge">
<title>src/TrieMap.mo&#45;&gt;src/List.mo</title>
<path fill="none" stroke="black" d="M1278.85,-583.17C1167.92,-564.81 945.65,-522.22 890.49,-468 854.26,-432.38 847.02,-370.01 846.05,-334.26"/>
<polygon fill="black" stroke="black" points="849.55,-334.03 845.93,-324.07 842.55,-334.12 849.55,-334.03"/>
</g>
<!-- src/TrieMap.mo&#45;&gt;src/Trie.mo -->
<g id="edge94" class="edge">
<title>src/TrieMap.mo&#45;&gt;src/Trie.mo</title>
<path fill="none" stroke="black" d="M1302.09,-578.5C1270.75,-567.25 1227.26,-551.63 1194.38,-539.83"/>
<polygon fill="black" stroke="black" points="1195.14,-536.39 1184.55,-536.3 1192.78,-542.97 1195.14,-536.39"/>
</g>
</g>
</svg>
