<?xml version="1.0" encoding="UTF-8" standalone="no"?>
<!DOCTYPE svg PUBLIC "-//W3C//DTD SVG 1.1//EN"
 "http://www.w3.org/Graphics/SVG/1.1/DTD/svg11.dtd">
<!-- Generated by graphviz version 2.43.0 (0)
 -->
<!-- Title: Base Pages: 1 -->
<svg width="1739pt" height="620pt"
 viewBox="0.00 0.00 1738.74 620.00" xmlns="http://www.w3.org/2000/svg" xmlns:xlink="http://www.w3.org/1999/xlink">
<g id="graph0" class="graph" transform="scale(1 1) rotate(0) translate(4 616)">
<title>Base</title>
<polygon fill="white" stroke="transparent" points="-4,4 -4,-616 1734.74,-616 1734.74,4 -4,4"/>
<!-- src/List.mo -->
<g id="node1" class="node">
<title>src/List.mo</title>
<ellipse fill="none" stroke="black" cx="601" cy="-234" rx="59.59" ry="18"/>
<text text-anchor="middle" x="601" y="-230.3" font-family="Times-Roman" font-size="14.00">src/List.mo</text>
</g>
<!-- src/Array.mo -->
<g id="node2" class="node">
<title>src/Array.mo</title>
<ellipse fill="none" stroke="black" cx="906" cy="-162" rx="66.89" ry="18"/>
<text text-anchor="middle" x="906" y="-158.3" font-family="Times-Roman" font-size="14.00">src/Array.mo</text>
</g>
<!-- src/List.mo&#45;&gt;src/Array.mo -->
<g id="edge1" class="edge">
<title>src/List.mo&#45;&gt;src/Array.mo</title>
<path fill="none" stroke="black" d="M646.99,-222.44C700.4,-210.19 788.62,-189.94 847.02,-176.54"/>
<polygon fill="black" stroke="black" points="847.89,-179.93 856.85,-174.28 846.32,-173.11 847.89,-179.93"/>
</g>
<!-- src/Option.mo -->
<g id="node3" class="node">
<title>src/Option.mo</title>
<ellipse fill="none" stroke="black" cx="1140" cy="-90" rx="74.19" ry="18"/>
<text text-anchor="middle" x="1140" y="-86.3" font-family="Times-Roman" font-size="14.00">src/Option.mo</text>
</g>
<!-- src/List.mo&#45;&gt;src/Option.mo -->
<g id="edge2" class="edge">
<title>src/List.mo&#45;&gt;src/Option.mo</title>
<path fill="none" stroke="black" d="M632.14,-218.43C675.55,-198.7 757.12,-163.7 830,-144 928.61,-117.35 956.49,-126.25 1057,-108 1063.17,-106.88 1069.59,-105.66 1076.01,-104.41"/>
<polygon fill="black" stroke="black" points="1076.92,-107.79 1086.04,-102.42 1075.55,-100.93 1076.92,-107.79"/>
</g>
<!-- src/Order.mo -->
<g id="node4" class="node">
<title>src/Order.mo</title>
<ellipse fill="none" stroke="black" cx="114" cy="-18" rx="68.79" ry="18"/>
<text text-anchor="middle" x="114" y="-14.3" font-family="Times-Roman" font-size="14.00">src/Order.mo</text>
</g>
<!-- src/List.mo&#45;&gt;src/Order.mo -->
<g id="edge3" class="edge">
<title>src/List.mo&#45;&gt;src/Order.mo</title>
<path fill="none" stroke="black" d="M568.67,-218.79C483.54,-181.38 253.14,-80.14 157.02,-37.9"/>
<polygon fill="black" stroke="black" points="158.17,-34.59 147.6,-33.77 155.35,-40.99 158.17,-34.59"/>
</g>
<!-- src/Result.mo -->
<g id="node5" class="node">
<title>src/Result.mo</title>
<ellipse fill="none" stroke="black" cx="601" cy="-90" rx="71.49" ry="18"/>
<text text-anchor="middle" x="601" y="-86.3" font-family="Times-Roman" font-size="14.00">src/Result.mo</text>
</g>
<!-- src/List.mo&#45;&gt;src/Result.mo -->
<g id="edge4" class="edge">
<title>src/List.mo&#45;&gt;src/Result.mo</title>
<path fill="none" stroke="black" d="M601,-215.87C601,-191.67 601,-147.21 601,-118.39"/>
<polygon fill="black" stroke="black" points="604.5,-118.19 601,-108.19 597.5,-118.19 604.5,-118.19"/>
</g>
<!-- src/Array.mo&#45;&gt;src/Option.mo -->
<g id="edge7" class="edge">
<title>src/Array.mo&#45;&gt;src/Option.mo</title>
<path fill="none" stroke="black" d="M948.92,-148.16C987.27,-136.69 1043.67,-119.82 1085.26,-107.38"/>
<polygon fill="black" stroke="black" points="1086.38,-110.69 1094.96,-104.47 1084.38,-103.99 1086.38,-110.69"/>
</g>
<!-- src/Array.mo&#45;&gt;src/Result.mo -->
<g id="edge8" class="edge">
<title>src/Array.mo&#45;&gt;src/Result.mo</title>
<path fill="none" stroke="black" d="M856.66,-149.68C803.62,-137.5 719.23,-118.13 662.05,-105.01"/>
<polygon fill="black" stroke="black" points="662.58,-101.54 652.05,-102.72 661.02,-108.37 662.58,-101.54"/>
</g>
<!-- src/Buffer.mo -->
<g id="node6" class="node">
<title>src/Buffer.mo</title>
<ellipse fill="none" stroke="black" cx="799" cy="-90" rx="70.69" ry="18"/>
<text text-anchor="middle" x="799" y="-86.3" font-family="Times-Roman" font-size="14.00">src/Buffer.mo</text>
</g>
<!-- src/Array.mo&#45;&gt;src/Buffer.mo -->
<g id="edge5" class="edge">
<title>src/Array.mo&#45;&gt;src/Buffer.mo</title>
<path fill="none" stroke="black" d="M881.72,-145.12C867.05,-135.52 848.15,-123.15 832.12,-112.67"/>
<polygon fill="black" stroke="black" points="833.84,-109.61 823.55,-107.06 830.01,-115.47 833.84,-109.61"/>
</g>
<!-- src/IterType.mo -->
<g id="node7" class="node">
<title>src/IterType.mo</title>
<ellipse fill="none" stroke="black" cx="968" cy="-90" rx="79.89" ry="18"/>
<text text-anchor="middle" x="968" y="-86.3" font-family="Times-Roman" font-size="14.00">src/IterType.mo</text>
</g>
<!-- src/Array.mo&#45;&gt;src/IterType.mo -->
<g id="edge6" class="edge">
<title>src/Array.mo&#45;&gt;src/IterType.mo</title>
<path fill="none" stroke="black" d="M920.69,-144.41C928.3,-135.82 937.74,-125.16 946.19,-115.63"/>
<polygon fill="black" stroke="black" points="948.97,-117.76 952.98,-107.96 943.73,-113.12 948.97,-117.76"/>
</g>
<!-- src/Prelude.mo -->
<g id="node8" class="node">
<title>src/Prelude.mo</title>
<ellipse fill="none" stroke="black" cx="700" cy="-18" rx="77.19" ry="18"/>
<text text-anchor="middle" x="700" y="-14.3" font-family="Times-Roman" font-size="14.00">src/Prelude.mo</text>
</g>
<!-- src/Option.mo&#45;&gt;src/Prelude.mo -->
<g id="edge9" class="edge">
<title>src/Option.mo&#45;&gt;src/Prelude.mo</title>
<path fill="none" stroke="black" d="M1086.06,-77.51C1076.4,-75.58 1066.42,-73.66 1057,-72 960.2,-54.91 847.98,-38.87 775.59,-29"/>
<polygon fill="black" stroke="black" points="776.02,-25.53 765.64,-27.65 775.08,-32.46 776.02,-25.53"/>
</g>
<!-- src/Result.mo&#45;&gt;src/Order.mo -->
<g id="edge11" class="edge">
<title>src/Result.mo&#45;&gt;src/Order.mo</title>
<path fill="none" stroke="black" d="M540.31,-80.28C449.4,-67.21 278.4,-42.63 182.92,-28.91"/>
<polygon fill="black" stroke="black" points="183.19,-25.41 172.79,-27.45 182.19,-32.34 183.19,-25.41"/>
</g>
<!-- src/Result.mo&#45;&gt;src/Prelude.mo -->
<g id="edge10" class="edge">
<title>src/Result.mo&#45;&gt;src/Prelude.mo</title>
<path fill="none" stroke="black" d="M623.96,-72.76C637.24,-63.38 654.12,-51.44 668.61,-41.19"/>
<polygon fill="black" stroke="black" points="670.68,-44.02 676.82,-35.39 666.63,-38.31 670.68,-44.02"/>
</g>
<!-- src/HashMap.mo -->
<g id="node9" class="node">
<title>src/HashMap.mo</title>
<ellipse fill="none" stroke="black" cx="1066" cy="-450" rx="85.59" ry="18"/>
<text text-anchor="middle" x="1066" y="-446.3" font-family="Times-Roman" font-size="14.00">src/HashMap.mo</text>
</g>
<!-- src/HashMap.mo&#45;&gt;src/Array.mo -->
<g id="edge13" class="edge">
<title>src/HashMap.mo&#45;&gt;src/Array.mo</title>
<path fill="none" stroke="black" d="M1108.42,-434.29C1125.78,-425.93 1144.09,-413.55 1154,-396 1161.87,-382.07 1160.96,-374.41 1154,-360 1111.34,-271.63 1007.65,-210.74 948.74,-181.95"/>
<polygon fill="black" stroke="black" points="950.22,-178.78 939.69,-177.61 947.19,-185.09 950.22,-178.78"/>
</g>
<!-- src/HashMap.mo&#45;&gt;src/Prelude.mo -->
<g id="edge12" class="edge">
<title>src/HashMap.mo&#45;&gt;src/Prelude.mo</title>
<path fill="none" stroke="black" d="M1128.02,-437.49C1138.99,-435.57 1150.32,-433.67 1161,-432 1220.81,-422.67 1386.57,-437.11 1431,-396 1460.69,-368.53 1450,-347.45 1450,-307 1450,-307 1450,-307 1450,-161 1450,-71.36 1355.28,-96.34 1269,-72 1180.36,-47 921.01,-30.38 785.18,-23.14"/>
<polygon fill="black" stroke="black" points="784.99,-19.63 774.82,-22.59 784.63,-26.62 784.99,-19.63"/>
</g>
<!-- src/Hash.mo -->
<g id="node10" class="node">
<title>src/Hash.mo</title>
<ellipse fill="none" stroke="black" cx="1061" cy="-378" rx="66.89" ry="18"/>
<text text-anchor="middle" x="1061" y="-374.3" font-family="Times-Roman" font-size="14.00">src/Hash.mo</text>
</g>
<!-- src/HashMap.mo&#45;&gt;src/Hash.mo -->
<g id="edge14" class="edge">
<title>src/HashMap.mo&#45;&gt;src/Hash.mo</title>
<path fill="none" stroke="black" d="M1064.76,-431.7C1064.21,-423.98 1063.55,-414.71 1062.94,-406.11"/>
<polygon fill="black" stroke="black" points="1066.43,-405.83 1062.22,-396.1 1059.44,-406.33 1066.43,-405.83"/>
</g>
<!-- src/Iter.mo -->
<g id="node11" class="node">
<title>src/Iter.mo</title>
<ellipse fill="none" stroke="black" cx="824" cy="-306" rx="58.49" ry="18"/>
<text text-anchor="middle" x="824" y="-302.3" font-family="Times-Roman" font-size="14.00">src/Iter.mo</text>
</g>
<!-- src/HashMap.mo&#45;&gt;src/Iter.mo -->
<g id="edge15" class="edge">
<title>src/HashMap.mo&#45;&gt;src/Iter.mo</title>
<path fill="none" stroke="black" d="M1098.93,-433.32C1113.41,-424.54 1128.93,-412.09 1137,-396 1144.17,-381.7 1147.33,-372.22 1137,-360 1121.15,-341.25 975.71,-322.92 888.77,-313.51"/>
<polygon fill="black" stroke="black" points="889.05,-310.02 878.73,-312.44 888.3,-316.98 889.05,-310.02"/>
</g>
<!-- src/AssocList.mo -->
<g id="node12" class="node">
<title>src/AssocList.mo</title>
<ellipse fill="none" stroke="black" cx="890" cy="-378" rx="85.59" ry="18"/>
<text text-anchor="middle" x="890" y="-374.3" font-family="Times-Roman" font-size="14.00">src/AssocList.mo</text>
</g>
<!-- src/HashMap.mo&#45;&gt;src/AssocList.mo -->
<g id="edge16" class="edge">
<title>src/HashMap.mo&#45;&gt;src/AssocList.mo</title>
<path fill="none" stroke="black" d="M1027.81,-433.81C1001.29,-423.26 965.76,-409.13 937.43,-397.86"/>
<polygon fill="black" stroke="black" points="938.7,-394.6 928.11,-394.16 936.11,-401.11 938.7,-394.6"/>
</g>
<!-- src/Hash.mo&#45;&gt;src/Iter.mo -->
<g id="edge17" class="edge">
<title>src/Hash.mo&#45;&gt;src/Iter.mo</title>
<path fill="none" stroke="black" d="M1017.81,-364.24C977.43,-352.32 917.13,-334.51 874.53,-321.92"/>
<polygon fill="black" stroke="black" points="875.5,-318.56 864.92,-319.08 873.51,-325.27 875.5,-318.56"/>
</g>
<!-- src/Iter.mo&#45;&gt;src/List.mo -->
<g id="edge20" class="edge">
<title>src/Iter.mo&#45;&gt;src/List.mo</title>
<path fill="none" stroke="black" d="M784.65,-292.65C747.22,-280.9 690.79,-263.18 650.36,-250.5"/>
<polygon fill="black" stroke="black" points="651.3,-247.12 640.71,-247.47 649.2,-253.8 651.3,-247.12"/>
</g>
<!-- src/Iter.mo&#45;&gt;src/Array.mo -->
<g id="edge18" class="edge">
<title>src/Iter.mo&#45;&gt;src/Array.mo</title>
<path fill="none" stroke="black" d="M833.73,-288.15C847.97,-263.49 874.6,-217.37 891.26,-188.53"/>
<polygon fill="black" stroke="black" points="894.31,-190.24 896.28,-179.82 888.25,-186.73 894.31,-190.24"/>
</g>
<!-- src/Iter.mo&#45;&gt;src/Buffer.mo -->
<g id="edge19" class="edge">
<title>src/Iter.mo&#45;&gt;src/Buffer.mo</title>
<path fill="none" stroke="black" d="M822,-287.85C817.67,-250.83 807.43,-163.18 802.2,-118.39"/>
<polygon fill="black" stroke="black" points="805.65,-117.76 801.01,-108.23 798.7,-118.57 805.65,-117.76"/>
</g>
<!-- src/AssocList.mo&#45;&gt;src/List.mo -->
<g id="edge21" class="edge">
<title>src/AssocList.mo&#45;&gt;src/List.mo</title>
<path fill="none" stroke="black" d="M848.62,-362.21C822.04,-352.3 787.01,-338.45 757,-324 713.41,-303 665.34,-274.76 634.24,-255.77"/>
<polygon fill="black" stroke="black" points="635.9,-252.68 625.55,-250.43 632.24,-258.65 635.9,-252.68"/>
</g>
<!-- src/Stack.mo -->
<g id="node13" class="node">
<title>src/Stack.mo</title>
<ellipse fill="none" stroke="black" cx="489" cy="-306" rx="68.79" ry="18"/>
<text text-anchor="middle" x="489" y="-302.3" font-family="Times-Roman" font-size="14.00">src/Stack.mo</text>
</g>
<!-- src/Stack.mo&#45;&gt;src/List.mo -->
<g id="edge22" class="edge">
<title>src/Stack.mo&#45;&gt;src/List.mo</title>
<path fill="none" stroke="black" d="M514.41,-289.12C530.13,-279.29 550.49,-266.57 567.51,-255.93"/>
<polygon fill="black" stroke="black" points="569.45,-258.85 576.07,-250.58 565.74,-252.91 569.45,-258.85"/>
</g>
<!-- src/Heap.mo -->
<g id="node14" class="node">
<title>src/Heap.mo</title>
<ellipse fill="none" stroke="black" cx="268" cy="-378" rx="67.69" ry="18"/>
<text text-anchor="middle" x="268" y="-374.3" font-family="Times-Roman" font-size="14.00">src/Heap.mo</text>
</g>
<!-- src/Heap.mo&#45;&gt;src/List.mo -->
<g id="edge25" class="edge">
<title>src/Heap.mo&#45;&gt;src/List.mo</title>
<path fill="none" stroke="black" d="M325.15,-368.35C409.32,-355.4 557.72,-331.67 567,-324 585.37,-308.82 593.83,-282.53 597.72,-262.44"/>
<polygon fill="black" stroke="black" points="601.22,-262.76 599.41,-252.32 594.31,-261.61 601.22,-262.76"/>
</g>
<!-- src/Heap.mo&#45;&gt;src/Order.mo -->
<g id="edge23" class="edge">
<title>src/Heap.mo&#45;&gt;src/Order.mo</title>
<path fill="none" stroke="black" d="M214.61,-366.96C188.13,-359.37 157.69,-346.29 138,-324 110.88,-293.3 114,-275.97 114,-235 114,-235 114,-235 114,-161 114,-121 114,-74.65 114,-46.08"/>
<polygon fill="black" stroke="black" points="117.5,-46.05 114,-36.05 110.5,-46.05 117.5,-46.05"/>
</g>
<!-- src/Heap.mo&#45;&gt;src/Prelude.mo -->
<g id="edge24" class="edge">
<title>src/Heap.mo&#45;&gt;src/Prelude.mo</title>
<path fill="none" stroke="black" d="M226.61,-363.65C206.94,-355.26 184.76,-342.46 171,-324 146.83,-291.57 152,-275.45 152,-235 152,-235 152,-235 152,-161 152,-66.55 460.92,-33.88 614.88,-23.46"/>
<polygon fill="black" stroke="black" points="615.49,-26.93 625.24,-22.78 615.03,-19.95 615.49,-26.93"/>
</g>
<!-- src/Heap.mo&#45;&gt;src/Iter.mo -->
<g id="edge26" class="edge">
<title>src/Heap.mo&#45;&gt;src/Iter.mo</title>
<path fill="none" stroke="black" d="M325.65,-368.6C345.41,-365.78 367.66,-362.68 388,-360 520.22,-342.6 675.27,-324.24 760.25,-314.35"/>
<polygon fill="black" stroke="black" points="760.73,-317.82 770.26,-313.19 759.92,-310.86 760.73,-317.82"/>
</g>
<!-- src/Int16.mo -->
<g id="node15" class="node">
<title>src/Int16.mo</title>
<ellipse fill="none" stroke="black" cx="1522" cy="-522" rx="67.69" ry="18"/>
<text text-anchor="middle" x="1522" y="-518.3" font-family="Times-Roman" font-size="14.00">src/Int16.mo</text>
</g>
<!-- src/Int.mo -->
<g id="node16" class="node">
<title>src/Int.mo</title>
<ellipse fill="none" stroke="black" cx="1368" cy="-450" rx="55.79" ry="18"/>
<text text-anchor="middle" x="1368" y="-446.3" font-family="Times-Roman" font-size="14.00">src/Int.mo</text>
</g>
<!-- src/Int16.mo&#45;&gt;src/Int.mo -->
<g id="edge27" class="edge">
<title>src/Int16.mo&#45;&gt;src/Int.mo</title>
<path fill="none" stroke="black" d="M1489.34,-506.15C1465.7,-495.41 1433.59,-480.81 1408.35,-469.34"/>
<polygon fill="black" stroke="black" points="1409.59,-466.06 1399.04,-465.11 1406.69,-472.43 1409.59,-466.06"/>
</g>
<!-- src/Int.mo&#45;&gt;src/Prelude.mo -->
<g id="edge28" class="edge">
<title>src/Int.mo&#45;&gt;src/Prelude.mo</title>
<path fill="none" stroke="black" d="M1421.16,-444.3C1485.41,-437.52 1588.27,-422.76 1615,-396 1643.59,-367.38 1634,-347.45 1634,-307 1634,-307 1634,-307 1634,-161 1634,-33.8 1486.71,-97.03 1362,-72 1158.93,-31.25 914.89,-21.59 787.37,-19.46"/>
<polygon fill="black" stroke="black" points="787.32,-15.95 777.27,-19.3 787.21,-22.95 787.32,-15.95"/>
</g>
<!-- src/Int.mo&#45;&gt;src/Hash.mo -->
<g id="edge29" class="edge">
<title>src/Int.mo&#45;&gt;src/Hash.mo</title>
<path fill="none" stroke="black" d="M1326.45,-437.87C1318.67,-435.86 1310.6,-433.83 1303,-432 1241.77,-417.29 1171.42,-402.07 1122.41,-391.74"/>
<polygon fill="black" stroke="black" points="1123.1,-388.31 1112.59,-389.67 1121.66,-395.16 1123.1,-388.31"/>
</g>
<!-- src/Int8.mo -->
<g id="node17" class="node">
<title>src/Int8.mo</title>
<ellipse fill="none" stroke="black" cx="1669" cy="-522" rx="61.99" ry="18"/>
<text text-anchor="middle" x="1669" y="-518.3" font-family="Times-Roman" font-size="14.00">src/Int8.mo</text>
</g>
<!-- src/Int8.mo&#45;&gt;src/Int.mo -->
<g id="edge30" class="edge">
<title>src/Int8.mo&#45;&gt;src/Int.mo</title>
<path fill="none" stroke="black" d="M1623.08,-509.76C1615.06,-507.82 1606.79,-505.84 1599,-504 1538.56,-489.73 1469.1,-473.86 1422.26,-463.24"/>
<polygon fill="black" stroke="black" points="1422.85,-459.79 1412.32,-460.99 1421.3,-466.62 1422.85,-459.79"/>
</g>
<!-- src/Deque.mo -->
<g id="node18" class="node">
<title>src/Deque.mo</title>
<ellipse fill="none" stroke="black" cx="253" cy="-306" rx="73.39" ry="18"/>
<text text-anchor="middle" x="253" y="-302.3" font-family="Times-Roman" font-size="14.00">src/Deque.mo</text>
</g>
<!-- src/Deque.mo&#45;&gt;src/List.mo -->
<g id="edge31" class="edge">
<title>src/Deque.mo&#45;&gt;src/List.mo</title>
<path fill="none" stroke="black" d="M307.76,-293.99C371.71,-281.12 477.08,-259.93 542.57,-246.75"/>
<polygon fill="black" stroke="black" points="543.61,-250.11 552.73,-244.71 542.23,-243.25 543.61,-250.11"/>
</g>
<!-- src/Deque.mo&#45;&gt;src/Prelude.mo -->
<g id="edge32" class="edge">
<title>src/Deque.mo&#45;&gt;src/Prelude.mo</title>
<path fill="none" stroke="black" d="M267.48,-288.18C304.99,-245.63 410.19,-132.79 521,-72 555.14,-53.27 596.66,-40.45 631.11,-32.11"/>
<polygon fill="black" stroke="black" points="632.16,-35.46 641.09,-29.78 630.56,-28.65 632.16,-35.46"/>
</g>
<!-- src/Principal.mo -->
<g id="node19" class="node">
<title>src/Principal.mo</title>
<ellipse fill="none" stroke="black" cx="596" cy="-450" rx="82.59" ry="18"/>
<text text-anchor="middle" x="596" y="-446.3" font-family="Times-Roman" font-size="14.00">src/Principal.mo</text>
</g>
<!-- src/Principal.mo&#45;&gt;src/Hash.mo -->
<g id="edge34" class="edge">
<title>src/Principal.mo&#45;&gt;src/Hash.mo</title>
<path fill="none" stroke="black" d="M657.35,-437.89C669.48,-435.82 682.13,-433.76 694,-432 822.91,-412.86 856.59,-418.25 985,-396 990.72,-395.01 996.66,-393.87 1002.58,-392.67"/>
<polygon fill="black" stroke="black" points="1003.42,-396.07 1012.49,-390.59 1001.98,-389.22 1003.42,-396.07"/>
</g>
<!-- src/Blob.mo -->
<g id="node20" class="node">
<title>src/Blob.mo</title>
<ellipse fill="none" stroke="black" cx="570" cy="-378" rx="63.89" ry="18"/>
<text text-anchor="middle" x="570" y="-374.3" font-family="Times-Roman" font-size="14.00">src/Blob.mo</text>
</g>
<!-- src/Principal.mo&#45;&gt;src/Blob.mo -->
<g id="edge33" class="edge">
<title>src/Principal.mo&#45;&gt;src/Blob.mo</title>
<path fill="none" stroke="black" d="M589.57,-431.7C586.64,-423.81 583.11,-414.3 579.86,-405.55"/>
<polygon fill="black" stroke="black" points="583.12,-404.26 576.35,-396.1 576.55,-406.7 583.12,-404.26"/>
</g>
<!-- src/TrieMap.mo -->
<g id="node21" class="node">
<title>src/TrieMap.mo</title>
<ellipse fill="none" stroke="black" cx="597" cy="-522" rx="79.09" ry="18"/>
<text text-anchor="middle" x="597" y="-518.3" font-family="Times-Roman" font-size="14.00">src/TrieMap.mo</text>
</g>
<!-- src/TrieMap.mo&#45;&gt;src/List.mo -->
<g id="edge39" class="edge">
<title>src/TrieMap.mo&#45;&gt;src/List.mo</title>
<path fill="none" stroke="black" d="M537.83,-509.87C494.35,-500.41 440.44,-485.6 426,-468 375.09,-405.93 362.46,-351.94 411,-288 426.5,-267.59 488.83,-252.92 537.93,-244.27"/>
<polygon fill="black" stroke="black" points="538.61,-247.7 547.87,-242.56 537.42,-240.8 538.61,-247.7"/>
</g>
<!-- src/TrieMap.mo&#45;&gt;src/Prelude.mo -->
<g id="edge36" class="edge">
<title>src/TrieMap.mo&#45;&gt;src/Prelude.mo</title>
<path fill="none" stroke="black" d="M542.23,-508.98C408.46,-479.26 76,-402.97 76,-379 76,-379 76,-379 76,-161 76,-94.96 133.51,-96.09 195,-72 269.25,-42.91 490.76,-28.47 614.32,-22.5"/>
<polygon fill="black" stroke="black" points="614.68,-25.98 624.5,-22.01 614.34,-18.99 614.68,-25.98"/>
</g>
<!-- src/TrieMap.mo&#45;&gt;src/Hash.mo -->
<g id="edge38" class="edge">
<title>src/TrieMap.mo&#45;&gt;src/Hash.mo</title>
<path fill="none" stroke="black" d="M653.53,-509.26C711.98,-496.95 799.2,-478.01 832,-468 898.46,-447.71 973.07,-417.2 1018.55,-397.7"/>
<polygon fill="black" stroke="black" points="1020,-400.88 1027.79,-393.71 1017.23,-394.46 1020,-400.88"/>
</g>
<!-- src/TrieMap.mo&#45;&gt;src/Iter.mo -->
<g id="edge37" class="edge">
<title>src/TrieMap.mo&#45;&gt;src/Iter.mo</title>
<path fill="none" stroke="black" d="M554.02,-506.8C535.57,-498.45 515.62,-485.94 504,-468 477.85,-427.63 465.83,-396.63 497,-360 513.73,-340.34 667.9,-322.18 758.45,-313.09"/>
<polygon fill="black" stroke="black" points="759.02,-316.55 768.63,-312.08 758.33,-309.59 759.02,-316.55"/>
</g>
<!-- src/Trie.mo -->
<g id="node22" class="node">
<title>src/Trie.mo</title>
<ellipse fill="none" stroke="black" cx="763" cy="-450" rx="59.59" ry="18"/>
<text text-anchor="middle" x="763" y="-446.3" font-family="Times-Roman" font-size="14.00">src/Trie.mo</text>
</g>
<!-- src/TrieMap.mo&#45;&gt;src/Trie.mo -->
<g id="edge35" class="edge">
<title>src/TrieMap.mo&#45;&gt;src/Trie.mo</title>
<path fill="none" stroke="black" d="M633.02,-505.81C658.69,-494.98 693.31,-480.39 720.37,-468.98"/>
<polygon fill="black" stroke="black" points="721.74,-472.2 729.59,-465.09 719.02,-465.75 721.74,-472.2"/>
</g>
<!-- src/Trie.mo&#45;&gt;src/List.mo -->
<g id="edge44" class="edge">
<title>src/Trie.mo&#45;&gt;src/List.mo</title>
<path fill="none" stroke="black" d="M733.7,-434.05C717.92,-424.82 699.06,-411.73 686,-396 652.44,-355.59 663.82,-333.74 638,-288 632.62,-278.47 625.97,-268.51 619.8,-259.83"/>
<polygon fill="black" stroke="black" points="622.56,-257.68 613.86,-251.65 616.9,-261.79 622.56,-257.68"/>
</g>
<!-- src/Trie.mo&#45;&gt;src/Array.mo -->
<g id="edge43" class="edge">
<title>src/Trie.mo&#45;&gt;src/Array.mo</title>
<path fill="none" stroke="black" d="M757.16,-432.01C751.64,-412.54 746.3,-380.68 762,-360 797.99,-312.59 852.85,-369.69 891,-324 922.31,-286.51 917.99,-225.6 912.01,-190.43"/>
<polygon fill="black" stroke="black" points="915.41,-189.59 910.13,-180.4 908.53,-190.87 915.41,-189.59"/>
</g>
<!-- src/Trie.mo&#45;&gt;src/Option.mo -->
<g id="edge41" class="edge">
<title>src/Trie.mo&#45;&gt;src/Option.mo</title>
<path fill="none" stroke="black" d="M764.6,-431.77C767.38,-411.78 774.88,-379.11 795,-360 835.06,-321.94 866.81,-352.75 914,-324 1006.88,-267.41 1088.16,-163.73 1122.54,-116.11"/>
<polygon fill="black" stroke="black" points="1125.45,-118.07 1128.41,-107.9 1119.75,-114 1125.45,-118.07"/>
</g>
<!-- src/Trie.mo&#45;&gt;src/Prelude.mo -->
<g id="edge40" class="edge">
<title>src/Trie.mo&#45;&gt;src/Prelude.mo</title>
<path fill="none" stroke="black" d="M749.95,-432.15C731.49,-406.59 700,-355.82 700,-307 700,-307 700,-307 700,-161 700,-121 700,-74.65 700,-46.08"/>
<polygon fill="black" stroke="black" points="703.5,-46.05 700,-36.05 696.5,-46.05 703.5,-46.05"/>
</g>
<!-- src/Trie.mo&#45;&gt;src/Hash.mo -->
<g id="edge42" class="edge">
<title>src/Trie.mo&#45;&gt;src/Hash.mo</title>
<path fill="none" stroke="black" d="M808.58,-438.29C860.57,-426.08 945.7,-406.08 1002.53,-392.73"/>
<polygon fill="black" stroke="black" points="1003.52,-396.1 1012.45,-390.4 1001.92,-389.28 1003.52,-396.1"/>
</g>
<!-- src/Trie.mo&#45;&gt;src/AssocList.mo -->
<g id="edge45" class="edge">
<title>src/Trie.mo&#45;&gt;src/AssocList.mo</title>
<path fill="none" stroke="black" d="M790.56,-433.81C808.52,-423.91 832.21,-410.85 851.97,-399.96"/>
<polygon fill="black" stroke="black" points="853.66,-403.03 860.73,-395.13 850.28,-396.9 853.66,-403.03"/>
</g>
<!-- src/Word8.mo -->
<g id="node23" class="node">
<title>src/Word8.mo</title>
<ellipse fill="none" stroke="black" cx="1495" cy="-594" rx="72.59" ry="18"/>
<text text-anchor="middle" x="1495" y="-590.3" font-family="Times-Roman" font-size="14.00">src/Word8.mo</text>
</g>
<!-- src/Nat.mo -->
<g id="node24" class="node">
<title>src/Nat.mo</title>
<ellipse fill="none" stroke="black" cx="754" cy="-522" rx="59.59" ry="18"/>
<text text-anchor="middle" x="754" y="-518.3" font-family="Times-Roman" font-size="14.00">src/Nat.mo</text>
</g>
<!-- src/Word8.mo&#45;&gt;src/Nat.mo -->
<g id="edge46" class="edge">
<title>src/Word8.mo&#45;&gt;src/Nat.mo</title>
<path fill="none" stroke="black" d="M1443.78,-581.07C1433.94,-579.11 1423.68,-577.3 1414,-576 1153.2,-540.88 1083.15,-579.64 823,-540 817.59,-539.18 811.98,-538.13 806.4,-536.95"/>
<polygon fill="black" stroke="black" points="806.98,-533.5 796.45,-534.74 805.45,-540.33 806.98,-533.5"/>
</g>
<!-- src/Nat.mo&#45;&gt;src/Order.mo -->
<g id="edge48" class="edge">
<title>src/Nat.mo&#45;&gt;src/Order.mo</title>
<path fill="none" stroke="black" d="M709.93,-509.65C701.67,-507.67 693.09,-505.69 685,-504 593.17,-484.77 568.78,-487.47 477,-468 260.92,-422.17 38,-455.89 38,-235 38,-235 38,-235 38,-161 38,-115.39 68.86,-70.25 91.25,-43.5"/>
<polygon fill="black" stroke="black" points="94,-45.67 97.88,-35.81 88.7,-41.09 94,-45.67"/>
</g>
<!-- src/Nat.mo&#45;&gt;src/Int.mo -->
<g id="edge47" class="edge">
<title>src/Nat.mo&#45;&gt;src/Int.mo</title>
<path fill="none" stroke="black" d="M796.84,-509.27C805.45,-507.25 814.47,-505.36 823,-504 1034.26,-470.29 1091.98,-503.21 1303,-468 1307.98,-467.17 1313.13,-466.13 1318.25,-464.99"/>
<polygon fill="black" stroke="black" points="1319.1,-468.38 1328.02,-462.67 1317.49,-461.57 1319.1,-468.38"/>
</g>
<!-- src/TrieSet.mo -->
<g id="node25" class="node">
<title>src/TrieSet.mo</title>
<ellipse fill="none" stroke="black" cx="907" cy="-522" rx="74.99" ry="18"/>
<text text-anchor="middle" x="907" y="-518.3" font-family="Times-Roman" font-size="14.00">src/TrieSet.mo</text>
</g>
<!-- src/TrieSet.mo&#45;&gt;src/List.mo -->
<g id="edge51" class="edge">
<title>src/TrieSet.mo&#45;&gt;src/List.mo</title>
<path fill="none" stroke="black" d="M853.35,-509.42C843.29,-507.45 832.85,-505.55 823,-504 752.53,-492.91 554.05,-518.83 504,-468 470.25,-433.73 469.67,-399.58 497,-360 522.65,-322.84 564.51,-359.82 592,-324 605.34,-306.62 606.71,-281.36 605.25,-262.19"/>
<polygon fill="black" stroke="black" points="608.71,-261.56 604.17,-251.98 601.74,-262.3 608.71,-261.56"/>
</g>
<!-- src/TrieSet.mo&#45;&gt;src/Hash.mo -->
<g id="edge50" class="edge">
<title>src/TrieSet.mo&#45;&gt;src/Hash.mo</title>
<path fill="none" stroke="black" d="M916.32,-503.98C927.44,-484.77 947.52,-453.43 971,-432 985.22,-419.02 1003.12,-407.69 1019.21,-398.88"/>
<polygon fill="black" stroke="black" points="1021.24,-401.76 1028.43,-393.98 1017.96,-395.58 1021.24,-401.76"/>
</g>
<!-- src/TrieSet.mo&#45;&gt;src/Trie.mo -->
<g id="edge49" class="edge">
<title>src/TrieSet.mo&#45;&gt;src/Trie.mo</title>
<path fill="none" stroke="black" d="M875.4,-505.64C853.86,-495.17 825.19,-481.23 802.2,-470.05"/>
<polygon fill="black" stroke="black" points="803.57,-466.83 793.05,-465.61 800.51,-473.13 803.57,-466.83"/>
</g>
<!-- src/Nat32.mo -->
<g id="node26" class="node">
<title>src/Nat32.mo</title>
<ellipse fill="none" stroke="black" cx="337" cy="-594" rx="71.49" ry="18"/>
<text text-anchor="middle" x="337" y="-590.3" font-family="Times-Roman" font-size="14.00">src/Nat32.mo</text>
</g>
<!-- src/Nat32.mo&#45;&gt;src/Nat.mo -->
<g id="edge52" class="edge">
<title>src/Nat32.mo&#45;&gt;src/Nat.mo</title>
<path fill="none" stroke="black" d="M388.53,-581.45C397.98,-579.5 407.77,-577.6 417,-576 535.42,-555.49 566.93,-562.41 685,-540 690.02,-539.05 695.23,-537.96 700.42,-536.8"/>
<polygon fill="black" stroke="black" points="701.4,-540.17 710.35,-534.51 699.82,-533.35 701.4,-540.17"/>
</g>
<!-- src/RBTree.mo -->
<g id="node27" class="node">
<title>src/RBTree.mo</title>
<ellipse fill="none" stroke="black" cx="172" cy="-594" rx="75.29" ry="18"/>
<text text-anchor="middle" x="172" y="-590.3" font-family="Times-Roman" font-size="14.00">src/RBTree.mo</text>
</g>
<!-- src/RBTree.mo&#45;&gt;src/List.mo -->
<g id="edge55" class="edge">
<title>src/RBTree.mo&#45;&gt;src/List.mo</title>
<path fill="none" stroke="black" d="M167.4,-575.88C157.17,-533.61 137.44,-423.13 191,-360 233.68,-309.7 275.03,-351.49 335,-324 360.22,-312.44 360.76,-299.52 386,-288 434.67,-265.79 493.96,-252.06 537.94,-244.16"/>
<polygon fill="black" stroke="black" points="538.67,-247.59 547.92,-242.42 537.47,-240.69 538.67,-247.59"/>
</g>
<!-- src/RBTree.mo&#45;&gt;src/Order.mo -->
<g id="edge57" class="edge">
<title>src/RBTree.mo&#45;&gt;src/Order.mo</title>
<path fill="none" stroke="black" d="M129.48,-579.02C78.55,-559.29 0,-517.99 0,-451 0,-451 0,-451 0,-161 0,-109.12 46.84,-65.41 80.47,-40.71"/>
<polygon fill="black" stroke="black" points="82.59,-43.5 88.7,-34.84 78.52,-37.79 82.59,-43.5"/>
</g>
<!-- src/RBTree.mo&#45;&gt;src/Iter.mo -->
<g id="edge54" class="edge">
<title>src/RBTree.mo&#45;&gt;src/Iter.mo</title>
<path fill="none" stroke="black" d="M187.53,-576.27C229.34,-532.41 349.66,-413.79 476,-360 567.38,-321.09 682.97,-310.22 755.22,-307.48"/>
<polygon fill="black" stroke="black" points="755.68,-310.96 765.56,-307.13 755.44,-303.97 755.68,-310.96"/>
</g>
<!-- src/RBTree.mo&#45;&gt;src/Nat.mo -->
<g id="edge56" class="edge">
<title>src/RBTree.mo&#45;&gt;src/Nat.mo</title>
<path fill="none" stroke="black" d="M225.8,-581.28C236.12,-579.31 246.87,-577.43 257,-576 446.01,-549.24 496.63,-570.93 685,-540 690.33,-539.13 695.85,-538.05 701.34,-536.88"/>
<polygon fill="black" stroke="black" points="702.17,-540.28 711.15,-534.67 700.63,-533.45 702.17,-540.28"/>
</g>
<!-- src/Debug.mo -->
<g id="node28" class="node">
<title>src/Debug.mo</title>
<ellipse fill="none" stroke="black" cx="426" cy="-522" rx="73.39" ry="18"/>
<text text-anchor="middle" x="426" y="-518.3" font-family="Times-Roman" font-size="14.00">src/Debug.mo</text>
</g>
<!-- src/RBTree.mo&#45;&gt;src/Debug.mo -->
<g id="edge53" class="edge">
<title>src/RBTree.mo&#45;&gt;src/Debug.mo</title>
<path fill="none" stroke="black" d="M219.48,-579.92C261.93,-568.22 324.21,-551.05 369.27,-538.63"/>
<polygon fill="black" stroke="black" points="370.47,-541.93 379.18,-535.9 368.61,-535.18 370.47,-541.93"/>
</g>
<!-- src/Text.mo -->
<g id="node29" class="node">
<title>src/Text.mo</title>
<ellipse fill="none" stroke="black" cx="1232" cy="-450" rx="61.99" ry="18"/>
<text text-anchor="middle" x="1232" y="-446.3" font-family="Times-Roman" font-size="14.00">src/Text.mo</text>
</g>
<!-- src/Text.mo&#45;&gt;src/Hash.mo -->
<g id="edge60" class="edge">
<title>src/Text.mo&#45;&gt;src/Hash.mo</title>
<path fill="none" stroke="black" d="M1197.81,-435C1171.36,-424.18 1134.53,-409.1 1105.74,-397.31"/>
<polygon fill="black" stroke="black" points="1106.89,-394 1096.31,-393.45 1104.24,-400.48 1106.89,-394"/>
</g>
<!-- src/Text.mo&#45;&gt;src/Iter.mo -->
<g id="edge59" class="edge">
<title>src/Text.mo&#45;&gt;src/Iter.mo</title>
<path fill="none" stroke="black" d="M1222.31,-432.07C1209.5,-411.4 1184.92,-377.1 1154,-360 1109.76,-335.53 972.88,-319.82 889.95,-312.28"/>
<polygon fill="black" stroke="black" points="890.14,-308.78 879.87,-311.38 889.52,-315.75 890.14,-308.78"/>
</g>
<!-- src/Char.mo -->
<g id="node30" class="node">
<title>src/Char.mo</title>
<ellipse fill="none" stroke="black" cx="1542" cy="-378" rx="64.19" ry="18"/>
<text text-anchor="middle" x="1542" y="-374.3" font-family="Times-Roman" font-size="14.00">src/Char.mo</text>
</g>
<!-- src/Text.mo&#45;&gt;src/Char.mo -->
<g id="edge58" class="edge">
<title>src/Text.mo&#45;&gt;src/Char.mo</title>
<path fill="none" stroke="black" d="M1277.81,-437.91C1286.18,-435.92 1294.85,-433.88 1303,-432 1336.62,-424.25 1423.73,-405.01 1482.95,-391.97"/>
<polygon fill="black" stroke="black" points="1483.92,-395.35 1492.94,-389.78 1482.42,-388.51 1483.92,-395.35"/>
</g>
<!-- src/Float.mo -->
<g id="node31" class="node">
<title>src/Float.mo</title>
<ellipse fill="none" stroke="black" cx="1065" cy="-522" rx="65.79" ry="18"/>
<text text-anchor="middle" x="1065" y="-518.3" font-family="Times-Roman" font-size="14.00">src/Float.mo</text>
</g>
<!-- src/Float.mo&#45;&gt;src/Int.mo -->
<g id="edge61" class="edge">
<title>src/Float.mo&#45;&gt;src/Int.mo</title>
<path fill="none" stroke="black" d="M1113.55,-509.78C1122.03,-507.84 1130.77,-505.85 1139,-504 1211.81,-487.65 1230.44,-485.44 1303,-468 1307.39,-466.94 1311.94,-465.82 1316.51,-464.67"/>
<polygon fill="black" stroke="black" points="1317.63,-467.99 1326.45,-462.13 1315.9,-461.21 1317.63,-467.99"/>
</g>
<!-- src/Word32.mo -->
<g id="node32" class="node">
<title>src/Word32.mo</title>
<ellipse fill="none" stroke="black" cx="505" cy="-594" rx="78.79" ry="18"/>
<text text-anchor="middle" x="505" y="-590.3" font-family="Times-Roman" font-size="14.00">src/Word32.mo</text>
</g>
<!-- src/Word32.mo&#45;&gt;src/Nat.mo -->
<g id="edge62" class="edge">
<title>src/Word32.mo&#45;&gt;src/Nat.mo</title>
<path fill="none" stroke="black" d="M552.72,-579.59C595.51,-567.55 658.17,-549.94 702.19,-537.57"/>
<polygon fill="black" stroke="black" points="703.15,-540.93 711.83,-534.85 701.26,-534.19 703.15,-540.93"/>
</g>
<!-- src/Nat8.mo -->
<g id="node33" class="node">
<title>src/Nat8.mo</title>
<ellipse fill="none" stroke="black" cx="667" cy="-594" rx="65.79" ry="18"/>
<text text-anchor="middle" x="667" y="-590.3" font-family="Times-Roman" font-size="14.00">src/Nat8.mo</text>
</g>
<!-- src/Nat8.mo&#45;&gt;src/Nat.mo -->
<g id="edge63" class="edge">
<title>src/Nat8.mo&#45;&gt;src/Nat.mo</title>
<path fill="none" stroke="black" d="M687.18,-576.76C698.71,-567.49 713.34,-555.71 725.97,-545.55"/>
<polygon fill="black" stroke="black" points="728.33,-548.14 733.93,-539.15 723.95,-542.69 728.33,-548.14"/>
</g>
<!-- src/Word16.mo -->
<g id="node34" class="node">
<title>src/Word16.mo</title>
<ellipse fill="none" stroke="black" cx="829" cy="-594" rx="78.79" ry="18"/>
<text text-anchor="middle" x="829" y="-590.3" font-family="Times-Roman" font-size="14.00">src/Word16.mo</text>
</g>
<!-- src/Word16.mo&#45;&gt;src/Nat.mo -->
<g id="edge64" class="edge">
<title>src/Word16.mo&#45;&gt;src/Nat.mo</title>
<path fill="none" stroke="black" d="M811.23,-576.41C801.54,-567.37 789.39,-556.03 778.78,-546.13"/>
<polygon fill="black" stroke="black" points="781.09,-543.49 771.39,-539.23 776.31,-548.61 781.09,-543.49"/>
</g>
<!-- src/Random.mo -->
<g id="node35" class="node">
<title>src/Random.mo</title>
<ellipse fill="none" stroke="black" cx="1341" cy="-378" rx="81.49" ry="18"/>
<text text-anchor="middle" x="1341" y="-374.3" font-family="Times-Roman" font-size="14.00">src/Random.mo</text>
</g>
<!-- src/Random.mo&#45;&gt;src/Option.mo -->
<g id="edge66" class="edge">
<title>src/Random.mo&#45;&gt;src/Option.mo</title>
<path fill="none" stroke="black" d="M1325.9,-360.22C1316.92,-349.99 1305.46,-336.52 1296,-324 1240.94,-251.11 1182.78,-159.88 1155.65,-116.37"/>
<polygon fill="black" stroke="black" points="1158.59,-114.48 1150.34,-107.83 1152.65,-118.17 1158.59,-114.48"/>
</g>
<!-- src/Random.mo&#45;&gt;src/Prelude.mo -->
<g id="edge67" class="edge">
<title>src/Random.mo&#45;&gt;src/Prelude.mo</title>
<path fill="none" stroke="black" d="M1334.73,-359.78C1325.67,-333.32 1310,-280.92 1310,-235 1310,-235 1310,-235 1310,-161 1310,-105.68 1272.84,-96 1223,-72 1148.15,-35.95 915.22,-24.37 786.93,-20.69"/>
<polygon fill="black" stroke="black" points="786.84,-17.18 776.75,-20.4 786.65,-24.18 786.84,-17.18"/>
</g>
<!-- src/Random.mo&#45;&gt;src/Iter.mo -->
<g id="edge65" class="edge">
<title>src/Random.mo&#45;&gt;src/Iter.mo</title>
<path fill="none" stroke="black" d="M1281.03,-365.78C1269.42,-363.75 1257.35,-361.73 1246,-360 1119.51,-340.75 970.92,-323.28 888.1,-314"/>
<polygon fill="black" stroke="black" points="888.41,-310.51 878.08,-312.88 887.63,-317.47 888.41,-310.51"/>
</g>
<!-- src/Int32.mo -->
<g id="node36" class="node">
<title>src/Int32.mo</title>
<ellipse fill="none" stroke="black" cx="1216" cy="-522" rx="67.69" ry="18"/>
<text text-anchor="middle" x="1216" y="-518.3" font-family="Times-Roman" font-size="14.00">src/Int32.mo</text>
</g>
<!-- src/Int32.mo&#45;&gt;src/Int.mo -->
<g id="edge68" class="edge">
<title>src/Int32.mo&#45;&gt;src/Int.mo</title>
<path fill="none" stroke="black" d="M1248.24,-506.15C1271.57,-495.41 1303.26,-480.81 1328.18,-469.34"/>
<polygon fill="black" stroke="black" points="1329.75,-472.47 1337.37,-465.11 1326.82,-466.11 1329.75,-472.47"/>
</g>
<!-- src/Nat64.mo -->
<g id="node37" class="node">
<title>src/Nat64.mo</title>
<ellipse fill="none" stroke="black" cx="997" cy="-594" rx="71.49" ry="18"/>
<text text-anchor="middle" x="997" y="-590.3" font-family="Times-Roman" font-size="14.00">src/Nat64.mo</text>
</g>
<!-- src/Nat64.mo&#45;&gt;src/Nat.mo -->
<g id="edge69" class="edge">
<title>src/Nat64.mo&#45;&gt;src/Nat.mo</title>
<path fill="none" stroke="black" d="M951.86,-580C910.35,-568.04 848.84,-550.32 805.44,-537.82"/>
<polygon fill="black" stroke="black" points="806.23,-534.4 795.65,-535 804.29,-541.13 806.23,-534.4"/>
</g>
<!-- src/Nat16.mo -->
<g id="node38" class="node">
<title>src/Nat16.mo</title>
<ellipse fill="none" stroke="black" cx="1158" cy="-594" rx="71.49" ry="18"/>
<text text-anchor="middle" x="1158" y="-590.3" font-family="Times-Roman" font-size="14.00">src/Nat16.mo</text>
</g>
<!-- src/Nat16.mo&#45;&gt;src/Nat.mo -->
<g id="edge70" class="edge">
<title>src/Nat16.mo&#45;&gt;src/Nat.mo</title>
<path fill="none" stroke="black" d="M1105.81,-581.52C1096.25,-579.56 1086.34,-577.64 1077,-576 964.7,-556.28 934.94,-561.67 823,-540 817.98,-539.03 812.78,-537.93 807.58,-536.76"/>
<polygon fill="black" stroke="black" points="808.19,-533.31 797.66,-534.46 806.61,-540.13 808.19,-533.31"/>
</g>
<!-- src/Int64.mo -->
<g id="node39" class="node">
<title>src/Int64.mo</title>
<ellipse fill="none" stroke="black" cx="1369" cy="-522" rx="67.69" ry="18"/>
<text text-anchor="middle" x="1369" y="-518.3" font-family="Times-Roman" font-size="14.00">src/Int64.mo</text>
</g>
<!-- src/Int64.mo&#45;&gt;src/Int.mo -->
<g id="edge71" class="edge">
<title>src/Int64.mo&#45;&gt;src/Int.mo</title>
<path fill="none" stroke="black" d="M1368.75,-503.7C1368.64,-495.98 1368.51,-486.71 1368.39,-478.11"/>
<polygon fill="black" stroke="black" points="1371.89,-478.05 1368.24,-468.1 1364.89,-478.15 1371.89,-478.05"/>
</g>
<!-- src/Word64.mo -->
<g id="node40" class="node">
<title>src/Word64.mo</title>
<ellipse fill="none" stroke="black" cx="1326" cy="-594" rx="78.79" ry="18"/>
<text text-anchor="middle" x="1326" y="-590.3" font-family="Times-Roman" font-size="14.00">src/Word64.mo</text>
</g>
<!-- src/Word64.mo&#45;&gt;src/Nat.mo -->
<g id="edge72" class="edge">
<title>src/Word64.mo&#45;&gt;src/Nat.mo</title>
<path fill="none" stroke="black" d="M1269.81,-581.24C1259.27,-579.29 1248.33,-577.44 1238,-576 1054.64,-550.41 1005.65,-570.24 823,-540 817.67,-539.12 812.15,-538.04 806.66,-536.86"/>
<polygon fill="black" stroke="black" points="807.38,-533.44 796.85,-534.65 805.84,-540.26 807.38,-533.44"/>
</g>
</g>
</svg>
