<?xml version="1.0" encoding="UTF-8" standalone="no"?>
<!DOCTYPE svg PUBLIC "-//W3C//DTD SVG 1.1//EN"
 "http://www.w3.org/Graphics/SVG/1.1/DTD/svg11.dtd">
<!-- Generated by graphviz version 2.43.0 (0)
 -->
<!-- Title: Base Pages: 1 -->
<svg width="2698pt" height="620pt"
 viewBox="0.00 0.00 2698.49 620.00" xmlns="http://www.w3.org/2000/svg" xmlns:xlink="http://www.w3.org/1999/xlink">
<g id="graph0" class="graph" transform="scale(1 1) rotate(0) translate(4 616)">
<title>Base</title>
<polygon fill="white" stroke="transparent" points="-4,4 -4,-616 2694.49,-616 2694.49,4 -4,4"/>
<!-- src/Int.mo -->
<g id="node1" class="node">
<title>src/Int.mo</title>
<ellipse fill="none" stroke="black" cx="1182.49" cy="-450" rx="55.79" ry="18"/>
<text text-anchor="middle" x="1182.49" y="-446.3" font-family="Times-Roman" font-size="14.00">src/Int.mo</text>
</g>
<!-- src/Prelude.mo -->
<g id="node2" class="node">
<title>src/Prelude.mo</title>
<ellipse fill="none" stroke="black" cx="1726.49" cy="-18" rx="77.19" ry="18"/>
<text text-anchor="middle" x="1726.49" y="-14.3" font-family="Times-Roman" font-size="14.00">src/Prelude.mo</text>
</g>
<!-- src/Int.mo&#45;&gt;src/Prelude.mo -->
<g id="edge1" class="edge">
<title>src/Int.mo&#45;&gt;src/Prelude.mo</title>
<path fill="none" stroke="black" d="M1163.83,-432.69C1138,-408.2 1094.49,-359.21 1094.49,-307 1094.49,-307 1094.49,-307 1094.49,-161 1094.49,-104.73 1480.86,-49.64 1649.41,-28.29"/>
<polygon fill="black" stroke="black" points="1649.97,-31.74 1659.46,-27.02 1649.1,-24.8 1649.97,-31.74"/>
</g>
<!-- src/Hash.mo -->
<g id="node3" class="node">
<title>src/Hash.mo</title>
<ellipse fill="none" stroke="black" cx="2297.49" cy="-378" rx="66.89" ry="18"/>
<text text-anchor="middle" x="2297.49" y="-374.3" font-family="Times-Roman" font-size="14.00">src/Hash.mo</text>
</g>
<!-- src/Int.mo&#45;&gt;src/Hash.mo -->
<g id="edge2" class="edge">
<title>src/Int.mo&#45;&gt;src/Hash.mo</title>
<path fill="none" stroke="black" d="M1238.12,-447.4C1424.92,-441.85 2028.78,-422.28 2221.49,-396 2227.65,-395.16 2234.04,-394.08 2240.39,-392.86"/>
<polygon fill="black" stroke="black" points="2241.18,-396.27 2250.28,-390.86 2239.79,-389.41 2241.18,-396.27"/>
</g>
<!-- src/Iter.mo -->
<g id="node4" class="node">
<title>src/Iter.mo</title>
<ellipse fill="none" stroke="black" cx="2297.49" cy="-306" rx="58.49" ry="18"/>
<text text-anchor="middle" x="2297.49" y="-302.3" font-family="Times-Roman" font-size="14.00">src/Iter.mo</text>
</g>
<!-- src/Hash.mo&#45;&gt;src/Iter.mo -->
<g id="edge3" class="edge">
<title>src/Hash.mo&#45;&gt;src/Iter.mo</title>
<path fill="none" stroke="black" d="M2297.49,-359.7C2297.49,-351.98 2297.49,-342.71 2297.49,-334.11"/>
<polygon fill="black" stroke="black" points="2300.99,-334.1 2297.49,-324.1 2293.99,-334.1 2300.99,-334.1"/>
</g>
<!-- src/Array.mo -->
<g id="node5" class="node">
<title>src/Array.mo</title>
<ellipse fill="none" stroke="black" cx="1996.49" cy="-162" rx="66.89" ry="18"/>
<text text-anchor="middle" x="1996.49" y="-158.3" font-family="Times-Roman" font-size="14.00">src/Array.mo</text>
</g>
<!-- src/Iter.mo&#45;&gt;src/Array.mo -->
<g id="edge4" class="edge">
<title>src/Iter.mo&#45;&gt;src/Array.mo</title>
<path fill="none" stroke="black" d="M2266.98,-290.6C2212.64,-264.97 2099.09,-211.4 2037.82,-182.5"/>
<polygon fill="black" stroke="black" points="2038.99,-179.18 2028.45,-178.08 2036,-185.51 2038.99,-179.18"/>
</g>
<!-- src/Buffer.mo -->
<g id="node6" class="node">
<title>src/Buffer.mo</title>
<ellipse fill="none" stroke="black" cx="2169.49" cy="-90" rx="70.69" ry="18"/>
<text text-anchor="middle" x="2169.49" y="-86.3" font-family="Times-Roman" font-size="14.00">src/Buffer.mo</text>
</g>
<!-- src/Iter.mo&#45;&gt;src/Buffer.mo -->
<g id="edge5" class="edge">
<title>src/Iter.mo&#45;&gt;src/Buffer.mo</title>
<path fill="none" stroke="black" d="M2287.45,-288.21C2265.17,-250.95 2211.47,-161.17 2184.9,-116.76"/>
<polygon fill="black" stroke="black" points="2187.8,-114.8 2179.67,-108.01 2181.8,-118.39 2187.8,-114.8"/>
</g>
<!-- src/List.mo -->
<g id="node7" class="node">
<title>src/List.mo</title>
<ellipse fill="none" stroke="black" cx="1553.49" cy="-234" rx="59.59" ry="18"/>
<text text-anchor="middle" x="1553.49" y="-230.3" font-family="Times-Roman" font-size="14.00">src/List.mo</text>
</g>
<!-- src/Iter.mo&#45;&gt;src/List.mo -->
<g id="edge6" class="edge">
<title>src/Iter.mo&#45;&gt;src/List.mo</title>
<path fill="none" stroke="black" d="M2242.48,-299.82C2108.37,-287.21 1764.98,-254.9 1619.84,-241.24"/>
<polygon fill="black" stroke="black" points="1620.02,-237.74 1609.74,-240.29 1619.37,-244.71 1620.02,-237.74"/>
</g>
<!-- src/Array.mo&#45;&gt;src/Buffer.mo -->
<g id="edge7" class="edge">
<title>src/Array.mo&#45;&gt;src/Buffer.mo</title>
<path fill="none" stroke="black" d="M2031.92,-146.67C2058.56,-135.88 2095.28,-121.03 2124.08,-109.37"/>
<polygon fill="black" stroke="black" points="2125.56,-112.55 2133.52,-105.56 2122.94,-106.06 2125.56,-112.55"/>
</g>
<!-- src/IterType.mo -->
<g id="node8" class="node">
<title>src/IterType.mo</title>
<ellipse fill="none" stroke="black" cx="2000.49" cy="-90" rx="79.89" ry="18"/>
<text text-anchor="middle" x="2000.49" y="-86.3" font-family="Times-Roman" font-size="14.00">src/IterType.mo</text>
</g>
<!-- src/Array.mo&#45;&gt;src/IterType.mo -->
<g id="edge8" class="edge">
<title>src/Array.mo&#45;&gt;src/IterType.mo</title>
<path fill="none" stroke="black" d="M1997.48,-143.7C1997.92,-135.98 1998.45,-126.71 1998.94,-118.11"/>
<polygon fill="black" stroke="black" points="2002.44,-118.29 1999.52,-108.1 1995.45,-117.89 2002.44,-118.29"/>
</g>
<!-- src/Option.mo -->
<g id="node9" class="node">
<title>src/Option.mo</title>
<ellipse fill="none" stroke="black" cx="1828.49" cy="-90" rx="74.19" ry="18"/>
<text text-anchor="middle" x="1828.49" y="-86.3" font-family="Times-Roman" font-size="14.00">src/Option.mo</text>
</g>
<!-- src/Array.mo&#45;&gt;src/Option.mo -->
<g id="edge9" class="edge">
<title>src/Array.mo&#45;&gt;src/Option.mo</title>
<path fill="none" stroke="black" d="M1961.68,-146.5C1936.15,-135.86 1901.25,-121.32 1873.58,-109.79"/>
<polygon fill="black" stroke="black" points="1874.7,-106.46 1864.13,-105.85 1872.01,-112.92 1874.7,-106.46"/>
</g>
<!-- src/Result.mo -->
<g id="node10" class="node">
<title>src/Result.mo</title>
<ellipse fill="none" stroke="black" cx="1589.49" cy="-90" rx="71.49" ry="18"/>
<text text-anchor="middle" x="1589.49" y="-86.3" font-family="Times-Roman" font-size="14.00">src/Result.mo</text>
</g>
<!-- src/Array.mo&#45;&gt;src/Result.mo -->
<g id="edge10" class="edge">
<title>src/Array.mo&#45;&gt;src/Result.mo</title>
<path fill="none" stroke="black" d="M1941.6,-151.56C1867.74,-138.85 1736.43,-116.27 1656.72,-102.56"/>
<polygon fill="black" stroke="black" points="1657.23,-99.1 1646.79,-100.85 1656.05,-106 1657.23,-99.1"/>
</g>
<!-- src/List.mo&#45;&gt;src/Array.mo -->
<g id="edge14" class="edge">
<title>src/List.mo&#45;&gt;src/Array.mo</title>
<path fill="none" stroke="black" d="M1605.18,-224.83C1685.83,-212.09 1841.56,-187.48 1930.32,-173.46"/>
<polygon fill="black" stroke="black" points="1930.94,-176.9 1940.27,-171.88 1929.85,-169.99 1930.94,-176.9"/>
</g>
<!-- src/List.mo&#45;&gt;src/Option.mo -->
<g id="edge15" class="edge">
<title>src/List.mo&#45;&gt;src/Option.mo</title>
<path fill="none" stroke="black" d="M1582.4,-218.07C1632.04,-192.44 1733.52,-140.04 1789.41,-111.18"/>
<polygon fill="black" stroke="black" points="1791.03,-114.29 1798.31,-106.59 1787.81,-108.07 1791.03,-114.29"/>
</g>
<!-- src/List.mo&#45;&gt;src/Result.mo -->
<g id="edge17" class="edge">
<title>src/List.mo&#45;&gt;src/Result.mo</title>
<path fill="none" stroke="black" d="M1557.84,-215.87C1564,-191.56 1575.34,-146.82 1582.65,-118.01"/>
<polygon fill="black" stroke="black" points="1586.07,-118.74 1585.14,-108.19 1579.29,-117.02 1586.07,-118.74"/>
</g>
<!-- src/Order.mo -->
<g id="node11" class="node">
<title>src/Order.mo</title>
<ellipse fill="none" stroke="black" cx="1414.49" cy="-18" rx="68.79" ry="18"/>
<text text-anchor="middle" x="1414.49" y="-14.3" font-family="Times-Roman" font-size="14.00">src/Order.mo</text>
</g>
<!-- src/List.mo&#45;&gt;src/Order.mo -->
<g id="edge16" class="edge">
<title>src/List.mo&#45;&gt;src/Order.mo</title>
<path fill="none" stroke="black" d="M1542.59,-216.21C1518.34,-178.87 1459.83,-88.8 1431.05,-44.48"/>
<polygon fill="black" stroke="black" points="1433.92,-42.49 1425.54,-36.01 1428.05,-46.3 1433.92,-42.49"/>
</g>
<!-- src/Option.mo&#45;&gt;src/Prelude.mo -->
<g id="edge11" class="edge">
<title>src/Option.mo&#45;&gt;src/Prelude.mo</title>
<path fill="none" stroke="black" d="M1804.84,-72.76C1791.06,-63.31 1773.51,-51.26 1758.51,-40.97"/>
<polygon fill="black" stroke="black" points="1760.25,-37.92 1750.02,-35.15 1756.29,-43.69 1760.25,-37.92"/>
</g>
<!-- src/Result.mo&#45;&gt;src/Prelude.mo -->
<g id="edge12" class="edge">
<title>src/Result.mo&#45;&gt;src/Prelude.mo</title>
<path fill="none" stroke="black" d="M1619.56,-73.64C1639.32,-63.54 1665.39,-50.22 1686.84,-39.26"/>
<polygon fill="black" stroke="black" points="1688.71,-42.23 1696.03,-34.57 1685.53,-36 1688.71,-42.23"/>
</g>
<!-- src/Result.mo&#45;&gt;src/Order.mo -->
<g id="edge13" class="edge">
<title>src/Result.mo&#45;&gt;src/Order.mo</title>
<path fill="none" stroke="black" d="M1552.81,-74.33C1525.79,-63.52 1488.89,-48.76 1460,-37.2"/>
<polygon fill="black" stroke="black" points="1461.12,-33.88 1450.53,-33.42 1458.52,-40.38 1461.12,-33.88"/>
</g>
<!-- src/Nat.mo -->
<g id="node12" class="node">
<title>src/Nat.mo</title>
<ellipse fill="none" stroke="black" cx="911.49" cy="-522" rx="59.59" ry="18"/>
<text text-anchor="middle" x="911.49" y="-518.3" font-family="Times-Roman" font-size="14.00">src/Nat.mo</text>
</g>
<!-- src/Nat.mo&#45;&gt;src/Int.mo -->
<g id="edge18" class="edge">
<title>src/Nat.mo&#45;&gt;src/Int.mo</title>
<path fill="none" stroke="black" d="M955.34,-509.68C1003.09,-497.34 1079.42,-477.62 1130.25,-464.5"/>
<polygon fill="black" stroke="black" points="1131.25,-467.85 1140.05,-461.96 1129.5,-461.07 1131.25,-467.85"/>
</g>
<!-- src/Nat.mo&#45;&gt;src/Order.mo -->
<g id="edge19" class="edge">
<title>src/Nat.mo&#45;&gt;src/Order.mo</title>
<path fill="none" stroke="black" d="M922.42,-504.3C938.2,-478.52 965.49,-427 965.49,-379 965.49,-379 965.49,-379 965.49,-161 965.49,-108.7 996.58,-97.06 1042.49,-72 1092.01,-44.98 1244.41,-30.28 1338.07,-23.58"/>
<polygon fill="black" stroke="black" points="1338.34,-27.07 1348.07,-22.88 1337.85,-20.09 1338.34,-27.07"/>
</g>
<!-- src/Word64.mo -->
<g id="node13" class="node">
<title>src/Word64.mo</title>
<ellipse fill="none" stroke="black" cx="911.49" cy="-594" rx="78.79" ry="18"/>
<text text-anchor="middle" x="911.49" y="-590.3" font-family="Times-Roman" font-size="14.00">src/Word64.mo</text>
</g>
<!-- src/Word64.mo&#45;&gt;src/Nat.mo -->
<g id="edge20" class="edge">
<title>src/Word64.mo&#45;&gt;src/Nat.mo</title>
<path fill="none" stroke="black" d="M911.49,-575.7C911.49,-567.98 911.49,-558.71 911.49,-550.11"/>
<polygon fill="black" stroke="black" points="914.99,-550.1 911.49,-540.1 907.99,-550.1 914.99,-550.1"/>
</g>
<!-- src/Nat8.mo -->
<g id="node14" class="node">
<title>src/Nat8.mo</title>
<ellipse fill="none" stroke="black" cx="1073.49" cy="-594" rx="65.79" ry="18"/>
<text text-anchor="middle" x="1073.49" y="-590.3" font-family="Times-Roman" font-size="14.00">src/Nat8.mo</text>
</g>
<!-- src/Nat8.mo&#45;&gt;src/Nat.mo -->
<g id="edge21" class="edge">
<title>src/Nat8.mo&#45;&gt;src/Nat.mo</title>
<path fill="none" stroke="black" d="M1039.93,-578.5C1014.92,-567.69 980.59,-552.86 953.72,-541.25"/>
<polygon fill="black" stroke="black" points="954.75,-537.88 944.19,-537.13 951.98,-544.31 954.75,-537.88"/>
</g>
<!-- src/Word8.mo -->
<g id="node15" class="node">
<title>src/Word8.mo</title>
<ellipse fill="none" stroke="black" cx="1229.49" cy="-594" rx="72.59" ry="18"/>
<text text-anchor="middle" x="1229.49" y="-590.3" font-family="Times-Roman" font-size="14.00">src/Word8.mo</text>
</g>
<!-- src/Word8.mo&#45;&gt;src/Nat.mo -->
<g id="edge22" class="edge">
<title>src/Word8.mo&#45;&gt;src/Nat.mo</title>
<path fill="none" stroke="black" d="M1176.98,-581.44C1119.45,-568.78 1027.49,-548.53 968.31,-535.51"/>
<polygon fill="black" stroke="black" points="968.9,-532.05 958.38,-533.32 967.39,-538.89 968.9,-532.05"/>
</g>
<!-- src/Text.mo -->
<g id="node16" class="node">
<title>src/Text.mo</title>
<ellipse fill="none" stroke="black" cx="2070.49" cy="-450" rx="61.99" ry="18"/>
<text text-anchor="middle" x="2070.49" y="-446.3" font-family="Times-Roman" font-size="14.00">src/Text.mo</text>
</g>
<!-- src/Text.mo&#45;&gt;src/Hash.mo -->
<g id="edge25" class="edge">
<title>src/Text.mo&#45;&gt;src/Hash.mo</title>
<path fill="none" stroke="black" d="M2111.34,-436.4C2148.84,-424.84 2204.59,-407.65 2245.31,-395.09"/>
<polygon fill="black" stroke="black" points="2246.53,-398.38 2255.05,-392.09 2244.46,-391.69 2246.53,-398.38"/>
</g>
<!-- src/Text.mo&#45;&gt;src/Iter.mo -->
<g id="edge24" class="edge">
<title>src/Text.mo&#45;&gt;src/Iter.mo</title>
<path fill="none" stroke="black" d="M2065.95,-431.75C2061.88,-412.04 2058.82,-379.95 2075.49,-360 2075.84,-359.59 2177.23,-335.5 2242.85,-319.94"/>
<polygon fill="black" stroke="black" points="2243.74,-323.33 2252.66,-317.62 2242.12,-316.52 2243.74,-323.33"/>
</g>
<!-- src/Char.mo -->
<g id="node17" class="node">
<title>src/Char.mo</title>
<ellipse fill="none" stroke="black" cx="2148.49" cy="-378" rx="64.19" ry="18"/>
<text text-anchor="middle" x="2148.49" y="-374.3" font-family="Times-Roman" font-size="14.00">src/Char.mo</text>
</g>
<!-- src/Text.mo&#45;&gt;src/Char.mo -->
<g id="edge23" class="edge">
<title>src/Text.mo&#45;&gt;src/Char.mo</title>
<path fill="none" stroke="black" d="M2088.58,-432.76C2098.65,-423.73 2111.36,-412.33 2122.48,-402.35"/>
<polygon fill="black" stroke="black" points="2125.13,-404.67 2130.23,-395.39 2120.45,-399.46 2125.13,-404.67"/>
</g>
<!-- src/Stack.mo -->
<g id="node18" class="node">
<title>src/Stack.mo</title>
<ellipse fill="none" stroke="black" cx="1553.49" cy="-306" rx="68.79" ry="18"/>
<text text-anchor="middle" x="1553.49" y="-302.3" font-family="Times-Roman" font-size="14.00">src/Stack.mo</text>
</g>
<!-- src/Text.mo&#45;&gt;src/Stack.mo -->
<g id="edge26" class="edge">
<title>src/Text.mo&#45;&gt;src/Stack.mo</title>
<path fill="none" stroke="black" d="M2012.98,-443.26C1896.91,-431.52 1644.23,-405.1 1627.49,-396 1613.42,-388.35 1588.18,-355.71 1571.13,-332.18"/>
<polygon fill="black" stroke="black" points="1573.93,-330.07 1565.26,-323.98 1568.24,-334.15 1573.93,-330.07"/>
</g>
<!-- src/Stack.mo&#45;&gt;src/List.mo -->
<g id="edge27" class="edge">
<title>src/Stack.mo&#45;&gt;src/List.mo</title>
<path fill="none" stroke="black" d="M1553.49,-287.7C1553.49,-279.98 1553.49,-270.71 1553.49,-262.11"/>
<polygon fill="black" stroke="black" points="1556.99,-262.1 1553.49,-252.1 1549.99,-262.1 1556.99,-262.1"/>
</g>
<!-- src/Int16.mo -->
<g id="node19" class="node">
<title>src/Int16.mo</title>
<ellipse fill="none" stroke="black" cx="1802.49" cy="-522" rx="67.69" ry="18"/>
<text text-anchor="middle" x="1802.49" y="-518.3" font-family="Times-Roman" font-size="14.00">src/Int16.mo</text>
</g>
<!-- src/Int16.mo&#45;&gt;src/Int.mo -->
<g id="edge28" class="edge">
<title>src/Int16.mo&#45;&gt;src/Int.mo</title>
<path fill="none" stroke="black" d="M1754.44,-509.15C1745.21,-507.19 1735.59,-505.36 1726.49,-504 1517.53,-472.86 1461.17,-501.04 1252.49,-468 1246.33,-467.02 1239.92,-465.78 1233.58,-464.42"/>
<polygon fill="black" stroke="black" points="1234.25,-460.98 1223.73,-462.19 1232.71,-467.81 1234.25,-460.98"/>
</g>
<!-- src/Nat16.mo -->
<g id="node20" class="node">
<title>src/Nat16.mo</title>
<ellipse fill="none" stroke="black" cx="71.49" cy="-594" rx="71.49" ry="18"/>
<text text-anchor="middle" x="71.49" y="-590.3" font-family="Times-Roman" font-size="14.00">src/Nat16.mo</text>
</g>
<!-- src/Nat16.mo&#45;&gt;src/Nat.mo -->
<g id="edge29" class="edge">
<title>src/Nat16.mo&#45;&gt;src/Nat.mo</title>
<path fill="none" stroke="black" d="M122.09,-581.13C131.81,-579.17 141.93,-577.34 151.49,-576 404.25,-540.51 707.79,-528.41 841.94,-524.6"/>
<polygon fill="black" stroke="black" points="842.17,-528.1 852.07,-524.32 841.98,-521.1 842.17,-528.1"/>
</g>
<!-- src/Word32.mo -->
<g id="node21" class="node">
<title>src/Word32.mo</title>
<ellipse fill="none" stroke="black" cx="239.49" cy="-594" rx="78.79" ry="18"/>
<text text-anchor="middle" x="239.49" y="-590.3" font-family="Times-Roman" font-size="14.00">src/Word32.mo</text>
</g>
<!-- src/Word32.mo&#45;&gt;src/Nat.mo -->
<g id="edge30" class="edge">
<title>src/Word32.mo&#45;&gt;src/Nat.mo</title>
<path fill="none" stroke="black" d="M295.69,-581.27C306.22,-579.32 317.17,-577.46 327.49,-576 513.03,-549.73 733.67,-533.84 843.02,-526.98"/>
<polygon fill="black" stroke="black" points="843.48,-530.46 853.25,-526.34 843.05,-523.47 843.48,-530.46"/>
</g>
<!-- src/Float.mo -->
<g id="node22" class="node">
<title>src/Float.mo</title>
<ellipse fill="none" stroke="black" cx="1953.49" cy="-522" rx="65.79" ry="18"/>
<text text-anchor="middle" x="1953.49" y="-518.3" font-family="Times-Roman" font-size="14.00">src/Float.mo</text>
</g>
<!-- src/Float.mo&#45;&gt;src/Int.mo -->
<g id="edge31" class="edge">
<title>src/Float.mo&#45;&gt;src/Int.mo</title>
<path fill="none" stroke="black" d="M1907.14,-509.09C1898.02,-507.11 1888.5,-505.28 1879.49,-504 1603.16,-464.61 1528.58,-509.1 1252.49,-468 1246.32,-467.08 1239.9,-465.88 1233.56,-464.53"/>
<polygon fill="black" stroke="black" points="1234.23,-461.09 1223.71,-462.32 1232.7,-467.92 1234.23,-461.09"/>
</g>
<!-- src/Heap.mo -->
<g id="node23" class="node">
<title>src/Heap.mo</title>
<ellipse fill="none" stroke="black" cx="1704.49" cy="-378" rx="67.69" ry="18"/>
<text text-anchor="middle" x="1704.49" y="-374.3" font-family="Times-Roman" font-size="14.00">src/Heap.mo</text>
</g>
<!-- src/Heap.mo&#45;&gt;src/Prelude.mo -->
<g id="edge33" class="edge">
<title>src/Heap.mo&#45;&gt;src/Prelude.mo</title>
<path fill="none" stroke="black" d="M1701.26,-359.58C1696.58,-332.87 1688.49,-280.15 1688.49,-235 1688.49,-235 1688.49,-235 1688.49,-161 1688.49,-119.63 1703.73,-73.72 1714.91,-45.61"/>
<polygon fill="black" stroke="black" points="1718.25,-46.67 1718.8,-36.09 1711.77,-44.02 1718.25,-46.67"/>
</g>
<!-- src/Heap.mo&#45;&gt;src/Iter.mo -->
<g id="edge35" class="edge">
<title>src/Heap.mo&#45;&gt;src/Iter.mo</title>
<path fill="none" stroke="black" d="M1764.89,-369.87C1877.5,-356.58 2118.52,-328.13 2233.68,-314.53"/>
<polygon fill="black" stroke="black" points="2234.23,-317.99 2243.75,-313.34 2233.41,-311.04 2234.23,-317.99"/>
</g>
<!-- src/Heap.mo&#45;&gt;src/List.mo -->
<g id="edge34" class="edge">
<title>src/Heap.mo&#45;&gt;src/List.mo</title>
<path fill="none" stroke="black" d="M1692.85,-360.03C1679.41,-341.16 1655.98,-310.38 1631.49,-288 1618.38,-276.02 1602.38,-264.68 1588.28,-255.58"/>
<polygon fill="black" stroke="black" points="1590.12,-252.6 1579.8,-250.22 1586.38,-258.52 1590.12,-252.6"/>
</g>
<!-- src/Heap.mo&#45;&gt;src/Order.mo -->
<g id="edge32" class="edge">
<title>src/Heap.mo&#45;&gt;src/Order.mo</title>
<path fill="none" stroke="black" d="M1649.54,-367.49C1585.74,-355.96 1487.64,-336.52 1475.49,-324 1400.62,-246.84 1405.31,-105.21 1411.1,-46.06"/>
<polygon fill="black" stroke="black" points="1414.59,-46.33 1412.17,-36.01 1407.63,-45.59 1414.59,-46.33"/>
</g>
<!-- src/Int8.mo -->
<g id="node24" class="node">
<title>src/Int8.mo</title>
<ellipse fill="none" stroke="black" cx="1184.49" cy="-522" rx="61.99" ry="18"/>
<text text-anchor="middle" x="1184.49" y="-518.3" font-family="Times-Roman" font-size="14.00">src/Int8.mo</text>
</g>
<!-- src/Int8.mo&#45;&gt;src/Int.mo -->
<g id="edge36" class="edge">
<title>src/Int8.mo&#45;&gt;src/Int.mo</title>
<path fill="none" stroke="black" d="M1184,-503.7C1183.78,-495.98 1183.51,-486.71 1183.27,-478.11"/>
<polygon fill="black" stroke="black" points="1186.77,-478 1182.98,-468.1 1179.77,-478.2 1186.77,-478"/>
</g>
<!-- src/Nat32.mo -->
<g id="node25" class="node">
<title>src/Nat32.mo</title>
<ellipse fill="none" stroke="black" cx="407.49" cy="-594" rx="71.49" ry="18"/>
<text text-anchor="middle" x="407.49" y="-590.3" font-family="Times-Roman" font-size="14.00">src/Nat32.mo</text>
</g>
<!-- src/Nat32.mo&#45;&gt;src/Nat.mo -->
<g id="edge37" class="edge">
<title>src/Nat32.mo&#45;&gt;src/Nat.mo</title>
<path fill="none" stroke="black" d="M459.01,-581.38C468.46,-579.44 478.25,-577.56 487.49,-576 613.37,-554.8 761.59,-538.15 845.25,-529.52"/>
<polygon fill="black" stroke="black" points="845.78,-532.98 855.37,-528.48 845.07,-526.02 845.78,-532.98"/>
</g>
<!-- src/Word16.mo -->
<g id="node26" class="node">
<title>src/Word16.mo</title>
<ellipse fill="none" stroke="black" cx="575.49" cy="-594" rx="78.79" ry="18"/>
<text text-anchor="middle" x="575.49" y="-590.3" font-family="Times-Roman" font-size="14.00">src/Word16.mo</text>
</g>
<!-- src/Word16.mo&#45;&gt;src/Nat.mo -->
<g id="edge38" class="edge">
<title>src/Word16.mo&#45;&gt;src/Nat.mo</title>
<path fill="none" stroke="black" d="M631.73,-581.28C693.32,-568.45 791.57,-547.98 853.75,-535.03"/>
<polygon fill="black" stroke="black" points="854.71,-538.41 863.78,-532.94 853.28,-531.55 854.71,-538.41"/>
</g>
<!-- src/Trie.mo -->
<g id="node27" class="node">
<title>src/Trie.mo</title>
<ellipse fill="none" stroke="black" cx="1819.49" cy="-450" rx="59.59" ry="18"/>
<text text-anchor="middle" x="1819.49" y="-446.3" font-family="Times-Roman" font-size="14.00">src/Trie.mo</text>
</g>
<!-- src/Trie.mo&#45;&gt;src/Prelude.mo -->
<g id="edge39" class="edge">
<title>src/Trie.mo&#45;&gt;src/Prelude.mo</title>
<path fill="none" stroke="black" d="M1760.65,-446.13C1647.21,-440 1407.17,-423.85 1382.49,-396 1318.74,-324.05 1426.83,-138.7 1509.49,-72 1546.31,-42.29 1597.32,-28.86 1640.63,-22.94"/>
<polygon fill="black" stroke="black" points="1641.12,-26.41 1650.6,-21.69 1640.25,-19.46 1641.12,-26.41"/>
</g>
<!-- src/Trie.mo&#45;&gt;src/Hash.mo -->
<g id="edge41" class="edge">
<title>src/Trie.mo&#45;&gt;src/Hash.mo</title>
<path fill="none" stroke="black" d="M1875,-443.26C1952.78,-434.86 2098.46,-417.83 2221.49,-396 2227.21,-394.99 2233.14,-393.83 2239.06,-392.62"/>
<polygon fill="black" stroke="black" points="2239.91,-396.02 2248.97,-390.53 2238.46,-389.17 2239.91,-396.02"/>
</g>
<!-- src/Trie.mo&#45;&gt;src/Array.mo -->
<g id="edge42" class="edge">
<title>src/Trie.mo&#45;&gt;src/Array.mo</title>
<path fill="none" stroke="black" d="M1823.94,-431.9C1829.49,-412.91 1840.39,-382.03 1857.49,-360 1873.63,-339.22 1887.18,-343.81 1904.49,-324 1941.32,-281.86 1970.55,-222.71 1985.53,-189.08"/>
<polygon fill="black" stroke="black" points="1988.74,-190.48 1989.54,-179.91 1982.32,-187.67 1988.74,-190.48"/>
</g>
<!-- src/Trie.mo&#45;&gt;src/List.mo -->
<g id="edge43" class="edge">
<title>src/Trie.mo&#45;&gt;src/List.mo</title>
<path fill="none" stroke="black" d="M1761.25,-445.86C1651.52,-439.34 1423.04,-422.7 1399.49,-396 1352.63,-342.85 1451.7,-283.32 1511.84,-253.76"/>
<polygon fill="black" stroke="black" points="1513.65,-256.78 1521.13,-249.28 1510.61,-250.47 1513.65,-256.78"/>
</g>
<!-- src/Trie.mo&#45;&gt;src/Option.mo -->
<g id="edge40" class="edge">
<title>src/Trie.mo&#45;&gt;src/Option.mo</title>
<path fill="none" stroke="black" d="M1818.7,-431.9C1818.55,-413.18 1820.48,-382.79 1832.49,-360 1843.5,-339.13 1862.03,-345.61 1871.49,-324 1886.11,-290.62 1854.55,-217.16 1846.49,-180 1842.01,-159.33 1837.28,-135.88 1833.8,-118.25"/>
<polygon fill="black" stroke="black" points="1837.17,-117.23 1831.8,-108.09 1830.3,-118.58 1837.17,-117.23"/>
</g>
<!-- src/AssocList.mo -->
<g id="node28" class="node">
<title>src/AssocList.mo</title>
<ellipse fill="none" stroke="black" cx="1494.49" cy="-378" rx="85.59" ry="18"/>
<text text-anchor="middle" x="1494.49" y="-374.3" font-family="Times-Roman" font-size="14.00">src/AssocList.mo</text>
</g>
<!-- src/Trie.mo&#45;&gt;src/AssocList.mo -->
<g id="edge44" class="edge">
<title>src/Trie.mo&#45;&gt;src/AssocList.mo</title>
<path fill="none" stroke="black" d="M1772.24,-438.82C1716.84,-426.89 1624.63,-407.03 1561.78,-393.49"/>
<polygon fill="black" stroke="black" points="1562.46,-390.06 1551.95,-391.38 1560.99,-396.9 1562.46,-390.06"/>
</g>
<!-- src/AssocList.mo&#45;&gt;src/List.mo -->
<g id="edge45" class="edge">
<title>src/AssocList.mo&#45;&gt;src/List.mo</title>
<path fill="none" stroke="black" d="M1484.37,-359.99C1474.71,-341.35 1463.29,-311.04 1475.49,-288 1483.16,-273.52 1496.75,-262.26 1510.47,-253.92"/>
<polygon fill="black" stroke="black" points="1512.45,-256.82 1519.44,-248.85 1509.01,-250.72 1512.45,-256.82"/>
</g>
<!-- src/Random.mo -->
<g id="node29" class="node">
<title>src/Random.mo</title>
<ellipse fill="none" stroke="black" cx="1947.49" cy="-378" rx="81.49" ry="18"/>
<text text-anchor="middle" x="1947.49" y="-374.3" font-family="Times-Roman" font-size="14.00">src/Random.mo</text>
</g>
<!-- src/Random.mo&#45;&gt;src/Prelude.mo -->
<g id="edge48" class="edge">
<title>src/Random.mo&#45;&gt;src/Prelude.mo</title>
<path fill="none" stroke="black" d="M1984.13,-361.93C2085.27,-318.34 2354.17,-187.82 2249.49,-72 2220.84,-40.29 1954.12,-26.61 1813.05,-21.55"/>
<polygon fill="black" stroke="black" points="1812.82,-18.04 1802.7,-21.19 1812.58,-25.04 1812.82,-18.04"/>
</g>
<!-- src/Random.mo&#45;&gt;src/Iter.mo -->
<g id="edge46" class="edge">
<title>src/Random.mo&#45;&gt;src/Iter.mo</title>
<path fill="none" stroke="black" d="M2008.66,-366.13C2065.09,-355.91 2151.13,-339.86 2225.49,-324 2231.21,-322.78 2237.16,-321.46 2243.1,-320.11"/>
<polygon fill="black" stroke="black" points="2244.05,-323.48 2253.01,-317.82 2242.48,-316.66 2244.05,-323.48"/>
</g>
<!-- src/Random.mo&#45;&gt;src/Option.mo -->
<g id="edge47" class="edge">
<title>src/Random.mo&#45;&gt;src/Option.mo</title>
<path fill="none" stroke="black" d="M1940.41,-359.97C1920.44,-311.98 1863.62,-175.41 1839.52,-117.49"/>
<polygon fill="black" stroke="black" points="1842.62,-115.83 1835.54,-107.94 1836.15,-118.52 1842.62,-115.83"/>
</g>
<!-- src/Nat64.mo -->
<g id="node30" class="node">
<title>src/Nat64.mo</title>
<ellipse fill="none" stroke="black" cx="743.49" cy="-594" rx="71.49" ry="18"/>
<text text-anchor="middle" x="743.49" y="-590.3" font-family="Times-Roman" font-size="14.00">src/Nat64.mo</text>
</g>
<!-- src/Nat64.mo&#45;&gt;src/Nat.mo -->
<g id="edge49" class="edge">
<title>src/Nat64.mo&#45;&gt;src/Nat.mo</title>
<path fill="none" stroke="black" d="M778.71,-578.33C804.88,-567.42 840.71,-552.5 868.55,-540.89"/>
<polygon fill="black" stroke="black" points="870.15,-544.02 878.04,-536.94 867.46,-537.56 870.15,-544.02"/>
</g>
<!-- src/Deque.mo -->
<g id="node31" class="node">
<title>src/Deque.mo</title>
<ellipse fill="none" stroke="black" cx="1789.49" cy="-306" rx="73.39" ry="18"/>
<text text-anchor="middle" x="1789.49" y="-302.3" font-family="Times-Roman" font-size="14.00">src/Deque.mo</text>
</g>
<!-- src/Deque.mo&#45;&gt;src/Prelude.mo -->
<g id="edge51" class="edge">
<title>src/Deque.mo&#45;&gt;src/Prelude.mo</title>
<path fill="none" stroke="black" d="M1785.61,-287.88C1777.88,-253.71 1760.04,-174.59 1745.49,-108 1740.97,-87.29 1735.97,-63.85 1732.24,-46.22"/>
<polygon fill="black" stroke="black" points="1735.58,-45.13 1730.09,-36.07 1728.73,-46.58 1735.58,-45.13"/>
</g>
<!-- src/Deque.mo&#45;&gt;src/List.mo -->
<g id="edge50" class="edge">
<title>src/Deque.mo&#45;&gt;src/List.mo</title>
<path fill="none" stroke="black" d="M1744.55,-291.67C1704.56,-279.81 1646.11,-262.47 1604.41,-250.1"/>
<polygon fill="black" stroke="black" points="1605.3,-246.72 1594.72,-247.23 1603.31,-253.43 1605.3,-246.72"/>
</g>
<!-- src/Int64.mo -->
<g id="node32" class="node">
<title>src/Int64.mo</title>
<ellipse fill="none" stroke="black" cx="1496.49" cy="-522" rx="67.69" ry="18"/>
<text text-anchor="middle" x="1496.49" y="-518.3" font-family="Times-Roman" font-size="14.00">src/Int64.mo</text>
</g>
<!-- src/Int64.mo&#45;&gt;src/Int.mo -->
<g id="edge52" class="edge">
<title>src/Int64.mo&#45;&gt;src/Int.mo</title>
<path fill="none" stroke="black" d="M1446.38,-509.9C1437.43,-507.93 1428.19,-505.9 1419.49,-504 1345.31,-487.82 1326.5,-484.96 1252.49,-468 1246.87,-466.71 1241,-465.34 1235.16,-463.95"/>
<polygon fill="black" stroke="black" points="1235.93,-460.53 1225.39,-461.6 1234.3,-467.34 1235.93,-460.53"/>
</g>
<!-- src/HashMap.mo -->
<g id="node33" class="node">
<title>src/HashMap.mo</title>
<ellipse fill="none" stroke="black" cx="2538.49" cy="-450" rx="85.59" ry="18"/>
<text text-anchor="middle" x="2538.49" y="-446.3" font-family="Times-Roman" font-size="14.00">src/HashMap.mo</text>
</g>
<!-- src/HashMap.mo&#45;&gt;src/Prelude.mo -->
<g id="edge53" class="edge">
<title>src/HashMap.mo&#45;&gt;src/Prelude.mo</title>
<path fill="none" stroke="black" d="M2554.61,-432.19C2576.92,-407.09 2614.49,-357.33 2614.49,-307 2614.49,-307 2614.49,-307 2614.49,-161 2614.49,-80.17 2033.4,-37.19 1811.36,-23.72"/>
<polygon fill="black" stroke="black" points="1811.25,-20.21 1801.06,-23.1 1810.83,-27.19 1811.25,-20.21"/>
</g>
<!-- src/HashMap.mo&#45;&gt;src/Hash.mo -->
<g id="edge55" class="edge">
<title>src/HashMap.mo&#45;&gt;src/Hash.mo</title>
<path fill="none" stroke="black" d="M2490.3,-435C2449.99,-423.29 2392.54,-406.61 2350.85,-394.5"/>
<polygon fill="black" stroke="black" points="2351.72,-391.11 2341.14,-391.68 2349.77,-397.83 2351.72,-391.11"/>
</g>
<!-- src/HashMap.mo&#45;&gt;src/Iter.mo -->
<g id="edge56" class="edge">
<title>src/HashMap.mo&#45;&gt;src/Iter.mo</title>
<path fill="none" stroke="black" d="M2539.86,-431.77C2540.45,-411.77 2538.15,-379.11 2519.49,-360 2497.72,-337.7 2418.88,-322.79 2361.33,-314.61"/>
<polygon fill="black" stroke="black" points="2361.6,-311.12 2351.21,-313.21 2360.64,-318.05 2361.6,-311.12"/>
</g>
<!-- src/HashMap.mo&#45;&gt;src/Array.mo -->
<g id="edge54" class="edge">
<title>src/HashMap.mo&#45;&gt;src/Array.mo</title>
<path fill="none" stroke="black" d="M2544.56,-431.98C2550.24,-412.77 2555.91,-381.42 2541.49,-360 2437.16,-204.92 2197.24,-171.18 2073.47,-164.33"/>
<polygon fill="black" stroke="black" points="2073.48,-160.83 2063.31,-163.82 2073.12,-167.82 2073.48,-160.83"/>
</g>
<!-- src/HashMap.mo&#45;&gt;src/AssocList.mo -->
<g id="edge57" class="edge">
<title>src/HashMap.mo&#45;&gt;src/AssocList.mo</title>
<path fill="none" stroke="black" d="M2479,-436.99C2467.59,-435.04 2455.7,-433.25 2444.49,-432 2083.29,-391.57 1989.63,-427.07 1627.49,-396 1609.95,-394.49 1591.16,-392.39 1573.39,-390.18"/>
<polygon fill="black" stroke="black" points="1573.43,-386.66 1563.06,-388.87 1572.54,-393.6 1573.43,-386.66"/>
</g>
<!-- src/Principal.mo -->
<g id="node34" class="node">
<title>src/Principal.mo</title>
<ellipse fill="none" stroke="black" cx="2352.49" cy="-450" rx="82.59" ry="18"/>
<text text-anchor="middle" x="2352.49" y="-446.3" font-family="Times-Roman" font-size="14.00">src/Principal.mo</text>
</g>
<!-- src/Principal.mo&#45;&gt;src/Hash.mo -->
<g id="edge59" class="edge">
<title>src/Principal.mo&#45;&gt;src/Hash.mo</title>
<path fill="none" stroke="black" d="M2339.18,-432.05C2332.49,-423.54 2324.26,-413.07 2316.89,-403.68"/>
<polygon fill="black" stroke="black" points="2319.62,-401.49 2310.69,-395.79 2314.11,-405.81 2319.62,-401.49"/>
</g>
<!-- src/Blob.mo -->
<g id="node35" class="node">
<title>src/Blob.mo</title>
<ellipse fill="none" stroke="black" cx="2446.49" cy="-378" rx="63.89" ry="18"/>
<text text-anchor="middle" x="2446.49" y="-374.3" font-family="Times-Roman" font-size="14.00">src/Blob.mo</text>
</g>
<!-- src/Principal.mo&#45;&gt;src/Blob.mo -->
<g id="edge58" class="edge">
<title>src/Principal.mo&#45;&gt;src/Blob.mo</title>
<path fill="none" stroke="black" d="M2374.77,-432.41C2387.36,-423.04 2403.26,-411.2 2416.88,-401.05"/>
<polygon fill="black" stroke="black" points="2419.09,-403.77 2425.02,-394.99 2414.91,-398.15 2419.09,-403.77"/>
</g>
<!-- src/RBTree.mo -->
<g id="node36" class="node">
<title>src/RBTree.mo</title>
<ellipse fill="none" stroke="black" cx="1395.49" cy="-594" rx="75.29" ry="18"/>
<text text-anchor="middle" x="1395.49" y="-590.3" font-family="Times-Roman" font-size="14.00">src/RBTree.mo</text>
</g>
<!-- src/RBTree.mo&#45;&gt;src/Iter.mo -->
<g id="edge61" class="edge">
<title>src/RBTree.mo&#45;&gt;src/Iter.mo</title>
<path fill="none" stroke="black" d="M1470.56,-591.71C1730.79,-586.41 2582.39,-561.96 2655.49,-468 2681.97,-433.98 2621.38,-362.1 2618.49,-360 2579.04,-331.24 2446.52,-317.16 2364.59,-311.04"/>
<polygon fill="black" stroke="black" points="2364.6,-307.53 2354.37,-310.3 2364.09,-314.51 2364.6,-307.53"/>
</g>
<!-- src/RBTree.mo&#45;&gt;src/List.mo -->
<g id="edge62" class="edge">
<title>src/RBTree.mo&#45;&gt;src/List.mo</title>
<path fill="none" stroke="black" d="M1340.4,-581.69C1330.77,-579.76 1320.85,-577.8 1311.49,-576 1267.58,-567.56 1142.15,-574.33 1113.49,-540 1104.01,-528.63 1104.71,-457.6 1117.49,-432 1161.89,-343.11 1198.97,-331.1 1288.49,-288 1351.08,-257.87 1429.89,-244.87 1485.24,-239.25"/>
<polygon fill="black" stroke="black" points="1485.68,-242.73 1495.3,-238.29 1485.01,-235.76 1485.68,-242.73"/>
</g>
<!-- src/RBTree.mo&#45;&gt;src/Order.mo -->
<g id="edge64" class="edge">
<title>src/RBTree.mo&#45;&gt;src/Order.mo</title>
<path fill="none" stroke="black" d="M1340.41,-581.62C1330.78,-579.7 1320.85,-577.76 1311.49,-576 1219.28,-558.69 1179.4,-595.13 1103.49,-540 1067.3,-513.71 1056.49,-495.73 1056.49,-451 1056.49,-451 1056.49,-451 1056.49,-161 1056.49,-98.72 1246.08,-51.88 1349.32,-31"/>
<polygon fill="black" stroke="black" points="1350.22,-34.39 1359.34,-29 1348.85,-27.52 1350.22,-34.39"/>
</g>
<!-- src/RBTree.mo&#45;&gt;src/Nat.mo -->
<g id="edge63" class="edge">
<title>src/RBTree.mo&#45;&gt;src/Nat.mo</title>
<path fill="none" stroke="black" d="M1340.92,-581.4C1331.14,-579.48 1321.03,-577.6 1311.49,-576 1295.14,-573.26 1084.06,-545.57 975.32,-531.34"/>
<polygon fill="black" stroke="black" points="975.5,-527.83 965.13,-530.01 974.59,-534.78 975.5,-527.83"/>
</g>
<!-- src/Debug.mo -->
<g id="node37" class="node">
<title>src/Debug.mo</title>
<ellipse fill="none" stroke="black" cx="1337.49" cy="-522" rx="73.39" ry="18"/>
<text text-anchor="middle" x="1337.49" y="-518.3" font-family="Times-Roman" font-size="14.00">src/Debug.mo</text>
</g>
<!-- src/RBTree.mo&#45;&gt;src/Debug.mo -->
<g id="edge60" class="edge">
<title>src/RBTree.mo&#45;&gt;src/Debug.mo</title>
<path fill="none" stroke="black" d="M1381.45,-576.05C1374.4,-567.54 1365.72,-557.07 1357.94,-547.68"/>
<polygon fill="black" stroke="black" points="1360.48,-545.26 1351.4,-539.79 1355.09,-549.72 1360.48,-545.26"/>
</g>
<!-- src/Int32.mo -->
<g id="node38" class="node">
<title>src/Int32.mo</title>
<ellipse fill="none" stroke="black" cx="1649.49" cy="-522" rx="67.69" ry="18"/>
<text text-anchor="middle" x="1649.49" y="-518.3" font-family="Times-Roman" font-size="14.00">src/Int32.mo</text>
</g>
<!-- src/Int32.mo&#45;&gt;src/Int.mo -->
<g id="edge65" class="edge">
<title>src/Int32.mo&#45;&gt;src/Int.mo</title>
<path fill="none" stroke="black" d="M1601,-509.33C1591.89,-507.37 1582.43,-505.5 1573.49,-504 1431.9,-480.3 1393.86,-492.99 1252.49,-468 1246.58,-466.95 1240.41,-465.7 1234.31,-464.36"/>
<polygon fill="black" stroke="black" points="1234.67,-460.85 1224.14,-462.03 1233.1,-467.67 1234.67,-460.85"/>
</g>
<!-- src/TrieSet.mo -->
<g id="node39" class="node">
<title>src/TrieSet.mo</title>
<ellipse fill="none" stroke="black" cx="2111.49" cy="-522" rx="74.99" ry="18"/>
<text text-anchor="middle" x="2111.49" y="-518.3" font-family="Times-Roman" font-size="14.00">src/TrieSet.mo</text>
</g>
<!-- src/TrieSet.mo&#45;&gt;src/Hash.mo -->
<g id="edge67" class="edge">
<title>src/TrieSet.mo&#45;&gt;src/Hash.mo</title>
<path fill="none" stroke="black" d="M2132.83,-504.71C2166.19,-479.25 2230.75,-429.95 2268.36,-401.24"/>
<polygon fill="black" stroke="black" points="2270.58,-403.95 2276.41,-395.1 2266.33,-398.39 2270.58,-403.95"/>
</g>
<!-- src/TrieSet.mo&#45;&gt;src/List.mo -->
<g id="edge68" class="edge">
<title>src/TrieSet.mo&#45;&gt;src/List.mo</title>
<path fill="none" stroke="black" d="M2059.45,-509.07C2049.23,-507.09 2038.56,-505.27 2028.49,-504 1987.77,-498.87 1318.8,-497.72 1290.49,-468 1234.1,-408.79 1263.81,-338.02 1328.49,-288 1372.8,-253.73 1435.68,-241.08 1483.7,-236.65"/>
<polygon fill="black" stroke="black" points="1484.03,-240.14 1493.71,-235.83 1483.46,-233.16 1484.03,-240.14"/>
</g>
<!-- src/TrieSet.mo&#45;&gt;src/Trie.mo -->
<g id="edge66" class="edge">
<title>src/TrieSet.mo&#45;&gt;src/Trie.mo</title>
<path fill="none" stroke="black" d="M2060.63,-508.81C2008.75,-496.37 1928.47,-477.12 1874.97,-464.3"/>
<polygon fill="black" stroke="black" points="1875.52,-460.83 1864.98,-461.9 1873.89,-467.64 1875.52,-460.83"/>
</g>
<!-- src/TrieMap.mo -->
<g id="node40" class="node">
<title>src/TrieMap.mo</title>
<ellipse fill="none" stroke="black" cx="2283.49" cy="-522" rx="79.09" ry="18"/>
<text text-anchor="middle" x="2283.49" y="-518.3" font-family="Times-Roman" font-size="14.00">src/TrieMap.mo</text>
</g>
<!-- src/TrieMap.mo&#45;&gt;src/Prelude.mo -->
<g id="edge70" class="edge">
<title>src/TrieMap.mo&#45;&gt;src/Prelude.mo</title>
<path fill="none" stroke="black" d="M2341.81,-509.73C2352.98,-507.71 2364.58,-505.71 2375.49,-504 2437.47,-494.3 2606.01,-506.56 2655.49,-468 2689.02,-441.87 2690.49,-421.5 2690.49,-379 2690.49,-379 2690.49,-379 2690.49,-161 2690.49,-47.24 2561.66,-96.17 2450.49,-72 2331,-46.02 1976.63,-28.97 1812.14,-22.24"/>
<polygon fill="black" stroke="black" points="1812.2,-18.74 1802.07,-21.83 1811.92,-25.74 1812.2,-18.74"/>
</g>
<!-- src/TrieMap.mo&#45;&gt;src/Hash.mo -->
<g id="edge72" class="edge">
<title>src/TrieMap.mo&#45;&gt;src/Hash.mo</title>
<path fill="none" stroke="black" d="M2273.5,-504.12C2264.15,-486.11 2252.69,-456.81 2260.49,-432 2263.68,-421.88 2269.55,-412.01 2275.7,-403.59"/>
<polygon fill="black" stroke="black" points="2278.46,-405.73 2281.84,-395.69 2272.94,-401.43 2278.46,-405.73"/>
</g>
<!-- src/TrieMap.mo&#45;&gt;src/Iter.mo -->
<g id="edge71" class="edge">
<title>src/TrieMap.mo&#45;&gt;src/Iter.mo</title>
<path fill="none" stroke="black" d="M2362.7,-520.52C2455,-518.07 2599.28,-507.78 2633.49,-468 2715.15,-373.05 2481.12,-329.63 2362.19,-314.11"/>
<polygon fill="black" stroke="black" points="2362.46,-310.61 2352.1,-312.82 2361.57,-317.56 2362.46,-310.61"/>
</g>
<!-- src/TrieMap.mo&#45;&gt;src/List.mo -->
<g id="edge73" class="edge">
<title>src/TrieMap.mo&#45;&gt;src/List.mo</title>
<path fill="none" stroke="black" d="M2227.31,-509.19C2216.77,-507.25 2205.82,-505.41 2195.49,-504 2014.92,-479.33 1498.34,-536.7 1382.49,-396 1362.48,-371.69 1396.64,-296.21 1404.49,-288 1426.91,-264.55 1460.37,-251.46 1489.9,-244.16"/>
<polygon fill="black" stroke="black" points="1490.79,-247.54 1499.75,-241.89 1489.22,-240.72 1490.79,-247.54"/>
</g>
<!-- src/TrieMap.mo&#45;&gt;src/Trie.mo -->
<g id="edge69" class="edge">
<title>src/TrieMap.mo&#45;&gt;src/Trie.mo</title>
<path fill="none" stroke="black" d="M2226.29,-509.51C2216.05,-507.58 2205.47,-505.67 2195.49,-504 2086.5,-485.8 1959.05,-468.71 1884.03,-459.08"/>
<polygon fill="black" stroke="black" points="1884.16,-455.57 1873.8,-457.77 1883.27,-462.52 1884.16,-455.57"/>
</g>
</g>
</svg>
