<?xml version="1.0" encoding="UTF-8" standalone="no"?>
<!DOCTYPE svg PUBLIC "-//W3C//DTD SVG 1.1//EN"
 "http://www.w3.org/Graphics/SVG/1.1/DTD/svg11.dtd">
<!-- Generated by graphviz version 2.43.0 (0)
 -->
<!-- Title: Base Pages: 1 -->
<svg width="2533pt" height="620pt"
 viewBox="0.00 0.00 2532.96 620.00" xmlns="http://www.w3.org/2000/svg" xmlns:xlink="http://www.w3.org/1999/xlink">
<g id="graph0" class="graph" transform="scale(1 1) rotate(0) translate(4 616)">
<title>Base</title>
<polygon fill="white" stroke="transparent" points="-4,4 -4,-616 2528.96,-616 2528.96,4 -4,4"/>
<!-- src/Heap.mo -->
<g id="node1" class="node">
<title>src/Heap.mo</title>
<ellipse fill="none" stroke="black" cx="1008.49" cy="-378" rx="67.69" ry="18"/>
<text text-anchor="middle" x="1008.49" y="-374.3" font-family="Times-Roman" font-size="14.00">src/Heap.mo</text>
</g>
<!-- src/Order.mo -->
<g id="node2" class="node">
<title>src/Order.mo</title>
<ellipse fill="none" stroke="black" cx="932.49" cy="-18" rx="68.79" ry="18"/>
<text text-anchor="middle" x="932.49" y="-14.3" font-family="Times-Roman" font-size="14.00">src/Order.mo</text>
</g>
<!-- src/Heap.mo&#45;&gt;src/Order.mo -->
<g id="edge1" class="edge">
<title>src/Heap.mo&#45;&gt;src/Order.mo</title>
<path fill="none" stroke="black" d="M992.38,-360.19C970.07,-335.09 932.49,-285.33 932.49,-235 932.49,-235 932.49,-235 932.49,-161 932.49,-121 932.49,-74.65 932.49,-46.08"/>
<polygon fill="black" stroke="black" points="935.99,-46.05 932.49,-36.05 928.99,-46.05 935.99,-46.05"/>
</g>
<!-- src/Prelude.mo -->
<g id="node3" class="node">
<title>src/Prelude.mo</title>
<ellipse fill="none" stroke="black" cx="1492.49" cy="-18" rx="77.19" ry="18"/>
<text text-anchor="middle" x="1492.49" y="-14.3" font-family="Times-Roman" font-size="14.00">src/Prelude.mo</text>
</g>
<!-- src/Heap.mo&#45;&gt;src/Prelude.mo -->
<g id="edge2" class="edge">
<title>src/Heap.mo&#45;&gt;src/Prelude.mo</title>
<path fill="none" stroke="black" d="M1010.86,-359.8C1013.93,-341.25 1020.36,-311.27 1032.49,-288 1090.38,-176.93 1105.46,-135.37 1213.49,-72 1271.66,-37.88 1347.33,-25.09 1405.18,-20.58"/>
<polygon fill="black" stroke="black" points="1405.67,-24.05 1415.4,-19.85 1405.18,-17.07 1405.67,-24.05"/>
</g>
<!-- src/List.mo -->
<g id="node4" class="node">
<title>src/List.mo</title>
<ellipse fill="none" stroke="black" cx="1293.49" cy="-234" rx="59.59" ry="18"/>
<text text-anchor="middle" x="1293.49" y="-230.3" font-family="Times-Roman" font-size="14.00">src/List.mo</text>
</g>
<!-- src/Heap.mo&#45;&gt;src/List.mo -->
<g id="edge3" class="edge">
<title>src/Heap.mo&#45;&gt;src/List.mo</title>
<path fill="none" stroke="black" d="M1015.66,-360.07C1025.16,-339.75 1043.88,-306.12 1070.49,-288 1116,-257.01 1177.45,-244.04 1224.32,-238.66"/>
<polygon fill="black" stroke="black" points="1224.81,-242.13 1234.39,-237.59 1224.08,-235.16 1224.81,-242.13"/>
</g>
<!-- src/Iter.mo -->
<g id="node5" class="node">
<title>src/Iter.mo</title>
<ellipse fill="none" stroke="black" cx="1858.49" cy="-306" rx="58.49" ry="18"/>
<text text-anchor="middle" x="1858.49" y="-302.3" font-family="Times-Roman" font-size="14.00">src/Iter.mo</text>
</g>
<!-- src/Heap.mo&#45;&gt;src/Iter.mo -->
<g id="edge4" class="edge">
<title>src/Heap.mo&#45;&gt;src/Iter.mo</title>
<path fill="none" stroke="black" d="M1072.03,-371.77C1228.92,-358.85 1633.46,-325.53 1792.7,-312.42"/>
<polygon fill="black" stroke="black" points="1793.15,-315.89 1802.83,-311.58 1792.57,-308.92 1793.15,-315.89"/>
</g>
<!-- src/List.mo&#45;&gt;src/Order.mo -->
<g id="edge7" class="edge">
<title>src/List.mo&#45;&gt;src/Order.mo</title>
<path fill="none" stroke="black" d="M1267.53,-217.61C1203.97,-179.93 1040.45,-83 967.98,-40.04"/>
<polygon fill="black" stroke="black" points="969.58,-36.92 959.19,-34.83 966.01,-42.94 969.58,-36.92"/>
</g>
<!-- src/Array.mo -->
<g id="node6" class="node">
<title>src/Array.mo</title>
<ellipse fill="none" stroke="black" cx="1728.49" cy="-162" rx="66.89" ry="18"/>
<text text-anchor="middle" x="1728.49" y="-158.3" font-family="Times-Roman" font-size="14.00">src/Array.mo</text>
</g>
<!-- src/List.mo&#45;&gt;src/Array.mo -->
<g id="edge5" class="edge">
<title>src/List.mo&#45;&gt;src/Array.mo</title>
<path fill="none" stroke="black" d="M1345.1,-224.7C1424.23,-211.96 1575.46,-187.63 1662.47,-173.62"/>
<polygon fill="black" stroke="black" points="1663.18,-177.06 1672.49,-172.01 1662.06,-170.14 1663.18,-177.06"/>
</g>
<!-- src/Option.mo -->
<g id="node7" class="node">
<title>src/Option.mo</title>
<ellipse fill="none" stroke="black" cx="1594.49" cy="-90" rx="74.19" ry="18"/>
<text text-anchor="middle" x="1594.49" y="-86.3" font-family="Times-Roman" font-size="14.00">src/Option.mo</text>
</g>
<!-- src/List.mo&#45;&gt;src/Option.mo -->
<g id="edge6" class="edge">
<title>src/List.mo&#45;&gt;src/Option.mo</title>
<path fill="none" stroke="black" d="M1324.29,-218.47C1378.62,-192.84 1491.52,-139.58 1552.78,-110.68"/>
<polygon fill="black" stroke="black" points="1554.6,-113.69 1562.15,-106.26 1551.61,-107.36 1554.6,-113.69"/>
</g>
<!-- src/Result.mo -->
<g id="node8" class="node">
<title>src/Result.mo</title>
<ellipse fill="none" stroke="black" cx="1293.49" cy="-90" rx="71.49" ry="18"/>
<text text-anchor="middle" x="1293.49" y="-86.3" font-family="Times-Roman" font-size="14.00">src/Result.mo</text>
</g>
<!-- src/List.mo&#45;&gt;src/Result.mo -->
<g id="edge8" class="edge">
<title>src/List.mo&#45;&gt;src/Result.mo</title>
<path fill="none" stroke="black" d="M1293.49,-215.87C1293.49,-191.67 1293.49,-147.21 1293.49,-118.39"/>
<polygon fill="black" stroke="black" points="1296.99,-118.19 1293.49,-108.19 1289.99,-118.19 1296.99,-118.19"/>
</g>
<!-- src/Iter.mo&#45;&gt;src/List.mo -->
<g id="edge18" class="edge">
<title>src/Iter.mo&#45;&gt;src/List.mo</title>
<path fill="none" stroke="black" d="M1805.34,-298.41C1701.18,-285.51 1470.59,-256.94 1357.94,-242.98"/>
<polygon fill="black" stroke="black" points="1358.1,-239.48 1347.75,-241.72 1357.24,-246.42 1358.1,-239.48"/>
</g>
<!-- src/Iter.mo&#45;&gt;src/Array.mo -->
<g id="edge16" class="edge">
<title>src/Iter.mo&#45;&gt;src/Array.mo</title>
<path fill="none" stroke="black" d="M1843.33,-288.43C1820.55,-263.56 1777.38,-216.4 1750.95,-187.53"/>
<polygon fill="black" stroke="black" points="1753.3,-184.91 1743.97,-179.9 1748.14,-189.64 1753.3,-184.91"/>
</g>
<!-- src/Buffer.mo -->
<g id="node9" class="node">
<title>src/Buffer.mo</title>
<ellipse fill="none" stroke="black" cx="2080.49" cy="-90" rx="70.69" ry="18"/>
<text text-anchor="middle" x="2080.49" y="-86.3" font-family="Times-Roman" font-size="14.00">src/Buffer.mo</text>
</g>
<!-- src/Iter.mo&#45;&gt;src/Buffer.mo -->
<g id="edge17" class="edge">
<title>src/Iter.mo&#45;&gt;src/Buffer.mo</title>
<path fill="none" stroke="black" d="M1875.55,-288.56C1914.61,-250.91 2010.69,-158.29 2056.04,-114.57"/>
<polygon fill="black" stroke="black" points="2058.61,-116.95 2063.38,-107.49 2053.76,-111.91 2058.61,-116.95"/>
</g>
<!-- src/Array.mo&#45;&gt;src/Option.mo -->
<g id="edge11" class="edge">
<title>src/Array.mo&#45;&gt;src/Option.mo</title>
<path fill="none" stroke="black" d="M1699.09,-145.64C1679.76,-135.54 1654.26,-122.22 1633.28,-111.26"/>
<polygon fill="black" stroke="black" points="1634.78,-108.1 1624.29,-106.57 1631.54,-114.3 1634.78,-108.1"/>
</g>
<!-- src/Array.mo&#45;&gt;src/Result.mo -->
<g id="edge12" class="edge">
<title>src/Array.mo&#45;&gt;src/Result.mo</title>
<path fill="none" stroke="black" d="M1672.52,-151.99C1593.05,-139.21 1447.7,-115.81 1361.93,-102.01"/>
<polygon fill="black" stroke="black" points="1362.46,-98.55 1352.03,-100.42 1361.35,-105.46 1362.46,-98.55"/>
</g>
<!-- src/Array.mo&#45;&gt;src/Buffer.mo -->
<g id="edge9" class="edge">
<title>src/Array.mo&#45;&gt;src/Buffer.mo</title>
<path fill="none" stroke="black" d="M1780.81,-150.6C1843.57,-138.12 1948.74,-117.2 2016.34,-103.76"/>
<polygon fill="black" stroke="black" points="2017.32,-107.13 2026.44,-101.75 2015.95,-100.27 2017.32,-107.13"/>
</g>
<!-- src/IterType.mo -->
<g id="node10" class="node">
<title>src/IterType.mo</title>
<ellipse fill="none" stroke="black" cx="1766.49" cy="-90" rx="79.89" ry="18"/>
<text text-anchor="middle" x="1766.49" y="-86.3" font-family="Times-Roman" font-size="14.00">src/IterType.mo</text>
</g>
<!-- src/Array.mo&#45;&gt;src/IterType.mo -->
<g id="edge10" class="edge">
<title>src/Array.mo&#45;&gt;src/IterType.mo</title>
<path fill="none" stroke="black" d="M1737.69,-144.05C1742.06,-136.01 1747.38,-126.2 1752.26,-117.23"/>
<polygon fill="black" stroke="black" points="1755.42,-118.73 1757.12,-108.28 1749.27,-115.39 1755.42,-118.73"/>
</g>
<!-- src/Option.mo&#45;&gt;src/Prelude.mo -->
<g id="edge13" class="edge">
<title>src/Option.mo&#45;&gt;src/Prelude.mo</title>
<path fill="none" stroke="black" d="M1570.84,-72.76C1557.06,-63.31 1539.51,-51.26 1524.51,-40.97"/>
<polygon fill="black" stroke="black" points="1526.25,-37.92 1516.02,-35.15 1522.29,-43.69 1526.25,-37.92"/>
</g>
<!-- src/Result.mo&#45;&gt;src/Order.mo -->
<g id="edge15" class="edge">
<title>src/Result.mo&#45;&gt;src/Order.mo</title>
<path fill="none" stroke="black" d="M1238.67,-78.37C1173.43,-65.72 1064.72,-44.64 995.92,-31.3"/>
<polygon fill="black" stroke="black" points="996.55,-27.86 986.07,-29.39 995.22,-34.73 996.55,-27.86"/>
</g>
<!-- src/Result.mo&#45;&gt;src/Prelude.mo -->
<g id="edge14" class="edge">
<title>src/Result.mo&#45;&gt;src/Prelude.mo</title>
<path fill="none" stroke="black" d="M1333.29,-75C1364.57,-64 1408.34,-48.6 1442.07,-36.74"/>
<polygon fill="black" stroke="black" points="1443.47,-39.95 1451.75,-33.33 1441.15,-33.35 1443.47,-39.95"/>
</g>
<!-- src/Stack.mo -->
<g id="node11" class="node">
<title>src/Stack.mo</title>
<ellipse fill="none" stroke="black" cx="1181.49" cy="-306" rx="68.79" ry="18"/>
<text text-anchor="middle" x="1181.49" y="-302.3" font-family="Times-Roman" font-size="14.00">src/Stack.mo</text>
</g>
<!-- src/Stack.mo&#45;&gt;src/List.mo -->
<g id="edge19" class="edge">
<title>src/Stack.mo&#45;&gt;src/List.mo</title>
<path fill="none" stroke="black" d="M1206.91,-289.12C1222.63,-279.29 1242.98,-266.57 1260.01,-255.93"/>
<polygon fill="black" stroke="black" points="1261.94,-258.85 1268.57,-250.58 1258.23,-252.91 1261.94,-258.85"/>
</g>
<!-- src/Float.mo -->
<g id="node12" class="node">
<title>src/Float.mo</title>
<ellipse fill="none" stroke="black" cx="1551.49" cy="-522" rx="65.79" ry="18"/>
<text text-anchor="middle" x="1551.49" y="-518.3" font-family="Times-Roman" font-size="14.00">src/Float.mo</text>
</g>
<!-- src/Int.mo -->
<g id="node13" class="node">
<title>src/Int.mo</title>
<ellipse fill="none" stroke="black" cx="1020.49" cy="-450" rx="55.79" ry="18"/>
<text text-anchor="middle" x="1020.49" y="-446.3" font-family="Times-Roman" font-size="14.00">src/Int.mo</text>
</g>
<!-- src/Float.mo&#45;&gt;src/Int.mo -->
<g id="edge20" class="edge">
<title>src/Float.mo&#45;&gt;src/Int.mo</title>
<path fill="none" stroke="black" d="M1504.7,-509.26C1495.71,-507.29 1486.34,-505.42 1477.49,-504 1306.94,-476.6 1260.88,-496.46 1090.49,-468 1084.57,-467.01 1078.4,-465.79 1072.29,-464.47"/>
<polygon fill="black" stroke="black" points="1072.64,-460.96 1062.12,-462.16 1071.09,-467.79 1072.64,-460.96"/>
</g>
<!-- src/Int.mo&#45;&gt;src/Prelude.mo -->
<g id="edge21" class="edge">
<title>src/Int.mo&#45;&gt;src/Prelude.mo</title>
<path fill="none" stroke="black" d="M982.7,-436.72C963.74,-428.43 942.51,-415.39 931.49,-396 923.59,-382.09 926.52,-375.21 931.49,-360 982.02,-205.34 1013.59,-147.92 1157.49,-72 1200.28,-49.43 1326.16,-34 1410.84,-25.84"/>
<polygon fill="black" stroke="black" points="1411.33,-29.31 1420.95,-24.88 1410.66,-22.34 1411.33,-29.31"/>
</g>
<!-- src/Hash.mo -->
<g id="node14" class="node">
<title>src/Hash.mo</title>
<ellipse fill="none" stroke="black" cx="1709.49" cy="-378" rx="66.89" ry="18"/>
<text text-anchor="middle" x="1709.49" y="-374.3" font-family="Times-Roman" font-size="14.00">src/Hash.mo</text>
</g>
<!-- src/Int.mo&#45;&gt;src/Hash.mo -->
<g id="edge22" class="edge">
<title>src/Int.mo&#45;&gt;src/Hash.mo</title>
<path fill="none" stroke="black" d="M1074.51,-445.04C1176.51,-437.33 1404.4,-419.04 1595.49,-396 1611.06,-394.12 1627.77,-391.8 1643.47,-389.49"/>
<polygon fill="black" stroke="black" points="1644.25,-392.91 1653.62,-387.97 1643.22,-385.99 1644.25,-392.91"/>
</g>
<!-- src/Hash.mo&#45;&gt;src/Iter.mo -->
<g id="edge23" class="edge">
<title>src/Hash.mo&#45;&gt;src/Iter.mo</title>
<path fill="none" stroke="black" d="M1741.46,-361.98C1764.03,-351.38 1794.43,-337.1 1818.6,-325.74"/>
<polygon fill="black" stroke="black" points="1820.29,-328.81 1827.86,-321.39 1817.32,-322.48 1820.29,-328.81"/>
</g>
<!-- src/Int64.mo -->
<g id="node15" class="node">
<title>src/Int64.mo</title>
<ellipse fill="none" stroke="black" cx="953.49" cy="-522" rx="67.69" ry="18"/>
<text text-anchor="middle" x="953.49" y="-518.3" font-family="Times-Roman" font-size="14.00">src/Int64.mo</text>
</g>
<!-- src/Int64.mo&#45;&gt;src/Int.mo -->
<g id="edge24" class="edge">
<title>src/Int64.mo&#45;&gt;src/Int.mo</title>
<path fill="none" stroke="black" d="M969.37,-504.41C977.8,-495.61 988.31,-484.63 997.6,-474.92"/>
<polygon fill="black" stroke="black" points="1000.34,-477.11 1004.73,-467.47 995.29,-472.27 1000.34,-477.11"/>
</g>
<!-- src/Random.mo -->
<g id="node16" class="node">
<title>src/Random.mo</title>
<ellipse fill="none" stroke="black" cx="2324.49" cy="-378" rx="81.49" ry="18"/>
<text text-anchor="middle" x="2324.49" y="-374.3" font-family="Times-Roman" font-size="14.00">src/Random.mo</text>
</g>
<!-- src/Random.mo&#45;&gt;src/Prelude.mo -->
<g id="edge27" class="edge">
<title>src/Random.mo&#45;&gt;src/Prelude.mo</title>
<path fill="none" stroke="black" d="M2324.49,-359.95C2324.49,-333.29 2324.49,-280.11 2324.49,-235 2324.49,-235 2324.49,-235 2324.49,-161 2324.49,-78.07 2240,-95.57 2160.49,-72 2053.98,-40.43 1734.6,-26.46 1579.25,-21.41"/>
<polygon fill="black" stroke="black" points="1578.91,-17.9 1568.81,-21.07 1578.69,-24.89 1578.91,-17.9"/>
</g>
<!-- src/Random.mo&#45;&gt;src/Iter.mo -->
<g id="edge25" class="edge">
<title>src/Random.mo&#45;&gt;src/Iter.mo</title>
<path fill="none" stroke="black" d="M2264.24,-365.89C2252.72,-363.86 2240.74,-361.81 2229.49,-360 2121.36,-342.61 1995.02,-325.17 1921.18,-315.27"/>
<polygon fill="black" stroke="black" points="1921.49,-311.78 1911.11,-313.92 1920.56,-318.72 1921.49,-311.78"/>
</g>
<!-- src/Random.mo&#45;&gt;src/Option.mo -->
<g id="edge26" class="edge">
<title>src/Random.mo&#45;&gt;src/Option.mo</title>
<path fill="none" stroke="black" d="M2294.19,-361.16C2215.34,-320.45 1996.54,-210.69 1804.49,-144 1756.81,-127.44 1701.39,-113.68 1659.46,-104.33"/>
<polygon fill="black" stroke="black" points="1660.17,-100.9 1649.65,-102.16 1658.66,-107.73 1660.17,-100.9"/>
</g>
<!-- src/Word8.mo -->
<g id="node17" class="node">
<title>src/Word8.mo</title>
<ellipse fill="none" stroke="black" cx="1229.49" cy="-594" rx="72.59" ry="18"/>
<text text-anchor="middle" x="1229.49" y="-590.3" font-family="Times-Roman" font-size="14.00">src/Word8.mo</text>
</g>
<!-- src/Nat.mo -->
<g id="node18" class="node">
<title>src/Nat.mo</title>
<ellipse fill="none" stroke="black" cx="731.49" cy="-522" rx="59.59" ry="18"/>
<text text-anchor="middle" x="731.49" y="-518.3" font-family="Times-Roman" font-size="14.00">src/Nat.mo</text>
</g>
<!-- src/Word8.mo&#45;&gt;src/Nat.mo -->
<g id="edge28" class="edge">
<title>src/Word8.mo&#45;&gt;src/Nat.mo</title>
<path fill="none" stroke="black" d="M1177.79,-581.33C1168.08,-579.37 1158,-577.49 1148.49,-576 997.07,-552.23 956.69,-565.21 805.49,-540 799.18,-538.95 792.6,-537.68 786.08,-536.32"/>
<polygon fill="black" stroke="black" points="786.44,-532.82 775.93,-534.13 784.96,-539.66 786.44,-532.82"/>
</g>
<!-- src/Nat.mo&#45;&gt;src/Order.mo -->
<g id="edge30" class="edge">
<title>src/Nat.mo&#45;&gt;src/Order.mo</title>
<path fill="none" stroke="black" d="M736.55,-503.68C743.86,-477.11 756.49,-424.56 756.49,-379 756.49,-379 756.49,-379 756.49,-161 756.49,-115.85 771.89,-102.16 805.49,-72 824.95,-54.54 850.98,-42.32 874.4,-34.05"/>
<polygon fill="black" stroke="black" points="875.55,-37.36 883.91,-30.86 873.32,-30.73 875.55,-37.36"/>
</g>
<!-- src/Nat.mo&#45;&gt;src/Int.mo -->
<g id="edge29" class="edge">
<title>src/Nat.mo&#45;&gt;src/Int.mo</title>
<path fill="none" stroke="black" d="M776.65,-510.06C828.21,-497.57 912.48,-477.16 967.21,-463.91"/>
<polygon fill="black" stroke="black" points="968.18,-467.27 977.07,-461.52 966.53,-460.47 968.18,-467.27"/>
</g>
<!-- src/Nat16.mo -->
<g id="node19" class="node">
<title>src/Nat16.mo</title>
<ellipse fill="none" stroke="black" cx="71.49" cy="-594" rx="71.49" ry="18"/>
<text text-anchor="middle" x="71.49" y="-590.3" font-family="Times-Roman" font-size="14.00">src/Nat16.mo</text>
</g>
<!-- src/Nat16.mo&#45;&gt;src/Nat.mo -->
<g id="edge31" class="edge">
<title>src/Nat16.mo&#45;&gt;src/Nat.mo</title>
<path fill="none" stroke="black" d="M122.54,-581.21C132.13,-579.27 142.09,-577.42 151.49,-576 335.27,-548.18 554.17,-532.98 663,-526.63"/>
<polygon fill="black" stroke="black" points="663.4,-530.11 673.18,-526.04 663,-523.12 663.4,-530.11"/>
</g>
<!-- src/Trie.mo -->
<g id="node20" class="node">
<title>src/Trie.mo</title>
<ellipse fill="none" stroke="black" cx="1452.49" cy="-450" rx="59.59" ry="18"/>
<text text-anchor="middle" x="1452.49" y="-446.3" font-family="Times-Roman" font-size="14.00">src/Trie.mo</text>
</g>
<!-- src/Trie.mo&#45;&gt;src/Prelude.mo -->
<g id="edge32" class="edge">
<title>src/Trie.mo&#45;&gt;src/Prelude.mo</title>
<path fill="none" stroke="black" d="M1440.97,-432.04C1434.63,-421.96 1427.13,-408.71 1422.49,-396 1397.56,-327.62 1392.49,-307.79 1392.49,-235 1392.49,-235 1392.49,-235 1392.49,-161 1392.49,-111.94 1432.89,-67.88 1462.33,-42.29"/>
<polygon fill="black" stroke="black" points="1464.91,-44.69 1470.3,-35.57 1460.4,-39.34 1464.91,-44.69"/>
</g>
<!-- src/Trie.mo&#45;&gt;src/List.mo -->
<g id="edge36" class="edge">
<title>src/Trie.mo&#45;&gt;src/List.mo</title>
<path fill="none" stroke="black" d="M1408.51,-437.73C1385.28,-429.68 1358.02,-416.54 1340.49,-396 1307.75,-357.63 1297.8,-297.45 1294.79,-262.56"/>
<polygon fill="black" stroke="black" points="1298.25,-261.9 1294.03,-252.18 1291.27,-262.41 1298.25,-261.9"/>
</g>
<!-- src/Trie.mo&#45;&gt;src/Array.mo -->
<g id="edge35" class="edge">
<title>src/Trie.mo&#45;&gt;src/Array.mo</title>
<path fill="none" stroke="black" d="M1445.93,-431.87C1439.64,-412.28 1433.28,-380.29 1449.49,-360 1494.72,-303.39 1547.75,-363.49 1608.49,-324 1660.46,-290.22 1698.12,-225.71 1716.29,-189.44"/>
<polygon fill="black" stroke="black" points="1719.65,-190.53 1720.89,-180.01 1713.36,-187.46 1719.65,-190.53"/>
</g>
<!-- src/Trie.mo&#45;&gt;src/Option.mo -->
<g id="edge33" class="edge">
<title>src/Trie.mo&#45;&gt;src/Option.mo</title>
<path fill="none" stroke="black" d="M1441.82,-432.09C1431.08,-412.71 1418.25,-380.92 1434.49,-360 1474.17,-308.92 1533.77,-373.42 1575.49,-324 1625.15,-265.18 1611.66,-165.63 1601.33,-117.98"/>
<polygon fill="black" stroke="black" points="1604.71,-117.07 1599.07,-108.1 1597.89,-118.63 1604.71,-117.07"/>
</g>
<!-- src/Trie.mo&#45;&gt;src/Hash.mo -->
<g id="edge34" class="edge">
<title>src/Trie.mo&#45;&gt;src/Hash.mo</title>
<path fill="none" stroke="black" d="M1495.22,-437.36C1538.79,-425.49 1606.59,-407.03 1654.22,-394.05"/>
<polygon fill="black" stroke="black" points="1655.34,-397.38 1664.07,-391.37 1653.5,-390.62 1655.34,-397.38"/>
</g>
<!-- src/AssocList.mo -->
<g id="node21" class="node">
<title>src/AssocList.mo</title>
<ellipse fill="none" stroke="black" cx="1880.49" cy="-378" rx="85.59" ry="18"/>
<text text-anchor="middle" x="1880.49" y="-374.3" font-family="Times-Roman" font-size="14.00">src/AssocList.mo</text>
</g>
<!-- src/Trie.mo&#45;&gt;src/AssocList.mo -->
<g id="edge37" class="edge">
<title>src/Trie.mo&#45;&gt;src/AssocList.mo</title>
<path fill="none" stroke="black" d="M1501.55,-439.49C1515.12,-436.96 1529.86,-434.29 1543.49,-432 1650.73,-414.01 1678.18,-413.58 1785.49,-396 1792.85,-394.79 1800.52,-393.49 1808.17,-392.17"/>
<polygon fill="black" stroke="black" points="1808.95,-395.59 1818.19,-390.42 1807.74,-388.69 1808.95,-395.59"/>
</g>
<!-- src/AssocList.mo&#45;&gt;src/List.mo -->
<g id="edge38" class="edge">
<title>src/AssocList.mo&#45;&gt;src/List.mo</title>
<path fill="none" stroke="black" d="M1819.29,-365.29C1808.07,-363.36 1796.45,-361.5 1785.49,-360 1620.06,-337.27 1567.12,-384.56 1411.49,-324 1374.27,-309.52 1338.69,-279.75 1316.52,-258.63"/>
<polygon fill="black" stroke="black" points="1318.86,-256.03 1309.25,-251.56 1313.98,-261.04 1318.86,-256.03"/>
</g>
<!-- src/Nat8.mo -->
<g id="node22" class="node">
<title>src/Nat8.mo</title>
<ellipse fill="none" stroke="black" cx="226.49" cy="-594" rx="65.79" ry="18"/>
<text text-anchor="middle" x="226.49" y="-590.3" font-family="Times-Roman" font-size="14.00">src/Nat8.mo</text>
</g>
<!-- src/Nat8.mo&#45;&gt;src/Nat.mo -->
<g id="edge39" class="edge">
<title>src/Nat8.mo&#45;&gt;src/Nat.mo</title>
<path fill="none" stroke="black" d="M273.72,-581.39C282.58,-579.42 291.8,-577.53 300.49,-576 428.75,-553.45 580.14,-537.2 665.06,-529.02"/>
<polygon fill="black" stroke="black" points="665.46,-532.49 675.08,-528.06 664.8,-525.53 665.46,-532.49"/>
</g>
<!-- src/Word16.mo -->
<g id="node23" class="node">
<title>src/Word16.mo</title>
<ellipse fill="none" stroke="black" cx="388.49" cy="-594" rx="78.79" ry="18"/>
<text text-anchor="middle" x="388.49" y="-590.3" font-family="Times-Roman" font-size="14.00">src/Word16.mo</text>
</g>
<!-- src/Word16.mo&#45;&gt;src/Nat.mo -->
<g id="edge40" class="edge">
<title>src/Word16.mo&#45;&gt;src/Nat.mo</title>
<path fill="none" stroke="black" d="M445.13,-581.44C508.26,-568.56 609.81,-547.83 673.48,-534.84"/>
<polygon fill="black" stroke="black" points="674.27,-538.25 683.36,-532.82 672.87,-531.39 674.27,-538.25"/>
</g>
<!-- src/TrieMap.mo -->
<g id="node24" class="node">
<title>src/TrieMap.mo</title>
<ellipse fill="none" stroke="black" cx="1881.49" cy="-522" rx="79.09" ry="18"/>
<text text-anchor="middle" x="1881.49" y="-518.3" font-family="Times-Roman" font-size="14.00">src/TrieMap.mo</text>
</g>
<!-- src/TrieMap.mo&#45;&gt;src/Prelude.mo -->
<g id="edge42" class="edge">
<title>src/TrieMap.mo&#45;&gt;src/Prelude.mo</title>
<path fill="none" stroke="black" d="M1956.34,-516.02C2035.77,-509.53 2164.48,-495.61 2272.49,-468 2359.18,-445.84 2393.03,-454.77 2460.49,-396 2494.54,-366.34 2509.49,-352.15 2509.49,-307 2509.49,-307 2509.49,-307 2509.49,-161 2509.49,-136.97 2594.4,-142.39 2361.49,-72 2217.29,-28.42 1770.79,-20.57 1580.19,-19.23"/>
<polygon fill="black" stroke="black" points="1579.95,-15.73 1569.93,-19.17 1579.91,-22.73 1579.95,-15.73"/>
</g>
<!-- src/TrieMap.mo&#45;&gt;src/List.mo -->
<g id="edge45" class="edge">
<title>src/TrieMap.mo&#45;&gt;src/List.mo</title>
<path fill="none" stroke="black" d="M1825.3,-509.25C1814.77,-507.3 1803.82,-505.45 1793.49,-504 1702.92,-491.31 1460.98,-516.58 1383.49,-468 1312.49,-423.48 1297.4,-313.4 1294.27,-262.11"/>
<polygon fill="black" stroke="black" points="1297.76,-261.91 1293.76,-252.1 1290.77,-262.26 1297.76,-261.91"/>
</g>
<!-- src/TrieMap.mo&#45;&gt;src/Iter.mo -->
<g id="edge43" class="edge">
<title>src/TrieMap.mo&#45;&gt;src/Iter.mo</title>
<path fill="none" stroke="black" d="M1926.97,-507.22C1955.03,-497.89 1991.31,-484.31 2021.49,-468 2045.43,-455.07 2108.15,-420.24 2120.49,-396 2127.75,-381.74 2130.62,-372.38 2120.49,-360 2107.9,-344.6 1994.68,-326.06 1921.25,-315.49"/>
<polygon fill="black" stroke="black" points="1921.56,-312 1911.17,-314.05 1920.57,-318.93 1921.56,-312"/>
</g>
<!-- src/TrieMap.mo&#45;&gt;src/Hash.mo -->
<g id="edge44" class="edge">
<title>src/TrieMap.mo&#45;&gt;src/Hash.mo</title>
<path fill="none" stroke="black" d="M1861.43,-504.43C1830.66,-479.03 1771.76,-430.41 1737.03,-401.73"/>
<polygon fill="black" stroke="black" points="1739.11,-398.91 1729.17,-395.24 1734.65,-404.31 1739.11,-398.91"/>
</g>
<!-- src/TrieMap.mo&#45;&gt;src/Trie.mo -->
<g id="edge41" class="edge">
<title>src/TrieMap.mo&#45;&gt;src/Trie.mo</title>
<path fill="none" stroke="black" d="M1823.82,-509.45C1813.72,-507.54 1803.31,-505.65 1793.49,-504 1682.8,-485.35 1654.25,-486.31 1543.49,-468 1533.16,-466.29 1522.19,-464.35 1511.58,-462.41"/>
<polygon fill="black" stroke="black" points="1512.01,-458.93 1501.54,-460.55 1510.74,-465.81 1512.01,-458.93"/>
</g>
<!-- src/Principal.mo -->
<g id="node25" class="node">
<title>src/Principal.mo</title>
<ellipse fill="none" stroke="black" cx="1929.49" cy="-450" rx="82.59" ry="18"/>
<text text-anchor="middle" x="1929.49" y="-446.3" font-family="Times-Roman" font-size="14.00">src/Principal.mo</text>
</g>
<!-- src/Principal.mo&#45;&gt;src/Hash.mo -->
<g id="edge47" class="edge">
<title>src/Principal.mo&#45;&gt;src/Hash.mo</title>
<path fill="none" stroke="black" d="M1884.97,-434.83C1849.01,-423.39 1798.37,-407.28 1760.73,-395.3"/>
<polygon fill="black" stroke="black" points="1761.56,-391.89 1750.97,-392.2 1759.44,-398.56 1761.56,-391.89"/>
</g>
<!-- src/Blob.mo -->
<g id="node26" class="node">
<title>src/Blob.mo</title>
<ellipse fill="none" stroke="black" cx="2047.49" cy="-378" rx="63.89" ry="18"/>
<text text-anchor="middle" x="2047.49" y="-374.3" font-family="Times-Roman" font-size="14.00">src/Blob.mo</text>
</g>
<!-- src/Principal.mo&#45;&gt;src/Blob.mo -->
<g id="edge46" class="edge">
<title>src/Principal.mo&#45;&gt;src/Blob.mo</title>
<path fill="none" stroke="black" d="M1956.57,-432.94C1973.14,-423.11 1994.52,-410.43 2012.38,-399.83"/>
<polygon fill="black" stroke="black" points="2014.54,-402.62 2021.36,-394.5 2010.97,-396.6 2014.54,-402.62"/>
</g>
<!-- src/Int8.mo -->
<g id="node27" class="node">
<title>src/Int8.mo</title>
<ellipse fill="none" stroke="black" cx="1100.49" cy="-522" rx="61.99" ry="18"/>
<text text-anchor="middle" x="1100.49" y="-518.3" font-family="Times-Roman" font-size="14.00">src/Int8.mo</text>
</g>
<!-- src/Int8.mo&#45;&gt;src/Int.mo -->
<g id="edge48" class="edge">
<title>src/Int8.mo&#45;&gt;src/Int.mo</title>
<path fill="none" stroke="black" d="M1081.94,-504.76C1071.44,-495.58 1058.14,-483.94 1046.6,-473.84"/>
<polygon fill="black" stroke="black" points="1048.78,-471.1 1038.95,-467.15 1044.17,-476.37 1048.78,-471.1"/>
</g>
<!-- src/Word64.mo -->
<g id="node28" class="node">
<title>src/Word64.mo</title>
<ellipse fill="none" stroke="black" cx="563.49" cy="-594" rx="78.79" ry="18"/>
<text text-anchor="middle" x="563.49" y="-590.3" font-family="Times-Roman" font-size="14.00">src/Word64.mo</text>
</g>
<!-- src/Word64.mo&#45;&gt;src/Nat.mo -->
<g id="edge49" class="edge">
<title>src/Word64.mo&#45;&gt;src/Nat.mo</title>
<path fill="none" stroke="black" d="M599.53,-577.98C625.58,-567.13 660.88,-552.42 688.41,-540.95"/>
<polygon fill="black" stroke="black" points="689.92,-544.12 697.8,-537.04 687.22,-537.65 689.92,-544.12"/>
</g>
<!-- src/RBTree.mo -->
<g id="node29" class="node">
<title>src/RBTree.mo</title>
<ellipse fill="none" stroke="black" cx="1395.49" cy="-594" rx="75.29" ry="18"/>
<text text-anchor="middle" x="1395.49" y="-590.3" font-family="Times-Roman" font-size="14.00">src/RBTree.mo</text>
</g>
<!-- src/RBTree.mo&#45;&gt;src/Order.mo -->
<g id="edge54" class="edge">
<title>src/RBTree.mo&#45;&gt;src/Order.mo</title>
<path fill="none" stroke="black" d="M1342.34,-581.22C1332.14,-579.25 1321.51,-577.4 1311.49,-576 1260.5,-568.88 890.12,-571.64 849.49,-540 816.56,-514.35 819.49,-492.74 819.49,-451 819.49,-451 819.49,-451 819.49,-161 819.49,-109.3 865.92,-65.54 899.26,-40.77"/>
<polygon fill="black" stroke="black" points="901.35,-43.58 907.42,-34.9 897.26,-37.9 901.35,-43.58"/>
</g>
<!-- src/RBTree.mo&#45;&gt;src/List.mo -->
<g id="edge52" class="edge">
<title>src/RBTree.mo&#45;&gt;src/List.mo</title>
<path fill="none" stroke="black" d="M1341.88,-581.18C1331.82,-579.23 1321.36,-577.4 1311.49,-576 1263.48,-569.18 909.34,-575.68 876.49,-540 787.27,-443.09 911.68,-340.49 1032.49,-288 1095.04,-260.83 1172.16,-247.37 1226.29,-240.85"/>
<polygon fill="black" stroke="black" points="1226.93,-244.3 1236.46,-239.67 1226.12,-237.34 1226.93,-244.3"/>
</g>
<!-- src/RBTree.mo&#45;&gt;src/Iter.mo -->
<g id="edge51" class="edge">
<title>src/RBTree.mo&#45;&gt;src/Iter.mo</title>
<path fill="none" stroke="black" d="M1467.2,-588.36C1667.68,-574.62 2222.58,-531.16 2272.49,-468 2282.41,-455.45 2279.65,-446.31 2272.49,-432 2266.53,-420.07 2188.75,-365.25 2176.49,-360 2131.99,-340.96 2002.43,-323.45 1923.09,-314.1"/>
<polygon fill="black" stroke="black" points="1923.05,-310.57 1912.72,-312.89 1922.24,-317.52 1923.05,-310.57"/>
</g>
<!-- src/RBTree.mo&#45;&gt;src/Nat.mo -->
<g id="edge53" class="edge">
<title>src/RBTree.mo&#45;&gt;src/Nat.mo</title>
<path fill="none" stroke="black" d="M1342.35,-581.17C1332.14,-579.2 1321.52,-577.37 1311.49,-576 1088.1,-545.58 1028.47,-573.34 805.49,-540 798.92,-539.02 792.07,-537.76 785.31,-536.38"/>
<polygon fill="black" stroke="black" points="786.01,-532.95 775.5,-534.29 784.54,-539.8 786.01,-532.95"/>
</g>
<!-- src/Debug.mo -->
<g id="node30" class="node">
<title>src/Debug.mo</title>
<ellipse fill="none" stroke="black" cx="2430.49" cy="-522" rx="73.39" ry="18"/>
<text text-anchor="middle" x="2430.49" y="-518.3" font-family="Times-Roman" font-size="14.00">src/Debug.mo</text>
</g>
<!-- src/RBTree.mo&#45;&gt;src/Debug.mo -->
<g id="edge50" class="edge">
<title>src/RBTree.mo&#45;&gt;src/Debug.mo</title>
<path fill="none" stroke="black" d="M1470.77,-592.29C1631.61,-590.01 2020.45,-580.4 2343.49,-540 2351.22,-539.03 2359.3,-537.78 2367.28,-536.4"/>
<polygon fill="black" stroke="black" points="2368.09,-539.81 2377.31,-534.59 2366.85,-532.92 2368.09,-539.81"/>
</g>
<!-- src/TrieSet.mo -->
<g id="node31" class="node">
<title>src/TrieSet.mo</title>
<ellipse fill="none" stroke="black" cx="1709.49" cy="-522" rx="74.99" ry="18"/>
<text text-anchor="middle" x="1709.49" y="-518.3" font-family="Times-Roman" font-size="14.00">src/TrieSet.mo</text>
</g>
<!-- src/TrieSet.mo&#45;&gt;src/List.mo -->
<g id="edge57" class="edge">
<title>src/TrieSet.mo&#45;&gt;src/List.mo</title>
<path fill="none" stroke="black" d="M1656.05,-509.31C1646.24,-507.37 1636.08,-505.51 1626.49,-504 1383.67,-465.72 1215.31,-542.93 1103.49,-324 1076.44,-271.04 1161.18,-249.43 1226.11,-240.73"/>
<polygon fill="black" stroke="black" points="1226.86,-244.16 1236.34,-239.44 1225.99,-237.21 1226.86,-244.16"/>
</g>
<!-- src/TrieSet.mo&#45;&gt;src/Hash.mo -->
<g id="edge56" class="edge">
<title>src/TrieSet.mo&#45;&gt;src/Hash.mo</title>
<path fill="none" stroke="black" d="M1709.49,-503.87C1709.49,-479.67 1709.49,-435.21 1709.49,-406.39"/>
<polygon fill="black" stroke="black" points="1712.99,-406.19 1709.49,-396.19 1705.99,-406.19 1712.99,-406.19"/>
</g>
<!-- src/TrieSet.mo&#45;&gt;src/Trie.mo -->
<g id="edge55" class="edge">
<title>src/TrieSet.mo&#45;&gt;src/Trie.mo</title>
<path fill="none" stroke="black" d="M1662.06,-508.08C1617.6,-495.97 1551.27,-477.9 1505.18,-465.35"/>
<polygon fill="black" stroke="black" points="1505.95,-461.93 1495.38,-462.68 1504.11,-468.69 1505.95,-461.93"/>
</g>
<!-- src/Nat64.mo -->
<g id="node32" class="node">
<title>src/Nat64.mo</title>
<ellipse fill="none" stroke="black" cx="731.49" cy="-594" rx="71.49" ry="18"/>
<text text-anchor="middle" x="731.49" y="-590.3" font-family="Times-Roman" font-size="14.00">src/Nat64.mo</text>
</g>
<!-- src/Nat64.mo&#45;&gt;src/Nat.mo -->
<g id="edge58" class="edge">
<title>src/Nat64.mo&#45;&gt;src/Nat.mo</title>
<path fill="none" stroke="black" d="M731.49,-575.7C731.49,-567.98 731.49,-558.71 731.49,-550.11"/>
<polygon fill="black" stroke="black" points="734.99,-550.1 731.49,-540.1 727.99,-550.1 734.99,-550.1"/>
</g>
<!-- src/Nat32.mo -->
<g id="node33" class="node">
<title>src/Nat32.mo</title>
<ellipse fill="none" stroke="black" cx="892.49" cy="-594" rx="71.49" ry="18"/>
<text text-anchor="middle" x="892.49" y="-590.3" font-family="Times-Roman" font-size="14.00">src/Nat32.mo</text>
</g>
<!-- src/Nat32.mo&#45;&gt;src/Nat.mo -->
<g id="edge59" class="edge">
<title>src/Nat32.mo&#45;&gt;src/Nat.mo</title>
<path fill="none" stroke="black" d="M858.35,-578.15C833.6,-567.4 800,-552.78 773.59,-541.3"/>
<polygon fill="black" stroke="black" points="774.78,-538 764.21,-537.23 771.99,-544.42 774.78,-538"/>
</g>
<!-- src/Word32.mo -->
<g id="node34" class="node">
<title>src/Word32.mo</title>
<ellipse fill="none" stroke="black" cx="1060.49" cy="-594" rx="78.79" ry="18"/>
<text text-anchor="middle" x="1060.49" y="-590.3" font-family="Times-Roman" font-size="14.00">src/Word32.mo</text>
</g>
<!-- src/Word32.mo&#45;&gt;src/Nat.mo -->
<g id="edge60" class="edge">
<title>src/Word32.mo&#45;&gt;src/Nat.mo</title>
<path fill="none" stroke="black" d="M1003.45,-581.5C951.73,-570.99 873.41,-554.86 805.49,-540 799.64,-538.72 793.52,-537.36 787.43,-535.98"/>
<polygon fill="black" stroke="black" points="787.78,-532.47 777.25,-533.67 786.23,-539.3 787.78,-532.47"/>
</g>
<!-- src/HashMap.mo -->
<g id="node35" class="node">
<title>src/HashMap.mo</title>
<ellipse fill="none" stroke="black" cx="2177.49" cy="-450" rx="85.59" ry="18"/>
<text text-anchor="middle" x="2177.49" y="-446.3" font-family="Times-Roman" font-size="14.00">src/HashMap.mo</text>
</g>
<!-- src/HashMap.mo&#45;&gt;src/Prelude.mo -->
<g id="edge61" class="edge">
<title>src/HashMap.mo&#45;&gt;src/Prelude.mo</title>
<path fill="none" stroke="black" d="M2239.47,-437.53C2312.21,-423.84 2423.96,-402.06 2431.49,-396 2465.29,-368.83 2471.49,-350.37 2471.49,-307 2471.49,-307 2471.49,-307 2471.49,-161 2471.49,-52.63 2350.2,-95.86 2244.49,-72 2119.93,-43.88 1748.32,-27.84 1578.67,-21.79"/>
<polygon fill="black" stroke="black" points="1578.65,-18.29 1568.53,-21.44 1578.4,-25.29 1578.65,-18.29"/>
</g>
<!-- src/HashMap.mo&#45;&gt;src/Iter.mo -->
<g id="edge64" class="edge">
<title>src/HashMap.mo&#45;&gt;src/Iter.mo</title>
<path fill="none" stroke="black" d="M2177.97,-431.84C2177.54,-411.61 2173.54,-378.4 2153.49,-360 2136.63,-344.52 2003.56,-325.28 1922.01,-314.76"/>
<polygon fill="black" stroke="black" points="1922.2,-311.26 1911.84,-313.46 1921.32,-318.2 1922.2,-311.26"/>
</g>
<!-- src/HashMap.mo&#45;&gt;src/Array.mo -->
<g id="edge62" class="edge">
<title>src/HashMap.mo&#45;&gt;src/Array.mo</title>
<path fill="none" stroke="black" d="M2238.47,-437.32C2306.82,-423.95 2408.91,-402.97 2414.49,-396 2424.5,-383.51 2424.12,-372.78 2414.49,-360 2339.22,-260.07 1955.83,-195.21 1797.27,-172.27"/>
<polygon fill="black" stroke="black" points="1797.56,-168.78 1787.16,-170.82 1796.56,-175.71 1797.56,-168.78"/>
</g>
<!-- src/HashMap.mo&#45;&gt;src/Hash.mo -->
<g id="edge63" class="edge">
<title>src/HashMap.mo&#45;&gt;src/Hash.mo</title>
<path fill="none" stroke="black" d="M2103.14,-440.87C2024.08,-431.78 1895.51,-415.7 1785.49,-396 1779.78,-394.98 1773.85,-393.82 1767.93,-392.6"/>
<polygon fill="black" stroke="black" points="1768.53,-389.15 1758.02,-390.5 1767.08,-396 1768.53,-389.15"/>
</g>
<!-- src/HashMap.mo&#45;&gt;src/AssocList.mo -->
<g id="edge65" class="edge">
<title>src/HashMap.mo&#45;&gt;src/AssocList.mo</title>
<path fill="none" stroke="black" d="M2122.67,-436.08C2072.52,-424.26 1998.28,-406.76 1945.23,-394.26"/>
<polygon fill="black" stroke="black" points="1945.78,-390.79 1935.25,-391.9 1944.18,-397.61 1945.78,-390.79"/>
</g>
<!-- src/Deque.mo -->
<g id="node36" class="node">
<title>src/Deque.mo</title>
<ellipse fill="none" stroke="black" cx="1493.49" cy="-306" rx="73.39" ry="18"/>
<text text-anchor="middle" x="1493.49" y="-302.3" font-family="Times-Roman" font-size="14.00">src/Deque.mo</text>
</g>
<!-- src/Deque.mo&#45;&gt;src/Prelude.mo -->
<g id="edge67" class="edge">
<title>src/Deque.mo&#45;&gt;src/Prelude.mo</title>
<path fill="none" stroke="black" d="M1493.43,-287.97C1493.27,-240.29 1492.8,-105.18 1492.59,-46.63"/>
<polygon fill="black" stroke="black" points="1496.09,-46.29 1492.55,-36.31 1489.09,-46.32 1496.09,-46.29"/>
</g>
<!-- src/Deque.mo&#45;&gt;src/List.mo -->
<g id="edge66" class="edge">
<title>src/Deque.mo&#45;&gt;src/List.mo</title>
<path fill="none" stroke="black" d="M1453.02,-290.83C1420.5,-279.45 1374.78,-263.45 1340.62,-251.49"/>
<polygon fill="black" stroke="black" points="1341.46,-248.08 1330.87,-248.08 1339.15,-254.69 1341.46,-248.08"/>
</g>
<!-- src/Text.mo -->
<g id="node37" class="node">
<title>src/Text.mo</title>
<ellipse fill="none" stroke="black" cx="1614.49" cy="-450" rx="61.99" ry="18"/>
<text text-anchor="middle" x="1614.49" y="-446.3" font-family="Times-Roman" font-size="14.00">src/Text.mo</text>
</g>
<!-- src/Text.mo&#45;&gt;src/Iter.mo -->
<g id="edge69" class="edge">
<title>src/Text.mo&#45;&gt;src/Iter.mo</title>
<path fill="none" stroke="black" d="M1613.11,-431.76C1612.52,-411.75 1614.81,-379.08 1633.49,-360 1655.64,-337.38 1735.96,-322.51 1794.32,-314.43"/>
<polygon fill="black" stroke="black" points="1795.14,-317.85 1804.58,-313.05 1794.21,-310.91 1795.14,-317.85"/>
</g>
<!-- src/Text.mo&#45;&gt;src/Hash.mo -->
<g id="edge70" class="edge">
<title>src/Text.mo&#45;&gt;src/Hash.mo</title>
<path fill="none" stroke="black" d="M1636.05,-433.12C1648.84,-423.7 1665.24,-411.61 1679.3,-401.25"/>
<polygon fill="black" stroke="black" points="1681.72,-403.81 1687.69,-395.06 1677.57,-398.18 1681.72,-403.81"/>
</g>
<!-- src/Char.mo -->
<g id="node38" class="node">
<title>src/Char.mo</title>
<ellipse fill="none" stroke="black" cx="1522.49" cy="-378" rx="64.19" ry="18"/>
<text text-anchor="middle" x="1522.49" y="-374.3" font-family="Times-Roman" font-size="14.00">src/Char.mo</text>
</g>
<!-- src/Text.mo&#45;&gt;src/Char.mo -->
<g id="edge68" class="edge">
<title>src/Text.mo&#45;&gt;src/Char.mo</title>
<path fill="none" stroke="black" d="M1593.16,-432.76C1580.85,-423.4 1565.19,-411.49 1551.75,-401.26"/>
<polygon fill="black" stroke="black" points="1553.79,-398.42 1543.72,-395.15 1549.55,-403.99 1553.79,-398.42"/>
</g>
<!-- src/Int32.mo -->
<g id="node39" class="node">
<title>src/Int32.mo</title>
<ellipse fill="none" stroke="black" cx="1247.49" cy="-522" rx="67.69" ry="18"/>
<text text-anchor="middle" x="1247.49" y="-518.3" font-family="Times-Roman" font-size="14.00">src/Int32.mo</text>
</g>
<!-- src/Int32.mo&#45;&gt;src/Int.mo -->
<g id="edge71" class="edge">
<title>src/Int32.mo&#45;&gt;src/Int.mo</title>
<path fill="none" stroke="black" d="M1205.06,-507.92C1166.42,-496 1109.37,-478.41 1068.95,-465.94"/>
<polygon fill="black" stroke="black" points="1069.9,-462.57 1059.31,-462.97 1067.83,-469.26 1069.9,-462.57"/>
</g>
<!-- src/Int16.mo -->
<g id="node40" class="node">
<title>src/Int16.mo</title>
<ellipse fill="none" stroke="black" cx="1400.49" cy="-522" rx="67.69" ry="18"/>
<text text-anchor="middle" x="1400.49" y="-518.3" font-family="Times-Roman" font-size="14.00">src/Int16.mo</text>
</g>
<!-- src/Int16.mo&#45;&gt;src/Int.mo -->
<g id="edge72" class="edge">
<title>src/Int16.mo&#45;&gt;src/Int.mo</title>
<path fill="none" stroke="black" d="M1351.53,-509.54C1342.56,-507.58 1333.26,-505.65 1324.49,-504 1221.09,-484.5 1193.71,-488.43 1090.49,-468 1084.76,-466.86 1078.78,-465.58 1072.84,-464.23"/>
<polygon fill="black" stroke="black" points="1073.47,-460.78 1062.93,-461.92 1071.88,-467.6 1073.47,-460.78"/>
</g>
</g>
</svg>
