<?xml version="1.0" encoding="UTF-8" standalone="no"?>
<!DOCTYPE svg PUBLIC "-//W3C//DTD SVG 1.1//EN"
 "http://www.w3.org/Graphics/SVG/1.1/DTD/svg11.dtd">
<!-- Generated by graphviz version 2.43.0 (0)
 -->
<!-- Title: Base Pages: 1 -->
<svg width="2198pt" height="620pt"
 viewBox="0.00 0.00 2198.04 620.00" xmlns="http://www.w3.org/2000/svg" xmlns:xlink="http://www.w3.org/1999/xlink">
<g id="graph0" class="graph" transform="scale(1 1) rotate(0) translate(4 616)">
<title>Base</title>
<polygon fill="white" stroke="transparent" points="-4,4 -4,-616 2194.04,-616 2194.04,4 -4,4"/>
<!-- src/Int64.mo -->
<g id="node1" class="node">
<title>src/Int64.mo</title>
<ellipse fill="none" stroke="black" cx="514.59" cy="-522" rx="67.69" ry="18"/>
<text text-anchor="middle" x="514.59" y="-518.3" font-family="Times-Roman" font-size="14.00">src/Int64.mo</text>
</g>
<!-- src/Int.mo -->
<g id="node2" class="node">
<title>src/Int.mo</title>
<ellipse fill="none" stroke="black" cx="367.59" cy="-450" rx="55.79" ry="18"/>
<text text-anchor="middle" x="367.59" y="-446.3" font-family="Times-Roman" font-size="14.00">src/Int.mo</text>
</g>
<!-- src/Int64.mo&#45;&gt;src/Int.mo -->
<g id="edge1" class="edge">
<title>src/Int64.mo&#45;&gt;src/Int.mo</title>
<path fill="none" stroke="black" d="M483.06,-505.98C460.72,-495.34 430.59,-481 406.72,-469.63"/>
<polygon fill="black" stroke="black" points="408.1,-466.41 397.57,-465.27 405.1,-472.73 408.1,-466.41"/>
</g>
<!-- src/Prelude.mo -->
<g id="node3" class="node">
<title>src/Prelude.mo</title>
<ellipse fill="none" stroke="black" cx="699.59" cy="-18" rx="77.19" ry="18"/>
<text text-anchor="middle" x="699.59" y="-14.3" font-family="Times-Roman" font-size="14.00">src/Prelude.mo</text>
</g>
<!-- src/Int.mo&#45;&gt;src/Prelude.mo -->
<g id="edge2" class="edge">
<title>src/Int.mo&#45;&gt;src/Prelude.mo</title>
<path fill="none" stroke="black" d="M372.25,-431.66C378.97,-405.05 390.59,-352.45 390.59,-307 390.59,-307 390.59,-307 390.59,-161 390.59,-118.5 392.91,-99.17 425.59,-72 454.36,-48.09 548.1,-33.74 617.98,-26.12"/>
<polygon fill="black" stroke="black" points="618.53,-29.58 628.1,-25.04 617.79,-22.62 618.53,-29.58"/>
</g>
<!-- src/Hash.mo -->
<g id="node4" class="node">
<title>src/Hash.mo</title>
<ellipse fill="none" stroke="black" cx="974.59" cy="-378" rx="66.89" ry="18"/>
<text text-anchor="middle" x="974.59" y="-374.3" font-family="Times-Roman" font-size="14.00">src/Hash.mo</text>
</g>
<!-- src/Int.mo&#45;&gt;src/Hash.mo -->
<g id="edge3" class="edge">
<title>src/Int.mo&#45;&gt;src/Hash.mo</title>
<path fill="none" stroke="black" d="M419.35,-443.03C528.1,-430.49 780.49,-401.38 903.98,-387.14"/>
<polygon fill="black" stroke="black" points="904.55,-390.6 914.09,-385.98 903.75,-383.65 904.55,-390.6"/>
</g>
<!-- src/Iter.mo -->
<g id="node5" class="node">
<title>src/Iter.mo</title>
<ellipse fill="none" stroke="black" cx="1435.59" cy="-306" rx="58.49" ry="18"/>
<text text-anchor="middle" x="1435.59" y="-302.3" font-family="Times-Roman" font-size="14.00">src/Iter.mo</text>
</g>
<!-- src/Hash.mo&#45;&gt;src/Iter.mo -->
<g id="edge4" class="edge">
<title>src/Hash.mo&#45;&gt;src/Iter.mo</title>
<path fill="none" stroke="black" d="M1031.58,-368.35C1118.8,-355.1 1284.69,-329.91 1374.37,-316.3"/>
<polygon fill="black" stroke="black" points="1375.03,-319.74 1384.39,-314.77 1373.98,-312.82 1375.03,-319.74"/>
</g>
<!-- src/Array.mo -->
<g id="node6" class="node">
<title>src/Array.mo</title>
<ellipse fill="none" stroke="black" cx="1318.59" cy="-162" rx="66.89" ry="18"/>
<text text-anchor="middle" x="1318.59" y="-158.3" font-family="Times-Roman" font-size="14.00">src/Array.mo</text>
</g>
<!-- src/Iter.mo&#45;&gt;src/Array.mo -->
<g id="edge5" class="edge">
<title>src/Iter.mo&#45;&gt;src/Array.mo</title>
<path fill="none" stroke="black" d="M1421.94,-288.43C1401.53,-263.66 1362.92,-216.8 1339.11,-187.9"/>
<polygon fill="black" stroke="black" points="1341.58,-185.39 1332.52,-179.9 1336.18,-189.85 1341.58,-185.39"/>
</g>
<!-- src/Buffer.mo -->
<g id="node7" class="node">
<title>src/Buffer.mo</title>
<ellipse fill="none" stroke="black" cx="1415.59" cy="-90" rx="70.69" ry="18"/>
<text text-anchor="middle" x="1415.59" y="-86.3" font-family="Times-Roman" font-size="14.00">src/Buffer.mo</text>
</g>
<!-- src/Iter.mo&#45;&gt;src/Buffer.mo -->
<g id="edge6" class="edge">
<title>src/Iter.mo&#45;&gt;src/Buffer.mo</title>
<path fill="none" stroke="black" d="M1433.99,-287.85C1430.53,-250.83 1422.34,-163.18 1418.15,-118.39"/>
<polygon fill="black" stroke="black" points="1421.62,-117.86 1417.2,-108.23 1414.65,-118.51 1421.62,-117.86"/>
</g>
<!-- src/List.mo -->
<g id="node8" class="node">
<title>src/List.mo</title>
<ellipse fill="none" stroke="black" cx="1575.59" cy="-234" rx="59.59" ry="18"/>
<text text-anchor="middle" x="1575.59" y="-230.3" font-family="Times-Roman" font-size="14.00">src/List.mo</text>
</g>
<!-- src/Iter.mo&#45;&gt;src/List.mo -->
<g id="edge7" class="edge">
<title>src/Iter.mo&#45;&gt;src/List.mo</title>
<path fill="none" stroke="black" d="M1464.94,-290.33C1485.8,-279.9 1514.03,-265.78 1536.76,-254.42"/>
<polygon fill="black" stroke="black" points="1538.42,-257.5 1545.8,-249.9 1535.29,-251.24 1538.42,-257.5"/>
</g>
<!-- src/Array.mo&#45;&gt;src/Buffer.mo -->
<g id="edge8" class="edge">
<title>src/Array.mo&#45;&gt;src/Buffer.mo</title>
<path fill="none" stroke="black" d="M1341.09,-144.76C1354.07,-135.4 1370.57,-123.49 1384.75,-113.26"/>
<polygon fill="black" stroke="black" points="1387.16,-115.84 1393.22,-107.15 1383.06,-110.16 1387.16,-115.84"/>
</g>
<!-- src/IterType.mo -->
<g id="node9" class="node">
<title>src/IterType.mo</title>
<ellipse fill="none" stroke="black" cx="1246.59" cy="-90" rx="79.89" ry="18"/>
<text text-anchor="middle" x="1246.59" y="-86.3" font-family="Times-Roman" font-size="14.00">src/IterType.mo</text>
</g>
<!-- src/Array.mo&#45;&gt;src/IterType.mo -->
<g id="edge9" class="edge">
<title>src/Array.mo&#45;&gt;src/IterType.mo</title>
<path fill="none" stroke="black" d="M1301.53,-144.41C1292.52,-135.65 1281.29,-124.73 1271.34,-115.06"/>
<polygon fill="black" stroke="black" points="1273.64,-112.42 1264.03,-107.96 1268.76,-117.44 1273.64,-112.42"/>
</g>
<!-- src/Option.mo -->
<g id="node10" class="node">
<title>src/Option.mo</title>
<ellipse fill="none" stroke="black" cx="939.59" cy="-90" rx="74.19" ry="18"/>
<text text-anchor="middle" x="939.59" y="-86.3" font-family="Times-Roman" font-size="14.00">src/Option.mo</text>
</g>
<!-- src/Array.mo&#45;&gt;src/Option.mo -->
<g id="edge10" class="edge">
<title>src/Array.mo&#45;&gt;src/Option.mo</title>
<path fill="none" stroke="black" d="M1265.1,-151.12C1197.38,-138.61 1080.68,-117.06 1006.95,-103.44"/>
<polygon fill="black" stroke="black" points="1007.32,-99.95 996.85,-101.57 1006.04,-106.83 1007.32,-99.95"/>
</g>
<!-- src/Result.mo -->
<g id="node11" class="node">
<title>src/Result.mo</title>
<ellipse fill="none" stroke="black" cx="1575.59" cy="-90" rx="71.49" ry="18"/>
<text text-anchor="middle" x="1575.59" y="-86.3" font-family="Times-Roman" font-size="14.00">src/Result.mo</text>
</g>
<!-- src/Array.mo&#45;&gt;src/Result.mo -->
<g id="edge11" class="edge">
<title>src/Array.mo&#45;&gt;src/Result.mo</title>
<path fill="none" stroke="black" d="M1363.95,-148.65C1407.27,-136.85 1472.68,-119.03 1519.31,-106.33"/>
<polygon fill="black" stroke="black" points="1520.23,-109.71 1528.96,-103.7 1518.39,-102.95 1520.23,-109.71"/>
</g>
<!-- src/List.mo&#45;&gt;src/Array.mo -->
<g id="edge15" class="edge">
<title>src/List.mo&#45;&gt;src/Array.mo</title>
<path fill="none" stroke="black" d="M1532.87,-221.36C1489.29,-209.49 1421.5,-191.03 1373.87,-178.05"/>
<polygon fill="black" stroke="black" points="1374.59,-174.62 1364.02,-175.37 1372.75,-181.38 1374.59,-174.62"/>
</g>
<!-- src/List.mo&#45;&gt;src/Option.mo -->
<g id="edge16" class="edge">
<title>src/List.mo&#45;&gt;src/Option.mo</title>
<path fill="none" stroke="black" d="M1550.93,-217.46C1517.09,-196.95 1453.71,-161.42 1394.59,-144 1326.26,-123.87 1130.73,-105.96 1019.5,-97.02"/>
<polygon fill="black" stroke="black" points="1019.58,-93.51 1009.33,-96.21 1019.02,-100.49 1019.58,-93.51"/>
</g>
<!-- src/List.mo&#45;&gt;src/Result.mo -->
<g id="edge18" class="edge">
<title>src/List.mo&#45;&gt;src/Result.mo</title>
<path fill="none" stroke="black" d="M1575.59,-215.87C1575.59,-191.67 1575.59,-147.21 1575.59,-118.39"/>
<polygon fill="black" stroke="black" points="1579.09,-118.19 1575.59,-108.19 1572.09,-118.19 1579.09,-118.19"/>
</g>
<!-- src/Order.mo -->
<g id="node12" class="node">
<title>src/Order.mo</title>
<ellipse fill="none" stroke="black" cx="1900.59" cy="-18" rx="68.79" ry="18"/>
<text text-anchor="middle" x="1900.59" y="-14.3" font-family="Times-Roman" font-size="14.00">src/Order.mo</text>
</g>
<!-- src/List.mo&#45;&gt;src/Order.mo -->
<g id="edge17" class="edge">
<title>src/List.mo&#45;&gt;src/Order.mo</title>
<path fill="none" stroke="black" d="M1599.23,-217.44C1656.29,-179.87 1801.7,-84.12 1867.44,-40.83"/>
<polygon fill="black" stroke="black" points="1869.74,-43.51 1876.17,-35.09 1865.89,-37.66 1869.74,-43.51"/>
</g>
<!-- src/Option.mo&#45;&gt;src/Prelude.mo -->
<g id="edge12" class="edge">
<title>src/Option.mo&#45;&gt;src/Prelude.mo</title>
<path fill="none" stroke="black" d="M894.17,-75.75C854.92,-64.3 798.03,-47.71 755.89,-35.42"/>
<polygon fill="black" stroke="black" points="756.64,-31.99 746.06,-32.55 754.68,-38.71 756.64,-31.99"/>
</g>
<!-- src/Result.mo&#45;&gt;src/Prelude.mo -->
<g id="edge13" class="edge">
<title>src/Result.mo&#45;&gt;src/Prelude.mo</title>
<path fill="none" stroke="black" d="M1525,-77.11C1515.29,-75.15 1505.16,-73.33 1495.59,-72 1239.38,-36.43 933.33,-24.55 786.54,-20.73"/>
<polygon fill="black" stroke="black" points="786.34,-17.22 776.25,-20.47 786.16,-24.22 786.34,-17.22"/>
</g>
<!-- src/Result.mo&#45;&gt;src/Order.mo -->
<g id="edge14" class="edge">
<title>src/Result.mo&#45;&gt;src/Order.mo</title>
<path fill="none" stroke="black" d="M1628.17,-77.68C1685.86,-65.25 1778.35,-45.33 1839.29,-32.2"/>
<polygon fill="black" stroke="black" points="1840.13,-35.6 1849.16,-30.08 1838.65,-28.76 1840.13,-35.6"/>
</g>
<!-- src/Principal.mo -->
<g id="node13" class="node">
<title>src/Principal.mo</title>
<ellipse fill="none" stroke="black" cx="694.59" cy="-450" rx="82.59" ry="18"/>
<text text-anchor="middle" x="694.59" y="-446.3" font-family="Times-Roman" font-size="14.00">src/Principal.mo</text>
</g>
<!-- src/Principal.mo&#45;&gt;src/Hash.mo -->
<g id="edge20" class="edge">
<title>src/Principal.mo&#45;&gt;src/Hash.mo</title>
<path fill="none" stroke="black" d="M746.6,-436C795.09,-423.88 867.25,-405.84 917.35,-393.31"/>
<polygon fill="black" stroke="black" points="918.21,-396.7 927.06,-390.88 916.51,-389.91 918.21,-396.7"/>
</g>
<!-- src/Blob.mo -->
<g id="node14" class="node">
<title>src/Blob.mo</title>
<ellipse fill="none" stroke="black" cx="531.59" cy="-378" rx="63.89" ry="18"/>
<text text-anchor="middle" x="531.59" y="-374.3" font-family="Times-Roman" font-size="14.00">src/Blob.mo</text>
</g>
<!-- src/Principal.mo&#45;&gt;src/Blob.mo -->
<g id="edge19" class="edge">
<title>src/Principal.mo&#45;&gt;src/Blob.mo</title>
<path fill="none" stroke="black" d="M658.82,-433.64C633.95,-422.96 600.68,-408.67 574.4,-397.38"/>
<polygon fill="black" stroke="black" points="575.63,-394.1 565.06,-393.37 572.86,-400.53 575.63,-394.1"/>
</g>
<!-- src/Word16.mo -->
<g id="node15" class="node">
<title>src/Word16.mo</title>
<ellipse fill="none" stroke="black" cx="1488.59" cy="-594" rx="78.79" ry="18"/>
<text text-anchor="middle" x="1488.59" y="-590.3" font-family="Times-Roman" font-size="14.00">src/Word16.mo</text>
</g>
<!-- src/Nat.mo -->
<g id="node16" class="node">
<title>src/Nat.mo</title>
<ellipse fill="none" stroke="black" cx="905.59" cy="-522" rx="59.59" ry="18"/>
<text text-anchor="middle" x="905.59" y="-518.3" font-family="Times-Roman" font-size="14.00">src/Nat.mo</text>
</g>
<!-- src/Word16.mo&#45;&gt;src/Nat.mo -->
<g id="edge21" class="edge">
<title>src/Word16.mo&#45;&gt;src/Nat.mo</title>
<path fill="none" stroke="black" d="M1433.05,-581.21C1422.63,-579.27 1411.81,-577.42 1401.59,-576 1212.97,-549.7 1162.53,-570.88 974.59,-540 969.27,-539.12 963.75,-538.05 958.25,-536.88"/>
<polygon fill="black" stroke="black" points="958.97,-533.45 948.44,-534.66 957.43,-540.28 958.97,-533.45"/>
</g>
<!-- src/Nat.mo&#45;&gt;src/Int.mo -->
<g id="edge22" class="edge">
<title>src/Nat.mo&#45;&gt;src/Int.mo</title>
<path fill="none" stroke="black" d="M850.11,-515.11C734.96,-502.84 477.4,-475.06 437.59,-468 431.68,-466.95 425.52,-465.7 419.41,-464.35"/>
<polygon fill="black" stroke="black" points="419.77,-460.84 409.24,-462.02 418.21,-467.67 419.77,-460.84"/>
</g>
<!-- src/Nat.mo&#45;&gt;src/Order.mo -->
<g id="edge23" class="edge">
<title>src/Nat.mo&#45;&gt;src/Order.mo</title>
<path fill="none" stroke="black" d="M948.05,-509.25C956.77,-507.2 965.93,-505.31 974.59,-504 1246.64,-462.92 1320.04,-505.61 1592.59,-468 1750.31,-446.23 1939.59,-538.21 1939.59,-379 1939.59,-379 1939.59,-379 1939.59,-161 1939.59,-119.56 1923.96,-73.67 1912.49,-45.58"/>
<polygon fill="black" stroke="black" points="1915.59,-43.93 1908.49,-36.07 1909.14,-46.65 1915.59,-43.93"/>
</g>
<!-- src/TrieSet.mo -->
<g id="node17" class="node">
<title>src/TrieSet.mo</title>
<ellipse fill="none" stroke="black" cx="1234.59" cy="-522" rx="74.99" ry="18"/>
<text text-anchor="middle" x="1234.59" y="-518.3" font-family="Times-Roman" font-size="14.00">src/TrieSet.mo</text>
</g>
<!-- src/TrieSet.mo&#45;&gt;src/Hash.mo -->
<g id="edge25" class="edge">
<title>src/TrieSet.mo&#45;&gt;src/Hash.mo</title>
<path fill="none" stroke="black" d="M1201.67,-505.61C1180.11,-495.35 1151.43,-481.34 1126.59,-468 1104.21,-455.98 1046.84,-422.06 1009.33,-399.74"/>
<polygon fill="black" stroke="black" points="1011.11,-396.72 1000.72,-394.61 1007.53,-402.74 1011.11,-396.72"/>
</g>
<!-- src/TrieSet.mo&#45;&gt;src/List.mo -->
<g id="edge26" class="edge">
<title>src/TrieSet.mo&#45;&gt;src/List.mo</title>
<path fill="none" stroke="black" d="M1307.89,-518.35C1437.56,-512.91 1696.36,-498.35 1723.59,-468 1777.03,-408.46 1769.65,-353.41 1723.59,-288 1705.17,-261.84 1672.58,-248.52 1642.66,-241.77"/>
<polygon fill="black" stroke="black" points="1643.14,-238.3 1632.64,-239.73 1641.74,-245.16 1643.14,-238.3"/>
</g>
<!-- src/Trie.mo -->
<g id="node18" class="node">
<title>src/Trie.mo</title>
<ellipse fill="none" stroke="black" cx="974.59" cy="-450" rx="59.59" ry="18"/>
<text text-anchor="middle" x="974.59" y="-446.3" font-family="Times-Roman" font-size="14.00">src/Trie.mo</text>
</g>
<!-- src/TrieSet.mo&#45;&gt;src/Trie.mo -->
<g id="edge24" class="edge">
<title>src/TrieSet.mo&#45;&gt;src/Trie.mo</title>
<path fill="none" stroke="black" d="M1186.6,-508.08C1141.49,-495.93 1074.11,-477.79 1027.48,-465.24"/>
<polygon fill="black" stroke="black" points="1028.13,-461.79 1017.56,-462.57 1026.31,-468.55 1028.13,-461.79"/>
</g>
<!-- src/Trie.mo&#45;&gt;src/Prelude.mo -->
<g id="edge27" class="edge">
<title>src/Trie.mo&#45;&gt;src/Prelude.mo</title>
<path fill="none" stroke="black" d="M918.48,-443.51C829.07,-434.25 662.31,-414.71 642.59,-396 613.26,-368.15 623.59,-347.45 623.59,-307 623.59,-307 623.59,-307 623.59,-161 623.59,-115.39 654.45,-70.25 676.84,-43.5"/>
<polygon fill="black" stroke="black" points="679.6,-45.67 683.48,-35.81 674.29,-41.09 679.6,-45.67"/>
</g>
<!-- src/Trie.mo&#45;&gt;src/Hash.mo -->
<g id="edge29" class="edge">
<title>src/Trie.mo&#45;&gt;src/Hash.mo</title>
<path fill="none" stroke="black" d="M974.59,-431.7C974.59,-423.98 974.59,-414.71 974.59,-406.11"/>
<polygon fill="black" stroke="black" points="978.09,-406.1 974.59,-396.1 971.09,-406.1 978.09,-406.1"/>
</g>
<!-- src/Trie.mo&#45;&gt;src/Array.mo -->
<g id="edge30" class="edge">
<title>src/Trie.mo&#45;&gt;src/Array.mo</title>
<path fill="none" stroke="black" d="M941.39,-434.94C925.36,-426.25 907.67,-413.4 898.59,-396 891.19,-381.81 890.01,-373.5 898.59,-360 909.63,-342.64 1170.72,-227.44 1275.58,-181.69"/>
<polygon fill="black" stroke="black" points="1277.17,-184.82 1284.93,-177.61 1274.37,-178.4 1277.17,-184.82"/>
</g>
<!-- src/Trie.mo&#45;&gt;src/List.mo -->
<g id="edge31" class="edge">
<title>src/Trie.mo&#45;&gt;src/List.mo</title>
<path fill="none" stroke="black" d="M998.79,-433.49C1028.33,-414.88 1080.11,-383.27 1126.59,-360 1200.33,-323.09 1218.66,-311.85 1297.59,-288 1369.58,-266.25 1454.87,-251.56 1511.81,-243.27"/>
<polygon fill="black" stroke="black" points="1512.35,-246.72 1521.75,-241.84 1511.36,-239.79 1512.35,-246.72"/>
</g>
<!-- src/Trie.mo&#45;&gt;src/Option.mo -->
<g id="edge28" class="edge">
<title>src/Trie.mo&#45;&gt;src/Option.mo</title>
<path fill="none" stroke="black" d="M936.27,-435.89C918.08,-427.52 898.08,-414.66 887.59,-396 879.76,-382.05 881.79,-374.91 887.59,-360 895.46,-339.77 911.91,-343.89 920.59,-324 950.82,-254.76 947.14,-163.02 942.87,-118.11"/>
<polygon fill="black" stroke="black" points="946.34,-117.58 941.83,-107.99 939.38,-118.3 946.34,-117.58"/>
</g>
<!-- src/AssocList.mo -->
<g id="node19" class="node">
<title>src/AssocList.mo</title>
<ellipse fill="none" stroke="black" cx="1221.59" cy="-378" rx="85.59" ry="18"/>
<text text-anchor="middle" x="1221.59" y="-374.3" font-family="Times-Roman" font-size="14.00">src/AssocList.mo</text>
</g>
<!-- src/Trie.mo&#45;&gt;src/AssocList.mo -->
<g id="edge32" class="edge">
<title>src/Trie.mo&#45;&gt;src/AssocList.mo</title>
<path fill="none" stroke="black" d="M1016.49,-437.13C1056.76,-425.71 1117.97,-408.37 1163.04,-395.59"/>
<polygon fill="black" stroke="black" points="1164.02,-398.95 1172.69,-392.86 1162.11,-392.22 1164.02,-398.95"/>
</g>
<!-- src/AssocList.mo&#45;&gt;src/List.mo -->
<g id="edge33" class="edge">
<title>src/AssocList.mo&#45;&gt;src/List.mo</title>
<path fill="none" stroke="black" d="M1243.89,-360.61C1271.77,-340.83 1321.56,-307.75 1368.59,-288 1416.09,-268.06 1472.97,-254.15 1515.07,-245.61"/>
<polygon fill="black" stroke="black" points="1515.78,-249.04 1524.9,-243.65 1514.41,-242.17 1515.78,-249.04"/>
</g>
<!-- src/Stack.mo -->
<g id="node20" class="node">
<title>src/Stack.mo</title>
<ellipse fill="none" stroke="black" cx="1596.59" cy="-306" rx="68.79" ry="18"/>
<text text-anchor="middle" x="1596.59" y="-302.3" font-family="Times-Roman" font-size="14.00">src/Stack.mo</text>
</g>
<!-- src/Stack.mo&#45;&gt;src/List.mo -->
<g id="edge34" class="edge">
<title>src/Stack.mo&#45;&gt;src/List.mo</title>
<path fill="none" stroke="black" d="M1591.4,-287.7C1589.06,-279.9 1586.25,-270.51 1583.64,-261.83"/>
<polygon fill="black" stroke="black" points="1586.95,-260.68 1580.73,-252.1 1580.25,-262.69 1586.95,-260.68"/>
</g>
<!-- src/Nat32.mo -->
<g id="node21" class="node">
<title>src/Nat32.mo</title>
<ellipse fill="none" stroke="black" cx="336.59" cy="-594" rx="71.49" ry="18"/>
<text text-anchor="middle" x="336.59" y="-590.3" font-family="Times-Roman" font-size="14.00">src/Nat32.mo</text>
</g>
<!-- src/Nat32.mo&#45;&gt;src/Nat.mo -->
<g id="edge35" class="edge">
<title>src/Nat32.mo&#45;&gt;src/Nat.mo</title>
<path fill="none" stroke="black" d="M387.87,-581.44C397.71,-579.45 407.94,-577.53 417.59,-576 458.32,-569.53 716.44,-542.55 839.93,-529.77"/>
<polygon fill="black" stroke="black" points="840.43,-533.23 850.02,-528.72 839.71,-526.27 840.43,-533.23"/>
</g>
<!-- src/Nat16.mo -->
<g id="node22" class="node">
<title>src/Nat16.mo</title>
<ellipse fill="none" stroke="black" cx="497.59" cy="-594" rx="71.49" ry="18"/>
<text text-anchor="middle" x="497.59" y="-590.3" font-family="Times-Roman" font-size="14.00">src/Nat16.mo</text>
</g>
<!-- src/Nat16.mo&#45;&gt;src/Nat.mo -->
<g id="edge36" class="edge">
<title>src/Nat16.mo&#45;&gt;src/Nat.mo</title>
<path fill="none" stroke="black" d="M549.59,-581.56C558.9,-579.63 568.52,-577.7 577.59,-576 669.49,-558.82 776.5,-542.15 842.65,-532.23"/>
<polygon fill="black" stroke="black" points="843.54,-535.64 852.91,-530.7 842.5,-528.71 843.54,-535.64"/>
</g>
<!-- src/TrieMap.mo -->
<g id="node23" class="node">
<title>src/TrieMap.mo</title>
<ellipse fill="none" stroke="black" cx="1062.59" cy="-522" rx="79.09" ry="18"/>
<text text-anchor="middle" x="1062.59" y="-518.3" font-family="Times-Roman" font-size="14.00">src/TrieMap.mo</text>
</g>
<!-- src/TrieMap.mo&#45;&gt;src/Prelude.mo -->
<g id="edge38" class="edge">
<title>src/TrieMap.mo&#45;&gt;src/Prelude.mo</title>
<path fill="none" stroke="black" d="M1005.92,-509.24C995.53,-507.31 984.76,-505.47 974.59,-504 810.2,-480.22 762.23,-513.91 602.59,-468 533.83,-448.22 502.39,-452.58 458.59,-396 433.84,-364.02 439.59,-347.45 439.59,-307 439.59,-307 439.59,-307 439.59,-161 439.59,-77.2 544.92,-42.55 621.49,-28.43"/>
<polygon fill="black" stroke="black" points="622.38,-31.83 631.62,-26.65 621.17,-24.93 622.38,-31.83"/>
</g>
<!-- src/TrieMap.mo&#45;&gt;src/Hash.mo -->
<g id="edge40" class="edge">
<title>src/TrieMap.mo&#45;&gt;src/Hash.mo</title>
<path fill="none" stroke="black" d="M1062.39,-503.96C1061.43,-485.02 1057.59,-454.18 1043.59,-432 1035.61,-419.36 1023.49,-408.57 1011.62,-400.09"/>
<polygon fill="black" stroke="black" points="1013.33,-397.02 1003.08,-394.33 1009.42,-402.82 1013.33,-397.02"/>
</g>
<!-- src/TrieMap.mo&#45;&gt;src/Iter.mo -->
<g id="edge39" class="edge">
<title>src/TrieMap.mo&#45;&gt;src/Iter.mo</title>
<path fill="none" stroke="black" d="M1120.83,-509.77C1193.13,-495.7 1308.04,-472.83 1316.59,-468 1370.93,-437.36 1407.56,-370.56 1424.61,-333.35"/>
<polygon fill="black" stroke="black" points="1427.85,-334.69 1428.71,-324.13 1421.45,-331.85 1427.85,-334.69"/>
</g>
<!-- src/TrieMap.mo&#45;&gt;src/List.mo -->
<g id="edge41" class="edge">
<title>src/TrieMap.mo&#45;&gt;src/List.mo</title>
<path fill="none" stroke="black" d="M1118.78,-509.2C1129.31,-507.25 1140.26,-505.41 1150.59,-504 1248.23,-490.63 1509.48,-520.95 1592.59,-468 1666.74,-420.77 1719.76,-363.42 1674.59,-288 1664.19,-270.62 1645.92,-258.62 1627.89,-250.5"/>
<polygon fill="black" stroke="black" points="1629.1,-247.21 1618.53,-246.59 1626.41,-253.67 1629.1,-247.21"/>
</g>
<!-- src/TrieMap.mo&#45;&gt;src/Trie.mo -->
<g id="edge37" class="edge">
<title>src/TrieMap.mo&#45;&gt;src/Trie.mo</title>
<path fill="none" stroke="black" d="M1041.74,-504.41C1030.07,-495.12 1015.35,-483.42 1002.68,-473.34"/>
<polygon fill="black" stroke="black" points="1004.7,-470.47 994.69,-466.99 1000.34,-475.95 1004.7,-470.47"/>
</g>
<!-- src/Deque.mo -->
<g id="node24" class="node">
<title>src/Deque.mo</title>
<ellipse fill="none" stroke="black" cx="838.59" cy="-306" rx="73.39" ry="18"/>
<text text-anchor="middle" x="838.59" y="-302.3" font-family="Times-Roman" font-size="14.00">src/Deque.mo</text>
</g>
<!-- src/Deque.mo&#45;&gt;src/Prelude.mo -->
<g id="edge43" class="edge">
<title>src/Deque.mo&#45;&gt;src/Prelude.mo</title>
<path fill="none" stroke="black" d="M830.32,-287.97C806.94,-239.88 740.35,-102.85 712.29,-45.13"/>
<polygon fill="black" stroke="black" points="715.35,-43.41 707.83,-35.94 709.05,-46.47 715.35,-43.41"/>
</g>
<!-- src/Deque.mo&#45;&gt;src/List.mo -->
<g id="edge42" class="edge">
<title>src/Deque.mo&#45;&gt;src/List.mo</title>
<path fill="none" stroke="black" d="M905.62,-298.63C1046,-285.3 1369.42,-254.58 1509.22,-241.3"/>
<polygon fill="black" stroke="black" points="1509.74,-244.77 1519.37,-240.34 1509.08,-237.8 1509.74,-244.77"/>
</g>
<!-- src/Heap.mo -->
<g id="node25" class="node">
<title>src/Heap.mo</title>
<ellipse fill="none" stroke="black" cx="1843.59" cy="-378" rx="67.69" ry="18"/>
<text text-anchor="middle" x="1843.59" y="-374.3" font-family="Times-Roman" font-size="14.00">src/Heap.mo</text>
</g>
<!-- src/Heap.mo&#45;&gt;src/Prelude.mo -->
<g id="edge45" class="edge">
<title>src/Heap.mo&#45;&gt;src/Prelude.mo</title>
<path fill="none" stroke="black" d="M1847.44,-359.61C1852.99,-332.94 1862.59,-280.27 1862.59,-235 1862.59,-235 1862.59,-235 1862.59,-161 1862.59,-60.86 1753.08,-94.9 1655.59,-72 1491.98,-33.57 990.37,-22.78 786.8,-19.95"/>
<polygon fill="black" stroke="black" points="786.8,-16.45 776.75,-19.81 786.7,-23.45 786.8,-16.45"/>
</g>
<!-- src/Heap.mo&#45;&gt;src/Iter.mo -->
<g id="edge47" class="edge">
<title>src/Heap.mo&#45;&gt;src/Iter.mo</title>
<path fill="none" stroke="black" d="M1786.23,-368.36C1721.2,-358.4 1612.07,-341.19 1518.59,-324 1510.08,-322.43 1501.09,-320.69 1492.3,-318.93"/>
<polygon fill="black" stroke="black" points="1492.99,-315.5 1482.5,-316.95 1491.61,-322.36 1492.99,-315.5"/>
</g>
<!-- src/Heap.mo&#45;&gt;src/List.mo -->
<g id="edge46" class="edge">
<title>src/Heap.mo&#45;&gt;src/List.mo</title>
<path fill="none" stroke="black" d="M1832.35,-359.96C1818.19,-339.83 1792.01,-306.73 1761.59,-288 1724.19,-264.97 1676.45,-251.64 1638.7,-244.1"/>
<polygon fill="black" stroke="black" points="1639.31,-240.66 1628.83,-242.22 1638,-247.53 1639.31,-240.66"/>
</g>
<!-- src/Heap.mo&#45;&gt;src/Order.mo -->
<g id="edge44" class="edge">
<title>src/Heap.mo&#45;&gt;src/Order.mo</title>
<path fill="none" stroke="black" d="M1855.94,-360.04C1862.81,-349.97 1871.06,-336.72 1876.59,-324 1892.93,-286.43 1900.59,-275.97 1900.59,-235 1900.59,-235 1900.59,-235 1900.59,-161 1900.59,-121 1900.59,-74.65 1900.59,-46.08"/>
<polygon fill="black" stroke="black" points="1904.09,-46.05 1900.59,-36.05 1897.09,-46.05 1904.09,-46.05"/>
</g>
<!-- src/Float.mo -->
<g id="node26" class="node">
<title>src/Float.mo</title>
<ellipse fill="none" stroke="black" cx="665.59" cy="-522" rx="65.79" ry="18"/>
<text text-anchor="middle" x="665.59" y="-518.3" font-family="Times-Roman" font-size="14.00">src/Float.mo</text>
</g>
<!-- src/Float.mo&#45;&gt;src/Int.mo -->
<g id="edge48" class="edge">
<title>src/Float.mo&#45;&gt;src/Int.mo</title>
<path fill="none" stroke="black" d="M617.08,-509.87C570.9,-499.24 499.47,-482.7 437.59,-468 432.19,-466.72 426.56,-465.37 420.94,-464.01"/>
<polygon fill="black" stroke="black" points="421.44,-460.53 410.89,-461.59 419.79,-467.34 421.44,-460.53"/>
</g>
<!-- src/HashMap.mo -->
<g id="node27" class="node">
<title>src/HashMap.mo</title>
<ellipse fill="none" stroke="black" cx="1221.59" cy="-450" rx="85.59" ry="18"/>
<text text-anchor="middle" x="1221.59" y="-446.3" font-family="Times-Roman" font-size="14.00">src/HashMap.mo</text>
</g>
<!-- src/HashMap.mo&#45;&gt;src/Prelude.mo -->
<g id="edge49" class="edge">
<title>src/HashMap.mo&#45;&gt;src/Prelude.mo</title>
<path fill="none" stroke="black" d="M1192.11,-432.92C1147.2,-408.54 1065.3,-364.56 1050.59,-360 892.44,-310.93 699.59,-400.6 699.59,-235 699.59,-235 699.59,-235 699.59,-161 699.59,-121 699.59,-74.65 699.59,-46.08"/>
<polygon fill="black" stroke="black" points="703.09,-46.05 699.59,-36.05 696.09,-46.05 703.09,-46.05"/>
</g>
<!-- src/HashMap.mo&#45;&gt;src/Hash.mo -->
<g id="edge51" class="edge">
<title>src/HashMap.mo&#45;&gt;src/Hash.mo</title>
<path fill="none" stroke="black" d="M1172.79,-435.17C1131.32,-423.42 1071.83,-406.56 1028.86,-394.38"/>
<polygon fill="black" stroke="black" points="1029.72,-390.98 1019.14,-391.62 1027.81,-397.72 1029.72,-390.98"/>
</g>
<!-- src/HashMap.mo&#45;&gt;src/Iter.mo -->
<g id="edge52" class="edge">
<title>src/HashMap.mo&#45;&gt;src/Iter.mo</title>
<path fill="none" stroke="black" d="M1268.32,-434.86C1293.64,-425.95 1324.74,-412.92 1349.59,-396 1375.86,-378.12 1400.48,-351.2 1416.59,-331.65"/>
<polygon fill="black" stroke="black" points="1419.39,-333.75 1422.95,-323.77 1413.94,-329.35 1419.39,-333.75"/>
</g>
<!-- src/HashMap.mo&#45;&gt;src/Array.mo -->
<g id="edge50" class="edge">
<title>src/HashMap.mo&#45;&gt;src/Array.mo</title>
<path fill="none" stroke="black" d="M1268.21,-434.61C1286.62,-426.39 1305.9,-414.03 1316.59,-396 1355.36,-330.63 1338.3,-235.73 1326.48,-189.84"/>
<polygon fill="black" stroke="black" points="1329.82,-188.79 1323.84,-180.04 1323.06,-190.61 1329.82,-188.79"/>
</g>
<!-- src/HashMap.mo&#45;&gt;src/AssocList.mo -->
<g id="edge53" class="edge">
<title>src/HashMap.mo&#45;&gt;src/AssocList.mo</title>
<path fill="none" stroke="black" d="M1221.59,-431.7C1221.59,-423.98 1221.59,-414.71 1221.59,-406.11"/>
<polygon fill="black" stroke="black" points="1225.09,-406.1 1221.59,-396.1 1218.09,-406.1 1225.09,-406.1"/>
</g>
<!-- src/Word32.mo -->
<g id="node28" class="node">
<title>src/Word32.mo</title>
<ellipse fill="none" stroke="black" cx="665.59" cy="-594" rx="78.79" ry="18"/>
<text text-anchor="middle" x="665.59" y="-590.3" font-family="Times-Roman" font-size="14.00">src/Word32.mo</text>
</g>
<!-- src/Word32.mo&#45;&gt;src/Nat.mo -->
<g id="edge54" class="edge">
<title>src/Word32.mo&#45;&gt;src/Nat.mo</title>
<path fill="none" stroke="black" d="M712.15,-579.42C752.91,-567.53 812.05,-550.28 854.19,-537.99"/>
<polygon fill="black" stroke="black" points="855.36,-541.3 863.98,-535.14 853.4,-534.58 855.36,-541.3"/>
</g>
<!-- src/Nat8.mo -->
<g id="node29" class="node">
<title>src/Nat8.mo</title>
<ellipse fill="none" stroke="black" cx="827.59" cy="-594" rx="65.79" ry="18"/>
<text text-anchor="middle" x="827.59" y="-590.3" font-family="Times-Roman" font-size="14.00">src/Nat8.mo</text>
</g>
<!-- src/Nat8.mo&#45;&gt;src/Nat.mo -->
<g id="edge55" class="edge">
<title>src/Nat8.mo&#45;&gt;src/Nat.mo</title>
<path fill="none" stroke="black" d="M846.08,-576.41C856.16,-567.37 868.79,-556.03 879.82,-546.13"/>
<polygon fill="black" stroke="black" points="882.41,-548.51 887.51,-539.23 877.73,-543.3 882.41,-548.51"/>
</g>
<!-- src/Nat64.mo -->
<g id="node30" class="node">
<title>src/Nat64.mo</title>
<ellipse fill="none" stroke="black" cx="982.59" cy="-594" rx="71.49" ry="18"/>
<text text-anchor="middle" x="982.59" y="-590.3" font-family="Times-Roman" font-size="14.00">src/Nat64.mo</text>
</g>
<!-- src/Nat64.mo&#45;&gt;src/Nat.mo -->
<g id="edge56" class="edge">
<title>src/Nat64.mo&#45;&gt;src/Nat.mo</title>
<path fill="none" stroke="black" d="M964.35,-576.41C954.4,-567.37 941.93,-556.03 931.04,-546.13"/>
<polygon fill="black" stroke="black" points="933.2,-543.37 923.45,-539.23 928.49,-548.55 933.2,-543.37"/>
</g>
<!-- src/Int16.mo -->
<g id="node31" class="node">
<title>src/Int16.mo</title>
<ellipse fill="none" stroke="black" cx="67.59" cy="-522" rx="67.69" ry="18"/>
<text text-anchor="middle" x="67.59" y="-518.3" font-family="Times-Roman" font-size="14.00">src/Int16.mo</text>
</g>
<!-- src/Int16.mo&#45;&gt;src/Int.mo -->
<g id="edge57" class="edge">
<title>src/Int16.mo&#45;&gt;src/Int.mo</title>
<path fill="none" stroke="black" d="M116.8,-509.52C170.94,-496.89 257.7,-476.64 313.66,-463.58"/>
<polygon fill="black" stroke="black" points="314.79,-466.91 323.74,-461.23 313.2,-460.1 314.79,-466.91"/>
</g>
<!-- src/Random.mo -->
<g id="node32" class="node">
<title>src/Random.mo</title>
<ellipse fill="none" stroke="black" cx="732.59" cy="-378" rx="81.49" ry="18"/>
<text text-anchor="middle" x="732.59" y="-374.3" font-family="Times-Roman" font-size="14.00">src/Random.mo</text>
</g>
<!-- src/Random.mo&#45;&gt;src/Prelude.mo -->
<g id="edge60" class="edge">
<title>src/Random.mo&#45;&gt;src/Prelude.mo</title>
<path fill="none" stroke="black" d="M714.23,-360.43C704.45,-350.69 692.95,-337.64 685.59,-324 666.15,-287.94 661.59,-275.97 661.59,-235 661.59,-235 661.59,-235 661.59,-161 661.59,-119.63 676.83,-73.72 688.01,-45.61"/>
<polygon fill="black" stroke="black" points="691.35,-46.67 691.9,-36.09 684.87,-44.02 691.35,-46.67"/>
</g>
<!-- src/Random.mo&#45;&gt;src/Iter.mo -->
<g id="edge58" class="edge">
<title>src/Random.mo&#45;&gt;src/Iter.mo</title>
<path fill="none" stroke="black" d="M804.49,-369.58C833.69,-366.58 867.75,-363.1 898.59,-360 1068.92,-342.87 1269.68,-323.19 1370.66,-313.33"/>
<polygon fill="black" stroke="black" points="1371.09,-316.81 1380.7,-312.35 1370.41,-309.84 1371.09,-316.81"/>
</g>
<!-- src/Random.mo&#45;&gt;src/Option.mo -->
<g id="edge59" class="edge">
<title>src/Random.mo&#45;&gt;src/Option.mo</title>
<path fill="none" stroke="black" d="M734.74,-359.67C737.6,-341.03 743.87,-310.96 756.59,-288 797.13,-214.85 870.56,-147.6 910.98,-113.82"/>
<polygon fill="black" stroke="black" points="913.37,-116.39 918.85,-107.32 908.91,-110.99 913.37,-116.39"/>
</g>
<!-- src/RBTree.mo -->
<g id="node33" class="node">
<title>src/RBTree.mo</title>
<ellipse fill="none" stroke="black" cx="1977.59" cy="-594" rx="75.29" ry="18"/>
<text text-anchor="middle" x="1977.59" y="-590.3" font-family="Times-Roman" font-size="14.00">src/RBTree.mo</text>
</g>
<!-- src/RBTree.mo&#45;&gt;src/Iter.mo -->
<g id="edge62" class="edge">
<title>src/RBTree.mo&#45;&gt;src/Iter.mo</title>
<path fill="none" stroke="black" d="M1956.73,-576.55C1902.99,-534.87 1754.18,-423.89 1614.59,-360 1575.13,-341.94 1527.98,-328.27 1491.97,-319.34"/>
<polygon fill="black" stroke="black" points="1492.67,-315.91 1482.13,-316.95 1491.02,-322.71 1492.67,-315.91"/>
</g>
<!-- src/RBTree.mo&#45;&gt;src/List.mo -->
<g id="edge63" class="edge">
<title>src/RBTree.mo&#45;&gt;src/List.mo</title>
<path fill="none" stroke="black" d="M1977.8,-575.87C1977.45,-534.5 1971.35,-427.6 1920.59,-360 1855.57,-273.41 1724.8,-246.7 1644.25,-238.52"/>
<polygon fill="black" stroke="black" points="1644.49,-235.03 1634.2,-237.57 1643.83,-242 1644.49,-235.03"/>
</g>
<!-- src/RBTree.mo&#45;&gt;src/Order.mo -->
<g id="edge65" class="edge">
<title>src/RBTree.mo&#45;&gt;src/Order.mo</title>
<path fill="none" stroke="black" d="M1985.28,-575.91C1996.39,-549.62 2015.59,-497.45 2015.59,-451 2015.59,-451 2015.59,-451 2015.59,-161 2015.59,-108.94 1968.34,-65.28 1934.42,-40.64"/>
<polygon fill="black" stroke="black" points="1936.31,-37.69 1926.12,-34.79 1932.28,-43.41 1936.31,-37.69"/>
</g>
<!-- src/RBTree.mo&#45;&gt;src/Nat.mo -->
<g id="edge64" class="edge">
<title>src/RBTree.mo&#45;&gt;src/Nat.mo</title>
<path fill="none" stroke="black" d="M1903.95,-589.91C1687.96,-580.75 1065.58,-553.49 974.59,-540 969.18,-539.2 963.57,-538.16 957.99,-537"/>
<polygon fill="black" stroke="black" points="958.56,-533.54 948.04,-534.79 957.04,-540.37 958.56,-533.54"/>
</g>
<!-- src/Debug.mo -->
<g id="node34" class="node">
<title>src/Debug.mo</title>
<ellipse fill="none" stroke="black" cx="2116.59" cy="-522" rx="73.39" ry="18"/>
<text text-anchor="middle" x="2116.59" y="-518.3" font-family="Times-Roman" font-size="14.00">src/Debug.mo</text>
</g>
<!-- src/RBTree.mo&#45;&gt;src/Debug.mo -->
<g id="edge61" class="edge">
<title>src/RBTree.mo&#45;&gt;src/Debug.mo</title>
<path fill="none" stroke="black" d="M2008.44,-577.46C2028.6,-567.31 2055.11,-553.96 2076.84,-543.02"/>
<polygon fill="black" stroke="black" points="2078.47,-546.12 2085.83,-538.49 2075.33,-539.86 2078.47,-546.12"/>
</g>
<!-- src/Int32.mo -->
<g id="node35" class="node">
<title>src/Int32.mo</title>
<ellipse fill="none" stroke="black" cx="220.59" cy="-522" rx="67.69" ry="18"/>
<text text-anchor="middle" x="220.59" y="-518.3" font-family="Times-Roman" font-size="14.00">src/Int32.mo</text>
</g>
<!-- src/Int32.mo&#45;&gt;src/Int.mo -->
<g id="edge66" class="edge">
<title>src/Int32.mo&#45;&gt;src/Int.mo</title>
<path fill="none" stroke="black" d="M252.13,-505.98C274.47,-495.34 304.6,-481 328.47,-469.63"/>
<polygon fill="black" stroke="black" points="330.09,-472.73 337.62,-465.27 327.08,-466.41 330.09,-472.73"/>
</g>
<!-- src/Word8.mo -->
<g id="node36" class="node">
<title>src/Word8.mo</title>
<ellipse fill="none" stroke="black" cx="1144.59" cy="-594" rx="72.59" ry="18"/>
<text text-anchor="middle" x="1144.59" y="-590.3" font-family="Times-Roman" font-size="14.00">src/Word8.mo</text>
</g>
<!-- src/Word8.mo&#45;&gt;src/Nat.mo -->
<g id="edge67" class="edge">
<title>src/Word8.mo&#45;&gt;src/Nat.mo</title>
<path fill="none" stroke="black" d="M1099.64,-579.83C1059.08,-567.95 999.44,-550.49 957,-538.06"/>
<polygon fill="black" stroke="black" points="957.73,-534.62 947.15,-535.17 955.76,-541.34 957.73,-534.62"/>
</g>
<!-- src/Int8.mo -->
<g id="node37" class="node">
<title>src/Int8.mo</title>
<ellipse fill="none" stroke="black" cx="367.59" cy="-522" rx="61.99" ry="18"/>
<text text-anchor="middle" x="367.59" y="-518.3" font-family="Times-Roman" font-size="14.00">src/Int8.mo</text>
</g>
<!-- src/Int8.mo&#45;&gt;src/Int.mo -->
<g id="edge68" class="edge">
<title>src/Int8.mo&#45;&gt;src/Int.mo</title>
<path fill="none" stroke="black" d="M367.59,-503.7C367.59,-495.98 367.59,-486.71 367.59,-478.11"/>
<polygon fill="black" stroke="black" points="371.09,-478.1 367.59,-468.1 364.09,-478.1 371.09,-478.1"/>
</g>
<!-- src/Text.mo -->
<g id="node38" class="node">
<title>src/Text.mo</title>
<ellipse fill="none" stroke="black" cx="1521.59" cy="-450" rx="61.99" ry="18"/>
<text text-anchor="middle" x="1521.59" y="-446.3" font-family="Times-Roman" font-size="14.00">src/Text.mo</text>
</g>
<!-- src/Text.mo&#45;&gt;src/Hash.mo -->
<g id="edge71" class="edge">
<title>src/Text.mo&#45;&gt;src/Hash.mo</title>
<path fill="none" stroke="black" d="M1466.39,-441.94C1365.9,-429.08 1153.38,-401.88 1043.55,-387.82"/>
<polygon fill="black" stroke="black" points="1043.93,-384.34 1033.57,-386.55 1043.04,-391.29 1043.93,-384.34"/>
</g>
<!-- src/Text.mo&#45;&gt;src/Iter.mo -->
<g id="edge70" class="edge">
<title>src/Text.mo&#45;&gt;src/Iter.mo</title>
<path fill="none" stroke="black" d="M1501.58,-432.79C1490.63,-423.06 1477.52,-409.91 1468.59,-396 1456.27,-376.78 1447.62,-352.29 1442.27,-333.86"/>
<polygon fill="black" stroke="black" points="1445.6,-332.78 1439.57,-324.07 1438.86,-334.64 1445.6,-332.78"/>
</g>
<!-- src/Text.mo&#45;&gt;src/Stack.mo -->
<g id="edge72" class="edge">
<title>src/Text.mo&#45;&gt;src/Stack.mo</title>
<path fill="none" stroke="black" d="M1562.96,-436.34C1582.25,-428.13 1603.39,-415.28 1614.59,-396 1625.79,-376.73 1619.13,-351.61 1610.93,-332.97"/>
<polygon fill="black" stroke="black" points="1614.05,-331.39 1606.58,-323.88 1607.74,-334.41 1614.05,-331.39"/>
</g>
<!-- src/Char.mo -->
<g id="node39" class="node">
<title>src/Char.mo</title>
<ellipse fill="none" stroke="black" cx="1541.59" cy="-378" rx="64.19" ry="18"/>
<text text-anchor="middle" x="1541.59" y="-374.3" font-family="Times-Roman" font-size="14.00">src/Char.mo</text>
</g>
<!-- src/Text.mo&#45;&gt;src/Char.mo -->
<g id="edge69" class="edge">
<title>src/Text.mo&#45;&gt;src/Char.mo</title>
<path fill="none" stroke="black" d="M1526.44,-432.05C1528.66,-424.26 1531.36,-414.82 1533.86,-406.08"/>
<polygon fill="black" stroke="black" points="1537.28,-406.85 1536.66,-396.28 1530.55,-404.93 1537.28,-406.85"/>
</g>
<!-- src/Word64.mo -->
<g id="node40" class="node">
<title>src/Word64.mo</title>
<ellipse fill="none" stroke="black" cx="1313.59" cy="-594" rx="78.79" ry="18"/>
<text text-anchor="middle" x="1313.59" y="-590.3" font-family="Times-Roman" font-size="14.00">src/Word64.mo</text>
</g>
<!-- src/Word64.mo&#45;&gt;src/Nat.mo -->
<g id="edge73" class="edge">
<title>src/Word64.mo&#45;&gt;src/Nat.mo</title>
<path fill="none" stroke="black" d="M1256.58,-581.43C1246.6,-579.52 1236.31,-577.64 1226.59,-576 1115.04,-557.15 1085.66,-561.56 974.59,-540 969.58,-539.03 964.37,-537.92 959.18,-536.75"/>
<polygon fill="black" stroke="black" points="959.78,-533.3 949.25,-534.45 958.2,-540.12 959.78,-533.3"/>
</g>
</g>
</svg>
