<?xml version="1.0" encoding="UTF-8" standalone="no"?>
<!DOCTYPE svg PUBLIC "-//W3C//DTD SVG 1.1//EN"
 "http://www.w3.org/Graphics/SVG/1.1/DTD/svg11.dtd">
<!-- Generated by graphviz version 2.43.0 (0)
 -->
<!-- Title: Base Pages: 1 -->
<svg width="3128pt" height="620pt"
 viewBox="0.00 0.00 3128.24 620.00" xmlns="http://www.w3.org/2000/svg" xmlns:xlink="http://www.w3.org/1999/xlink">
<g id="graph0" class="graph" transform="scale(1 1) rotate(0) translate(4 616)">
<title>Base</title>
<polygon fill="white" stroke="transparent" points="-4,4 -4,-616 3124.24,-616 3124.24,4 -4,4"/>
<!-- src/Nat32.mo -->
<g id="node1" class="node">
<title>src/Nat32.mo</title>
<ellipse fill="none" stroke="black" cx="71.49" cy="-594" rx="71.49" ry="18"/>
<text text-anchor="middle" x="71.49" y="-590.3" font-family="Times-Roman" font-size="14.00">src/Nat32.mo</text>
</g>
<!-- src/Nat.mo -->
<g id="node2" class="node">
<title>src/Nat.mo</title>
<ellipse fill="none" stroke="black" cx="724.49" cy="-522" rx="59.59" ry="18"/>
<text text-anchor="middle" x="724.49" y="-518.3" font-family="Times-Roman" font-size="14.00">src/Nat.mo</text>
</g>
<!-- src/Nat32.mo&#45;&gt;src/Nat.mo -->
<g id="edge1" class="edge">
<title>src/Nat32.mo&#45;&gt;src/Nat.mo</title>
<path fill="none" stroke="black" d="M122.75,-581.32C132.59,-579.34 142.83,-577.46 152.49,-576 333.29,-548.74 548.5,-533.34 656.1,-526.8"/>
<polygon fill="black" stroke="black" points="656.4,-530.29 666.17,-526.19 655.98,-523.3 656.4,-530.29"/>
</g>
<!-- src/Int.mo -->
<g id="node3" class="node">
<title>src/Int.mo</title>
<ellipse fill="none" stroke="black" cx="2568.49" cy="-450" rx="55.79" ry="18"/>
<text text-anchor="middle" x="2568.49" y="-446.3" font-family="Times-Roman" font-size="14.00">src/Int.mo</text>
</g>
<!-- src/Nat.mo&#45;&gt;src/Int.mo -->
<g id="edge2" class="edge">
<title>src/Nat.mo&#45;&gt;src/Int.mo</title>
<path fill="none" stroke="black" d="M783.56,-518.91C875.93,-515.65 1060.17,-509.2 1216.49,-504 1716.03,-487.37 1841.39,-494.59 2340.49,-468 2396.14,-465.04 2459.32,-460.21 2505.03,-456.46"/>
<polygon fill="black" stroke="black" points="2505.42,-459.94 2515.1,-455.62 2504.84,-452.96 2505.42,-459.94"/>
</g>
<!-- src/Order.mo -->
<g id="node4" class="node">
<title>src/Order.mo</title>
<ellipse fill="none" stroke="black" cx="1018.49" cy="-18" rx="68.79" ry="18"/>
<text text-anchor="middle" x="1018.49" y="-14.3" font-family="Times-Roman" font-size="14.00">src/Order.mo</text>
</g>
<!-- src/Nat.mo&#45;&gt;src/Order.mo -->
<g id="edge3" class="edge">
<title>src/Nat.mo&#45;&gt;src/Order.mo</title>
<path fill="none" stroke="black" d="M729.55,-503.68C736.86,-477.11 749.49,-424.56 749.49,-379 749.49,-379 749.49,-379 749.49,-161 749.49,-115.85 762.6,-99.4 798.49,-72 839.07,-41.03 895.12,-27.84 940.5,-22.37"/>
<polygon fill="black" stroke="black" points="941.04,-25.83 950.6,-21.25 940.27,-18.87 941.04,-25.83"/>
</g>
<!-- src/Prelude.mo -->
<g id="node5" class="node">
<title>src/Prelude.mo</title>
<ellipse fill="none" stroke="black" cx="1674.49" cy="-18" rx="77.19" ry="18"/>
<text text-anchor="middle" x="1674.49" y="-14.3" font-family="Times-Roman" font-size="14.00">src/Prelude.mo</text>
</g>
<!-- src/Int.mo&#45;&gt;src/Prelude.mo -->
<g id="edge4" class="edge">
<title>src/Int.mo&#45;&gt;src/Prelude.mo</title>
<path fill="none" stroke="black" d="M2559.39,-432.06C2546.24,-405.98 2523.49,-354.07 2523.49,-307 2523.49,-307 2523.49,-307 2523.49,-161 2523.49,-110.95 2498.67,-95.54 2454.49,-72 2394.58,-40.08 1951.91,-25.68 1761.34,-20.91"/>
<polygon fill="black" stroke="black" points="1761.17,-17.41 1751.08,-20.66 1760.99,-24.41 1761.17,-17.41"/>
</g>
<!-- src/Hash.mo -->
<g id="node6" class="node">
<title>src/Hash.mo</title>
<ellipse fill="none" stroke="black" cx="2161.49" cy="-378" rx="66.89" ry="18"/>
<text text-anchor="middle" x="2161.49" y="-374.3" font-family="Times-Roman" font-size="14.00">src/Hash.mo</text>
</g>
<!-- src/Int.mo&#45;&gt;src/Hash.mo -->
<g id="edge5" class="edge">
<title>src/Int.mo&#45;&gt;src/Hash.mo</title>
<path fill="none" stroke="black" d="M2518.42,-441.96C2453.45,-432.6 2336.66,-415.01 2237.49,-396 2232.02,-394.95 2226.33,-393.8 2220.65,-392.6"/>
<polygon fill="black" stroke="black" points="2220.97,-389.09 2210.46,-390.42 2219.5,-395.94 2220.97,-389.09"/>
</g>
<!-- src/Iter.mo -->
<g id="node7" class="node">
<title>src/Iter.mo</title>
<ellipse fill="none" stroke="black" cx="1824.49" cy="-306" rx="58.49" ry="18"/>
<text text-anchor="middle" x="1824.49" y="-302.3" font-family="Times-Roman" font-size="14.00">src/Iter.mo</text>
</g>
<!-- src/Hash.mo&#45;&gt;src/Iter.mo -->
<g id="edge6" class="edge">
<title>src/Hash.mo&#45;&gt;src/Iter.mo</title>
<path fill="none" stroke="black" d="M2112.06,-365.79C2103.22,-363.83 2094.09,-361.83 2085.49,-360 2015.82,-345.14 1935.48,-328.97 1882.54,-318.45"/>
<polygon fill="black" stroke="black" points="1883.15,-315 1872.66,-316.48 1881.78,-321.86 1883.15,-315"/>
</g>
<!-- src/Array.mo -->
<g id="node8" class="node">
<title>src/Array.mo</title>
<ellipse fill="none" stroke="black" cx="1569.49" cy="-162" rx="66.89" ry="18"/>
<text text-anchor="middle" x="1569.49" y="-158.3" font-family="Times-Roman" font-size="14.00">src/Array.mo</text>
</g>
<!-- src/Iter.mo&#45;&gt;src/Array.mo -->
<g id="edge7" class="edge">
<title>src/Iter.mo&#45;&gt;src/Array.mo</title>
<path fill="none" stroke="black" d="M1797.2,-289.8C1751.15,-264.16 1657.96,-212.26 1606.21,-183.45"/>
<polygon fill="black" stroke="black" points="1607.8,-180.33 1597.36,-178.52 1604.39,-186.44 1607.8,-180.33"/>
</g>
<!-- src/Buffer.mo -->
<g id="node9" class="node">
<title>src/Buffer.mo</title>
<ellipse fill="none" stroke="black" cx="1773.49" cy="-90" rx="70.69" ry="18"/>
<text text-anchor="middle" x="1773.49" y="-86.3" font-family="Times-Roman" font-size="14.00">src/Buffer.mo</text>
</g>
<!-- src/Iter.mo&#45;&gt;src/Buffer.mo -->
<g id="edge8" class="edge">
<title>src/Iter.mo&#45;&gt;src/Buffer.mo</title>
<path fill="none" stroke="black" d="M1820.41,-287.85C1811.57,-250.75 1790.61,-162.81 1779.95,-118.1"/>
<polygon fill="black" stroke="black" points="1783.32,-117.15 1777.6,-108.23 1776.51,-118.77 1783.32,-117.15"/>
</g>
<!-- src/List.mo -->
<g id="node10" class="node">
<title>src/List.mo</title>
<ellipse fill="none" stroke="black" cx="1175.49" cy="-234" rx="59.59" ry="18"/>
<text text-anchor="middle" x="1175.49" y="-230.3" font-family="Times-Roman" font-size="14.00">src/List.mo</text>
</g>
<!-- src/Iter.mo&#45;&gt;src/List.mo -->
<g id="edge9" class="edge">
<title>src/Iter.mo&#45;&gt;src/List.mo</title>
<path fill="none" stroke="black" d="M1770.28,-299.15C1651.63,-286.36 1369.35,-255.91 1241.01,-242.07"/>
<polygon fill="black" stroke="black" points="1241.25,-238.57 1230.93,-240.98 1240.5,-245.53 1241.25,-238.57"/>
</g>
<!-- src/Array.mo&#45;&gt;src/Buffer.mo -->
<g id="edge10" class="edge">
<title>src/Array.mo&#45;&gt;src/Buffer.mo</title>
<path fill="none" stroke="black" d="M1609.31,-147.34C1641.96,-136.14 1688.34,-120.22 1723.49,-108.16"/>
<polygon fill="black" stroke="black" points="1724.76,-111.42 1733.08,-104.87 1722.48,-104.8 1724.76,-111.42"/>
</g>
<!-- src/IterType.mo -->
<g id="node11" class="node">
<title>src/IterType.mo</title>
<ellipse fill="none" stroke="black" cx="1566.49" cy="-90" rx="79.89" ry="18"/>
<text text-anchor="middle" x="1566.49" y="-86.3" font-family="Times-Roman" font-size="14.00">src/IterType.mo</text>
</g>
<!-- src/Array.mo&#45;&gt;src/IterType.mo -->
<g id="edge11" class="edge">
<title>src/Array.mo&#45;&gt;src/IterType.mo</title>
<path fill="none" stroke="black" d="M1568.75,-143.7C1568.42,-135.98 1568.02,-126.71 1567.66,-118.11"/>
<polygon fill="black" stroke="black" points="1571.15,-117.95 1567.23,-108.1 1564.16,-118.25 1571.15,-117.95"/>
</g>
<!-- src/Option.mo -->
<g id="node12" class="node">
<title>src/Option.mo</title>
<ellipse fill="none" stroke="black" cx="1394.49" cy="-90" rx="74.19" ry="18"/>
<text text-anchor="middle" x="1394.49" y="-86.3" font-family="Times-Roman" font-size="14.00">src/Option.mo</text>
</g>
<!-- src/Array.mo&#45;&gt;src/Option.mo -->
<g id="edge12" class="edge">
<title>src/Array.mo&#45;&gt;src/Option.mo</title>
<path fill="none" stroke="black" d="M1533.66,-146.67C1506.79,-135.92 1469.81,-121.13 1440.72,-109.49"/>
<polygon fill="black" stroke="black" points="1441.77,-106.14 1431.19,-105.68 1439.17,-112.64 1441.77,-106.14"/>
</g>
<!-- src/Result.mo -->
<g id="node13" class="node">
<title>src/Result.mo</title>
<ellipse fill="none" stroke="black" cx="1193.49" cy="-90" rx="71.49" ry="18"/>
<text text-anchor="middle" x="1193.49" y="-86.3" font-family="Times-Roman" font-size="14.00">src/Result.mo</text>
</g>
<!-- src/Array.mo&#45;&gt;src/Result.mo -->
<g id="edge13" class="edge">
<title>src/Array.mo&#45;&gt;src/Result.mo</title>
<path fill="none" stroke="black" d="M1516.02,-151.05C1448.44,-138.46 1332.16,-116.81 1259.23,-103.24"/>
<polygon fill="black" stroke="black" points="1259.7,-99.77 1249.23,-101.38 1258.42,-106.65 1259.7,-99.77"/>
</g>
<!-- src/List.mo&#45;&gt;src/Order.mo -->
<g id="edge19" class="edge">
<title>src/List.mo&#45;&gt;src/Order.mo</title>
<path fill="none" stroke="black" d="M1163.17,-216.21C1135.66,-178.7 1069.1,-87.97 1036.75,-43.88"/>
<polygon fill="black" stroke="black" points="1039.49,-41.71 1030.76,-35.71 1033.85,-45.85 1039.49,-41.71"/>
</g>
<!-- src/List.mo&#45;&gt;src/Array.mo -->
<g id="edge17" class="edge">
<title>src/List.mo&#45;&gt;src/Array.mo</title>
<path fill="none" stroke="black" d="M1225.79,-224.06C1296.97,-211.42 1427.09,-188.3 1505.2,-174.42"/>
<polygon fill="black" stroke="black" points="1506.16,-177.81 1515.39,-172.61 1504.94,-170.91 1506.16,-177.81"/>
</g>
<!-- src/List.mo&#45;&gt;src/Option.mo -->
<g id="edge18" class="edge">
<title>src/List.mo&#45;&gt;src/Option.mo</title>
<path fill="none" stroke="black" d="M1199.77,-217.26C1239.13,-191.74 1316.94,-141.29 1361.36,-112.49"/>
<polygon fill="black" stroke="black" points="1363.29,-115.4 1369.78,-107.03 1359.48,-109.53 1363.29,-115.4"/>
</g>
<!-- src/List.mo&#45;&gt;src/Result.mo -->
<g id="edge20" class="edge">
<title>src/List.mo&#45;&gt;src/Result.mo</title>
<path fill="none" stroke="black" d="M1177.66,-215.87C1180.73,-191.67 1186.37,-147.21 1190.02,-118.39"/>
<polygon fill="black" stroke="black" points="1193.53,-118.55 1191.31,-108.19 1186.58,-117.67 1193.53,-118.55"/>
</g>
<!-- src/Option.mo&#45;&gt;src/Prelude.mo -->
<g id="edge14" class="edge">
<title>src/Option.mo&#45;&gt;src/Prelude.mo</title>
<path fill="none" stroke="black" d="M1444.23,-76.57C1491.67,-64.71 1563.21,-46.82 1613.95,-34.14"/>
<polygon fill="black" stroke="black" points="1614.95,-37.49 1623.8,-31.67 1613.25,-30.7 1614.95,-37.49"/>
</g>
<!-- src/Result.mo&#45;&gt;src/Order.mo -->
<g id="edge16" class="edge">
<title>src/Result.mo&#45;&gt;src/Order.mo</title>
<path fill="none" stroke="black" d="M1156.81,-74.33C1129.79,-63.52 1092.89,-48.76 1064,-37.2"/>
<polygon fill="black" stroke="black" points="1065.12,-33.88 1054.53,-33.42 1062.52,-40.38 1065.12,-33.88"/>
</g>
<!-- src/Result.mo&#45;&gt;src/Prelude.mo -->
<g id="edge15" class="edge">
<title>src/Result.mo&#45;&gt;src/Prelude.mo</title>
<path fill="none" stroke="black" d="M1246.45,-77.86C1257.04,-75.79 1268.1,-73.73 1278.49,-72 1388.56,-53.65 1516.67,-37.43 1596.68,-27.91"/>
<polygon fill="black" stroke="black" points="1597.16,-31.38 1606.68,-26.73 1596.34,-24.43 1597.16,-31.38"/>
</g>
<!-- src/Nat16.mo -->
<g id="node14" class="node">
<title>src/Nat16.mo</title>
<ellipse fill="none" stroke="black" cx="232.49" cy="-594" rx="71.49" ry="18"/>
<text text-anchor="middle" x="232.49" y="-590.3" font-family="Times-Roman" font-size="14.00">src/Nat16.mo</text>
</g>
<!-- src/Nat16.mo&#45;&gt;src/Nat.mo -->
<g id="edge21" class="edge">
<title>src/Nat16.mo&#45;&gt;src/Nat.mo</title>
<path fill="none" stroke="black" d="M284.23,-581.51C293.93,-579.54 304,-577.61 313.49,-576 434.75,-555.49 577.33,-538.74 658.68,-529.87"/>
<polygon fill="black" stroke="black" points="659.21,-533.34 668.78,-528.78 658.46,-526.38 659.21,-533.34"/>
</g>
<!-- src/Int8.mo -->
<g id="node15" class="node">
<title>src/Int8.mo</title>
<ellipse fill="none" stroke="black" cx="3058.49" cy="-522" rx="61.99" ry="18"/>
<text text-anchor="middle" x="3058.49" y="-518.3" font-family="Times-Roman" font-size="14.00">src/Int8.mo</text>
</g>
<!-- src/Int8.mo&#45;&gt;src/Int.mo -->
<g id="edge22" class="edge">
<title>src/Int8.mo&#45;&gt;src/Int.mo</title>
<path fill="none" stroke="black" d="M3014.22,-509.45C3005.72,-507.46 2996.86,-505.54 2988.49,-504 2862.73,-480.87 2713.9,-464.7 2631.46,-456.71"/>
<polygon fill="black" stroke="black" points="2631.79,-453.23 2621.5,-455.75 2631.12,-460.19 2631.79,-453.23"/>
</g>
<!-- src/Int64.mo -->
<g id="node16" class="node">
<title>src/Int64.mo</title>
<ellipse fill="none" stroke="black" cx="2456.49" cy="-522" rx="67.69" ry="18"/>
<text text-anchor="middle" x="2456.49" y="-518.3" font-family="Times-Roman" font-size="14.00">src/Int64.mo</text>
</g>
<!-- src/Int64.mo&#45;&gt;src/Int.mo -->
<g id="edge23" class="edge">
<title>src/Int64.mo&#45;&gt;src/Int.mo</title>
<path fill="none" stroke="black" d="M2481.63,-505.29C2497.45,-495.4 2518.04,-482.53 2535.21,-471.8"/>
<polygon fill="black" stroke="black" points="2537.2,-474.68 2543.83,-466.42 2533.49,-468.75 2537.2,-474.68"/>
</g>
<!-- src/Int16.mo -->
<g id="node17" class="node">
<title>src/Int16.mo</title>
<ellipse fill="none" stroke="black" cx="2609.49" cy="-522" rx="67.69" ry="18"/>
<text text-anchor="middle" x="2609.49" y="-518.3" font-family="Times-Roman" font-size="14.00">src/Int16.mo</text>
</g>
<!-- src/Int16.mo&#45;&gt;src/Int.mo -->
<g id="edge24" class="edge">
<title>src/Int16.mo&#45;&gt;src/Int.mo</title>
<path fill="none" stroke="black" d="M2599.57,-504.05C2594.73,-495.8 2588.82,-485.7 2583.45,-476.54"/>
<polygon fill="black" stroke="black" points="2586.4,-474.65 2578.33,-467.79 2580.36,-478.19 2586.4,-474.65"/>
</g>
<!-- src/TrieSet.mo -->
<g id="node18" class="node">
<title>src/TrieSet.mo</title>
<ellipse fill="none" stroke="black" cx="1300.49" cy="-522" rx="74.99" ry="18"/>
<text text-anchor="middle" x="1300.49" y="-518.3" font-family="Times-Roman" font-size="14.00">src/TrieSet.mo</text>
</g>
<!-- src/TrieSet.mo&#45;&gt;src/Hash.mo -->
<g id="edge26" class="edge">
<title>src/TrieSet.mo&#45;&gt;src/Hash.mo</title>
<path fill="none" stroke="black" d="M1353.17,-509.12C1363.51,-507.14 1374.31,-505.3 1384.49,-504 1530.19,-485.38 1909.2,-525.19 2044.49,-468 2066.22,-458.81 2065.02,-446.67 2083.49,-432 2097.51,-420.87 2113.78,-409.58 2127.82,-400.3"/>
<polygon fill="black" stroke="black" points="2129.78,-403.2 2136.23,-394.8 2125.95,-397.34 2129.78,-403.2"/>
</g>
<!-- src/TrieSet.mo&#45;&gt;src/List.mo -->
<g id="edge27" class="edge">
<title>src/TrieSet.mo&#45;&gt;src/List.mo</title>
<path fill="none" stroke="black" d="M1225.7,-520.63C1133.66,-518.4 985.26,-508.42 950.49,-468 898.33,-407.34 900.83,-350.72 950.49,-288 970.04,-263.31 1050.17,-248.98 1109.26,-241.58"/>
<polygon fill="black" stroke="black" points="1109.78,-245.04 1119.29,-240.36 1108.94,-238.09 1109.78,-245.04"/>
</g>
<!-- src/Trie.mo -->
<g id="node19" class="node">
<title>src/Trie.mo</title>
<ellipse fill="none" stroke="black" cx="1441.49" cy="-450" rx="59.59" ry="18"/>
<text text-anchor="middle" x="1441.49" y="-446.3" font-family="Times-Roman" font-size="14.00">src/Trie.mo</text>
</g>
<!-- src/TrieSet.mo&#45;&gt;src/Trie.mo -->
<g id="edge25" class="edge">
<title>src/TrieSet.mo&#45;&gt;src/Trie.mo</title>
<path fill="none" stroke="black" d="M1331.79,-505.46C1352.66,-495.1 1380.25,-481.4 1402.54,-470.34"/>
<polygon fill="black" stroke="black" points="1404.34,-473.35 1411.74,-465.77 1401.22,-467.08 1404.34,-473.35"/>
</g>
<!-- src/Trie.mo&#45;&gt;src/Prelude.mo -->
<g id="edge28" class="edge">
<title>src/Trie.mo&#45;&gt;src/Prelude.mo</title>
<path fill="none" stroke="black" d="M1381.78,-448.92C1289.52,-447.44 1118.73,-438.81 1078.49,-396 1014.75,-328.18 1063.88,-117.18 1113.49,-72 1147.81,-40.75 1439.51,-26.71 1588.15,-21.53"/>
<polygon fill="black" stroke="black" points="1588.3,-25.03 1598.17,-21.19 1588.06,-18.03 1588.3,-25.03"/>
</g>
<!-- src/Trie.mo&#45;&gt;src/Hash.mo -->
<g id="edge30" class="edge">
<title>src/Trie.mo&#45;&gt;src/Hash.mo</title>
<path fill="none" stroke="black" d="M1497.94,-443.94C1536.64,-440.5 1589.17,-435.88 1635.49,-432 1835.43,-415.24 1887.11,-425.97 2085.49,-396 2091.4,-395.11 2097.54,-394.02 2103.64,-392.82"/>
<polygon fill="black" stroke="black" points="2104.75,-396.17 2113.85,-390.73 2103.35,-389.31 2104.75,-396.17"/>
</g>
<!-- src/Trie.mo&#45;&gt;src/Array.mo -->
<g id="edge31" class="edge">
<title>src/Trie.mo&#45;&gt;src/Array.mo</title>
<path fill="none" stroke="black" d="M1476.73,-435.26C1494.36,-426.61 1514.45,-413.68 1526.49,-396 1569.9,-332.26 1572.79,-236.92 1571.23,-190.45"/>
<polygon fill="black" stroke="black" points="1574.72,-190.09 1570.79,-180.25 1567.73,-190.4 1574.72,-190.09"/>
</g>
<!-- src/Trie.mo&#45;&gt;src/List.mo -->
<g id="edge32" class="edge">
<title>src/Trie.mo&#45;&gt;src/List.mo</title>
<path fill="none" stroke="black" d="M1382.33,-446.78C1298.56,-442.46 1151.14,-430.1 1111.49,-396 1074.29,-363.99 1064.46,-330.79 1088.49,-288 1097.26,-272.4 1112.68,-260.86 1128.12,-252.6"/>
<polygon fill="black" stroke="black" points="1129.77,-255.69 1137.17,-248.11 1126.66,-249.42 1129.77,-255.69"/>
</g>
<!-- src/Trie.mo&#45;&gt;src/Option.mo -->
<g id="edge29" class="edge">
<title>src/Trie.mo&#45;&gt;src/Option.mo</title>
<path fill="none" stroke="black" d="M1463.89,-433.06C1475.06,-423.69 1487.45,-410.8 1493.49,-396 1499.11,-382.27 1491.97,-309.05 1488.49,-288 1477.69,-222.58 1483.44,-200.96 1449.49,-144 1442.86,-132.88 1433.29,-122.53 1423.98,-113.98"/>
<polygon fill="black" stroke="black" points="1426.12,-111.2 1416.29,-107.25 1421.51,-116.47 1426.12,-111.2"/>
</g>
<!-- src/AssocList.mo -->
<g id="node20" class="node">
<title>src/AssocList.mo</title>
<ellipse fill="none" stroke="black" cx="1206.49" cy="-378" rx="85.59" ry="18"/>
<text text-anchor="middle" x="1206.49" y="-374.3" font-family="Times-Roman" font-size="14.00">src/AssocList.mo</text>
</g>
<!-- src/Trie.mo&#45;&gt;src/AssocList.mo -->
<g id="edge33" class="edge">
<title>src/Trie.mo&#45;&gt;src/AssocList.mo</title>
<path fill="none" stroke="black" d="M1400.56,-436.81C1362.62,-425.51 1305.81,-408.58 1263.45,-395.97"/>
<polygon fill="black" stroke="black" points="1264.41,-392.6 1253.83,-393.1 1262.41,-399.31 1264.41,-392.6"/>
</g>
<!-- src/AssocList.mo&#45;&gt;src/List.mo -->
<g id="edge34" class="edge">
<title>src/AssocList.mo&#45;&gt;src/List.mo</title>
<path fill="none" stroke="black" d="M1152.27,-363.98C1131.42,-356.05 1109.72,-343.53 1097.49,-324 1089.01,-310.44 1090.01,-302.14 1097.49,-288 1105.16,-273.52 1118.75,-262.26 1132.47,-253.92"/>
<polygon fill="black" stroke="black" points="1134.45,-256.82 1141.44,-248.85 1131.01,-250.72 1134.45,-256.82"/>
</g>
<!-- src/Principal.mo -->
<g id="node21" class="node">
<title>src/Principal.mo</title>
<ellipse fill="none" stroke="black" cx="2248.49" cy="-450" rx="82.59" ry="18"/>
<text text-anchor="middle" x="2248.49" y="-446.3" font-family="Times-Roman" font-size="14.00">src/Principal.mo</text>
</g>
<!-- src/Principal.mo&#45;&gt;src/Hash.mo -->
<g id="edge36" class="edge">
<title>src/Principal.mo&#45;&gt;src/Hash.mo</title>
<path fill="none" stroke="black" d="M2227.88,-432.41C2216.42,-423.19 2202,-411.59 2189.53,-401.55"/>
<polygon fill="black" stroke="black" points="2191.65,-398.77 2181.66,-395.23 2187.26,-404.22 2191.65,-398.77"/>
</g>
<!-- src/Blob.mo -->
<g id="node22" class="node">
<title>src/Blob.mo</title>
<ellipse fill="none" stroke="black" cx="2310.49" cy="-378" rx="63.89" ry="18"/>
<text text-anchor="middle" x="2310.49" y="-374.3" font-family="Times-Roman" font-size="14.00">src/Blob.mo</text>
</g>
<!-- src/Principal.mo&#45;&gt;src/Blob.mo -->
<g id="edge35" class="edge">
<title>src/Principal.mo&#45;&gt;src/Blob.mo</title>
<path fill="none" stroke="black" d="M2263.5,-432.05C2271.12,-423.46 2280.51,-412.86 2288.88,-403.4"/>
<polygon fill="black" stroke="black" points="2291.61,-405.6 2295.62,-395.79 2286.37,-400.95 2291.61,-405.6"/>
</g>
<!-- src/Nat64.mo -->
<g id="node23" class="node">
<title>src/Nat64.mo</title>
<ellipse fill="none" stroke="black" cx="393.49" cy="-594" rx="71.49" ry="18"/>
<text text-anchor="middle" x="393.49" y="-590.3" font-family="Times-Roman" font-size="14.00">src/Nat64.mo</text>
</g>
<!-- src/Nat64.mo&#45;&gt;src/Nat.mo -->
<g id="edge37" class="edge">
<title>src/Nat64.mo&#45;&gt;src/Nat.mo</title>
<path fill="none" stroke="black" d="M446.42,-581.74C455.45,-579.82 464.74,-577.85 473.49,-576 539.87,-561.94 616.13,-545.84 667.01,-535.12"/>
<polygon fill="black" stroke="black" points="667.78,-538.53 676.84,-533.04 666.33,-531.68 667.78,-538.53"/>
</g>
<!-- src/Float.mo -->
<g id="node24" class="node">
<title>src/Float.mo</title>
<ellipse fill="none" stroke="black" cx="2760.49" cy="-522" rx="65.79" ry="18"/>
<text text-anchor="middle" x="2760.49" y="-518.3" font-family="Times-Roman" font-size="14.00">src/Float.mo</text>
</g>
<!-- src/Float.mo&#45;&gt;src/Int.mo -->
<g id="edge38" class="edge">
<title>src/Float.mo&#45;&gt;src/Int.mo</title>
<path fill="none" stroke="black" d="M2722.56,-507.17C2691.23,-495.75 2646.68,-479.5 2613.54,-467.42"/>
<polygon fill="black" stroke="black" points="2614.67,-464.11 2604.08,-463.97 2612.27,-470.69 2614.67,-464.11"/>
</g>
<!-- src/Word8.mo -->
<g id="node25" class="node">
<title>src/Word8.mo</title>
<ellipse fill="none" stroke="black" cx="555.49" cy="-594" rx="72.59" ry="18"/>
<text text-anchor="middle" x="555.49" y="-590.3" font-family="Times-Roman" font-size="14.00">src/Word8.mo</text>
</g>
<!-- src/Word8.mo&#45;&gt;src/Nat.mo -->
<g id="edge39" class="edge">
<title>src/Word8.mo&#45;&gt;src/Nat.mo</title>
<path fill="none" stroke="black" d="M591.33,-578.15C617.6,-567.28 653.37,-552.46 681.23,-540.92"/>
<polygon fill="black" stroke="black" points="682.82,-544.05 690.72,-536.99 680.14,-537.58 682.82,-544.05"/>
</g>
<!-- src/Heap.mo -->
<g id="node26" class="node">
<title>src/Heap.mo</title>
<ellipse fill="none" stroke="black" cx="1416.49" cy="-378" rx="67.69" ry="18"/>
<text text-anchor="middle" x="1416.49" y="-374.3" font-family="Times-Roman" font-size="14.00">src/Heap.mo</text>
</g>
<!-- src/Heap.mo&#45;&gt;src/Order.mo -->
<g id="edge40" class="edge">
<title>src/Heap.mo&#45;&gt;src/Order.mo</title>
<path fill="none" stroke="black" d="M1359.43,-368.32C1268.97,-354.46 1102.32,-328.41 1097.49,-324 1017.14,-250.48 1013.99,-106.82 1016.56,-46.6"/>
<polygon fill="black" stroke="black" points="1020.07,-46.53 1017.09,-36.36 1013.08,-46.17 1020.07,-46.53"/>
</g>
<!-- src/Heap.mo&#45;&gt;src/Prelude.mo -->
<g id="edge41" class="edge">
<title>src/Heap.mo&#45;&gt;src/Prelude.mo</title>
<path fill="none" stroke="black" d="M1432.98,-360.46C1441.49,-350.73 1451,-337.68 1455.49,-324 1460.48,-308.8 1460.79,-303.1 1455.49,-288 1417.3,-179.13 1236.03,-159.28 1311.49,-72 1346.36,-31.67 1490.84,-21.42 1586.68,-19.16"/>
<polygon fill="black" stroke="black" points="1587.03,-22.65 1596.95,-18.94 1586.88,-15.66 1587.03,-22.65"/>
</g>
<!-- src/Heap.mo&#45;&gt;src/Iter.mo -->
<g id="edge43" class="edge">
<title>src/Heap.mo&#45;&gt;src/Iter.mo</title>
<path fill="none" stroke="black" d="M1471.94,-367.49C1548.36,-354.38 1685.54,-330.84 1764.36,-317.32"/>
<polygon fill="black" stroke="black" points="1765.34,-320.7 1774.61,-315.56 1764.16,-313.8 1765.34,-320.7"/>
</g>
<!-- src/Heap.mo&#45;&gt;src/List.mo -->
<g id="edge42" class="edge">
<title>src/Heap.mo&#45;&gt;src/List.mo</title>
<path fill="none" stroke="black" d="M1375.24,-363.74C1349.94,-354.6 1317.52,-341.04 1291.49,-324 1272.03,-311.26 1271.62,-302.59 1253.49,-288 1239.45,-276.7 1223.05,-265.31 1208.92,-256"/>
<polygon fill="black" stroke="black" points="1210.75,-253.02 1200.46,-250.49 1206.93,-258.88 1210.75,-253.02"/>
</g>
<!-- src/Stack.mo -->
<g id="node27" class="node">
<title>src/Stack.mo</title>
<ellipse fill="none" stroke="black" cx="1175.49" cy="-306" rx="68.79" ry="18"/>
<text text-anchor="middle" x="1175.49" y="-302.3" font-family="Times-Roman" font-size="14.00">src/Stack.mo</text>
</g>
<!-- src/Stack.mo&#45;&gt;src/List.mo -->
<g id="edge44" class="edge">
<title>src/Stack.mo&#45;&gt;src/List.mo</title>
<path fill="none" stroke="black" d="M1175.49,-287.7C1175.49,-279.98 1175.49,-270.71 1175.49,-262.11"/>
<polygon fill="black" stroke="black" points="1178.99,-262.1 1175.49,-252.1 1171.99,-262.1 1178.99,-262.1"/>
</g>
<!-- src/TrieMap.mo -->
<g id="node28" class="node">
<title>src/TrieMap.mo</title>
<ellipse fill="none" stroke="black" cx="1844.49" cy="-522" rx="79.09" ry="18"/>
<text text-anchor="middle" x="1844.49" y="-518.3" font-family="Times-Roman" font-size="14.00">src/TrieMap.mo</text>
</g>
<!-- src/TrieMap.mo&#45;&gt;src/Prelude.mo -->
<g id="edge46" class="edge">
<title>src/TrieMap.mo&#45;&gt;src/Prelude.mo</title>
<path fill="none" stroke="black" d="M1924.12,-520.84C2046.31,-519.21 2273.02,-510.37 2340.49,-468 2411.83,-423.2 2440.49,-391.23 2440.49,-307 2440.49,-307 2440.49,-307 2440.49,-161 2440.49,-92 1953.71,-42.77 1756.25,-25.64"/>
<polygon fill="black" stroke="black" points="1756.48,-22.15 1746.21,-24.77 1755.88,-29.12 1756.48,-22.15"/>
</g>
<!-- src/TrieMap.mo&#45;&gt;src/Hash.mo -->
<g id="edge48" class="edge">
<title>src/TrieMap.mo&#45;&gt;src/Hash.mo</title>
<path fill="none" stroke="black" d="M1920.02,-516.4C1969.42,-510.57 2033.76,-497.45 2083.49,-468 2109.83,-452.4 2131.92,-424.83 2145.8,-404.49"/>
<polygon fill="black" stroke="black" points="2148.81,-406.27 2151.4,-396 2142.97,-402.41 2148.81,-406.27"/>
</g>
<!-- src/TrieMap.mo&#45;&gt;src/Iter.mo -->
<g id="edge47" class="edge">
<title>src/TrieMap.mo&#45;&gt;src/Iter.mo</title>
<path fill="none" stroke="black" d="M1842.89,-503.85C1839.43,-466.83 1831.24,-379.18 1827.05,-334.39"/>
<polygon fill="black" stroke="black" points="1830.52,-333.86 1826.1,-324.23 1823.55,-334.51 1830.52,-333.86"/>
</g>
<!-- src/TrieMap.mo&#45;&gt;src/List.mo -->
<g id="edge49" class="edge">
<title>src/TrieMap.mo&#45;&gt;src/List.mo</title>
<path fill="none" stroke="black" d="M1772.08,-514.47C1589.83,-497.32 1123.45,-448.64 1078.49,-396 1047.27,-359.45 1047.46,-329.04 1072.49,-288 1083.42,-270.08 1102.56,-257.97 1121.4,-249.9"/>
<polygon fill="black" stroke="black" points="1122.87,-253.08 1130.88,-246.15 1120.29,-246.57 1122.87,-253.08"/>
</g>
<!-- src/TrieMap.mo&#45;&gt;src/Trie.mo -->
<g id="edge45" class="edge">
<title>src/TrieMap.mo&#45;&gt;src/Trie.mo</title>
<path fill="none" stroke="black" d="M1783.29,-510.37C1707,-497.12 1577.46,-474.62 1501.66,-461.45"/>
<polygon fill="black" stroke="black" points="1502.24,-458 1491.79,-459.74 1501.04,-464.9 1502.24,-458"/>
</g>
<!-- src/Text.mo -->
<g id="node29" class="node">
<title>src/Text.mo</title>
<ellipse fill="none" stroke="black" cx="1973.49" cy="-450" rx="61.99" ry="18"/>
<text text-anchor="middle" x="1973.49" y="-446.3" font-family="Times-Roman" font-size="14.00">src/Text.mo</text>
</g>
<!-- src/Text.mo&#45;&gt;src/Hash.mo -->
<g id="edge52" class="edge">
<title>src/Text.mo&#45;&gt;src/Hash.mo</title>
<path fill="none" stroke="black" d="M2010.19,-435.34C2039.92,-424.27 2082.02,-408.59 2114.26,-396.59"/>
<polygon fill="black" stroke="black" points="2115.78,-399.76 2123.93,-392.99 2113.33,-393.2 2115.78,-399.76"/>
</g>
<!-- src/Text.mo&#45;&gt;src/Iter.mo -->
<g id="edge51" class="edge">
<title>src/Text.mo&#45;&gt;src/Iter.mo</title>
<path fill="none" stroke="black" d="M1956.11,-432.43C1929.75,-407.32 1879.56,-359.48 1849.36,-330.69"/>
<polygon fill="black" stroke="black" points="1851.42,-327.83 1841.77,-323.46 1846.59,-332.89 1851.42,-327.83"/>
</g>
<!-- src/Text.mo&#45;&gt;src/Stack.mo -->
<g id="edge53" class="edge">
<title>src/Text.mo&#45;&gt;src/Stack.mo</title>
<path fill="none" stroke="black" d="M1918.03,-442.09C1890.27,-438.77 1856.13,-434.89 1825.49,-432 1717.68,-421.82 1438.55,-439.78 1339.49,-396 1318.21,-386.6 1320.98,-372.72 1301.49,-360 1278.53,-345.01 1250.61,-332.75 1226.9,-323.81"/>
<polygon fill="black" stroke="black" points="1227.96,-320.47 1217.37,-320.31 1225.55,-327.04 1227.96,-320.47"/>
</g>
<!-- src/Char.mo -->
<g id="node30" class="node">
<title>src/Char.mo</title>
<ellipse fill="none" stroke="black" cx="2012.49" cy="-378" rx="64.19" ry="18"/>
<text text-anchor="middle" x="2012.49" y="-374.3" font-family="Times-Roman" font-size="14.00">src/Char.mo</text>
</g>
<!-- src/Text.mo&#45;&gt;src/Char.mo -->
<g id="edge50" class="edge">
<title>src/Text.mo&#45;&gt;src/Char.mo</title>
<path fill="none" stroke="black" d="M1982.93,-432.05C1987.42,-424.01 1992.88,-414.2 1997.88,-405.23"/>
<polygon fill="black" stroke="black" points="2001.06,-406.71 2002.87,-396.28 1994.94,-403.31 2001.06,-406.71"/>
</g>
<!-- src/Deque.mo -->
<g id="node31" class="node">
<title>src/Deque.mo</title>
<ellipse fill="none" stroke="black" cx="1373.49" cy="-306" rx="73.39" ry="18"/>
<text text-anchor="middle" x="1373.49" y="-302.3" font-family="Times-Roman" font-size="14.00">src/Deque.mo</text>
</g>
<!-- src/Deque.mo&#45;&gt;src/Prelude.mo -->
<g id="edge55" class="edge">
<title>src/Deque.mo&#45;&gt;src/Prelude.mo</title>
<path fill="none" stroke="black" d="M1431.12,-294.8C1493.98,-280.51 1592.66,-248.2 1645.49,-180 1675.63,-141.1 1678.26,-81.11 1676.81,-46.4"/>
<polygon fill="black" stroke="black" points="1680.28,-45.86 1676.22,-36.07 1673.29,-46.26 1680.28,-45.86"/>
</g>
<!-- src/Deque.mo&#45;&gt;src/List.mo -->
<g id="edge54" class="edge">
<title>src/Deque.mo&#45;&gt;src/List.mo</title>
<path fill="none" stroke="black" d="M1333.43,-290.83C1301.34,-279.49 1256.26,-263.55 1222.48,-251.61"/>
<polygon fill="black" stroke="black" points="1223.42,-248.23 1212.82,-248.2 1221.08,-254.83 1223.42,-248.23"/>
</g>
<!-- src/HashMap.mo -->
<g id="node32" class="node">
<title>src/HashMap.mo</title>
<ellipse fill="none" stroke="black" cx="1730.49" cy="-450" rx="85.59" ry="18"/>
<text text-anchor="middle" x="1730.49" y="-446.3" font-family="Times-Roman" font-size="14.00">src/HashMap.mo</text>
</g>
<!-- src/HashMap.mo&#45;&gt;src/Prelude.mo -->
<g id="edge56" class="edge">
<title>src/HashMap.mo&#45;&gt;src/Prelude.mo</title>
<path fill="none" stroke="black" d="M1757.46,-432.81C1773.57,-422.79 1794.18,-409.33 1811.49,-396 1849.4,-366.82 1867.55,-365.41 1891.49,-324 1911.74,-288.98 1910.49,-275.45 1910.49,-235 1910.49,-235 1910.49,-235 1910.49,-161 1910.49,-117.45 1902.74,-100.13 1869.49,-72 1838.39,-45.69 1795.39,-32.34 1757.67,-25.61"/>
<polygon fill="black" stroke="black" points="1758.14,-22.14 1747.7,-23.96 1756.99,-29.05 1758.14,-22.14"/>
</g>
<!-- src/HashMap.mo&#45;&gt;src/Hash.mo -->
<g id="edge58" class="edge">
<title>src/HashMap.mo&#45;&gt;src/Hash.mo</title>
<path fill="none" stroke="black" d="M1801.8,-439.89C1873.66,-430.34 1987.63,-414.23 2085.49,-396 2091.2,-394.94 2097.13,-393.75 2103.04,-392.52"/>
<polygon fill="black" stroke="black" points="2103.9,-395.91 2112.95,-390.4 2102.44,-389.07 2103.9,-395.91"/>
</g>
<!-- src/HashMap.mo&#45;&gt;src/Iter.mo -->
<g id="edge59" class="edge">
<title>src/HashMap.mo&#45;&gt;src/Iter.mo</title>
<path fill="none" stroke="black" d="M1752.42,-432.46C1764.03,-422.83 1777.85,-409.87 1787.49,-396 1800.8,-376.88 1810.57,-352.23 1816.73,-333.73"/>
<polygon fill="black" stroke="black" points="1820.08,-334.74 1819.77,-324.15 1813.4,-332.62 1820.08,-334.74"/>
</g>
<!-- src/HashMap.mo&#45;&gt;src/Array.mo -->
<g id="edge57" class="edge">
<title>src/HashMap.mo&#45;&gt;src/Array.mo</title>
<path fill="none" stroke="black" d="M1671.78,-436.73C1648.38,-428.9 1623.3,-416.25 1607.49,-396 1594.97,-379.95 1578.99,-248.45 1572.47,-190.39"/>
<polygon fill="black" stroke="black" points="1575.91,-189.68 1571.33,-180.12 1568.96,-190.45 1575.91,-189.68"/>
</g>
<!-- src/HashMap.mo&#45;&gt;src/AssocList.mo -->
<g id="edge60" class="edge">
<title>src/HashMap.mo&#45;&gt;src/AssocList.mo</title>
<path fill="none" stroke="black" d="M1656.45,-440.74C1571.72,-431.07 1428.87,-414.04 1306.49,-396 1297.89,-394.73 1288.88,-393.32 1279.94,-391.87"/>
<polygon fill="black" stroke="black" points="1280.34,-388.38 1269.91,-390.21 1279.21,-395.29 1280.34,-388.38"/>
</g>
<!-- src/RBTree.mo -->
<g id="node33" class="node">
<title>src/RBTree.mo</title>
<ellipse fill="none" stroke="black" cx="1395.49" cy="-594" rx="75.29" ry="18"/>
<text text-anchor="middle" x="1395.49" y="-590.3" font-family="Times-Roman" font-size="14.00">src/RBTree.mo</text>
</g>
<!-- src/RBTree.mo&#45;&gt;src/Nat.mo -->
<g id="edge64" class="edge">
<title>src/RBTree.mo&#45;&gt;src/Nat.mo</title>
<path fill="none" stroke="black" d="M1342.35,-581.16C1332.15,-579.2 1321.52,-577.36 1311.49,-576 1085.01,-545.27 1024.56,-573.69 798.49,-540 791.92,-539.02 785.07,-537.77 778.31,-536.39"/>
<polygon fill="black" stroke="black" points="779.01,-532.96 768.5,-534.29 777.54,-539.8 779.01,-532.96"/>
</g>
<!-- src/RBTree.mo&#45;&gt;src/Order.mo -->
<g id="edge65" class="edge">
<title>src/RBTree.mo&#45;&gt;src/Order.mo</title>
<path fill="none" stroke="black" d="M1341.39,-581.38C1331.47,-579.44 1321.19,-577.55 1311.49,-576 1198.62,-557.9 812.49,-565.32 812.49,-451 812.49,-451 812.49,-451 812.49,-161 812.49,-89.71 897.15,-51.47 957.93,-33.2"/>
<polygon fill="black" stroke="black" points="959.2,-36.47 967.84,-30.33 957.26,-29.75 959.2,-36.47"/>
</g>
<!-- src/RBTree.mo&#45;&gt;src/Iter.mo -->
<g id="edge62" class="edge">
<title>src/RBTree.mo&#45;&gt;src/Iter.mo</title>
<path fill="none" stroke="black" d="M1470.6,-591.7C1668.64,-586.94 2199.47,-565.21 2340.49,-468 2371.18,-446.85 2373.58,-431.93 2383.49,-396 2387.75,-380.58 2394.26,-371.84 2383.49,-360 2351.06,-324.34 2035.02,-312.15 1893,-308.44"/>
<polygon fill="black" stroke="black" points="1892.76,-304.94 1882.68,-308.18 1892.58,-311.93 1892.76,-304.94"/>
</g>
<!-- src/RBTree.mo&#45;&gt;src/List.mo -->
<g id="edge63" class="edge">
<title>src/RBTree.mo&#45;&gt;src/List.mo</title>
<path fill="none" stroke="black" d="M1340.49,-581.59C1202.11,-552.5 850.49,-476.13 850.49,-451 850.49,-451 850.49,-451 850.49,-377 850.49,-266.65 1009.78,-241.21 1105.33,-235.88"/>
<polygon fill="black" stroke="black" points="1105.69,-239.36 1115.5,-235.37 1105.34,-232.37 1105.69,-239.36"/>
</g>
<!-- src/Debug.mo -->
<g id="node34" class="node">
<title>src/Debug.mo</title>
<ellipse fill="none" stroke="black" cx="1466.49" cy="-522" rx="73.39" ry="18"/>
<text text-anchor="middle" x="1466.49" y="-518.3" font-family="Times-Roman" font-size="14.00">src/Debug.mo</text>
</g>
<!-- src/RBTree.mo&#45;&gt;src/Debug.mo -->
<g id="edge61" class="edge">
<title>src/RBTree.mo&#45;&gt;src/Debug.mo</title>
<path fill="none" stroke="black" d="M1412.32,-576.41C1421.21,-567.65 1432.28,-556.73 1442.09,-547.06"/>
<polygon fill="black" stroke="black" points="1444.63,-549.47 1449.3,-539.96 1439.72,-544.48 1444.63,-549.47"/>
</g>
<!-- src/Word32.mo -->
<g id="node35" class="node">
<title>src/Word32.mo</title>
<ellipse fill="none" stroke="black" cx="724.49" cy="-594" rx="78.79" ry="18"/>
<text text-anchor="middle" x="724.49" y="-590.3" font-family="Times-Roman" font-size="14.00">src/Word32.mo</text>
</g>
<!-- src/Word32.mo&#45;&gt;src/Nat.mo -->
<g id="edge66" class="edge">
<title>src/Word32.mo&#45;&gt;src/Nat.mo</title>
<path fill="none" stroke="black" d="M724.49,-575.7C724.49,-567.98 724.49,-558.71 724.49,-550.11"/>
<polygon fill="black" stroke="black" points="727.99,-550.1 724.49,-540.1 720.99,-550.1 727.99,-550.1"/>
</g>
<!-- src/Random.mo -->
<g id="node36" class="node">
<title>src/Random.mo</title>
<ellipse fill="none" stroke="black" cx="1697.49" cy="-378" rx="81.49" ry="18"/>
<text text-anchor="middle" x="1697.49" y="-374.3" font-family="Times-Roman" font-size="14.00">src/Random.mo</text>
</g>
<!-- src/Random.mo&#45;&gt;src/Prelude.mo -->
<g id="edge69" class="edge">
<title>src/Random.mo&#45;&gt;src/Prelude.mo</title>
<path fill="none" stroke="black" d="M1708.89,-360.09C1742.32,-310.08 1838.7,-163 1853.49,-108 1857.65,-92.55 1863.07,-84.82 1853.49,-72 1840.15,-54.14 1789.44,-40.16 1745.39,-31.06"/>
<polygon fill="black" stroke="black" points="1746.02,-27.62 1735.53,-29.08 1744.64,-34.48 1746.02,-27.62"/>
</g>
<!-- src/Random.mo&#45;&gt;src/Iter.mo -->
<g id="edge67" class="edge">
<title>src/Random.mo&#45;&gt;src/Iter.mo</title>
<path fill="none" stroke="black" d="M1726.31,-361.12C1744.63,-351.02 1768.51,-337.86 1788.13,-327.04"/>
<polygon fill="black" stroke="black" points="1790.03,-329.99 1797.1,-322.1 1786.65,-323.86 1790.03,-329.99"/>
</g>
<!-- src/Random.mo&#45;&gt;src/Option.mo -->
<g id="edge68" class="edge">
<title>src/Random.mo&#45;&gt;src/Option.mo</title>
<path fill="none" stroke="black" d="M1699.35,-359.74C1702.93,-316.66 1705.77,-203.59 1645.49,-144 1644.65,-143.16 1533.31,-119.87 1459.22,-104.45"/>
<polygon fill="black" stroke="black" points="1459.53,-100.94 1449.02,-102.33 1458.1,-107.79 1459.53,-100.94"/>
</g>
<!-- src/Word16.mo -->
<g id="node37" class="node">
<title>src/Word16.mo</title>
<ellipse fill="none" stroke="black" cx="899.49" cy="-594" rx="78.79" ry="18"/>
<text text-anchor="middle" x="899.49" y="-590.3" font-family="Times-Roman" font-size="14.00">src/Word16.mo</text>
</g>
<!-- src/Word16.mo&#45;&gt;src/Nat.mo -->
<g id="edge70" class="edge">
<title>src/Word16.mo&#45;&gt;src/Nat.mo</title>
<path fill="none" stroke="black" d="M861.95,-577.98C834.52,-567.01 797.24,-552.1 768.42,-540.57"/>
<polygon fill="black" stroke="black" points="769.59,-537.27 759,-536.8 766.99,-543.77 769.59,-537.27"/>
</g>
<!-- src/Word64.mo -->
<g id="node38" class="node">
<title>src/Word64.mo</title>
<ellipse fill="none" stroke="black" cx="1074.49" cy="-594" rx="78.79" ry="18"/>
<text text-anchor="middle" x="1074.49" y="-590.3" font-family="Times-Roman" font-size="14.00">src/Word64.mo</text>
</g>
<!-- src/Word64.mo&#45;&gt;src/Nat.mo -->
<g id="edge71" class="edge">
<title>src/Word64.mo&#45;&gt;src/Nat.mo</title>
<path fill="none" stroke="black" d="M1016.94,-581.71C1007.12,-579.8 997.01,-577.84 987.49,-576 903.53,-559.8 882.18,-557.58 798.49,-540 792.63,-538.77 786.51,-537.44 780.41,-536.08"/>
<polygon fill="black" stroke="black" points="780.75,-532.57 770.22,-533.79 779.21,-539.4 780.75,-532.57"/>
</g>
<!-- src/Nat8.mo -->
<g id="node39" class="node">
<title>src/Nat8.mo</title>
<ellipse fill="none" stroke="black" cx="1236.49" cy="-594" rx="65.79" ry="18"/>
<text text-anchor="middle" x="1236.49" y="-590.3" font-family="Times-Roman" font-size="14.00">src/Nat8.mo</text>
</g>
<!-- src/Nat8.mo&#45;&gt;src/Nat.mo -->
<g id="edge72" class="edge">
<title>src/Nat8.mo&#45;&gt;src/Nat.mo</title>
<path fill="none" stroke="black" d="M1189.7,-581.3C1180.71,-579.33 1171.34,-577.45 1162.49,-576 1002.06,-549.75 958.93,-566.25 798.49,-540 792.18,-538.97 785.59,-537.71 779.07,-536.36"/>
<polygon fill="black" stroke="black" points="779.44,-532.86 768.92,-534.17 777.96,-539.7 779.44,-532.86"/>
</g>
<!-- src/Int32.mo -->
<g id="node40" class="node">
<title>src/Int32.mo</title>
<ellipse fill="none" stroke="black" cx="2911.49" cy="-522" rx="67.69" ry="18"/>
<text text-anchor="middle" x="2911.49" y="-518.3" font-family="Times-Roman" font-size="14.00">src/Int32.mo</text>
</g>
<!-- src/Int32.mo&#45;&gt;src/Int.mo -->
<g id="edge73" class="edge">
<title>src/Int32.mo&#45;&gt;src/Int.mo</title>
<path fill="none" stroke="black" d="M2861.66,-509.67C2852.94,-507.74 2843.96,-505.79 2835.49,-504 2763.17,-488.73 2679.54,-472.34 2625.43,-461.89"/>
<polygon fill="black" stroke="black" points="2625.83,-458.4 2615.35,-459.95 2624.5,-465.28 2625.83,-458.4"/>
</g>
</g>
</svg>
