<?xml version="1.0" encoding="UTF-8" standalone="no"?>
<!DOCTYPE svg PUBLIC "-//W3C//DTD SVG 1.1//EN"
 "http://www.w3.org/Graphics/SVG/1.1/DTD/svg11.dtd">
<!-- Generated by graphviz version 2.43.0 (0)
 -->
<!-- Title: Base Pages: 1 -->
<svg width="2331pt" height="620pt"
 viewBox="0.00 0.00 2331.19 620.00" xmlns="http://www.w3.org/2000/svg" xmlns:xlink="http://www.w3.org/1999/xlink">
<g id="graph0" class="graph" transform="scale(1 1) rotate(0) translate(4 616)">
<title>Base</title>
<polygon fill="white" stroke="transparent" points="-4,4 -4,-616 2327.19,-616 2327.19,4 -4,4"/>
<!-- src/Word64.mo -->
<g id="node1" class="node">
<title>src/Word64.mo</title>
<ellipse fill="none" stroke="black" cx="1783.74" cy="-594" rx="78.79" ry="18"/>
<text text-anchor="middle" x="1783.74" y="-590.3" font-family="Times-Roman" font-size="14.00">src/Word64.mo</text>
</g>
<!-- src/Nat.mo -->
<g id="node2" class="node">
<title>src/Nat.mo</title>
<ellipse fill="none" stroke="black" cx="1268.74" cy="-522" rx="59.59" ry="18"/>
<text text-anchor="middle" x="1268.74" y="-518.3" font-family="Times-Roman" font-size="14.00">src/Nat.mo</text>
</g>
<!-- src/Word64.mo&#45;&gt;src/Nat.mo -->
<g id="edge1" class="edge">
<title>src/Word64.mo&#45;&gt;src/Nat.mo</title>
<path fill="none" stroke="black" d="M1727.54,-581.36C1717,-579.4 1706.06,-577.51 1695.74,-576 1537.52,-552.81 1495.33,-567.2 1337.74,-540 1332.43,-539.08 1326.91,-537.98 1321.42,-536.79"/>
<polygon fill="black" stroke="black" points="1322.14,-533.36 1311.61,-534.56 1320.59,-540.19 1322.14,-533.36"/>
</g>
<!-- src/Int.mo -->
<g id="node3" class="node">
<title>src/Int.mo</title>
<ellipse fill="none" stroke="black" cx="357.74" cy="-450" rx="55.79" ry="18"/>
<text text-anchor="middle" x="357.74" y="-446.3" font-family="Times-Roman" font-size="14.00">src/Int.mo</text>
</g>
<!-- src/Nat.mo&#45;&gt;src/Int.mo -->
<g id="edge2" class="edge">
<title>src/Nat.mo&#45;&gt;src/Int.mo</title>
<path fill="none" stroke="black" d="M1220.57,-511.3C1205.62,-508.58 1189.05,-505.86 1173.74,-504 927.92,-474.14 864.85,-484.08 617.74,-468 551.09,-463.66 474.83,-458.67 422.22,-455.23"/>
<polygon fill="black" stroke="black" points="422.23,-451.72 412.02,-454.56 421.77,-458.71 422.23,-451.72"/>
</g>
<!-- src/Order.mo -->
<g id="node4" class="node">
<title>src/Order.mo</title>
<ellipse fill="none" stroke="black" cx="2042.74" cy="-18" rx="68.79" ry="18"/>
<text text-anchor="middle" x="2042.74" y="-14.3" font-family="Times-Roman" font-size="14.00">src/Order.mo</text>
</g>
<!-- src/Nat.mo&#45;&gt;src/Order.mo -->
<g id="edge3" class="edge">
<title>src/Nat.mo&#45;&gt;src/Order.mo</title>
<path fill="none" stroke="black" d="M1312.4,-509.55C1320.78,-507.55 1329.51,-505.6 1337.74,-504 1503.9,-471.71 1968.05,-511.55 2091.74,-396 2121.3,-368.39 2110.74,-347.45 2110.74,-307 2110.74,-307 2110.74,-307 2110.74,-161 2110.74,-116.36 2083.07,-70.88 2063.03,-43.8"/>
<polygon fill="black" stroke="black" points="2065.68,-41.51 2056.83,-35.68 2060.12,-45.76 2065.68,-41.51"/>
</g>
<!-- src/Prelude.mo -->
<g id="node5" class="node">
<title>src/Prelude.mo</title>
<ellipse fill="none" stroke="black" cx="1132.74" cy="-18" rx="77.19" ry="18"/>
<text text-anchor="middle" x="1132.74" y="-14.3" font-family="Times-Roman" font-size="14.00">src/Prelude.mo</text>
</g>
<!-- src/Int.mo&#45;&gt;src/Prelude.mo -->
<g id="edge4" class="edge">
<title>src/Int.mo&#45;&gt;src/Prelude.mo</title>
<path fill="none" stroke="black" d="M362.4,-431.66C369.12,-405.05 380.74,-352.45 380.74,-307 380.74,-307 380.74,-307 380.74,-161 380.74,-116.27 390.33,-96.51 427.74,-72 478.32,-38.86 868.73,-25.34 1045.86,-20.87"/>
<polygon fill="black" stroke="black" points="1046.02,-24.36 1055.93,-20.62 1045.84,-17.37 1046.02,-24.36"/>
</g>
<!-- src/Hash.mo -->
<g id="node6" class="node">
<title>src/Hash.mo</title>
<ellipse fill="none" stroke="black" cx="1085.74" cy="-378" rx="66.89" ry="18"/>
<text text-anchor="middle" x="1085.74" y="-374.3" font-family="Times-Roman" font-size="14.00">src/Hash.mo</text>
</g>
<!-- src/Int.mo&#45;&gt;src/Hash.mo -->
<g id="edge5" class="edge">
<title>src/Int.mo&#45;&gt;src/Hash.mo</title>
<path fill="none" stroke="black" d="M412.07,-445.45C519.28,-438.18 765.6,-420.24 971.74,-396 987.31,-394.17 1004.03,-391.87 1019.73,-389.55"/>
<polygon fill="black" stroke="black" points="1020.51,-392.98 1029.88,-388.04 1019.48,-386.05 1020.51,-392.98"/>
</g>
<!-- src/Iter.mo -->
<g id="node7" class="node">
<title>src/Iter.mo</title>
<ellipse fill="none" stroke="black" cx="1256.74" cy="-306" rx="58.49" ry="18"/>
<text text-anchor="middle" x="1256.74" y="-302.3" font-family="Times-Roman" font-size="14.00">src/Iter.mo</text>
</g>
<!-- src/Hash.mo&#45;&gt;src/Iter.mo -->
<g id="edge6" class="edge">
<title>src/Hash.mo&#45;&gt;src/Iter.mo</title>
<path fill="none" stroke="black" d="M1121.18,-362.5C1148.07,-351.49 1185.17,-336.3 1213.76,-324.6"/>
<polygon fill="black" stroke="black" points="1215.18,-327.8 1223.1,-320.77 1212.52,-321.32 1215.18,-327.8"/>
</g>
<!-- src/Array.mo -->
<g id="node8" class="node">
<title>src/Array.mo</title>
<ellipse fill="none" stroke="black" cx="1428.74" cy="-162" rx="66.89" ry="18"/>
<text text-anchor="middle" x="1428.74" y="-158.3" font-family="Times-Roman" font-size="14.00">src/Array.mo</text>
</g>
<!-- src/Iter.mo&#45;&gt;src/Array.mo -->
<g id="edge7" class="edge">
<title>src/Iter.mo&#45;&gt;src/Array.mo</title>
<path fill="none" stroke="black" d="M1274.25,-288.8C1294.1,-270.61 1327.62,-240.45 1357.74,-216 1370.65,-205.53 1385.31,-194.45 1397.95,-185.15"/>
<polygon fill="black" stroke="black" points="1400.32,-187.75 1406.32,-179.02 1396.19,-182.1 1400.32,-187.75"/>
</g>
<!-- src/Buffer.mo -->
<g id="node9" class="node">
<title>src/Buffer.mo</title>
<ellipse fill="none" stroke="black" cx="1231.74" cy="-90" rx="70.69" ry="18"/>
<text text-anchor="middle" x="1231.74" y="-86.3" font-family="Times-Roman" font-size="14.00">src/Buffer.mo</text>
</g>
<!-- src/Iter.mo&#45;&gt;src/Buffer.mo -->
<g id="edge8" class="edge">
<title>src/Iter.mo&#45;&gt;src/Buffer.mo</title>
<path fill="none" stroke="black" d="M1254.74,-287.85C1250.42,-250.83 1240.18,-163.18 1234.94,-118.39"/>
<polygon fill="black" stroke="black" points="1238.39,-117.76 1233.76,-108.23 1231.44,-118.57 1238.39,-117.76"/>
</g>
<!-- src/List.mo -->
<g id="node10" class="node">
<title>src/List.mo</title>
<ellipse fill="none" stroke="black" cx="1762.74" cy="-234" rx="59.59" ry="18"/>
<text text-anchor="middle" x="1762.74" y="-230.3" font-family="Times-Roman" font-size="14.00">src/List.mo</text>
</g>
<!-- src/Iter.mo&#45;&gt;src/List.mo -->
<g id="edge9" class="edge">
<title>src/Iter.mo&#45;&gt;src/List.mo</title>
<path fill="none" stroke="black" d="M1308.99,-297.77C1402.61,-284.82 1598.59,-257.71 1699.58,-243.74"/>
<polygon fill="black" stroke="black" points="1700.22,-247.18 1709.64,-242.35 1699.26,-240.25 1700.22,-247.18"/>
</g>
<!-- src/Array.mo&#45;&gt;src/Buffer.mo -->
<g id="edge10" class="edge">
<title>src/Array.mo&#45;&gt;src/Buffer.mo</title>
<path fill="none" stroke="black" d="M1389.82,-147.17C1358.59,-136.07 1314.57,-120.43 1280.9,-108.47"/>
<polygon fill="black" stroke="black" points="1281.85,-105.09 1271.26,-105.04 1279.51,-111.69 1281.85,-105.09"/>
</g>
<!-- src/IterType.mo -->
<g id="node11" class="node">
<title>src/IterType.mo</title>
<ellipse fill="none" stroke="black" cx="1566.74" cy="-90" rx="79.89" ry="18"/>
<text text-anchor="middle" x="1566.74" y="-86.3" font-family="Times-Roman" font-size="14.00">src/IterType.mo</text>
</g>
<!-- src/Array.mo&#45;&gt;src/IterType.mo -->
<g id="edge11" class="edge">
<title>src/Array.mo&#45;&gt;src/IterType.mo</title>
<path fill="none" stroke="black" d="M1458.69,-145.81C1478.66,-135.68 1505.15,-122.24 1526.9,-111.21"/>
<polygon fill="black" stroke="black" points="1528.57,-114.29 1535.9,-106.64 1525.4,-108.05 1528.57,-114.29"/>
</g>
<!-- src/Option.mo -->
<g id="node12" class="node">
<title>src/Option.mo</title>
<ellipse fill="none" stroke="black" cx="1394.74" cy="-90" rx="74.19" ry="18"/>
<text text-anchor="middle" x="1394.74" y="-86.3" font-family="Times-Roman" font-size="14.00">src/Option.mo</text>
</g>
<!-- src/Array.mo&#45;&gt;src/Option.mo -->
<g id="edge12" class="edge">
<title>src/Array.mo&#45;&gt;src/Option.mo</title>
<path fill="none" stroke="black" d="M1420.51,-144.05C1416.65,-136.09 1411.94,-126.41 1407.62,-117.51"/>
<polygon fill="black" stroke="black" points="1410.65,-115.74 1403.14,-108.28 1404.36,-118.8 1410.65,-115.74"/>
</g>
<!-- src/Result.mo -->
<g id="node13" class="node">
<title>src/Result.mo</title>
<ellipse fill="none" stroke="black" cx="1773.74" cy="-90" rx="71.49" ry="18"/>
<text text-anchor="middle" x="1773.74" y="-86.3" font-family="Times-Roman" font-size="14.00">src/Result.mo</text>
</g>
<!-- src/Array.mo&#45;&gt;src/Result.mo -->
<g id="edge13" class="edge">
<title>src/Array.mo&#45;&gt;src/Result.mo</title>
<path fill="none" stroke="black" d="M1480.39,-150.52C1541.72,-138.08 1644,-117.32 1710.15,-103.9"/>
<polygon fill="black" stroke="black" points="1710.93,-107.32 1720.04,-101.9 1709.54,-100.46 1710.93,-107.32"/>
</g>
<!-- src/List.mo&#45;&gt;src/Order.mo -->
<g id="edge19" class="edge">
<title>src/List.mo&#45;&gt;src/Order.mo</title>
<path fill="none" stroke="black" d="M1783.79,-216.92C1833.15,-179.19 1956.45,-84.95 2013.25,-41.54"/>
<polygon fill="black" stroke="black" points="2015.63,-44.12 2021.45,-35.27 2011.38,-38.56 2015.63,-44.12"/>
</g>
<!-- src/List.mo&#45;&gt;src/Array.mo -->
<g id="edge17" class="edge">
<title>src/List.mo&#45;&gt;src/Array.mo</title>
<path fill="none" stroke="black" d="M1715.25,-223.05C1656.09,-210.65 1554.94,-189.45 1490.01,-175.84"/>
<polygon fill="black" stroke="black" points="1490.42,-172.35 1479.91,-173.72 1488.98,-179.2 1490.42,-172.35"/>
</g>
<!-- src/List.mo&#45;&gt;src/Option.mo -->
<g id="edge18" class="edge">
<title>src/List.mo&#45;&gt;src/Option.mo</title>
<path fill="none" stroke="black" d="M1727.46,-219.38C1660.92,-193.71 1516.87,-138.12 1442.03,-109.25"/>
<polygon fill="black" stroke="black" points="1442.97,-105.86 1432.38,-105.52 1440.45,-112.39 1442.97,-105.86"/>
</g>
<!-- src/List.mo&#45;&gt;src/Result.mo -->
<g id="edge20" class="edge">
<title>src/List.mo&#45;&gt;src/Result.mo</title>
<path fill="none" stroke="black" d="M1764.07,-215.87C1765.95,-191.67 1769.39,-147.21 1771.62,-118.39"/>
<polygon fill="black" stroke="black" points="1775.13,-118.43 1772.41,-108.19 1768.15,-117.89 1775.13,-118.43"/>
</g>
<!-- src/Option.mo&#45;&gt;src/Prelude.mo -->
<g id="edge14" class="edge">
<title>src/Option.mo&#45;&gt;src/Prelude.mo</title>
<path fill="none" stroke="black" d="M1346.69,-76.16C1302.97,-64.48 1238.31,-47.2 1191.53,-34.7"/>
<polygon fill="black" stroke="black" points="1192.39,-31.31 1181.83,-32.11 1190.59,-38.08 1192.39,-31.31"/>
</g>
<!-- src/Result.mo&#45;&gt;src/Order.mo -->
<g id="edge16" class="edge">
<title>src/Result.mo&#45;&gt;src/Order.mo</title>
<path fill="none" stroke="black" d="M1821.53,-76.57C1867.57,-64.58 1937.26,-46.45 1986.08,-33.75"/>
<polygon fill="black" stroke="black" points="1987.06,-37.11 1995.86,-31.2 1985.3,-30.33 1987.06,-37.11"/>
</g>
<!-- src/Result.mo&#45;&gt;src/Prelude.mo -->
<g id="edge15" class="edge">
<title>src/Result.mo&#45;&gt;src/Prelude.mo</title>
<path fill="none" stroke="black" d="M1721.29,-77.64C1710.56,-75.56 1699.32,-73.56 1688.74,-72 1522.16,-47.47 1325.75,-31.83 1216.62,-24.31"/>
<polygon fill="black" stroke="black" points="1216.55,-20.8 1206.34,-23.61 1216.07,-27.78 1216.55,-20.8"/>
</g>
<!-- src/Word16.mo -->
<g id="node14" class="node">
<title>src/Word16.mo</title>
<ellipse fill="none" stroke="black" cx="638.74" cy="-594" rx="78.79" ry="18"/>
<text text-anchor="middle" x="638.74" y="-590.3" font-family="Times-Roman" font-size="14.00">src/Word16.mo</text>
</g>
<!-- src/Word16.mo&#45;&gt;src/Nat.mo -->
<g id="edge21" class="edge">
<title>src/Word16.mo&#45;&gt;src/Nat.mo</title>
<path fill="none" stroke="black" d="M694.28,-581.18C704.7,-579.24 715.53,-577.4 725.74,-576 923.64,-548.8 975.64,-565.62 1173.74,-540 1185.56,-538.47 1198.14,-536.48 1210.14,-534.4"/>
<polygon fill="black" stroke="black" points="1210.83,-537.84 1220.07,-532.65 1209.61,-530.94 1210.83,-537.84"/>
</g>
<!-- src/Int16.mo -->
<g id="node15" class="node">
<title>src/Int16.mo</title>
<ellipse fill="none" stroke="black" cx="510.74" cy="-522" rx="67.69" ry="18"/>
<text text-anchor="middle" x="510.74" y="-518.3" font-family="Times-Roman" font-size="14.00">src/Int16.mo</text>
</g>
<!-- src/Int16.mo&#45;&gt;src/Int.mo -->
<g id="edge22" class="edge">
<title>src/Int16.mo&#45;&gt;src/Int.mo</title>
<path fill="none" stroke="black" d="M478.3,-506.15C454.81,-495.41 422.91,-480.81 397.83,-469.34"/>
<polygon fill="black" stroke="black" points="399.13,-466.09 388.58,-465.11 396.22,-472.45 399.13,-466.09"/>
</g>
<!-- src/Stack.mo -->
<g id="node16" class="node">
<title>src/Stack.mo</title>
<ellipse fill="none" stroke="black" cx="1755.74" cy="-306" rx="68.79" ry="18"/>
<text text-anchor="middle" x="1755.74" y="-302.3" font-family="Times-Roman" font-size="14.00">src/Stack.mo</text>
</g>
<!-- src/Stack.mo&#45;&gt;src/List.mo -->
<g id="edge23" class="edge">
<title>src/Stack.mo&#45;&gt;src/List.mo</title>
<path fill="none" stroke="black" d="M1757.47,-287.7C1758.25,-279.98 1759.17,-270.71 1760.03,-262.11"/>
<polygon fill="black" stroke="black" points="1763.52,-262.4 1761.03,-252.1 1756.56,-261.71 1763.52,-262.4"/>
</g>
<!-- src/Nat8.mo -->
<g id="node17" class="node">
<title>src/Nat8.mo</title>
<ellipse fill="none" stroke="black" cx="800.74" cy="-594" rx="65.79" ry="18"/>
<text text-anchor="middle" x="800.74" y="-590.3" font-family="Times-Roman" font-size="14.00">src/Nat8.mo</text>
</g>
<!-- src/Nat8.mo&#45;&gt;src/Nat.mo -->
<g id="edge24" class="edge">
<title>src/Nat8.mo&#45;&gt;src/Nat.mo</title>
<path fill="none" stroke="black" d="M848.21,-581.47C857.31,-579.48 866.8,-577.55 875.74,-576 1007.19,-553.22 1041.81,-559.76 1173.74,-540 1185.28,-538.27 1197.56,-536.23 1209.34,-534.17"/>
<polygon fill="black" stroke="black" points="1210.29,-537.55 1219.53,-532.36 1209.07,-530.66 1210.29,-537.55"/>
</g>
<!-- src/Nat32.mo -->
<g id="node18" class="node">
<title>src/Nat32.mo</title>
<ellipse fill="none" stroke="black" cx="955.74" cy="-594" rx="71.49" ry="18"/>
<text text-anchor="middle" x="955.74" y="-590.3" font-family="Times-Roman" font-size="14.00">src/Nat32.mo</text>
</g>
<!-- src/Nat32.mo&#45;&gt;src/Nat.mo -->
<g id="edge25" class="edge">
<title>src/Nat32.mo&#45;&gt;src/Nat.mo</title>
<path fill="none" stroke="black" d="M1007.43,-581.44C1063.89,-568.81 1154.05,-548.65 1212.32,-535.62"/>
<polygon fill="black" stroke="black" points="1213.1,-539.03 1222.1,-533.43 1211.57,-532.2 1213.1,-539.03"/>
</g>
<!-- src/AssocList.mo -->
<g id="node19" class="node">
<title>src/AssocList.mo</title>
<ellipse fill="none" stroke="black" cx="1408.74" cy="-378" rx="85.59" ry="18"/>
<text text-anchor="middle" x="1408.74" y="-374.3" font-family="Times-Roman" font-size="14.00">src/AssocList.mo</text>
</g>
<!-- src/AssocList.mo&#45;&gt;src/List.mo -->
<g id="edge26" class="edge">
<title>src/AssocList.mo&#45;&gt;src/List.mo</title>
<path fill="none" stroke="black" d="M1474.35,-366.26C1512.96,-358.2 1561.88,-344.88 1601.74,-324 1623.82,-312.43 1623.62,-301.23 1644.74,-288 1667.39,-273.81 1694.48,-261.36 1716.99,-252.1"/>
<polygon fill="black" stroke="black" points="1718.37,-255.32 1726.33,-248.33 1715.75,-248.83 1718.37,-255.32"/>
</g>
<!-- src/Int32.mo -->
<g id="node20" class="node">
<title>src/Int32.mo</title>
<ellipse fill="none" stroke="black" cx="663.74" cy="-522" rx="67.69" ry="18"/>
<text text-anchor="middle" x="663.74" y="-518.3" font-family="Times-Roman" font-size="14.00">src/Int32.mo</text>
</g>
<!-- src/Int32.mo&#45;&gt;src/Int.mo -->
<g id="edge27" class="edge">
<title>src/Int32.mo&#45;&gt;src/Int.mo</title>
<path fill="none" stroke="black" d="M613.74,-509.82C549.94,-495.55 445.69,-472.19 427.74,-468 422.13,-466.69 416.26,-465.3 410.42,-463.9"/>
<polygon fill="black" stroke="black" points="411.2,-460.48 400.66,-461.55 409.56,-467.29 411.2,-460.48"/>
</g>
<!-- src/Principal.mo -->
<g id="node21" class="node">
<title>src/Principal.mo</title>
<ellipse fill="none" stroke="black" cx="709.74" cy="-450" rx="82.59" ry="18"/>
<text text-anchor="middle" x="709.74" y="-446.3" font-family="Times-Roman" font-size="14.00">src/Principal.mo</text>
</g>
<!-- src/Principal.mo&#45;&gt;src/Hash.mo -->
<g id="edge29" class="edge">
<title>src/Principal.mo&#45;&gt;src/Hash.mo</title>
<path fill="none" stroke="black" d="M770.57,-437.68C839.71,-424.8 952.04,-403.89 1022.26,-390.82"/>
<polygon fill="black" stroke="black" points="1023.12,-394.22 1032.31,-388.95 1021.84,-387.34 1023.12,-394.22"/>
</g>
<!-- src/Blob.mo -->
<g id="node22" class="node">
<title>src/Blob.mo</title>
<ellipse fill="none" stroke="black" cx="571.74" cy="-378" rx="63.89" ry="18"/>
<text text-anchor="middle" x="571.74" y="-374.3" font-family="Times-Roman" font-size="14.00">src/Blob.mo</text>
</g>
<!-- src/Principal.mo&#45;&gt;src/Blob.mo -->
<g id="edge28" class="edge">
<title>src/Principal.mo&#45;&gt;src/Blob.mo</title>
<path fill="none" stroke="black" d="M678.77,-433.29C658.7,-423.11 632.38,-409.76 610.86,-398.84"/>
<polygon fill="black" stroke="black" points="612.16,-395.58 601.66,-394.18 609,-401.82 612.16,-395.58"/>
</g>
<!-- src/Deque.mo -->
<g id="node23" class="node">
<title>src/Deque.mo</title>
<ellipse fill="none" stroke="black" cx="1519.74" cy="-306" rx="73.39" ry="18"/>
<text text-anchor="middle" x="1519.74" y="-302.3" font-family="Times-Roman" font-size="14.00">src/Deque.mo</text>
</g>
<!-- src/Deque.mo&#45;&gt;src/Prelude.mo -->
<g id="edge31" class="edge">
<title>src/Deque.mo&#45;&gt;src/Prelude.mo</title>
<path fill="none" stroke="black" d="M1542.23,-288.84C1595.41,-248.76 1719.81,-142.89 1655.74,-72 1627.09,-40.29 1360.37,-26.61 1219.3,-21.55"/>
<polygon fill="black" stroke="black" points="1219.07,-18.04 1208.96,-21.19 1218.83,-25.04 1219.07,-18.04"/>
</g>
<!-- src/Deque.mo&#45;&gt;src/List.mo -->
<g id="edge30" class="edge">
<title>src/Deque.mo&#45;&gt;src/List.mo</title>
<path fill="none" stroke="black" d="M1565.45,-291.83C1606.9,-279.89 1667.95,-262.31 1711.15,-249.86"/>
<polygon fill="black" stroke="black" points="1712.26,-253.19 1720.9,-247.06 1710.32,-246.46 1712.26,-253.19"/>
</g>
<!-- src/Text.mo -->
<g id="node24" class="node">
<title>src/Text.mo</title>
<ellipse fill="none" stroke="black" cx="990.74" cy="-450" rx="61.99" ry="18"/>
<text text-anchor="middle" x="990.74" y="-446.3" font-family="Times-Roman" font-size="14.00">src/Text.mo</text>
</g>
<!-- src/Text.mo&#45;&gt;src/Hash.mo -->
<g id="edge34" class="edge">
<title>src/Text.mo&#45;&gt;src/Hash.mo</title>
<path fill="none" stroke="black" d="M1012.3,-433.12C1025.09,-423.7 1041.49,-411.61 1055.55,-401.25"/>
<polygon fill="black" stroke="black" points="1057.97,-403.81 1063.94,-395.06 1053.82,-398.18 1057.97,-403.81"/>
</g>
<!-- src/Text.mo&#45;&gt;src/Iter.mo -->
<g id="edge33" class="edge">
<title>src/Text.mo&#45;&gt;src/Iter.mo</title>
<path fill="none" stroke="black" d="M989.3,-431.69C988.64,-411.63 990.87,-378.89 1009.74,-360 1022.89,-346.84 1127.09,-327.85 1195.89,-316.53"/>
<polygon fill="black" stroke="black" points="1196.46,-319.98 1205.77,-314.92 1195.34,-313.07 1196.46,-319.98"/>
</g>
<!-- src/Char.mo -->
<g id="node25" class="node">
<title>src/Char.mo</title>
<ellipse fill="none" stroke="black" cx="717.74" cy="-378" rx="64.19" ry="18"/>
<text text-anchor="middle" x="717.74" y="-374.3" font-family="Times-Roman" font-size="14.00">src/Char.mo</text>
</g>
<!-- src/Text.mo&#45;&gt;src/Char.mo -->
<g id="edge32" class="edge">
<title>src/Text.mo&#45;&gt;src/Char.mo</title>
<path fill="none" stroke="black" d="M945.97,-437.52C898.75,-425.41 824.26,-406.31 773.31,-393.25"/>
<polygon fill="black" stroke="black" points="774.01,-389.81 763.45,-390.72 772.27,-396.59 774.01,-389.81"/>
</g>
<!-- src/Word8.mo -->
<g id="node26" class="node">
<title>src/Word8.mo</title>
<ellipse fill="none" stroke="black" cx="1117.74" cy="-594" rx="72.59" ry="18"/>
<text text-anchor="middle" x="1117.74" y="-590.3" font-family="Times-Roman" font-size="14.00">src/Word8.mo</text>
</g>
<!-- src/Word8.mo&#45;&gt;src/Nat.mo -->
<g id="edge35" class="edge">
<title>src/Word8.mo&#45;&gt;src/Nat.mo</title>
<path fill="none" stroke="black" d="M1150.51,-577.81C1173.33,-567.23 1203.91,-553.05 1228.26,-541.77"/>
<polygon fill="black" stroke="black" points="1229.99,-544.82 1237.59,-537.44 1227.05,-538.47 1229.99,-544.82"/>
</g>
<!-- src/Int8.mo -->
<g id="node27" class="node">
<title>src/Int8.mo</title>
<ellipse fill="none" stroke="black" cx="61.74" cy="-522" rx="61.99" ry="18"/>
<text text-anchor="middle" x="61.74" y="-518.3" font-family="Times-Roman" font-size="14.00">src/Int8.mo</text>
</g>
<!-- src/Int8.mo&#45;&gt;src/Int.mo -->
<g id="edge36" class="edge">
<title>src/Int8.mo&#45;&gt;src/Int.mo</title>
<path fill="none" stroke="black" d="M107.67,-509.79C115.69,-507.85 123.96,-505.86 131.74,-504 190.42,-490 257.74,-474.25 303.54,-463.59"/>
<polygon fill="black" stroke="black" points="304.6,-466.93 313.55,-461.26 303.02,-460.11 304.6,-466.93"/>
</g>
<!-- src/Float.mo -->
<g id="node28" class="node">
<title>src/Float.mo</title>
<ellipse fill="none" stroke="black" cx="206.74" cy="-522" rx="65.79" ry="18"/>
<text text-anchor="middle" x="206.74" y="-518.3" font-family="Times-Roman" font-size="14.00">src/Float.mo</text>
</g>
<!-- src/Float.mo&#45;&gt;src/Int.mo -->
<g id="edge37" class="edge">
<title>src/Float.mo&#45;&gt;src/Int.mo</title>
<path fill="none" stroke="black" d="M238.77,-506.15C261.95,-495.41 293.43,-480.81 318.19,-469.34"/>
<polygon fill="black" stroke="black" points="319.71,-472.49 327.31,-465.11 316.77,-466.14 319.71,-472.49"/>
</g>
<!-- src/Nat64.mo -->
<g id="node29" class="node">
<title>src/Nat64.mo</title>
<ellipse fill="none" stroke="black" cx="1279.74" cy="-594" rx="71.49" ry="18"/>
<text text-anchor="middle" x="1279.74" y="-590.3" font-family="Times-Roman" font-size="14.00">src/Nat64.mo</text>
</g>
<!-- src/Nat64.mo&#45;&gt;src/Nat.mo -->
<g id="edge38" class="edge">
<title>src/Nat64.mo&#45;&gt;src/Nat.mo</title>
<path fill="none" stroke="black" d="M1277.03,-575.7C1275.81,-567.98 1274.36,-558.71 1273.01,-550.11"/>
<polygon fill="black" stroke="black" points="1276.44,-549.44 1271.43,-540.1 1269.53,-550.53 1276.44,-549.44"/>
</g>
<!-- src/TrieMap.mo -->
<g id="node30" class="node">
<title>src/TrieMap.mo</title>
<ellipse fill="none" stroke="black" cx="1085.74" cy="-522" rx="79.09" ry="18"/>
<text text-anchor="middle" x="1085.74" y="-518.3" font-family="Times-Roman" font-size="14.00">src/TrieMap.mo</text>
</g>
<!-- src/TrieMap.mo&#45;&gt;src/Prelude.mo -->
<g id="edge40" class="edge">
<title>src/TrieMap.mo&#45;&gt;src/Prelude.mo</title>
<path fill="none" stroke="black" d="M1009.48,-516.85C865.96,-508.59 566.25,-489.07 523.74,-468 475.55,-444.11 441.74,-432.79 441.74,-379 441.74,-379 441.74,-379 441.74,-161 441.74,-39.16 859.14,-20.94 1045.13,-18.86"/>
<polygon fill="black" stroke="black" points="1045.19,-22.36 1055.16,-18.76 1045.12,-15.36 1045.19,-22.36"/>
</g>
<!-- src/TrieMap.mo&#45;&gt;src/Hash.mo -->
<g id="edge42" class="edge">
<title>src/TrieMap.mo&#45;&gt;src/Hash.mo</title>
<path fill="none" stroke="black" d="M1085.74,-503.87C1085.74,-479.67 1085.74,-435.21 1085.74,-406.39"/>
<polygon fill="black" stroke="black" points="1089.24,-406.19 1085.74,-396.19 1082.24,-406.19 1089.24,-406.19"/>
</g>
<!-- src/TrieMap.mo&#45;&gt;src/Iter.mo -->
<g id="edge41" class="edge">
<title>src/TrieMap.mo&#45;&gt;src/Iter.mo</title>
<path fill="none" stroke="black" d="M1010.09,-516.39C896.71,-508.8 688.47,-492.1 617.74,-468 550.14,-444.96 450.03,-412.24 498.74,-360 545.22,-310.17 1010.43,-306.25 1188.19,-306.59"/>
<polygon fill="black" stroke="black" points="1188.2,-310.09 1198.21,-306.62 1188.22,-303.09 1188.2,-310.09"/>
</g>
<!-- src/TrieMap.mo&#45;&gt;src/List.mo -->
<g id="edge43" class="edge">
<title>src/TrieMap.mo&#45;&gt;src/List.mo</title>
<path fill="none" stroke="black" d="M1149.32,-511.24C1165.73,-508.79 1183.39,-506.23 1199.74,-504 1328.43,-486.42 1372.44,-523.74 1489.74,-468 1594.23,-418.35 1586.4,-358.98 1677.74,-288 1693.01,-276.14 1711.05,-264.58 1726.57,-255.3"/>
<polygon fill="black" stroke="black" points="1728.54,-258.21 1735.38,-250.12 1724.99,-252.17 1728.54,-258.21"/>
</g>
<!-- src/Trie.mo -->
<g id="node31" class="node">
<title>src/Trie.mo</title>
<ellipse fill="none" stroke="black" cx="1420.74" cy="-450" rx="59.59" ry="18"/>
<text text-anchor="middle" x="1420.74" y="-446.3" font-family="Times-Roman" font-size="14.00">src/Trie.mo</text>
</g>
<!-- src/TrieMap.mo&#45;&gt;src/Trie.mo -->
<g id="edge39" class="edge">
<title>src/TrieMap.mo&#45;&gt;src/Trie.mo</title>
<path fill="none" stroke="black" d="M1145.07,-509.97C1199.08,-499.74 1280.96,-483.76 1351.74,-468 1356.66,-466.91 1361.76,-465.73 1366.87,-464.52"/>
<polygon fill="black" stroke="black" points="1367.73,-467.91 1376.64,-462.18 1366.1,-461.11 1367.73,-467.91"/>
</g>
<!-- src/Trie.mo&#45;&gt;src/Prelude.mo -->
<g id="edge44" class="edge">
<title>src/Trie.mo&#45;&gt;src/Prelude.mo</title>
<path fill="none" stroke="black" d="M1376.13,-437.88C1322.68,-422.07 1234.72,-387.7 1189.74,-324 1128.45,-237.18 1127.78,-103.04 1130.69,-46.07"/>
<polygon fill="black" stroke="black" points="1134.19,-46.24 1131.28,-36.05 1127.2,-45.83 1134.19,-46.24"/>
</g>
<!-- src/Trie.mo&#45;&gt;src/Hash.mo -->
<g id="edge46" class="edge">
<title>src/Trie.mo&#45;&gt;src/Hash.mo</title>
<path fill="none" stroke="black" d="M1376.64,-437.82C1368.38,-435.82 1359.81,-433.8 1351.74,-432 1282.77,-416.64 1203.24,-401.07 1149.25,-390.82"/>
<polygon fill="black" stroke="black" points="1149.61,-387.33 1139.14,-388.91 1148.31,-394.21 1149.61,-387.33"/>
</g>
<!-- src/Trie.mo&#45;&gt;src/Array.mo -->
<g id="edge47" class="edge">
<title>src/Trie.mo&#45;&gt;src/Array.mo</title>
<path fill="none" stroke="black" d="M1469.92,-439.59C1494.45,-432.15 1521.96,-419.01 1536.74,-396 1545.39,-382.54 1545.92,-373.11 1536.74,-360 1509.88,-321.65 1465.66,-361.58 1437.74,-324 1408.7,-284.9 1414.98,-224.57 1421.98,-189.94"/>
<polygon fill="black" stroke="black" points="1425.42,-190.58 1424.14,-180.07 1418.59,-189.09 1425.42,-190.58"/>
</g>
<!-- src/Trie.mo&#45;&gt;src/List.mo -->
<g id="edge48" class="edge">
<title>src/Trie.mo&#45;&gt;src/List.mo</title>
<path fill="none" stroke="black" d="M1473,-441.1C1574.22,-424.59 1790.89,-383.03 1833.74,-324 1843.14,-311.05 1840.92,-302.3 1833.74,-288 1826.91,-274.37 1814.72,-263.35 1802.35,-254.96"/>
<polygon fill="black" stroke="black" points="1804.15,-251.95 1793.82,-249.57 1800.41,-257.87 1804.15,-251.95"/>
</g>
<!-- src/Trie.mo&#45;&gt;src/Option.mo -->
<g id="edge45" class="edge">
<title>src/Trie.mo&#45;&gt;src/Option.mo</title>
<path fill="none" stroke="black" d="M1457.35,-435.46C1474.72,-426.97 1493.8,-414.14 1503.74,-396 1511.43,-381.97 1512.64,-373.3 1503.74,-360 1480.49,-325.21 1446.71,-353.2 1416.74,-324 1366.58,-275.12 1367.28,-248.51 1352.74,-180 1349.42,-164.35 1347.48,-159.11 1352.74,-144 1356.37,-133.58 1363,-123.67 1369.93,-115.3"/>
<polygon fill="black" stroke="black" points="1372.58,-117.59 1376.58,-107.78 1367.33,-112.95 1372.58,-117.59"/>
</g>
<!-- src/Trie.mo&#45;&gt;src/AssocList.mo -->
<g id="edge49" class="edge">
<title>src/Trie.mo&#45;&gt;src/AssocList.mo</title>
<path fill="none" stroke="black" d="M1417.78,-431.7C1416.46,-423.98 1414.87,-414.71 1413.39,-406.11"/>
<polygon fill="black" stroke="black" points="1416.82,-405.37 1411.68,-396.1 1409.92,-406.55 1416.82,-405.37"/>
</g>
<!-- src/HashMap.mo -->
<g id="node32" class="node">
<title>src/HashMap.mo</title>
<ellipse fill="none" stroke="black" cx="1256.74" cy="-450" rx="85.59" ry="18"/>
<text text-anchor="middle" x="1256.74" y="-446.3" font-family="Times-Roman" font-size="14.00">src/HashMap.mo</text>
</g>
<!-- src/HashMap.mo&#45;&gt;src/Prelude.mo -->
<g id="edge50" class="edge">
<title>src/HashMap.mo&#45;&gt;src/Prelude.mo</title>
<path fill="none" stroke="black" d="M1239.71,-432.29C1198.12,-390.73 1094.74,-282.65 1094.74,-235 1094.74,-235 1094.74,-235 1094.74,-161 1094.74,-119.63 1109.98,-73.72 1121.16,-45.61"/>
<polygon fill="black" stroke="black" points="1124.5,-46.67 1125.05,-36.09 1118.02,-44.02 1124.5,-46.67"/>
</g>
<!-- src/HashMap.mo&#45;&gt;src/Hash.mo -->
<g id="edge52" class="edge">
<title>src/HashMap.mo&#45;&gt;src/Hash.mo</title>
<path fill="none" stroke="black" d="M1219.22,-433.64C1193.01,-422.91 1157.91,-408.54 1130.28,-397.23"/>
<polygon fill="black" stroke="black" points="1131.43,-393.92 1120.85,-393.37 1128.78,-400.4 1131.43,-393.92"/>
</g>
<!-- src/HashMap.mo&#45;&gt;src/Iter.mo -->
<g id="edge53" class="edge">
<title>src/HashMap.mo&#45;&gt;src/Iter.mo</title>
<path fill="none" stroke="black" d="M1256.74,-431.87C1256.74,-407.67 1256.74,-363.21 1256.74,-334.39"/>
<polygon fill="black" stroke="black" points="1260.24,-334.19 1256.74,-324.19 1253.24,-334.19 1260.24,-334.19"/>
</g>
<!-- src/HashMap.mo&#45;&gt;src/Array.mo -->
<g id="edge51" class="edge">
<title>src/HashMap.mo&#45;&gt;src/Array.mo</title>
<path fill="none" stroke="black" d="M1266.99,-431.97C1295.97,-383.78 1378.66,-246.28 1413.24,-188.78"/>
<polygon fill="black" stroke="black" points="1416.4,-190.32 1418.55,-179.94 1410.4,-186.71 1416.4,-190.32"/>
</g>
<!-- src/HashMap.mo&#45;&gt;src/AssocList.mo -->
<g id="edge54" class="edge">
<title>src/HashMap.mo&#45;&gt;src/AssocList.mo</title>
<path fill="none" stroke="black" d="M1290.86,-433.29C1312.96,-423.11 1341.93,-409.77 1365.62,-398.86"/>
<polygon fill="black" stroke="black" points="1367.13,-402.02 1374.75,-394.66 1364.2,-395.66 1367.13,-402.02"/>
</g>
<!-- src/TrieSet.mo -->
<g id="node33" class="node">
<title>src/TrieSet.mo</title>
<ellipse fill="none" stroke="black" cx="1421.74" cy="-522" rx="74.99" ry="18"/>
<text text-anchor="middle" x="1421.74" y="-518.3" font-family="Times-Roman" font-size="14.00">src/TrieSet.mo</text>
</g>
<!-- src/TrieSet.mo&#45;&gt;src/Hash.mo -->
<g id="edge56" class="edge">
<title>src/TrieSet.mo&#45;&gt;src/Hash.mo</title>
<path fill="none" stroke="black" d="M1366.44,-509.78C1290.26,-494.33 1162.3,-468.33 1161.74,-468 1135.67,-452.63 1114.21,-425.02 1100.82,-404.61"/>
<polygon fill="black" stroke="black" points="1103.73,-402.66 1095.42,-396.09 1097.81,-406.41 1103.73,-402.66"/>
</g>
<!-- src/TrieSet.mo&#45;&gt;src/List.mo -->
<g id="edge57" class="edge">
<title>src/TrieSet.mo&#45;&gt;src/List.mo</title>
<path fill="none" stroke="black" d="M1493.62,-517.01C1549.34,-511.54 1627.17,-498.61 1688.74,-468 1775.01,-425.12 1811.28,-411.88 1850.74,-324 1857.3,-309.4 1858.62,-301.93 1850.74,-288 1841.87,-272.29 1826.27,-260.73 1810.64,-252.48"/>
<polygon fill="black" stroke="black" points="1812.01,-249.25 1801.49,-248 1808.94,-255.54 1812.01,-249.25"/>
</g>
<!-- src/TrieSet.mo&#45;&gt;src/Trie.mo -->
<g id="edge55" class="edge">
<title>src/TrieSet.mo&#45;&gt;src/Trie.mo</title>
<path fill="none" stroke="black" d="M1421.5,-503.7C1421.39,-495.98 1421.25,-486.71 1421.13,-478.11"/>
<polygon fill="black" stroke="black" points="1424.63,-478.05 1420.99,-468.1 1417.63,-478.15 1424.63,-478.05"/>
</g>
<!-- src/Heap.mo -->
<g id="node34" class="node">
<title>src/Heap.mo</title>
<ellipse fill="none" stroke="black" cx="2014.74" cy="-378" rx="67.69" ry="18"/>
<text text-anchor="middle" x="2014.74" y="-374.3" font-family="Times-Roman" font-size="14.00">src/Heap.mo</text>
</g>
<!-- src/Heap.mo&#45;&gt;src/Order.mo -->
<g id="edge58" class="edge">
<title>src/Heap.mo&#45;&gt;src/Order.mo</title>
<path fill="none" stroke="black" d="M2020.41,-359.73C2028.59,-333.21 2042.74,-280.73 2042.74,-235 2042.74,-235 2042.74,-235 2042.74,-161 2042.74,-121 2042.74,-74.65 2042.74,-46.08"/>
<polygon fill="black" stroke="black" points="2046.24,-46.05 2042.74,-36.05 2039.24,-46.05 2046.24,-46.05"/>
</g>
<!-- src/Heap.mo&#45;&gt;src/Prelude.mo -->
<g id="edge59" class="edge">
<title>src/Heap.mo&#45;&gt;src/Prelude.mo</title>
<path fill="none" stroke="black" d="M2012.77,-359.98C2009.85,-333.36 2004.74,-280.23 2004.74,-235 2004.74,-235 2004.74,-235 2004.74,-161 2004.74,-83.1 1928.1,-95.24 1853.74,-72 1737.8,-35.75 1384.97,-24.02 1219.78,-20.45"/>
<polygon fill="black" stroke="black" points="1219.72,-16.95 1209.65,-20.24 1219.57,-23.95 1219.72,-16.95"/>
</g>
<!-- src/Heap.mo&#45;&gt;src/Iter.mo -->
<g id="edge61" class="edge">
<title>src/Heap.mo&#45;&gt;src/Iter.mo</title>
<path fill="none" stroke="black" d="M1951.99,-371.28C1846,-361.6 1624.8,-341.38 1437.74,-324 1399.44,-320.44 1356.58,-316.42 1322.18,-313.18"/>
<polygon fill="black" stroke="black" points="1322.08,-309.65 1311.79,-312.2 1321.42,-316.62 1322.08,-309.65"/>
</g>
<!-- src/Heap.mo&#45;&gt;src/List.mo -->
<g id="edge60" class="edge">
<title>src/Heap.mo&#45;&gt;src/List.mo</title>
<path fill="none" stroke="black" d="M2005.34,-359.97C1993.38,-339.85 1970.85,-306.75 1942.74,-288 1907.95,-264.78 1862.76,-251.52 1826.37,-244.07"/>
<polygon fill="black" stroke="black" points="1826.84,-240.59 1816.35,-242.12 1825.5,-247.46 1826.84,-240.59"/>
</g>
<!-- src/Word32.mo -->
<g id="node35" class="node">
<title>src/Word32.mo</title>
<ellipse fill="none" stroke="black" cx="1447.74" cy="-594" rx="78.79" ry="18"/>
<text text-anchor="middle" x="1447.74" y="-590.3" font-family="Times-Roman" font-size="14.00">src/Word32.mo</text>
</g>
<!-- src/Word32.mo&#45;&gt;src/Nat.mo -->
<g id="edge62" class="edge">
<title>src/Word32.mo&#45;&gt;src/Nat.mo</title>
<path fill="none" stroke="black" d="M1409.78,-578.15C1381.57,-567.12 1342.99,-552.03 1313.31,-540.43"/>
<polygon fill="black" stroke="black" points="1314.2,-537.02 1303.62,-536.64 1311.65,-543.54 1314.2,-537.02"/>
</g>
<!-- src/Random.mo -->
<g id="node36" class="node">
<title>src/Random.mo</title>
<ellipse fill="none" stroke="black" cx="881.74" cy="-378" rx="81.49" ry="18"/>
<text text-anchor="middle" x="881.74" y="-374.3" font-family="Times-Roman" font-size="14.00">src/Random.mo</text>
</g>
<!-- src/Random.mo&#45;&gt;src/Prelude.mo -->
<g id="edge65" class="edge">
<title>src/Random.mo&#45;&gt;src/Prelude.mo</title>
<path fill="none" stroke="black" d="M900.62,-360.23C926.21,-335.56 968.74,-286.75 968.74,-235 968.74,-235 968.74,-235 968.74,-161 968.74,-99.92 1034.57,-59.24 1082.82,-37.62"/>
<polygon fill="black" stroke="black" points="1084.42,-40.74 1092.21,-33.55 1081.64,-34.32 1084.42,-40.74"/>
</g>
<!-- src/Random.mo&#45;&gt;src/Iter.mo -->
<g id="edge63" class="edge">
<title>src/Random.mo&#45;&gt;src/Iter.mo</title>
<path fill="none" stroke="black" d="M941.99,-365.75C1012.44,-352.6 1128.27,-330.98 1198.04,-317.96"/>
<polygon fill="black" stroke="black" points="1198.81,-321.38 1207.99,-316.1 1197.52,-314.49 1198.81,-321.38"/>
</g>
<!-- src/Random.mo&#45;&gt;src/Option.mo -->
<g id="edge64" class="edge">
<title>src/Random.mo&#45;&gt;src/Option.mo</title>
<path fill="none" stroke="black" d="M912.37,-361.25C932.47,-350.83 959.27,-336.79 982.74,-324 1122.58,-247.79 1286.81,-153.44 1358.36,-112.09"/>
<polygon fill="black" stroke="black" points="1360.52,-114.88 1367.43,-106.84 1357.02,-108.82 1360.52,-114.88"/>
</g>
<!-- src/RBTree.mo -->
<g id="node37" class="node">
<title>src/RBTree.mo</title>
<ellipse fill="none" stroke="black" cx="1956.74" cy="-594" rx="75.29" ry="18"/>
<text text-anchor="middle" x="1956.74" y="-590.3" font-family="Times-Roman" font-size="14.00">src/RBTree.mo</text>
</g>
<!-- src/RBTree.mo&#45;&gt;src/Nat.mo -->
<g id="edge69" class="edge">
<title>src/RBTree.mo&#45;&gt;src/Nat.mo</title>
<path fill="none" stroke="black" d="M1903.42,-581.23C1892.96,-579.24 1882.04,-577.37 1871.74,-576 1635.95,-544.61 1572.79,-576.59 1337.74,-540 1332.33,-539.16 1326.73,-538.1 1321.15,-536.92"/>
<polygon fill="black" stroke="black" points="1321.73,-533.46 1311.21,-534.69 1320.2,-540.29 1321.73,-533.46"/>
</g>
<!-- src/RBTree.mo&#45;&gt;src/Order.mo -->
<g id="edge70" class="edge">
<title>src/RBTree.mo&#45;&gt;src/Order.mo</title>
<path fill="none" stroke="black" d="M2005.19,-580.2C2062.07,-561.9 2148.74,-522.31 2148.74,-451 2148.74,-451 2148.74,-451 2148.74,-161 2148.74,-110.59 2105.32,-66.54 2074.06,-41.35"/>
<polygon fill="black" stroke="black" points="2076.04,-38.46 2066.01,-35.06 2071.73,-43.98 2076.04,-38.46"/>
</g>
<!-- src/RBTree.mo&#45;&gt;src/Iter.mo -->
<g id="edge67" class="edge">
<title>src/RBTree.mo&#45;&gt;src/Iter.mo</title>
<path fill="none" stroke="black" d="M1931.29,-576.82C1864.09,-534.82 1675.3,-421.31 1503.74,-360 1442.89,-338.25 1370.26,-323.98 1319.57,-315.79"/>
<polygon fill="black" stroke="black" points="1319.84,-312.28 1309.42,-314.18 1318.75,-319.2 1319.84,-312.28"/>
</g>
<!-- src/RBTree.mo&#45;&gt;src/List.mo -->
<g id="edge68" class="edge">
<title>src/RBTree.mo&#45;&gt;src/List.mo</title>
<path fill="none" stroke="black" d="M1956.26,-575.99C1953.99,-525.99 1941.01,-377.39 1866.74,-288 1852.83,-271.26 1832.29,-259.23 1813.12,-250.91"/>
<polygon fill="black" stroke="black" points="1814.44,-247.67 1803.86,-247.12 1811.79,-254.15 1814.44,-247.67"/>
</g>
<!-- src/Debug.mo -->
<g id="node38" class="node">
<title>src/Debug.mo</title>
<ellipse fill="none" stroke="black" cx="2249.74" cy="-522" rx="73.39" ry="18"/>
<text text-anchor="middle" x="2249.74" y="-518.3" font-family="Times-Roman" font-size="14.00">src/Debug.mo</text>
</g>
<!-- src/RBTree.mo&#45;&gt;src/Debug.mo -->
<g id="edge66" class="edge">
<title>src/RBTree.mo&#45;&gt;src/Debug.mo</title>
<path fill="none" stroke="black" d="M2008.12,-580.73C2058.54,-568.68 2135.44,-550.31 2188.89,-537.54"/>
<polygon fill="black" stroke="black" points="2190.01,-540.87 2198.92,-535.14 2188.38,-534.06 2190.01,-540.87"/>
</g>
<!-- src/Nat16.mo -->
<g id="node39" class="node">
<title>src/Nat16.mo</title>
<ellipse fill="none" stroke="black" cx="1615.74" cy="-594" rx="71.49" ry="18"/>
<text text-anchor="middle" x="1615.74" y="-590.3" font-family="Times-Roman" font-size="14.00">src/Nat16.mo</text>
</g>
<!-- src/Nat16.mo&#45;&gt;src/Nat.mo -->
<g id="edge71" class="edge">
<title>src/Nat16.mo&#45;&gt;src/Nat.mo</title>
<path fill="none" stroke="black" d="M1563.29,-581.62C1554.12,-579.7 1544.66,-577.76 1535.74,-576 1447.99,-558.7 1425.21,-558.71 1337.74,-540 1332.82,-538.95 1327.71,-537.8 1322.6,-536.61"/>
<polygon fill="black" stroke="black" points="1323.36,-533.19 1312.82,-534.29 1321.74,-540 1323.36,-533.19"/>
</g>
<!-- src/Int64.mo -->
<g id="node40" class="node">
<title>src/Int64.mo</title>
<ellipse fill="none" stroke="black" cx="357.74" cy="-522" rx="67.69" ry="18"/>
<text text-anchor="middle" x="357.74" y="-518.3" font-family="Times-Roman" font-size="14.00">src/Int64.mo</text>
</g>
<!-- src/Int64.mo&#45;&gt;src/Int.mo -->
<g id="edge72" class="edge">
<title>src/Int64.mo&#45;&gt;src/Int.mo</title>
<path fill="none" stroke="black" d="M357.74,-503.7C357.74,-495.98 357.74,-486.71 357.74,-478.11"/>
<polygon fill="black" stroke="black" points="361.24,-478.1 357.74,-468.1 354.24,-478.1 361.24,-478.1"/>
</g>
</g>
</svg>
